G04*
G04 #@! TF.GenerationSoftware,Altium Limited,Altium Designer,24.2.2 (26)*
G04*
G04 Layer_Color=8388736*
%FSLAX26Y26*%
%MOIN*%
G70*
G04*
G04 #@! TF.SameCoordinates,46F5A5B2-6880-422F-88BA-D3FAC370E1DB*
G04*
G04*
G04 #@! TF.FilePolarity,Positive*
G04*
G01*
G75*
%ADD10C,0.011811*%
%ADD100C,0.003937*%
D10*
X3366414Y1988150D02*
G03*
X3366414Y1988150I-5906J0D01*
G01*
X3418231Y2461732D02*
G03*
X3418231Y2461732I-5906J0D01*
G01*
X3607264Y3442874D02*
G03*
X3607264Y3442874I-5906J0D01*
G01*
X728614Y588820D02*
G03*
X728614Y588820I-5906J0D01*
G01*
X728532Y792436D02*
G03*
X728532Y792436I-5906J0D01*
G01*
X3097026Y587472D02*
G03*
X3097026Y587472I-5906J0D01*
G01*
X2852423Y781694D02*
G03*
X2852423Y781694I-5906J0D01*
G01*
D100*
X2772128Y1384307D02*
G03*
X2752443Y1364622I0J-19685D01*
G01*
Y1053599D02*
G03*
X2772128Y1033914I19685J0D01*
G01*
X3201262D02*
G03*
X3220947Y1053599I0J19685D01*
G01*
Y1364622D02*
G03*
X3201262Y1384307I-19685J0D01*
G01*
X2818654Y1082970D02*
G03*
X2818654Y1082970I-19685J0D01*
G01*
X1282482Y3344331D02*
G03*
X1282482Y3344331I-125000J0D01*
G01*
X1265532D02*
G03*
X1265532Y3344331I-108050J0D01*
G01*
X1262797D02*
G03*
X1262797Y3344331I-105315J0D01*
G01*
X1258072D02*
G03*
X1258072Y3344331I-100591J0D01*
G01*
X1248623D02*
G03*
X1248623Y3344331I-91142J0D01*
G01*
X1238190D02*
G03*
X1238190Y3344331I-80709J0D01*
G01*
X1182482D02*
G03*
X1182482Y3344331I-25000J0D01*
G01*
X1157482Y3368938D02*
G03*
X1157482Y3319725I7109J-24606D01*
G01*
D02*
G03*
X1157482Y3368938I-7109J24606D01*
G01*
Y3366969D02*
G03*
X1157482Y3321693I7228J-22638D01*
G01*
D02*
G03*
X1157482Y3366969I-7228J22638D01*
G01*
X928928Y2990778D02*
G03*
X928928Y2990778I-125000J0D01*
G01*
X911978D02*
G03*
X911978Y2990778I-108050J0D01*
G01*
X909243D02*
G03*
X909243Y2990778I-105315J0D01*
G01*
X904519D02*
G03*
X904519Y2990778I-100591J0D01*
G01*
X895070D02*
G03*
X895070Y2990778I-91142J0D01*
G01*
X884637D02*
G03*
X884637Y2990778I-80709J0D01*
G01*
X828928D02*
G03*
X828928Y2990778I-25000J0D01*
G01*
X803928Y3015384D02*
G03*
X803928Y2966171I7109J-24606D01*
G01*
D02*
G03*
X803928Y3015384I-7109J24606D01*
G01*
Y3013416D02*
G03*
X803928Y2968140I7228J-22638D01*
G01*
D02*
G03*
X803928Y3013416I-7228J22638D01*
G01*
X2304134Y301772D02*
G03*
X2304134Y301772I-125000J0D01*
G01*
X2287184D02*
G03*
X2287184Y301772I-108050J0D01*
G01*
X2284449D02*
G03*
X2284449Y301772I-105315J0D01*
G01*
X2279724D02*
G03*
X2279724Y301772I-100591J0D01*
G01*
X2270276D02*
G03*
X2270276Y301772I-91142J0D01*
G01*
X2259843D02*
G03*
X2259843Y301772I-80709J0D01*
G01*
X2204134D02*
G03*
X2204134Y301772I-25000J0D01*
G01*
X2161735Y284373D02*
G03*
X2196533Y319171I12373J22426D01*
G01*
X2196533Y319171D02*
G03*
X2161735Y284373I-12373J-22426D01*
G01*
X2163126Y285765D02*
G03*
X2195141Y317779I10896J21119D01*
G01*
X2195141Y317779D02*
G03*
X2163126Y285764I-10896J-21119D01*
G01*
X1804134Y301772D02*
G03*
X1804134Y301772I-125000J0D01*
G01*
X1787184D02*
G03*
X1787184Y301772I-108050J0D01*
G01*
X1784449D02*
G03*
X1784449Y301772I-105315J0D01*
G01*
X1779724D02*
G03*
X1779724Y301772I-100591J0D01*
G01*
X1770275D02*
G03*
X1770275Y301772I-91142J0D01*
G01*
X1759842D02*
G03*
X1759842Y301772I-80709J0D01*
G01*
X1704134D02*
G03*
X1704134Y301772I-25000J0D01*
G01*
X1661735Y319171D02*
G03*
X1696533Y284373I22426J-12373D01*
G01*
X1696533Y284373D02*
G03*
X1661735Y319171I-22426J12373D01*
G01*
X1663127Y317779D02*
G03*
X1695141Y285765I21119J-10896D01*
G01*
X1695141Y285764D02*
G03*
X1663126Y317779I-21119J10896D01*
G01*
X285764Y1702497D02*
G03*
X317779Y1734511I10896J21119D01*
G01*
X317779Y1734511D02*
G03*
X285765Y1702496I-10896J-21119D01*
G01*
X284373Y1701105D02*
G03*
X319171Y1735903I12373J22426D01*
G01*
X319171Y1735903D02*
G03*
X284373Y1701105I-12373J-22426D01*
G01*
X326772Y1718504D02*
G03*
X326772Y1718504I-25000J0D01*
G01*
X382481D02*
G03*
X382481Y1718504I-80709J0D01*
G01*
X392914D02*
G03*
X392914Y1718504I-91142J0D01*
G01*
X402363D02*
G03*
X402363Y1718504I-100591J0D01*
G01*
X407087D02*
G03*
X407087Y1718504I-105315J0D01*
G01*
X409822D02*
G03*
X409822Y1718504I-108050J0D01*
G01*
X426772D02*
G03*
X426772Y1718504I-125000J0D01*
G01*
X285765Y2234511D02*
G03*
X317779Y2202497I21119J-10896D01*
G01*
X317779Y2202497D02*
G03*
X285764Y2234511I-21119J10896D01*
G01*
X284373Y2235903D02*
G03*
X319171Y2201105I22426J-12373D01*
G01*
X319171Y2201105D02*
G03*
X284373Y2235903I-22426J12373D01*
G01*
X326772Y2218504D02*
G03*
X326772Y2218504I-25000J0D01*
G01*
X382481D02*
G03*
X382481Y2218504I-80709J0D01*
G01*
X392914D02*
G03*
X392914Y2218504I-91142J0D01*
G01*
X402363D02*
G03*
X402363Y2218504I-100591J0D01*
G01*
X407087D02*
G03*
X407087Y2218504I-105315J0D01*
G01*
X409822D02*
G03*
X409822Y2218504I-108050J0D01*
G01*
X426772D02*
G03*
X426772Y2218504I-125000J0D01*
G01*
X1902559Y3635236D02*
G03*
X1902559Y3635236I-125000J0D01*
G01*
X1885609D02*
G03*
X1885609Y3635236I-108050J0D01*
G01*
X1882874D02*
G03*
X1882874Y3635236I-105315J0D01*
G01*
X1878150D02*
G03*
X1878150Y3635236I-100591J0D01*
G01*
X1868701D02*
G03*
X1868701Y3635236I-91142J0D01*
G01*
X1858268D02*
G03*
X1858268Y3635236I-80709J0D01*
G01*
X1802559D02*
G03*
X1802559Y3635236I-25000J0D01*
G01*
X1794958Y3652635D02*
G03*
X1760160Y3617837I-12373J-22426D01*
G01*
X1760160Y3617837D02*
G03*
X1794958Y3652635I12373J22426D01*
G01*
X1793566Y3651243D02*
G03*
X1761552Y3619229I-10896J-21119D01*
G01*
X1761552Y3619229D02*
G03*
X1793566Y3651243I10896J21119D01*
G01*
X2261552D02*
G03*
X2293566Y3619229I21119J-10896D01*
G01*
X2293566Y3619229D02*
G03*
X2261552Y3651243I-21119J10896D01*
G01*
X2260160Y3652635D02*
G03*
X2294958Y3617837I22426J-12373D01*
G01*
X2294958Y3617837D02*
G03*
X2260160Y3652635I-22426J12373D01*
G01*
X2302559Y3635236D02*
G03*
X2302559Y3635236I-25000J0D01*
G01*
X2358268D02*
G03*
X2358268Y3635236I-80709J0D01*
G01*
X2368701D02*
G03*
X2368701Y3635236I-91142J0D01*
G01*
X2378150D02*
G03*
X2378150Y3635236I-100591J0D01*
G01*
X2382874D02*
G03*
X2382874Y3635236I-105315J0D01*
G01*
X2385609D02*
G03*
X2385609Y3635236I-108050J0D01*
G01*
X2402559D02*
G03*
X2402559Y3635236I-125000J0D01*
G01*
X1875403Y1738782D02*
X1914773D01*
X1875403Y1719097D02*
Y1738782D01*
Y1719097D02*
X1914773D01*
Y1738782D01*
X1943495D02*
X1982865D01*
X1943495Y1719097D02*
Y1738782D01*
Y1719097D02*
X1982865D01*
Y1738782D01*
X2320472Y1803976D02*
Y1926024D01*
Y1803976D02*
X2379528D01*
Y1926024D01*
X2320472D02*
X2379528D01*
X3330508Y1968150D02*
X3420149D01*
Y1868150D02*
Y1968150D01*
X3330508Y1868150D02*
X3420149D01*
X3330508D02*
Y1968150D01*
X3640867D02*
X3730509D01*
Y1868150D02*
Y1968150D01*
X3640867Y1868150D02*
X3730509D01*
X3640867D02*
Y1968150D01*
X3668009Y1930648D02*
X3693011D01*
Y1905648D02*
Y1930648D01*
X3668011Y1905648D02*
X3693011D01*
X3668011D02*
Y1930648D01*
X3420149Y1948150D02*
X3440867D01*
X3420149Y1888150D02*
X3440867D01*
X3368011Y1905648D02*
X3393011D01*
X3368008Y1930648D02*
X3368011Y1905648D01*
X3368008Y1930648D02*
X3393006D01*
X3393008Y1905651D01*
X3620149Y1948150D02*
X3640867D01*
X3620149Y1888150D02*
X3640867D01*
X3520149Y1948150D02*
X3540867D01*
X3520149Y1888150D02*
X3540867D01*
X3468011Y1905648D02*
X3493011D01*
X3468008Y1930648D02*
X3468011Y1905648D01*
X3468008Y1930648D02*
X3493006D01*
X3493008Y1905651D01*
X3568011Y1905648D02*
X3593011D01*
X3568008Y1930648D02*
X3568011Y1905648D01*
X3568008Y1930648D02*
X3593006D01*
X3593008Y1905651D01*
X3440867Y1868150D02*
Y1968150D01*
Y1868150D02*
X3520149D01*
Y1968150D01*
X3440867D02*
X3520149D01*
X3540867D02*
X3620149D01*
Y1868150D02*
Y1968150D01*
X3540867Y1868150D02*
X3620149D01*
X3540867D02*
Y1968150D01*
X3592687Y2341732D02*
X3682328D01*
X3571969Y2361732D02*
X3592687D01*
X3519827Y2404231D02*
X3519830Y2379231D01*
X3619830D02*
X3644830D01*
Y2404231D01*
X3619828D02*
X3644830D01*
X3519830Y2379231D02*
X3544830D01*
X3544825Y2404231D02*
X3544828Y2379233D01*
X3492686Y2341732D02*
X3571969D01*
X3382327D02*
X3471968D01*
Y2361732D02*
X3492686D01*
X3419830Y2379231D02*
X3444830D01*
X3519827Y2404231D02*
X3544825D01*
X3444825D02*
X3444827Y2379233D01*
X3419827Y2404231D02*
X3444825D01*
X3619830Y2379231D02*
Y2404231D01*
X3592687Y2341732D02*
Y2441732D01*
X3682328Y2341732D02*
Y2441732D01*
X3571969Y2341732D02*
Y2441732D01*
X3492686Y2341732D02*
Y2441732D01*
X3592687D02*
X3682328D01*
X3571969Y2421732D02*
X3592687D01*
X3492686Y2441732D02*
X3571969D01*
X3471968Y2341732D02*
Y2441732D01*
X3419827Y2404231D02*
X3419830Y2379231D01*
X3382327Y2341732D02*
Y2441732D01*
X3471968Y2421732D02*
X3492686D01*
X3382327Y2441732D02*
X3471968D01*
X3581359Y3283231D02*
Y3362513D01*
X3481359Y3283231D02*
X3581359D01*
X3481359D02*
Y3362513D01*
X3581359D01*
X3518860Y3310372D02*
X3543858Y3310375D01*
Y3335372D01*
X3518858Y3335370D02*
X3543858Y3335372D01*
X3518858Y3310370D02*
Y3335370D01*
X3501359Y3262513D02*
Y3283231D01*
X3561359Y3262513D02*
Y3283231D01*
X3518860Y3410372D02*
X3543858Y3410375D01*
Y3435372D01*
X3518858Y3435370D02*
X3543858Y3435372D01*
X3518858Y3410370D02*
Y3435370D01*
X3501359Y3362513D02*
Y3383231D01*
X3561359Y3362513D02*
Y3383231D01*
X3518858Y3235370D02*
X3543858D01*
X3518858Y3210370D02*
Y3235370D01*
Y3210370D02*
X3543858D01*
Y3235372D01*
X3481359Y3262513D02*
X3581359D01*
X3481359Y3172872D02*
Y3262513D01*
Y3172872D02*
X3581359D01*
Y3262513D01*
X3481359Y3472872D02*
X3581359D01*
X3481359Y3383231D02*
Y3472872D01*
Y3383231D02*
X3581359D01*
Y3472872D01*
X3422483Y2535893D02*
X3442168D01*
X3422483Y2496523D02*
Y2535893D01*
X3442168Y2496523D02*
Y2535893D01*
X3422483Y2496523D02*
X3442168D01*
X3570515Y2487862D02*
Y2507547D01*
X3531144D02*
X3570515D01*
X3531144Y2487862D02*
X3570515D01*
X3531144D02*
Y2507547D01*
X3412641Y2626066D02*
X3432326Y2606381D01*
X3412641Y2614255D02*
X3420515Y2606381D01*
X3412641Y2610318D02*
X3416578Y2606381D01*
X3412641Y2622129D02*
X3428389Y2606381D01*
X3412641Y2618192D02*
X3424452Y2606381D01*
X3412641Y2657562D02*
X3526814D01*
X3412641Y2637877D02*
X3444137Y2606381D01*
X3412641D02*
Y2657562D01*
Y2641814D02*
X3448074Y2606381D01*
X3412641Y2630003D02*
X3436263Y2606381D01*
X3412641Y2633940D02*
X3440200Y2606381D01*
X3412641Y2645751D02*
X3452011Y2606381D01*
X3526814D02*
Y2657562D01*
X3412641Y2606381D02*
X3526814D01*
X3549650Y2626066D02*
X3569335Y2606381D01*
X3549650Y2614255D02*
X3557524Y2606381D01*
X3549650Y2610318D02*
X3553587Y2606381D01*
X3549650Y2622129D02*
X3565398Y2606381D01*
X3549650Y2618192D02*
X3561461Y2606381D01*
X3549650Y2657562D02*
X3663824D01*
X3549650Y2637877D02*
X3581146Y2606381D01*
X3549650D02*
Y2657562D01*
Y2641814D02*
X3585084Y2606381D01*
X3549650Y2630003D02*
X3573272Y2606381D01*
X3549650Y2633940D02*
X3577209Y2606381D01*
X3549650Y2645751D02*
X3589021Y2606381D01*
X3663824D02*
Y2657562D01*
X3549650Y2606381D02*
X3663824D01*
X3469727Y2754559D02*
X3485475Y2788023D01*
Y2739795D02*
Y2802787D01*
X3453979D02*
X3485475D01*
X3453979Y2788023D02*
X3485475D01*
X3453979D02*
X3469727Y2754559D01*
X3453979Y2739795D02*
X3485475D01*
X3453979D02*
Y2802787D01*
X3507916Y2841099D02*
Y2860784D01*
X3468546D02*
X3507916D01*
X3468546Y2841099D02*
X3507916D01*
X3468546D02*
Y2860784D01*
X3197715Y3355804D02*
X3217400D01*
Y3316434D02*
Y3355804D01*
X3197715Y3316434D02*
X3217400D01*
X3197715D02*
Y3355804D01*
Y3388722D02*
X3217400D01*
X3197715D02*
Y3428092D01*
X3217400D01*
Y3388722D02*
Y3428092D01*
X3260643Y3344416D02*
Y3364101D01*
X3300013D01*
Y3344416D02*
Y3364101D01*
X3260643Y3344416D02*
X3300013D01*
X3260643Y3380098D02*
Y3399783D01*
X3300013D01*
Y3380098D02*
Y3399783D01*
X3260643Y3380098D02*
X3300013D01*
X3606737Y2754559D02*
X3622485Y2788023D01*
Y2739795D02*
Y2802787D01*
X3590989D02*
X3622485D01*
X3590989Y2788023D02*
X3622485D01*
X3590989D02*
X3606737Y2754559D01*
X3590989Y2739795D02*
X3622485D01*
X3590989D02*
Y2802787D01*
X3568548Y2841099D02*
Y2860784D01*
Y2841099D02*
X3607918D01*
X3568548Y2860784D02*
X3607918D01*
Y2841099D02*
Y2860784D01*
X1784146Y1997314D02*
X1835328D01*
X1784146Y2016999D02*
X1835328D01*
Y1997314D02*
Y2016999D01*
X1784146Y1997314D02*
Y2016999D01*
X1878236Y1899766D02*
Y1923388D01*
X1866425Y1899766D02*
X1878236D01*
X1866425D02*
Y1923388D01*
X1878236D01*
X2921868Y822206D02*
X2973050D01*
Y802521D02*
Y822206D01*
X2921868Y802521D02*
X2973050D01*
X2921868D02*
Y822206D01*
X659444Y613623D02*
X749085D01*
X659444D02*
Y713623D01*
X749085D01*
Y613623D02*
Y713623D01*
X549085Y613623D02*
X638726D01*
X549085D02*
Y713623D01*
X638726D01*
Y613623D02*
Y713623D01*
X586582Y651124D02*
X611585D01*
X586582D02*
Y676124D01*
X611582D01*
Y651124D02*
Y676124D01*
X638726Y633623D02*
X659444D01*
X638726Y693623D02*
X659444D01*
X686582Y676124D02*
X711582D01*
X711585Y651124D01*
X686587D02*
X711585D01*
X686585Y676122D02*
X686587Y651124D01*
X659362Y817239D02*
X749003D01*
X659362D02*
Y917239D01*
X749003D01*
Y817239D02*
Y917239D01*
X549003Y817239D02*
X638644D01*
X549003D02*
Y917239D01*
X638644D01*
Y817239D02*
Y917239D01*
X586501Y854740D02*
X611503D01*
X586501D02*
Y879740D01*
X611501D01*
Y854740D02*
Y879740D01*
X638644Y837239D02*
X659362D01*
X638644Y897239D02*
X659362D01*
X686501Y879740D02*
X711501D01*
X711503Y854740D01*
X686505D02*
X711503D01*
X686503Y879738D02*
X686505Y854740D01*
X1991661Y1769657D02*
Y1838554D01*
Y1769657D02*
X2029063D01*
Y1838554D01*
X1991661D02*
X2029063D01*
X3061122Y567472D02*
X3150763D01*
Y467472D02*
Y567472D01*
X3061122Y467472D02*
X3150763D01*
X3061122D02*
Y567472D01*
X3271481D02*
X3361122D01*
Y467472D02*
Y567472D01*
X3271481Y467472D02*
X3361122D01*
X3271481D02*
Y567472D01*
X3298622Y529971D02*
X3323625D01*
Y504971D02*
Y529971D01*
X3298625Y504971D02*
X3323625D01*
X3298625D02*
Y529971D01*
X3150763Y547472D02*
X3171481D01*
X3150763Y487472D02*
X3171481D01*
X3098625Y504971D02*
X3123625D01*
X3098622Y529971D02*
X3098625Y504971D01*
X3098622Y529971D02*
X3123620D01*
X3123622Y504973D01*
X3250763Y547472D02*
X3271481D01*
X3250763Y487472D02*
X3271481D01*
X3198625Y504971D02*
X3223625D01*
X3198622Y529971D02*
X3198625Y504971D01*
X3198622Y529971D02*
X3223620D01*
X3223622Y504973D01*
X3171481Y467472D02*
Y567472D01*
Y467472D02*
X3250763D01*
Y567472D01*
X3171481D02*
X3250763D01*
X2873073Y513393D02*
X2941971D01*
X2873073D02*
Y550794D01*
X2941971D01*
Y513393D02*
Y550794D01*
X2876028Y483558D02*
X2939020D01*
X2876028Y451668D02*
Y483558D01*
Y451668D02*
X2939020D01*
Y483558D01*
X2985240Y440027D02*
X3017130D01*
X2985240D02*
Y503019D01*
X3017130D01*
Y440027D02*
Y503019D01*
X3181895Y421250D02*
Y440935D01*
X3142525D02*
X3181895D01*
X3142525Y421250D02*
X3181895D01*
X3142525D02*
Y440935D01*
X3054841Y406290D02*
X3066652D01*
X3054841D02*
Y429912D01*
X3066652D01*
Y406290D02*
Y429912D01*
X2938193Y355045D02*
Y386934D01*
X3001185D01*
Y355045D02*
Y386934D01*
X2938193Y355045D02*
X3001185D01*
X3164966Y306797D02*
X3200399Y271364D01*
X3168903Y306797D02*
X3200399Y275301D01*
X3192525Y306797D02*
X3200399Y298923D01*
X3188588Y306797D02*
X3200399Y294986D01*
X3196462Y306797D02*
X3200399Y302860D01*
X3180714Y306797D02*
X3200399Y287112D01*
Y255616D02*
Y306797D01*
X3184651D02*
X3200399Y291049D01*
X3086226Y306797D02*
X3200399D01*
X3086226Y255616D02*
Y306797D01*
Y255616D02*
X3200399D01*
X3176777Y306797D02*
X3200399Y283175D01*
X3172840Y306797D02*
X3200399Y279238D01*
X3161029Y306797D02*
X3200399Y267427D01*
X3265784Y299907D02*
X3297280D01*
X3265784Y236915D02*
Y299907D01*
Y236915D02*
X3297280D01*
Y299907D01*
X3265784Y285143D02*
X3297280D01*
X3265784D02*
X3281532Y251679D01*
X3297280Y285143D01*
X3092223Y537157D02*
X3230018D01*
X3092223Y497787D02*
X3230018D01*
X3092223D02*
Y537157D01*
X3230018Y497787D02*
Y537157D01*
X3131864Y634072D02*
Y702970D01*
X3094462Y634072D02*
X3131864D01*
X3094462D02*
Y702970D01*
X3131864D01*
X3211193Y607576D02*
Y658758D01*
X3191508Y607576D02*
X3211193D01*
X3191508Y658758D02*
X3211193D01*
X3191508Y607576D02*
Y658758D01*
X3233041Y607184D02*
Y676082D01*
Y607184D02*
X3270442D01*
Y676082D01*
X3233041D02*
X3270442D01*
X3040364Y680738D02*
X3060049D01*
X3040364Y629557D02*
Y680738D01*
Y629557D02*
X3060049D01*
Y680738D01*
X3065860Y750395D02*
X3134758D01*
X3065860D02*
Y787797D01*
X3134758D01*
Y750395D02*
Y787797D01*
X3010919Y753443D02*
X3014856Y749506D01*
X3006982Y753443D02*
X3014856Y745569D01*
X3003045Y753443D02*
X3014856Y741632D01*
X2999108Y753443D02*
X3014856Y737695D01*
X2995171Y753443D02*
X3014856Y733758D01*
X2991234Y753443D02*
X3014856Y729821D01*
X2987297Y753443D02*
X3014856Y725884D01*
X2983360Y753443D02*
X3014856Y721947D01*
X2979423Y753443D02*
X3014856Y718010D01*
X2975486Y753443D02*
X3014856Y714073D01*
X2896746Y753443D02*
X3014856D01*
Y635333D02*
Y753443D01*
X2896746Y635333D02*
X3014856D01*
X2896746D02*
Y753443D01*
X3044016Y981012D02*
X3170000D01*
X3044016Y882587D02*
Y981012D01*
Y882587D02*
X3170000D01*
Y981012D01*
X2810394Y868996D02*
X2810396Y843998D01*
X2835394D01*
X2835392Y868998D02*
X2835394Y843998D01*
X2810392Y868998D02*
X2835392D01*
X2762535Y886497D02*
X2783253D01*
X2762535Y826497D02*
X2783253D01*
X2735392Y843998D02*
Y868998D01*
X2710392D02*
X2735392D01*
X2710392Y843998D02*
Y868998D01*
Y843998D02*
X2735394D01*
X2762535Y806497D02*
Y906497D01*
X2672894D02*
X2762535D01*
X2672894Y806497D02*
Y906497D01*
Y806497D02*
X2762535D01*
X2872894D02*
Y906497D01*
X2783253D02*
X2872894D01*
X2783253Y806497D02*
Y906497D01*
Y806497D02*
X2872894D01*
X3220947Y1317378D02*
X3224884D01*
Y1266197D02*
Y1317378D01*
X3220947Y1266197D02*
X3224884D01*
X3220947Y1152024D02*
X3224884D01*
Y1100843D02*
Y1152024D01*
X3220947Y1100843D02*
X3224884D01*
X2907954Y1029976D02*
Y1033914D01*
X2809529Y1029976D02*
X2907954D01*
X2809529D02*
Y1033914D01*
X2748506Y1100843D02*
X2752443D01*
X2748506D02*
Y1152024D01*
X2752443D01*
X2748506Y1266197D02*
X2752443D01*
X2748506D02*
Y1317378D01*
X2752443D01*
X2809529Y1384307D02*
Y1388245D01*
X3085120D01*
Y1384307D02*
Y1388245D01*
X2772128Y1384307D02*
X3201262D01*
X2752443Y1053599D02*
Y1364622D01*
X2772128Y1033914D02*
X3201262D01*
X3220947Y1053599D02*
Y1364622D01*
X2492280Y1149934D02*
X2590705D01*
X2492280D02*
Y1275918D01*
X2590705Y1149934D02*
Y1275918D01*
X2492280D02*
X2590705D01*
X3937008Y1338653D02*
X4149606D01*
X3937008Y1052348D02*
X4149606D01*
X3389764Y910067D02*
X3937008D01*
X3389764Y1480934D02*
X3937008D01*
X3389764Y910067D02*
Y1480934D01*
X3937008Y910067D02*
Y1480934D01*
Y1448060D02*
X4149606D01*
X3937008Y942941D02*
X4149606D01*
X4759843Y1006524D02*
Y1384477D01*
X4287402Y1006524D02*
X4759843D01*
X4287402Y1384477D02*
X4759843D01*
X4149606Y841170D02*
Y1549831D01*
X4169292Y841170D02*
Y1549831D01*
X4149606Y841170D02*
X4169292D01*
X4149606Y1549831D02*
X4169292D01*
Y860855D02*
X4287402D01*
Y1530146D01*
X4169292Y1056886D02*
X4287402D01*
X4169292Y1334115D02*
X4287402D01*
X4169292Y1530146D02*
X4287402D01*
X404809Y1835460D02*
X418728Y1821541D01*
X454919Y1857731D01*
X440999Y1871651D02*
X454919Y1857731D01*
X404809Y1835460D02*
X440999Y1871651D01*
X404809Y2101548D02*
X418728Y2115467D01*
X404809Y2101548D02*
X440999Y2065357D01*
X454919Y2079277D01*
X418728Y2115467D02*
X454919Y2079277D01*
X1147639Y3137592D02*
Y3188773D01*
X1167324D01*
Y3137592D02*
Y3188773D01*
X1147639Y3137592D02*
X1167324D01*
X1282482Y3219331D02*
Y3469331D01*
X1032482Y3219331D02*
Y3469331D01*
X1282482D01*
X1032482Y3219331D02*
X1282482D01*
X959487Y2980935D02*
X1010668D01*
X959487D02*
Y3000620D01*
X1010668D01*
Y2980935D02*
Y3000620D01*
X928928Y2865778D02*
Y3115778D01*
X678928Y2865778D02*
Y3115778D01*
X928928D01*
X678928Y2865778D02*
X928928D01*
X2002357Y301772D02*
X2179134Y478549D01*
Y124995D02*
X2355910Y301772D01*
X2002357D02*
X2179134Y124995D01*
Y478549D02*
X2355910Y301772D01*
X1679134Y478549D02*
X1855910Y301772D01*
X1502357D02*
X1679134Y124995D01*
X1502357Y301772D02*
X1679134Y478549D01*
Y124995D02*
X1855910Y301772D01*
X124995Y1718504D02*
X301772Y1541727D01*
Y1895281D02*
X478549Y1718504D01*
X124995D02*
X301772Y1895281D01*
Y1541727D02*
X478549Y1718504D01*
X124995Y2218504D02*
X301772Y2395281D01*
Y2041727D02*
X478549Y2218504D01*
X301772Y2395281D02*
X478549Y2218504D01*
X124995D02*
X301772Y2041727D01*
X1777559Y3458459D02*
X1954336Y3635236D01*
X1600782D02*
X1777559Y3812013D01*
X1954336Y3635236D01*
X1600782D02*
X1777559Y3458459D01*
X2100782Y3635236D02*
X2277559Y3812013D01*
Y3458459D02*
X2454336Y3635236D01*
X2277559Y3812013D02*
X2454336Y3635236D01*
X2100782D02*
X2277559Y3458459D01*
X1514238Y2353172D02*
X1603323Y2264088D01*
X1583836Y2422769D02*
X1672920Y2333685D01*
X1603323Y2264088D02*
X1672920Y2333685D01*
X1514238Y2353172D02*
X1583836Y2422769D01*
X1583835Y1514238D02*
X1672920Y1603323D01*
X1603323Y1672920D02*
X1672920Y1603323D01*
X1514238Y1583835D02*
X1603323Y1672920D01*
X1514238Y1583835D02*
X1583835Y1514238D01*
X2264088Y2333685D02*
X2353172Y2422769D01*
X2264088Y2333685D02*
X2333685Y2264088D01*
X2422769Y2353172D01*
X2353172Y2422769D02*
X2422769Y2353172D01*
X2042698Y2215378D02*
Y2227189D01*
X2066320D01*
Y2215378D02*
Y2227189D01*
X2042698Y2215378D02*
X2066320D01*
X2012417D02*
Y2227189D01*
X1988794Y2215378D02*
Y2227189D01*
Y2215378D02*
X2012417D01*
X1988794Y2227189D02*
X2012417D01*
X1926143Y2243534D02*
X1934495Y2235182D01*
X1926143Y2243534D02*
X1942847Y2260237D01*
X1951198Y2251886D01*
X1934495Y2235182D02*
X1951198Y2251886D01*
X1904720Y2222110D02*
X1913071Y2213759D01*
X1896368Y2197055D02*
X1913071Y2213759D01*
X1888016Y2205407D02*
X1896368Y2197055D01*
X1888016Y2205407D02*
X1904720Y2222110D01*
X1778015Y2109326D02*
Y2148696D01*
Y2109326D02*
X1797700D01*
Y2148696D01*
X1778015D02*
X1797700D01*
X1713997Y2137083D02*
X1753367D01*
Y2156768D01*
X1713997D02*
X1753367D01*
X1713997Y2137083D02*
Y2156768D01*
X1674394Y2118282D02*
X1743292D01*
Y2080880D02*
Y2118282D01*
X1674394Y2080880D02*
X1743292D01*
X1674394D02*
Y2118282D01*
X1672115Y2041983D02*
X1711485D01*
Y2061668D01*
X1672115D02*
X1711485D01*
X1672115Y2041983D02*
Y2061668D01*
X1917323Y1767483D02*
Y1779294D01*
X1940945D01*
Y1767483D02*
Y1779294D01*
X1917323Y1767483D02*
X1940945D01*
X2097979Y1774764D02*
Y1823977D01*
X2019239Y1774764D02*
X2097979D01*
X2019239D02*
Y1823977D01*
X2097979D01*
X2221370Y1863037D02*
Y1900438D01*
X2152473D02*
X2221370D01*
X2152473Y1863037D02*
Y1900438D01*
Y1863037D02*
X2221370D01*
Y2056116D02*
Y2093517D01*
X2152473Y2056116D02*
X2221370D01*
X2152473Y2093517D02*
X2221370D01*
X2152473Y2056116D02*
Y2093517D01*
X2333685Y1672920D02*
X2422769Y1583836D01*
X2264088Y1603323D02*
X2333685Y1672920D01*
X2264088Y1603323D02*
X2353172Y1514238D01*
X2422769Y1583836D01*
X2826443Y743600D02*
X2865813D01*
Y763285D01*
X2826443D02*
X2865813D01*
X2826443Y743600D02*
Y763285D01*
X1916786Y3482089D02*
X1930706Y3496009D01*
X1894515Y3532199D02*
X1930706Y3496009D01*
X1880596Y3518280D02*
X1894515Y3532199D01*
X1880596Y3518280D02*
X1916786Y3482089D01*
X1782171Y418728D02*
X1796090Y404808D01*
X1832280Y440999D01*
X1818361Y454918D02*
X1832280Y440999D01*
X1782171Y418728D02*
X1818361Y454918D01*
X2062178Y404809D02*
X2076097Y418728D01*
X2039907Y454919D02*
X2076097Y418728D01*
X2025987Y440999D02*
X2039907Y454919D01*
X2025987Y440999D02*
X2062178Y404809D01*
X2124412Y3496009D02*
X2138332Y3482089D01*
X2174522Y3518280D01*
X2160603Y3532199D02*
X2174522Y3518280D01*
X2124412Y3496009D02*
X2160603Y3532199D01*
M02*
