G04*
G04 #@! TF.GenerationSoftware,Altium Limited,Altium Designer,24.2.2 (26)*
G04*
G04 Layer_Physical_Order=2*
G04 Layer_Color=32768*
%FSLAX26Y26*%
%MOIN*%
G70*
G04*
G04 #@! TF.SameCoordinates,46F5A5B2-6880-422F-88BA-D3FAC370E1DB*
G04*
G04*
G04 #@! TF.FilePolarity,Negative*
G04*
G01*
G75*
%ADD85C,0.040000*%
%ADD86C,0.051370*%
G04:AMPARAMS|DCode=87|XSize=93.37mil|YSize=93.37mil|CornerRadius=0mil|HoleSize=0mil|Usage=FLASHONLY|Rotation=0.000|XOffset=0mil|YOffset=0mil|HoleType=Round|Shape=Relief|Width=12mil|Gap=7mil|Entries=4|*
%AMTHD87*
7,0,0,0.093370,0.079370,0.012000,45*
%
%ADD87THD87*%
G04:AMPARAMS|DCode=88|XSize=93.37mil|YSize=93.37mil|CornerRadius=0mil|HoleSize=0mil|Usage=FLASHONLY|Rotation=0.000|XOffset=0mil|YOffset=0mil|HoleType=Round|Shape=Relief|Width=25mil|Gap=7mil|Entries=4|*
%AMTHD88*
7,0,0,0.093370,0.079370,0.025000,45*
%
%ADD88THD88*%
%ADD89C,0.094677*%
%ADD90C,0.047433*%
G04:AMPARAMS|DCode=91|XSize=113.055mil|YSize=113.055mil|CornerRadius=0mil|HoleSize=0mil|Usage=FLASHONLY|Rotation=0.000|XOffset=0mil|YOffset=0mil|HoleType=Round|Shape=Relief|Width=12mil|Gap=7mil|Entries=4|*
%AMTHD91*
7,0,0,0.113055,0.099055,0.012000,45*
%
%ADD91THD91*%
%ADD92C,0.021843*%
G36*
X1723007Y257899D02*
X1718686Y253578D01*
X1708524Y246787D01*
X1697232Y242110D01*
X1685245Y239726D01*
X1673023D01*
X1661036Y242110D01*
X1649744Y246787D01*
X1639582Y253578D01*
X1635261Y257899D01*
X1630939Y262220D01*
X1624149Y272382D01*
X1619472Y283674D01*
X1617088Y295661D01*
Y307883D01*
X1619472Y319870D01*
X1624149Y331162D01*
X1630939Y341324D01*
X1635261Y345645D01*
X1639582Y349966D01*
X1649744Y356756D01*
X1661036Y361433D01*
X1673023Y363818D01*
X1685245D01*
X1697232Y361433D01*
X1708524Y356756D01*
X1718686Y349966D01*
X1723007Y345645D01*
X1727328Y341324D01*
X1734118Y331162D01*
X1738795Y319870D01*
X1741180Y307883D01*
Y295661D01*
X1738795Y283674D01*
X1734118Y272382D01*
X1727328Y262220D01*
X1723007Y257899D01*
D01*
D02*
G37*
G36*
X2223007D02*
X2218686Y253578D01*
X2208524Y246787D01*
X2197232Y242110D01*
X2185245Y239726D01*
X2173023D01*
X2161036Y242110D01*
X2149744Y246787D01*
X2139582Y253578D01*
X2135261Y257899D01*
X2130939Y262220D01*
X2124149Y272382D01*
X2119472Y283674D01*
X2117088Y295661D01*
Y307883D01*
X2119472Y319870D01*
X2124149Y331162D01*
X2130939Y341324D01*
X2135261Y345645D01*
X2139582Y349966D01*
X2149744Y356756D01*
X2161036Y361433D01*
X2173023Y363818D01*
X2185245D01*
X2197232Y361433D01*
X2208524Y356756D01*
X2218686Y349966D01*
X2223007Y345645D01*
X2227328Y341324D01*
X2234118Y331162D01*
X2238795Y319870D01*
X2241180Y307883D01*
Y295661D01*
X2238795Y283674D01*
X2234118Y272382D01*
X2227328Y262220D01*
X2223007Y257899D01*
D01*
D02*
G37*
G36*
X345645Y1674631D02*
X341324Y1670310D01*
X331162Y1663519D01*
X319870Y1658842D01*
X307883Y1656458D01*
X295661D01*
X283674Y1658842D01*
X272382Y1663519D01*
X262220Y1670310D01*
X257899Y1674631D01*
X253578Y1678952D01*
X246787Y1689114D01*
X242110Y1700406D01*
X239726Y1712393D01*
Y1724615D01*
X242110Y1736602D01*
X246787Y1747894D01*
X253578Y1758056D01*
X257899Y1762377D01*
X262220Y1766698D01*
X272382Y1773488D01*
X283674Y1778166D01*
X295661Y1780550D01*
X307883D01*
X319870Y1778166D01*
X331162Y1773488D01*
X341324Y1766698D01*
X345645Y1762377D01*
X349966Y1758056D01*
X356756Y1747894D01*
X361433Y1736602D01*
X363818Y1724615D01*
Y1712393D01*
X361433Y1700406D01*
X356756Y1689114D01*
X349966Y1678952D01*
X345645Y1674631D01*
D01*
D02*
G37*
G36*
Y2174631D02*
X341324Y2170310D01*
X331162Y2163519D01*
X319870Y2158842D01*
X307883Y2156458D01*
X295661D01*
X283674Y2158842D01*
X272382Y2163519D01*
X262220Y2170310D01*
X257899Y2174631D01*
X253578Y2178952D01*
X246787Y2189114D01*
X242110Y2200406D01*
X239726Y2212393D01*
Y2224615D01*
X242110Y2236602D01*
X246787Y2247894D01*
X253578Y2258056D01*
X257899Y2262377D01*
X262220Y2266698D01*
X272382Y2273488D01*
X283674Y2278166D01*
X295661Y2280550D01*
X307883D01*
X319870Y2278166D01*
X331162Y2273488D01*
X341324Y2266698D01*
X345645Y2262377D01*
X349966Y2258056D01*
X356756Y2247894D01*
X361433Y2236602D01*
X363818Y2224615D01*
Y2212393D01*
X361433Y2200406D01*
X356756Y2189114D01*
X349966Y2178952D01*
X345645Y2174631D01*
D01*
D02*
G37*
G36*
X803928Y2928732D02*
X797817D01*
X785830Y2931116D01*
X774538Y2935793D01*
X764376Y2942584D01*
X755734Y2951226D01*
X748944Y2961388D01*
X744266Y2972680D01*
X741882Y2984667D01*
Y2990778D01*
Y2996889D01*
X744266Y3008876D01*
X748944Y3020168D01*
X755734Y3030330D01*
X764376Y3038972D01*
X774538Y3045762D01*
X785830Y3050439D01*
X797817Y3052824D01*
X803928D01*
X810039D01*
X822026Y3050439D01*
X833318Y3045762D01*
X843480Y3038972D01*
X852122Y3030330D01*
X858913Y3020168D01*
X863590Y3008876D01*
X865974Y2996889D01*
Y2990778D01*
Y2984667D01*
X863590Y2972680D01*
X858913Y2961388D01*
X852122Y2951226D01*
X843480Y2942584D01*
X833318Y2935793D01*
X822026Y2931116D01*
X810039Y2928732D01*
X803928D01*
D01*
D02*
G37*
G36*
X1157482Y3282285D02*
X1151371D01*
X1139383Y3284669D01*
X1128092Y3289347D01*
X1117929Y3296137D01*
X1109287Y3304779D01*
X1102497Y3314941D01*
X1097820Y3326233D01*
X1095436Y3338220D01*
Y3344331D01*
Y3350442D01*
X1097820Y3362429D01*
X1102497Y3373721D01*
X1109287Y3383883D01*
X1117929Y3392525D01*
X1128092Y3399316D01*
X1139383Y3403993D01*
X1151371Y3406377D01*
X1157482D01*
X1163592D01*
X1175580Y3403993D01*
X1186871Y3399316D01*
X1197034Y3392525D01*
X1205676Y3383883D01*
X1212466Y3373721D01*
X1217143Y3362429D01*
X1219528Y3350442D01*
Y3344331D01*
Y3338220D01*
X1217143Y3326233D01*
X1212466Y3314941D01*
X1205676Y3304779D01*
X1197034Y3296137D01*
X1186871Y3289347D01*
X1175580Y3284669D01*
X1163592Y3282285D01*
X1157482D01*
D01*
D02*
G37*
G36*
X1821432Y3591363D02*
X1817111Y3587042D01*
X1806949Y3580251D01*
X1795657Y3575574D01*
X1783670Y3573190D01*
X1771448D01*
X1759461Y3575574D01*
X1748169Y3580251D01*
X1738007Y3587042D01*
X1733686Y3591363D01*
X1729365Y3595684D01*
X1722574Y3605846D01*
X1717897Y3617138D01*
X1715513Y3629125D01*
Y3641347D01*
X1717897Y3653334D01*
X1722574Y3664626D01*
X1729365Y3674788D01*
X1733686Y3679109D01*
X1738007Y3683430D01*
X1748169Y3690220D01*
X1759461Y3694898D01*
X1771448Y3697282D01*
X1783670D01*
X1795657Y3694898D01*
X1806949Y3690220D01*
X1817111Y3683430D01*
X1821432Y3679109D01*
X1825753Y3674788D01*
X1832543Y3664626D01*
X1837221Y3653334D01*
X1839605Y3641347D01*
Y3629125D01*
X1837221Y3617138D01*
X1832543Y3605846D01*
X1825753Y3595684D01*
X1821432Y3591363D01*
D01*
D02*
G37*
G36*
X2321432D02*
X2317111Y3587042D01*
X2306949Y3580251D01*
X2295657Y3575574D01*
X2283670Y3573190D01*
X2271448D01*
X2259461Y3575574D01*
X2248169Y3580251D01*
X2238007Y3587042D01*
X2233686Y3591363D01*
X2229365Y3595684D01*
X2222575Y3605846D01*
X2217897Y3617138D01*
X2215513Y3629125D01*
Y3641347D01*
X2217897Y3653334D01*
X2222575Y3664626D01*
X2229365Y3674788D01*
X2233686Y3679109D01*
X2238007Y3683430D01*
X2248169Y3690220D01*
X2259461Y3694898D01*
X2271448Y3697282D01*
X2283670D01*
X2295657Y3694898D01*
X2306949Y3690220D01*
X2317111Y3683430D01*
X2321432Y3679109D01*
X2325753Y3674788D01*
X2332543Y3664626D01*
X2337221Y3653334D01*
X2339605Y3641347D01*
Y3629125D01*
X2337221Y3617138D01*
X2332543Y3605846D01*
X2325753Y3595684D01*
X2321432Y3591363D01*
D01*
D02*
G37*
D85*
X3740008Y0D02*
G03*
X3937008Y197000I0J197000D01*
G01*
X0D02*
G03*
X197000Y0I197000J0D01*
G01*
Y3937008D02*
G03*
X0Y3740008I0J-197000D01*
G01*
X3937008D02*
G03*
X3740008Y3937008I-197000J0D01*
G01*
X3937008Y787402D02*
Y3740008D01*
X197000Y0D02*
X3740008D01*
X0Y197000D02*
Y3740008D01*
X197000Y3937008D02*
X3740008D01*
X3937008Y197000D02*
Y787402D01*
D86*
X3580508Y1918150D02*
D03*
X3480508D02*
D03*
X3380508D02*
D03*
X3680508D02*
D03*
X3532326Y2391732D02*
D03*
X3432326D02*
D03*
X3531359Y3322874D02*
D03*
Y3422874D02*
D03*
X699087Y663623D02*
D03*
X699005Y867239D02*
D03*
X3111120Y517472D02*
D03*
X3211120D02*
D03*
X2822896Y856497D02*
D03*
D87*
X3632326Y2391732D02*
D03*
X3531359Y3222874D02*
D03*
X599087Y663623D02*
D03*
X599005Y867239D02*
D03*
X2722896Y856497D02*
D03*
D88*
X3311120Y517472D02*
D03*
D89*
X3646851Y995500D02*
D03*
Y1395501D02*
D03*
D90*
X3446851Y1195501D02*
D03*
Y1295501D02*
D03*
D91*
X1052560Y3239410D02*
D03*
X1262403D02*
D03*
X1052560Y3449253D02*
D03*
X1262403D02*
D03*
X699007Y2885856D02*
D03*
X908850D02*
D03*
X699007Y3095699D02*
D03*
X908850D02*
D03*
X2327515Y301772D02*
D03*
X2179134Y450153D02*
D03*
Y153391D02*
D03*
X2030753Y301772D02*
D03*
X1679134Y153391D02*
D03*
X1827515Y301772D02*
D03*
X1530753D02*
D03*
X1679134Y450153D02*
D03*
X450153Y1718504D02*
D03*
X301772Y1866885D02*
D03*
Y1570123D02*
D03*
X153391Y1718504D02*
D03*
X301772Y2070123D02*
D03*
X450153Y2218504D02*
D03*
X153391D02*
D03*
X301772Y2366885D02*
D03*
X1629178Y3635236D02*
D03*
X1777559Y3486855D02*
D03*
Y3783617D02*
D03*
X1925940Y3635236D02*
D03*
X2277559Y3486855D02*
D03*
X2425940Y3635236D02*
D03*
X2129178D02*
D03*
X2277559Y3783617D02*
D03*
D92*
X2054108Y1862420D02*
D03*
X1878912Y2212841D02*
D03*
X1935466Y2269396D02*
D03*
X1987339Y2238400D02*
D03*
X2067501D02*
D03*
X1855428Y1728939D02*
D03*
X3207557Y3454369D02*
D03*
Y3290242D02*
D03*
X3506412Y2883588D02*
D03*
X3538390Y2850941D02*
D03*
X3569722Y2883588D02*
D03*
X3538067D02*
D03*
X1818368Y2062570D02*
D03*
X1647818Y2051826D02*
D03*
X1644972Y1678776D02*
D03*
X2113527Y1873938D02*
D03*
X1861004Y2054860D02*
D03*
X1982554Y1765886D02*
D03*
X1971889Y1784662D02*
D03*
X3281532Y370989D02*
D03*
X3180714D02*
D03*
X2113398Y2050683D02*
D03*
Y2072084D02*
D03*
X2113784Y2093226D02*
D03*
X2113913Y1916481D02*
D03*
X2113527Y1895338D02*
D03*
X1884739Y1861898D02*
D03*
X2275134Y2275134D02*
D03*
X2258232Y2292035D02*
D03*
X2241330Y2308937D02*
D03*
X2292035Y2258232D02*
D03*
X2308937Y2241330D02*
D03*
X2275134Y1661874D02*
D03*
X2292035Y1678776D02*
D03*
X2308937Y1695678D02*
D03*
X2258232Y1644972D02*
D03*
X2241330Y1628071D02*
D03*
X1661874Y1661874D02*
D03*
X1678776Y1644972D02*
D03*
X1695678Y1628071D02*
D03*
X1628071Y1695678D02*
D03*
X1695678Y2308937D02*
D03*
X1678776Y2292035D02*
D03*
X1628071Y2241330D02*
D03*
X1644972Y2258232D02*
D03*
X1661874Y2275134D02*
D03*
X1752186Y2173412D02*
D03*
X1842414Y2032087D02*
D03*
X1777753Y2062941D02*
D03*
X1747375Y2062773D02*
D03*
X1799571Y2083228D02*
D03*
X1906811Y2110789D02*
D03*
X1884449D02*
D03*
X1964082Y1804022D02*
D03*
X2153146Y1998032D02*
D03*
X2155427Y1915497D02*
D03*
X3095036Y405108D02*
D03*
X2897523Y620371D02*
D03*
X2887336Y789637D02*
D03*
X3001185Y406551D02*
D03*
X2087517Y2064314D02*
D03*
M02*
