G04*
G04 #@! TF.GenerationSoftware,Altium Limited,Altium Designer,24.2.2 (26)*
G04*
G04 Layer_Color=128*
%FSLAX26Y26*%
%MOIN*%
G70*
G04*
G04 #@! TF.SameCoordinates,46F5A5B2-6880-422F-88BA-D3FAC370E1DB*
G04*
G04*
G04 #@! TF.FilePolarity,Positive*
G04*
G01*
G75*
%ADD78C,0.005000*%
D78*
X3560823Y1918150D02*
X3600193D01*
X3580508Y1898465D02*
Y1937835D01*
X3460823Y1918150D02*
X3500193D01*
X3480508Y1898465D02*
Y1937835D01*
X3360823Y1918150D02*
X3400193D01*
X3380508Y1898465D02*
Y1937835D01*
X3660823Y1918150D02*
X3700193D01*
X3680508Y1898465D02*
Y1937835D01*
X3612641Y2391732D02*
X3652011D01*
X3632326Y2372047D02*
Y2411417D01*
X3512641Y2391732D02*
X3552011D01*
X3532326Y2372047D02*
Y2411417D01*
X3412641Y2391732D02*
X3452011D01*
X3432326Y2372047D02*
Y2411417D01*
X3511674Y3222874D02*
X3551044D01*
X3531359Y3203189D02*
Y3242559D01*
X3511674Y3322874D02*
X3551044D01*
X3531359Y3303189D02*
Y3342559D01*
X3511674Y3422874D02*
X3551044D01*
X3531359Y3403189D02*
Y3442559D01*
X579402Y663623D02*
X618772D01*
X599087Y643938D02*
Y683308D01*
X679402Y663623D02*
X718772D01*
X699087Y643938D02*
Y683308D01*
X579320Y867239D02*
X618690D01*
X599005Y847554D02*
Y886924D01*
X679320Y867239D02*
X718690D01*
X699005Y847554D02*
Y886924D01*
X3091435Y517472D02*
X3130805D01*
X3111120Y497787D02*
Y537157D01*
X3191435Y517472D02*
X3230805D01*
X3211120Y497787D02*
Y537157D01*
X3291435Y517472D02*
X3330805D01*
X3311120Y497787D02*
Y537157D01*
X2803211Y856497D02*
X2842581D01*
X2822896Y836812D02*
Y876182D01*
X2703211Y856497D02*
X2742581D01*
X2722896Y836812D02*
Y876182D01*
X3605512Y995500D02*
X3688189D01*
X3646851Y954162D02*
Y1036839D01*
X3429134Y1195501D02*
X3464567D01*
X3446851Y1177784D02*
Y1213217D01*
X3429134Y1295501D02*
X3464567D01*
X3446851Y1277784D02*
Y1313217D01*
X3605512Y1395501D02*
X3688189D01*
X3646851Y1354162D02*
Y1436839D01*
X1023033Y3239410D02*
X1082088D01*
X1052560Y3209882D02*
Y3268937D01*
X1232875Y3239410D02*
X1291930D01*
X1262403Y3209882D02*
Y3268937D01*
X1023033Y3449253D02*
X1082088D01*
X1052560Y3419725D02*
Y3478780D01*
X1232875Y3449253D02*
X1291930D01*
X1262403Y3419725D02*
Y3478780D01*
X669479Y2885856D02*
X728534D01*
X699007Y2856329D02*
Y2915384D01*
X879322Y2885856D02*
X938377D01*
X908850Y2856329D02*
Y2915384D01*
X669479Y3095699D02*
X728534D01*
X699007Y3066172D02*
Y3125227D01*
X879322Y3095699D02*
X938377D01*
X908850Y3066172D02*
Y3125227D01*
X2297987Y301772D02*
X2357042D01*
X2327515Y272244D02*
Y331299D01*
X2149606Y450153D02*
X2208661D01*
X2179134Y420625D02*
Y479680D01*
X2149606Y153391D02*
X2208661D01*
X2179134Y123863D02*
Y182918D01*
X2001225Y301772D02*
X2060280D01*
X2030753Y272244D02*
Y331299D01*
X1649606Y153391D02*
X1708661D01*
X1679134Y123863D02*
Y182918D01*
X1797987Y301772D02*
X1857042D01*
X1827515Y272244D02*
Y331299D01*
X1501225Y301772D02*
X1560280D01*
X1530753Y272244D02*
Y331299D01*
X1649606Y450153D02*
X1708661D01*
X1679134Y420625D02*
Y479680D01*
X420625Y1718504D02*
X479680D01*
X450153Y1688976D02*
Y1748031D01*
X272244Y1866885D02*
X331299D01*
X301772Y1837358D02*
Y1896412D01*
X272244Y1570123D02*
X331299D01*
X301772Y1540595D02*
Y1599650D01*
X123863Y1718504D02*
X182918D01*
X153391Y1688976D02*
Y1748031D01*
X272244Y2070123D02*
X331299D01*
X301772Y2040595D02*
Y2099650D01*
X420625Y2218504D02*
X479680D01*
X450153Y2188976D02*
Y2248031D01*
X123863Y2218504D02*
X182918D01*
X153391Y2188976D02*
Y2248031D01*
X272244Y2366885D02*
X331299D01*
X301772Y2337358D02*
Y2396412D01*
X1599650Y3635236D02*
X1658705D01*
X1629178Y3605708D02*
Y3664763D01*
X1748032Y3486855D02*
X1807086D01*
X1777559Y3457327D02*
Y3516382D01*
X1748032Y3783617D02*
X1807086D01*
X1777559Y3754090D02*
Y3813144D01*
X1896413Y3635236D02*
X1955468D01*
X1925940Y3605708D02*
Y3664763D01*
X2248032Y3486855D02*
X2307086D01*
X2277559Y3457327D02*
Y3516382D01*
X2396413Y3635236D02*
X2455468D01*
X2425940Y3605708D02*
Y3664763D01*
X2099650Y3635236D02*
X2158705D01*
X2129178Y3605708D02*
Y3664763D01*
X2248032Y3783617D02*
X2307086D01*
X2277559Y3754090D02*
Y3813144D01*
X133858Y3740157D02*
X259842D01*
X196850Y3677165D02*
Y3803150D01*
X3677165Y3740157D02*
X3803150D01*
X3740157Y3677165D02*
Y3803150D01*
X3677165Y196850D02*
X3803150D01*
X3740157Y133858D02*
Y259842D01*
X133858Y196850D02*
X259842D01*
X196850Y133858D02*
Y259842D01*
X1918047Y2180892D02*
X1927889D01*
X1922968Y2175971D02*
Y2185813D01*
X1931581Y2145703D02*
X1941423D01*
X1936502Y2140782D02*
Y2150624D01*
X1505405Y2533504D02*
X1515247D01*
X1510326Y2528583D02*
Y2538426D01*
X1481148Y2557762D02*
X1490990D01*
X1486069Y2552841D02*
Y2562683D01*
X1539329Y2531319D02*
X1549171D01*
X1544250Y2526398D02*
Y2536241D01*
X1479640Y2591008D02*
X1489482D01*
X1484561Y2586087D02*
Y2595930D01*
X1500854Y2678476D02*
X1510696D01*
X1505775Y2673555D02*
Y2683398D01*
X1521844Y2657486D02*
X1531687D01*
X1526765Y2652565D02*
Y2662407D01*
X1542835Y2636495D02*
X1552677D01*
X1547756Y2631574D02*
Y2641417D01*
X1543771Y2595210D02*
X1553614D01*
X1548693Y2590289D02*
Y2600131D01*
X1485852Y2621494D02*
X1495695D01*
X1490774Y2616573D02*
Y2626415D01*
X1464862Y2642485D02*
X1474705D01*
X1469783Y2637563D02*
Y2647406D01*
X1416892Y2762438D02*
X1426734D01*
X1421813Y2757517D02*
Y2767359D01*
X1437882Y2741448D02*
X1447725D01*
X1442804Y2736526D02*
Y2746369D01*
X1458873Y2720457D02*
X1468715D01*
X1463794Y2715536D02*
Y2725378D01*
X1479863Y2699467D02*
X1489706D01*
X1484784Y2694546D02*
Y2704388D01*
X1443871Y2663475D02*
X1453714D01*
X1448793Y2658554D02*
Y2668396D01*
X1422881Y2684465D02*
X1432724D01*
X1427802Y2679544D02*
Y2689387D01*
X1401891Y2705456D02*
X1411733D01*
X1406812Y2700535D02*
Y2710377D01*
X1380900Y2726446D02*
X1390743D01*
X1385821Y2721525D02*
Y2731368D01*
X1332930Y2846400D02*
X1342772D01*
X1337851Y2841479D02*
Y2851321D01*
X1353920Y2825410D02*
X1363763D01*
X1358842Y2820488D02*
Y2830331D01*
X1374911Y2804419D02*
X1384753D01*
X1379832Y2799498D02*
Y2809340D01*
X1395901Y2783429D02*
X1405744D01*
X1400823Y2778507D02*
Y2788350D01*
X1359910Y2747437D02*
X1369752D01*
X1364831Y2742516D02*
Y2752358D01*
X1338919Y2768427D02*
X1348762D01*
X1343840Y2763506D02*
Y2773349D01*
X1317929Y2789418D02*
X1327771D01*
X1322850Y2784497D02*
Y2794339D01*
X1296938Y2810408D02*
X1306781D01*
X1301860Y2805487D02*
Y2815329D01*
X1871663Y1773389D02*
X1881505D01*
X1876584Y1768468D02*
Y1778310D01*
X1798324Y1755208D02*
X1808166D01*
X1803245Y1750287D02*
Y1760129D01*
X1894685Y1820485D02*
X1904527D01*
X1899606Y1815564D02*
Y1825407D01*
X2346247Y1969932D02*
X2356089D01*
X2351168Y1965011D02*
Y1974854D01*
X3125512Y1227855D02*
X3135354D01*
X3130433Y1222934D02*
Y1232776D01*
X3125512Y1256603D02*
X3135354D01*
X3130433Y1251682D02*
Y1261524D01*
X3096764Y1227855D02*
X3106606D01*
X3101685Y1222934D02*
Y1232776D01*
X3096764Y1256603D02*
X3106606D01*
X3101685Y1251682D02*
Y1261524D01*
X3068016Y1227855D02*
X3077858D01*
X3072937Y1222934D02*
Y1232776D01*
X3068016Y1256603D02*
X3077858D01*
X3072937Y1251682D02*
Y1261524D01*
X3125512Y1285351D02*
X3135354D01*
X3130433Y1280430D02*
Y1290273D01*
X3125512Y1314099D02*
X3135354D01*
X3130433Y1309178D02*
Y1319021D01*
X3096764Y1285351D02*
X3106606D01*
X3101685Y1280430D02*
Y1290273D01*
X3096764Y1314099D02*
X3106606D01*
X3101685Y1309178D02*
Y1319021D01*
X3068016Y1285351D02*
X3077858D01*
X3072937Y1280430D02*
Y1290273D01*
X3068016Y1314099D02*
X3077858D01*
X3072937Y1309178D02*
Y1319021D01*
X3068016Y1342847D02*
X3077858D01*
X3072937Y1337926D02*
Y1347768D01*
X3096764Y1342847D02*
X3106606D01*
X3101685Y1337926D02*
Y1347768D01*
X3125512Y1342847D02*
X3135354D01*
X3130433Y1337926D02*
Y1347768D01*
X2924276Y1342847D02*
X2934119D01*
X2929197Y1337926D02*
Y1347768D01*
X2953024Y1342847D02*
X2962867D01*
X2957945Y1337926D02*
Y1347768D01*
X3039268Y1342847D02*
X3049110D01*
X3044189Y1337926D02*
Y1347768D01*
X3010520Y1342847D02*
X3020363D01*
X3015441Y1337926D02*
Y1347768D01*
X2981772Y1342847D02*
X2991615D01*
X2986693Y1337926D02*
Y1347768D01*
X2866780Y1342847D02*
X2876622D01*
X2871701Y1337926D02*
Y1347768D01*
X2838032Y1342847D02*
X2847874D01*
X2842953Y1337926D02*
Y1347768D01*
X2809284Y1342847D02*
X2819126D01*
X2814205Y1337926D02*
Y1347768D01*
X2895528Y1342847D02*
X2905370D01*
X2900449Y1337926D02*
Y1347768D01*
X2895528Y1227855D02*
X2905370D01*
X2900449Y1222934D02*
Y1232776D01*
X2895528Y1256603D02*
X2905370D01*
X2900449Y1251682D02*
Y1261524D01*
X2809284Y1227855D02*
X2819126D01*
X2814205Y1222934D02*
Y1232776D01*
X2809284Y1256603D02*
X2819126D01*
X2814205Y1251682D02*
Y1261524D01*
X2838032Y1227855D02*
X2847874D01*
X2842953Y1222934D02*
Y1232776D01*
X2838032Y1256603D02*
X2847874D01*
X2842953Y1251682D02*
Y1261524D01*
X2866780Y1227855D02*
X2876622D01*
X2871701Y1222934D02*
Y1232776D01*
X2866780Y1256603D02*
X2876622D01*
X2871701Y1251682D02*
Y1261524D01*
X2895528Y1285351D02*
X2905370D01*
X2900449Y1280430D02*
Y1290273D01*
X2895528Y1314099D02*
X2905370D01*
X2900449Y1309178D02*
Y1319021D01*
X2809284Y1285351D02*
X2819126D01*
X2814205Y1280430D02*
Y1290273D01*
X2809284Y1314099D02*
X2819126D01*
X2814205Y1309178D02*
Y1319021D01*
X2838032Y1285351D02*
X2847874D01*
X2842953Y1280430D02*
Y1290273D01*
X2838032Y1314099D02*
X2847874D01*
X2842953Y1309178D02*
Y1319021D01*
X2866780Y1285351D02*
X2876622D01*
X2871701Y1280430D02*
Y1290273D01*
X2866780Y1314099D02*
X2876622D01*
X2871701Y1309178D02*
Y1319021D01*
X2981772Y1314099D02*
X2991615D01*
X2986693Y1309178D02*
Y1319021D01*
X2981772Y1285351D02*
X2991615D01*
X2986693Y1280430D02*
Y1290273D01*
X3010520Y1314099D02*
X3020363D01*
X3015441Y1309178D02*
Y1319021D01*
X3010520Y1285351D02*
X3020363D01*
X3015441Y1280430D02*
Y1290273D01*
X3039268Y1314099D02*
X3049110D01*
X3044189Y1309178D02*
Y1319021D01*
X3039268Y1285351D02*
X3049110D01*
X3044189Y1280430D02*
Y1290273D01*
X2953024Y1314099D02*
X2962867D01*
X2957945Y1309178D02*
Y1319021D01*
X2953024Y1285351D02*
X2962867D01*
X2957945Y1280430D02*
Y1290273D01*
X2924276Y1314099D02*
X2934119D01*
X2929197Y1309178D02*
Y1319021D01*
X2924276Y1285351D02*
X2934119D01*
X2929197Y1280430D02*
Y1290273D01*
X2981772Y1256603D02*
X2991615D01*
X2986693Y1251682D02*
Y1261524D01*
X2981772Y1227855D02*
X2991615D01*
X2986693Y1222934D02*
Y1232776D01*
X3010520Y1256603D02*
X3020363D01*
X3015441Y1251682D02*
Y1261524D01*
X3010520Y1227855D02*
X3020363D01*
X3015441Y1222934D02*
Y1232776D01*
X3039268Y1256603D02*
X3049110D01*
X3044189Y1251682D02*
Y1261524D01*
X3039268Y1227855D02*
X3049110D01*
X3044189Y1222934D02*
Y1232776D01*
X2953024Y1256603D02*
X2962867D01*
X2957945Y1251682D02*
Y1261524D01*
X2953024Y1227855D02*
X2962867D01*
X2957945Y1222934D02*
Y1232776D01*
X2924276Y1256603D02*
X2934119D01*
X2929197Y1251682D02*
Y1261524D01*
X2924276Y1227855D02*
X2934119D01*
X2929197Y1222934D02*
Y1232776D01*
X3246400Y796926D02*
X3258211D01*
X3252305Y791021D02*
Y802832D01*
X370515Y1973488D02*
X382326D01*
X376421Y1967583D02*
Y1979394D01*
X2026638Y3560587D02*
X2038449D01*
X2032543Y3554682D02*
Y3566493D01*
X3834095Y3480000D02*
X3845905D01*
X3840000Y3474095D02*
Y3485905D01*
X3834095Y3240000D02*
X3845905D01*
X3840000Y3234095D02*
Y3245905D01*
X3834095Y3000000D02*
X3845905D01*
X3840000Y2994095D02*
Y3005905D01*
X3834095Y2760000D02*
X3845905D01*
X3840000Y2754095D02*
Y2765905D01*
X3834095Y2520000D02*
X3845905D01*
X3840000Y2514095D02*
Y2525905D01*
X3834095Y2280000D02*
X3845905D01*
X3840000Y2274095D02*
Y2285905D01*
X3834095Y2040000D02*
X3845905D01*
X3840000Y2034094D02*
Y2045906D01*
X3834095Y1800000D02*
X3845905D01*
X3840000Y1794094D02*
Y1805906D01*
X3834095Y1560000D02*
X3845905D01*
X3840000Y1554094D02*
Y1565906D01*
X3834095Y1320000D02*
X3845905D01*
X3840000Y1314094D02*
Y1325906D01*
X3834095Y1080000D02*
X3845905D01*
X3840000Y1074094D02*
Y1085906D01*
X3834095Y840000D02*
X3845905D01*
X3840000Y834095D02*
Y845905D01*
X3834095Y600000D02*
X3845905D01*
X3840000Y594095D02*
Y605905D01*
X3834095Y360000D02*
X3845905D01*
X3840000Y354094D02*
Y365906D01*
X3714095Y3480000D02*
X3725905D01*
X3720000Y3474095D02*
Y3485905D01*
X3774095Y3360000D02*
X3785905D01*
X3780000Y3354095D02*
Y3365905D01*
X3714095Y3240000D02*
X3725905D01*
X3720000Y3234095D02*
Y3245905D01*
X3774095Y3120000D02*
X3785905D01*
X3780000Y3114095D02*
Y3125905D01*
X3714095Y3000000D02*
X3725905D01*
X3720000Y2994095D02*
Y3005905D01*
X3774095Y2880000D02*
X3785905D01*
X3780000Y2874095D02*
Y2885905D01*
X3714095Y2760000D02*
X3725905D01*
X3720000Y2754095D02*
Y2765905D01*
X3774095Y2640000D02*
X3785905D01*
X3780000Y2634095D02*
Y2645905D01*
X3714095Y2520000D02*
X3725905D01*
X3720000Y2514095D02*
Y2525905D01*
X3774095Y2400000D02*
X3785905D01*
X3780000Y2394095D02*
Y2405905D01*
X3714095Y2280000D02*
X3725905D01*
X3720000Y2274095D02*
Y2285905D01*
X3774095Y2160000D02*
X3785905D01*
X3780000Y2154095D02*
Y2165905D01*
X3714095Y2040000D02*
X3725905D01*
X3720000Y2034094D02*
Y2045906D01*
X3774095Y1920000D02*
X3785905D01*
X3780000Y1914094D02*
Y1925906D01*
X3714095Y1800000D02*
X3725905D01*
X3720000Y1794094D02*
Y1805906D01*
X3774095Y1680000D02*
X3785905D01*
X3780000Y1674094D02*
Y1685906D01*
X3714095Y1560000D02*
X3725905D01*
X3720000Y1554094D02*
Y1565906D01*
X3774095Y1440000D02*
X3785905D01*
X3780000Y1434094D02*
Y1445906D01*
X3774095Y1200000D02*
X3785905D01*
X3780000Y1194094D02*
Y1205906D01*
X3774095Y960000D02*
X3785905D01*
X3780000Y954095D02*
Y965905D01*
X3774095Y720000D02*
X3785905D01*
X3780000Y714095D02*
Y725905D01*
X3714095Y600000D02*
X3725905D01*
X3720000Y594095D02*
Y605905D01*
X3774095Y480000D02*
X3785905D01*
X3780000Y474094D02*
Y485906D01*
X3714095Y360000D02*
X3725905D01*
X3720000Y354094D02*
Y365906D01*
X3654095Y3600000D02*
X3665905D01*
X3660000Y3594095D02*
Y3605905D01*
X3654095Y3360000D02*
X3665905D01*
X3660000Y3354095D02*
Y3365905D01*
X3654095Y3120000D02*
X3665905D01*
X3660000Y3114095D02*
Y3125905D01*
X3594095Y3000000D02*
X3605905D01*
X3600000Y2994095D02*
Y3005905D01*
X3594095Y2280000D02*
X3605905D01*
X3600000Y2274095D02*
Y2285905D01*
X3654095Y2160000D02*
X3665905D01*
X3660000Y2154095D02*
Y2165905D01*
X3594095Y2040000D02*
X3605905D01*
X3600000Y2034094D02*
Y2045906D01*
X3654095Y1680000D02*
X3665905D01*
X3660000Y1674094D02*
Y1685906D01*
X3594095Y1560000D02*
X3605905D01*
X3600000Y1554094D02*
Y1565906D01*
X3654095Y1200000D02*
X3665905D01*
X3660000Y1194094D02*
Y1205906D01*
X3594095Y600000D02*
X3605905D01*
X3600000Y594095D02*
Y605905D01*
X3654095Y480000D02*
X3665905D01*
X3660000Y474094D02*
Y485906D01*
X3594095Y360000D02*
X3605905D01*
X3600000Y354094D02*
Y365906D01*
X3534095Y3840000D02*
X3545905D01*
X3540000Y3834095D02*
Y3845905D01*
X3474095Y3720000D02*
X3485905D01*
X3480000Y3714095D02*
Y3725905D01*
X3534095Y3600000D02*
X3545905D01*
X3540000Y3594095D02*
Y3605905D01*
X3534095Y3120000D02*
X3545905D01*
X3540000Y3114095D02*
Y3125905D01*
X3474095Y3000000D02*
X3485905D01*
X3480000Y2994095D02*
Y3005905D01*
X3534095Y2160000D02*
X3545905D01*
X3540000Y2154095D02*
Y2165905D01*
X3474095Y2040000D02*
X3485905D01*
X3480000Y2034094D02*
Y2045906D01*
X3534095Y1680000D02*
X3545905D01*
X3540000Y1674094D02*
Y1685906D01*
X3474095Y1560000D02*
X3485905D01*
X3480000Y1554094D02*
Y1565906D01*
X3474095Y840000D02*
X3485905D01*
X3480000Y834095D02*
Y845905D01*
X3534095Y720000D02*
X3545905D01*
X3540000Y714095D02*
Y725905D01*
X3474095Y600000D02*
X3485905D01*
X3480000Y594095D02*
Y605905D01*
X3534095Y480000D02*
X3545905D01*
X3540000Y474094D02*
Y485906D01*
X3474095Y360000D02*
X3485905D01*
X3480000Y354094D02*
Y365906D01*
X3414095Y3840000D02*
X3425905D01*
X3420000Y3834095D02*
Y3845905D01*
X3354095Y3720000D02*
X3365905D01*
X3360000Y3714095D02*
Y3725905D01*
X3414095Y3600000D02*
X3425905D01*
X3420000Y3594095D02*
Y3605905D01*
X3354095Y3480000D02*
X3365905D01*
X3360000Y3474095D02*
Y3485905D01*
X3354095Y3240000D02*
X3365905D01*
X3360000Y3234095D02*
Y3245905D01*
X3414095Y3120000D02*
X3425905D01*
X3420000Y3114095D02*
Y3125905D01*
X3354095Y3000000D02*
X3365905D01*
X3360000Y2994095D02*
Y3005905D01*
X3354095Y2760000D02*
X3365905D01*
X3360000Y2754095D02*
Y2765905D01*
X3414095Y2160000D02*
X3425905D01*
X3420000Y2154095D02*
Y2165905D01*
X3354095Y2040000D02*
X3365905D01*
X3360000Y2034094D02*
Y2045906D01*
X3414095Y1680000D02*
X3425905D01*
X3420000Y1674094D02*
Y1685906D01*
X3354095Y1560000D02*
X3365905D01*
X3360000Y1554094D02*
Y1565906D01*
X3414095Y960000D02*
X3425905D01*
X3420000Y954095D02*
Y965905D01*
X3354095Y840000D02*
X3365905D01*
X3360000Y834095D02*
Y845905D01*
X3414095Y720000D02*
X3425905D01*
X3420000Y714095D02*
Y725905D01*
X3414095Y480000D02*
X3425905D01*
X3420000Y474094D02*
Y485906D01*
X3354095Y360000D02*
X3365905D01*
X3360000Y354094D02*
Y365906D01*
X3294095Y3840000D02*
X3305905D01*
X3300000Y3834095D02*
Y3845905D01*
X3234095Y3720000D02*
X3245905D01*
X3240000Y3714095D02*
Y3725905D01*
X3294095Y3600000D02*
X3305905D01*
X3300000Y3594095D02*
Y3605905D01*
X3294095Y3120000D02*
X3305905D01*
X3300000Y3114095D02*
Y3125905D01*
X3234095Y3000000D02*
X3245905D01*
X3240000Y2994095D02*
Y3005905D01*
X3294095Y2880000D02*
X3305905D01*
X3300000Y2874095D02*
Y2885905D01*
X3234095Y2760000D02*
X3245905D01*
X3240000Y2754095D02*
Y2765905D01*
X3294095Y2640000D02*
X3305905D01*
X3300000Y2634095D02*
Y2645905D01*
X3234095Y2520000D02*
X3245905D01*
X3240000Y2514095D02*
Y2525905D01*
X3294095Y2400000D02*
X3305905D01*
X3300000Y2394095D02*
Y2405905D01*
X3234095Y2040000D02*
X3245905D01*
X3240000Y2034094D02*
Y2045906D01*
X3234095Y1800000D02*
X3245905D01*
X3240000Y1794094D02*
Y1805906D01*
X3294095Y1680000D02*
X3305905D01*
X3300000Y1674094D02*
Y1685906D01*
X3234095Y1560000D02*
X3245905D01*
X3240000Y1554094D02*
Y1565906D01*
X3294095Y960000D02*
X3305905D01*
X3300000Y954095D02*
Y965905D01*
X3234095Y120000D02*
X3245905D01*
X3240000Y114094D02*
Y125906D01*
X3174095Y3840000D02*
X3185905D01*
X3180000Y3834095D02*
Y3845905D01*
X3114095Y3720000D02*
X3125905D01*
X3120000Y3714095D02*
Y3725905D01*
X3174095Y3600000D02*
X3185905D01*
X3180000Y3594095D02*
Y3605905D01*
X3114095Y3480000D02*
X3125905D01*
X3120000Y3474095D02*
Y3485905D01*
X3174095Y3120000D02*
X3185905D01*
X3180000Y3114095D02*
Y3125905D01*
X3174095Y2880000D02*
X3185905D01*
X3180000Y2874095D02*
Y2885905D01*
X3174095Y2640000D02*
X3185905D01*
X3180000Y2634095D02*
Y2645905D01*
X3114095Y2520000D02*
X3125905D01*
X3120000Y2514095D02*
Y2525905D01*
X3174095Y2400000D02*
X3185905D01*
X3180000Y2394095D02*
Y2405905D01*
X3114095Y2280000D02*
X3125905D01*
X3120000Y2274095D02*
Y2285905D01*
X3114095Y1800000D02*
X3125905D01*
X3120000Y1794094D02*
Y1805906D01*
X3174095Y1680000D02*
X3185905D01*
X3180000Y1674094D02*
Y1685906D01*
X3114095Y1560000D02*
X3125905D01*
X3120000Y1554094D02*
Y1565906D01*
X3054095Y3840000D02*
X3065905D01*
X3060000Y3834095D02*
Y3845905D01*
X2994095Y3720000D02*
X3005905D01*
X3000000Y3714095D02*
Y3725905D01*
X3054095Y3600000D02*
X3065905D01*
X3060000Y3594095D02*
Y3605905D01*
X2994095Y3480000D02*
X3005905D01*
X3000000Y3474095D02*
Y3485905D01*
X2994095Y3240000D02*
X3005905D01*
X3000000Y3234095D02*
Y3245905D01*
X2994095Y3000000D02*
X3005905D01*
X3000000Y2994095D02*
Y3005905D01*
X3054095Y2640000D02*
X3065905D01*
X3060000Y2634095D02*
Y2645905D01*
X2994095Y2520000D02*
X3005905D01*
X3000000Y2514095D02*
Y2525905D01*
X3054095Y2400000D02*
X3065905D01*
X3060000Y2394095D02*
Y2405905D01*
X2994095Y2280000D02*
X3005905D01*
X3000000Y2274095D02*
Y2285905D01*
X3054095Y2160000D02*
X3065905D01*
X3060000Y2154095D02*
Y2165905D01*
X2994095Y1800000D02*
X3005905D01*
X3000000Y1794094D02*
Y1805906D01*
X3054095Y1680000D02*
X3065905D01*
X3060000Y1674094D02*
Y1685906D01*
X2994095Y1560000D02*
X3005905D01*
X3000000Y1554094D02*
Y1565906D01*
X2934095Y3840000D02*
X2945905D01*
X2940000Y3834095D02*
Y3845905D01*
X2874095Y3720000D02*
X2885905D01*
X2880000Y3714095D02*
Y3725905D01*
X2934095Y3600000D02*
X2945905D01*
X2940000Y3594095D02*
Y3605905D01*
X2874095Y3480000D02*
X2885905D01*
X2880000Y3474095D02*
Y3485905D01*
X2934095Y3360000D02*
X2945905D01*
X2940000Y3354095D02*
Y3365905D01*
X2874095Y3240000D02*
X2885905D01*
X2880000Y3234095D02*
Y3245905D01*
X2934095Y3120000D02*
X2945905D01*
X2940000Y3114095D02*
Y3125905D01*
X2874095Y3000000D02*
X2885905D01*
X2880000Y2994095D02*
Y3005905D01*
X2934095Y2880000D02*
X2945905D01*
X2940000Y2874095D02*
Y2885905D01*
X2874095Y2760000D02*
X2885905D01*
X2880000Y2754095D02*
Y2765905D01*
X2934095Y2400000D02*
X2945905D01*
X2940000Y2394095D02*
Y2405905D01*
X2874095Y2280000D02*
X2885905D01*
X2880000Y2274095D02*
Y2285905D01*
X2934095Y2160000D02*
X2945905D01*
X2940000Y2154095D02*
Y2165905D01*
X2874095Y1800000D02*
X2885905D01*
X2880000Y1794094D02*
Y1805906D01*
X2934095Y1680000D02*
X2945905D01*
X2940000Y1674094D02*
Y1685906D01*
X2874095Y1560000D02*
X2885905D01*
X2880000Y1554094D02*
Y1565906D01*
X2814095Y3840000D02*
X2825905D01*
X2820000Y3834095D02*
Y3845905D01*
X2754095Y3720000D02*
X2765905D01*
X2760000Y3714095D02*
Y3725905D01*
X2814095Y3600000D02*
X2825905D01*
X2820000Y3594095D02*
Y3605905D01*
X2754095Y3480000D02*
X2765905D01*
X2760000Y3474095D02*
Y3485905D01*
X2814095Y3360000D02*
X2825905D01*
X2820000Y3354095D02*
Y3365905D01*
X2754095Y3240000D02*
X2765905D01*
X2760000Y3234095D02*
Y3245905D01*
X2814095Y3120000D02*
X2825905D01*
X2820000Y3114095D02*
Y3125905D01*
X2754095Y3000000D02*
X2765905D01*
X2760000Y2994095D02*
Y3005905D01*
X2814095Y2880000D02*
X2825905D01*
X2820000Y2874095D02*
Y2885905D01*
X2754095Y2760000D02*
X2765905D01*
X2760000Y2754095D02*
Y2765905D01*
X2814095Y2640000D02*
X2825905D01*
X2820000Y2634095D02*
Y2645905D01*
X2814095Y2400000D02*
X2825905D01*
X2820000Y2394095D02*
Y2405905D01*
X2754095Y2280000D02*
X2765905D01*
X2760000Y2274095D02*
Y2285905D01*
X2814095Y2160000D02*
X2825905D01*
X2820000Y2154095D02*
Y2165905D01*
X2754095Y1800000D02*
X2765905D01*
X2760000Y1794094D02*
Y1805906D01*
X2814095Y1680000D02*
X2825905D01*
X2820000Y1674094D02*
Y1685906D01*
X2754095Y1560000D02*
X2765905D01*
X2760000Y1554094D02*
Y1565906D01*
X2754095Y600000D02*
X2765905D01*
X2760000Y594095D02*
Y605905D01*
X2754095Y360000D02*
X2765905D01*
X2760000Y354094D02*
Y365906D01*
X2694095Y3840000D02*
X2705905D01*
X2700000Y3834095D02*
Y3845905D01*
X2634095Y3720000D02*
X2645905D01*
X2640000Y3714095D02*
Y3725905D01*
X2694095Y3600000D02*
X2705905D01*
X2700000Y3594095D02*
Y3605905D01*
X2634095Y3480000D02*
X2645905D01*
X2640000Y3474095D02*
Y3485905D01*
X2694095Y3360000D02*
X2705905D01*
X2700000Y3354095D02*
Y3365905D01*
X2634095Y3240000D02*
X2645905D01*
X2640000Y3234095D02*
Y3245905D01*
X2694095Y3120000D02*
X2705905D01*
X2700000Y3114095D02*
Y3125905D01*
X2634095Y3000000D02*
X2645905D01*
X2640000Y2994095D02*
Y3005905D01*
X2694095Y2880000D02*
X2705905D01*
X2700000Y2874095D02*
Y2885905D01*
X2634095Y2760000D02*
X2645905D01*
X2640000Y2754095D02*
Y2765905D01*
X2694095Y2640000D02*
X2705905D01*
X2700000Y2634095D02*
Y2645905D01*
X2634095Y2520000D02*
X2645905D01*
X2640000Y2514095D02*
Y2525905D01*
X2694095Y2160000D02*
X2705905D01*
X2700000Y2154095D02*
Y2165905D01*
X2634095Y1800000D02*
X2645905D01*
X2640000Y1794094D02*
Y1805906D01*
X2694095Y1680000D02*
X2705905D01*
X2700000Y1674094D02*
Y1685906D01*
X2634095Y1560000D02*
X2645905D01*
X2640000Y1554094D02*
Y1565906D01*
X2694095Y1440000D02*
X2705905D01*
X2700000Y1434094D02*
Y1445906D01*
X2694095Y960000D02*
X2705905D01*
X2700000Y954095D02*
Y965905D01*
X2694095Y720000D02*
X2705905D01*
X2700000Y714095D02*
Y725905D01*
X2634095Y600000D02*
X2645905D01*
X2640000Y594095D02*
Y605905D01*
X2694095Y480000D02*
X2705905D01*
X2700000Y474094D02*
Y485906D01*
X2634095Y360000D02*
X2645905D01*
X2640000Y354094D02*
Y365906D01*
X2574095Y3840000D02*
X2585905D01*
X2580000Y3834095D02*
Y3845905D01*
X2514095Y3720000D02*
X2525905D01*
X2520000Y3714095D02*
Y3725905D01*
X2574095Y3600000D02*
X2585905D01*
X2580000Y3594095D02*
Y3605905D01*
X2514095Y3480000D02*
X2525905D01*
X2520000Y3474095D02*
Y3485905D01*
X2574095Y3360000D02*
X2585905D01*
X2580000Y3354095D02*
Y3365905D01*
X2514095Y3240000D02*
X2525905D01*
X2520000Y3234095D02*
Y3245905D01*
X2574095Y3120000D02*
X2585905D01*
X2580000Y3114095D02*
Y3125905D01*
X2514095Y3000000D02*
X2525905D01*
X2520000Y2994095D02*
Y3005905D01*
X2574095Y2880000D02*
X2585905D01*
X2580000Y2874095D02*
Y2885905D01*
X2514095Y2760000D02*
X2525905D01*
X2520000Y2754095D02*
Y2765905D01*
X2574095Y2640000D02*
X2585905D01*
X2580000Y2634095D02*
Y2645905D01*
X2514095Y2520000D02*
X2525905D01*
X2520000Y2514095D02*
Y2525905D01*
X2574095Y2400000D02*
X2585905D01*
X2580000Y2394095D02*
Y2405905D01*
X2574095Y2160000D02*
X2585905D01*
X2580000Y2154095D02*
Y2165905D01*
X2574095Y1680000D02*
X2585905D01*
X2580000Y1674094D02*
Y1685906D01*
X2514095Y1560000D02*
X2525905D01*
X2520000Y1554094D02*
Y1565906D01*
X2574095Y1440000D02*
X2585905D01*
X2580000Y1434094D02*
Y1445906D01*
X2574095Y960000D02*
X2585905D01*
X2580000Y954095D02*
Y965905D01*
X2514095Y840000D02*
X2525905D01*
X2520000Y834095D02*
Y845905D01*
X2574095Y720000D02*
X2585905D01*
X2580000Y714095D02*
Y725905D01*
X2514095Y600000D02*
X2525905D01*
X2520000Y594095D02*
Y605905D01*
X2574095Y480000D02*
X2585905D01*
X2580000Y474094D02*
Y485906D01*
X2514095Y360000D02*
X2525905D01*
X2520000Y354094D02*
Y365906D01*
X2454095Y3840000D02*
X2465905D01*
X2460000Y3834095D02*
Y3845905D01*
X2394095Y3480000D02*
X2405905D01*
X2400000Y3474095D02*
Y3485905D01*
X2454095Y3360000D02*
X2465905D01*
X2460000Y3354095D02*
Y3365905D01*
X2394095Y3240000D02*
X2405905D01*
X2400000Y3234095D02*
Y3245905D01*
X2454095Y3120000D02*
X2465905D01*
X2460000Y3114095D02*
Y3125905D01*
X2394095Y3000000D02*
X2405905D01*
X2400000Y2994095D02*
Y3005905D01*
X2454095Y2880000D02*
X2465905D01*
X2460000Y2874095D02*
Y2885905D01*
X2394095Y2760000D02*
X2405905D01*
X2400000Y2754095D02*
Y2765905D01*
X2454095Y2640000D02*
X2465905D01*
X2460000Y2634095D02*
Y2645905D01*
X2394095Y2520000D02*
X2405905D01*
X2400000Y2514095D02*
Y2525905D01*
X2454095Y1680000D02*
X2465905D01*
X2460000Y1674094D02*
Y1685906D01*
X2454095Y1440000D02*
X2465905D01*
X2460000Y1434094D02*
Y1445906D01*
X2394095Y1320000D02*
X2405905D01*
X2400000Y1314094D02*
Y1325906D01*
X2394095Y1080000D02*
X2405905D01*
X2400000Y1074094D02*
Y1085906D01*
X2454095Y960000D02*
X2465905D01*
X2460000Y954095D02*
Y965905D01*
X2394095Y840000D02*
X2405905D01*
X2400000Y834095D02*
Y845905D01*
X2454095Y720000D02*
X2465905D01*
X2460000Y714095D02*
Y725905D01*
X2394095Y600000D02*
X2405905D01*
X2400000Y594095D02*
Y605905D01*
X2454095Y480000D02*
X2465905D01*
X2460000Y474094D02*
Y485906D01*
X2394095Y120000D02*
X2405905D01*
X2400000Y114094D02*
Y125906D01*
X2334095Y3360000D02*
X2345905D01*
X2340000Y3354095D02*
Y3365905D01*
X2274095Y3240000D02*
X2285905D01*
X2280000Y3234095D02*
Y3245905D01*
X2334095Y3120000D02*
X2345905D01*
X2340000Y3114095D02*
Y3125905D01*
X2274095Y3000000D02*
X2285905D01*
X2280000Y2994095D02*
Y3005905D01*
X2334095Y2880000D02*
X2345905D01*
X2340000Y2874095D02*
Y2885905D01*
X2274095Y2760000D02*
X2285905D01*
X2280000Y2754095D02*
Y2765905D01*
X2334095Y2640000D02*
X2345905D01*
X2340000Y2634095D02*
Y2645905D01*
X2274095Y2520000D02*
X2285905D01*
X2280000Y2514095D02*
Y2525905D01*
X2274095Y1320000D02*
X2285905D01*
X2280000Y1314094D02*
Y1325906D01*
X2334095Y1200000D02*
X2345905D01*
X2340000Y1194094D02*
Y1205906D01*
X2274095Y1080000D02*
X2285905D01*
X2280000Y1074094D02*
Y1085906D01*
X2334095Y960000D02*
X2345905D01*
X2340000Y954095D02*
Y965905D01*
X2274095Y840000D02*
X2285905D01*
X2280000Y834095D02*
Y845905D01*
X2334095Y720000D02*
X2345905D01*
X2340000Y714095D02*
Y725905D01*
X2274095Y600000D02*
X2285905D01*
X2280000Y594095D02*
Y605905D01*
X2334095Y480000D02*
X2345905D01*
X2340000Y474094D02*
Y485906D01*
X2214095Y3360000D02*
X2225905D01*
X2220000Y3354095D02*
Y3365905D01*
X2154095Y3240000D02*
X2165905D01*
X2160000Y3234095D02*
Y3245905D01*
X2214095Y3120000D02*
X2225905D01*
X2220000Y3114095D02*
Y3125905D01*
X2154095Y3000000D02*
X2165905D01*
X2160000Y2994095D02*
Y3005905D01*
X2214095Y2880000D02*
X2225905D01*
X2220000Y2874095D02*
Y2885905D01*
X2154095Y2760000D02*
X2165905D01*
X2160000Y2754095D02*
Y2765905D01*
X2214095Y2640000D02*
X2225905D01*
X2220000Y2634095D02*
Y2645905D01*
X2154095Y2520000D02*
X2165905D01*
X2160000Y2514095D02*
Y2525905D01*
X2154095Y1560000D02*
X2165905D01*
X2160000Y1554094D02*
Y1565906D01*
X2214095Y1440000D02*
X2225905D01*
X2220000Y1434094D02*
Y1445906D01*
X2154095Y1320000D02*
X2165905D01*
X2160000Y1314094D02*
Y1325906D01*
X2214095Y1200000D02*
X2225905D01*
X2220000Y1194094D02*
Y1205906D01*
X2154095Y1080000D02*
X2165905D01*
X2160000Y1074094D02*
Y1085906D01*
X2214095Y960000D02*
X2225905D01*
X2220000Y954095D02*
Y965905D01*
X2154095Y840000D02*
X2165905D01*
X2160000Y834095D02*
Y845905D01*
X2214095Y720000D02*
X2225905D01*
X2220000Y714095D02*
Y725905D01*
X2154095Y600000D02*
X2165905D01*
X2160000Y594095D02*
Y605905D01*
X2094095Y3840000D02*
X2105905D01*
X2100000Y3834095D02*
Y3845905D01*
X2034094Y3720000D02*
X2045906D01*
X2040000Y3714095D02*
Y3725905D01*
X2094095Y1680000D02*
X2105905D01*
X2100000Y1674094D02*
Y1685906D01*
X2034094Y1560000D02*
X2045906D01*
X2040000Y1554094D02*
Y1565906D01*
X2094095Y1440000D02*
X2105905D01*
X2100000Y1434094D02*
Y1445906D01*
X2034094Y1320000D02*
X2045906D01*
X2040000Y1314094D02*
Y1325906D01*
X2094095Y1200000D02*
X2105905D01*
X2100000Y1194094D02*
Y1205906D01*
X2034094Y1080000D02*
X2045906D01*
X2040000Y1074094D02*
Y1085906D01*
X2094095Y960000D02*
X2105905D01*
X2100000Y954095D02*
Y965905D01*
X2034094Y840000D02*
X2045906D01*
X2040000Y834095D02*
Y845905D01*
X2094095Y720000D02*
X2105905D01*
X2100000Y714095D02*
Y725905D01*
X2034094Y600000D02*
X2045906D01*
X2040000Y594095D02*
Y605905D01*
X2034094Y120000D02*
X2045906D01*
X2040000Y114094D02*
Y125906D01*
X1974094Y3840000D02*
X1985906D01*
X1980000Y3834095D02*
Y3845905D01*
X1914094Y3240000D02*
X1925906D01*
X1920000Y3234095D02*
Y3245905D01*
X1914094Y3000000D02*
X1925906D01*
X1920000Y2994095D02*
Y3005905D01*
X1914094Y2760000D02*
X1925906D01*
X1920000Y2754095D02*
Y2765905D01*
X1914094Y2520000D02*
X1925906D01*
X1920000Y2514095D02*
Y2525905D01*
X1914094Y360000D02*
X1925906D01*
X1920000Y354094D02*
Y365906D01*
X1914094Y120000D02*
X1925906D01*
X1920000Y114094D02*
Y125906D01*
X1854094Y3360000D02*
X1865906D01*
X1860000Y3354095D02*
Y3365905D01*
X1794094Y3240000D02*
X1805906D01*
X1800000Y3234095D02*
Y3245905D01*
X1854094Y3120000D02*
X1865906D01*
X1860000Y3114095D02*
Y3125905D01*
X1794094Y3000000D02*
X1805906D01*
X1800000Y2994095D02*
Y3005905D01*
X1854094Y2880000D02*
X1865906D01*
X1860000Y2874095D02*
Y2885905D01*
X1794094Y2760000D02*
X1805906D01*
X1800000Y2754095D02*
Y2765905D01*
X1854094Y2640000D02*
X1865906D01*
X1860000Y2634095D02*
Y2645905D01*
X1794094Y2520000D02*
X1805906D01*
X1800000Y2514095D02*
Y2525905D01*
X1794094Y1560000D02*
X1805906D01*
X1800000Y1554094D02*
Y1565906D01*
X1794094Y1320000D02*
X1805906D01*
X1800000Y1314094D02*
Y1325906D01*
X1794094Y1080000D02*
X1805906D01*
X1800000Y1074094D02*
Y1085906D01*
X1794094Y840000D02*
X1805906D01*
X1800000Y834095D02*
Y845905D01*
X1794094Y600000D02*
X1805906D01*
X1800000Y594095D02*
Y605905D01*
X1794094Y120000D02*
X1805906D01*
X1800000Y114094D02*
Y125906D01*
X1734094Y3360000D02*
X1745906D01*
X1740000Y3354095D02*
Y3365905D01*
X1674094Y3240000D02*
X1685906D01*
X1680000Y3234095D02*
Y3245905D01*
X1734094Y3120000D02*
X1745906D01*
X1740000Y3114095D02*
Y3125905D01*
X1674094Y3000000D02*
X1685906D01*
X1680000Y2994095D02*
Y3005905D01*
X1734094Y2880000D02*
X1745906D01*
X1740000Y2874095D02*
Y2885905D01*
X1674094Y2760000D02*
X1685906D01*
X1680000Y2754095D02*
Y2765905D01*
X1734094Y2640000D02*
X1745906D01*
X1740000Y2634095D02*
Y2645905D01*
X1734094Y1440000D02*
X1745906D01*
X1740000Y1434094D02*
Y1445906D01*
X1674094Y1320000D02*
X1685906D01*
X1680000Y1314094D02*
Y1325906D01*
X1734094Y1200000D02*
X1745906D01*
X1740000Y1194094D02*
Y1205906D01*
X1674094Y1080000D02*
X1685906D01*
X1680000Y1074094D02*
Y1085906D01*
X1734094Y960000D02*
X1745906D01*
X1740000Y954095D02*
Y965905D01*
X1674094Y840000D02*
X1685906D01*
X1680000Y834095D02*
Y845905D01*
X1734094Y720000D02*
X1745906D01*
X1740000Y714095D02*
Y725905D01*
X1674094Y600000D02*
X1685906D01*
X1680000Y594095D02*
Y605905D01*
X1614094Y3840000D02*
X1625906D01*
X1620000Y3834095D02*
Y3845905D01*
X1554094Y3720000D02*
X1565906D01*
X1560000Y3714095D02*
Y3725905D01*
X1554094Y3480000D02*
X1565906D01*
X1560000Y3474095D02*
Y3485905D01*
X1614094Y3360000D02*
X1625906D01*
X1620000Y3354095D02*
Y3365905D01*
X1554094Y3240000D02*
X1565906D01*
X1560000Y3234095D02*
Y3245905D01*
X1614094Y3120000D02*
X1625906D01*
X1620000Y3114095D02*
Y3125905D01*
X1554094Y3000000D02*
X1565906D01*
X1560000Y2994095D02*
Y3005905D01*
X1614094Y2880000D02*
X1625906D01*
X1620000Y2874095D02*
Y2885905D01*
X1554094Y2760000D02*
X1565906D01*
X1560000Y2754095D02*
Y2765905D01*
X1614094Y1440000D02*
X1625906D01*
X1620000Y1434094D02*
Y1445906D01*
X1554094Y1320000D02*
X1565906D01*
X1560000Y1314094D02*
Y1325906D01*
X1614094Y1200000D02*
X1625906D01*
X1620000Y1194094D02*
Y1205906D01*
X1554094Y1080000D02*
X1565906D01*
X1560000Y1074094D02*
Y1085906D01*
X1614094Y960000D02*
X1625906D01*
X1620000Y954095D02*
Y965905D01*
X1554094Y840000D02*
X1565906D01*
X1560000Y834095D02*
Y845905D01*
X1614094Y720000D02*
X1625906D01*
X1620000Y714095D02*
Y725905D01*
X1554094Y600000D02*
X1565906D01*
X1560000Y594095D02*
Y605905D01*
X1554094Y120000D02*
X1565906D01*
X1560000Y114094D02*
Y125906D01*
X1494094Y3840000D02*
X1505906D01*
X1500000Y3834095D02*
Y3845905D01*
X1434094Y3720000D02*
X1445906D01*
X1440000Y3714095D02*
Y3725905D01*
X1494094Y3600000D02*
X1505906D01*
X1500000Y3594095D02*
Y3605905D01*
X1434094Y3480000D02*
X1445906D01*
X1440000Y3474095D02*
Y3485905D01*
X1494094Y3360000D02*
X1505906D01*
X1500000Y3354095D02*
Y3365905D01*
X1434094Y3240000D02*
X1445906D01*
X1440000Y3234095D02*
Y3245905D01*
X1494094Y3120000D02*
X1505906D01*
X1500000Y3114095D02*
Y3125905D01*
X1434094Y3000000D02*
X1445906D01*
X1440000Y2994095D02*
Y3005905D01*
X1494094Y2880000D02*
X1505906D01*
X1500000Y2874095D02*
Y2885905D01*
X1434094Y2520000D02*
X1445906D01*
X1440000Y2514095D02*
Y2525905D01*
X1434094Y2280000D02*
X1445906D01*
X1440000Y2274095D02*
Y2285905D01*
X1494094Y2160000D02*
X1505906D01*
X1500000Y2154095D02*
Y2165905D01*
X1434094Y1800000D02*
X1445906D01*
X1440000Y1794094D02*
Y1805906D01*
X1494094Y1440000D02*
X1505906D01*
X1500000Y1434094D02*
Y1445906D01*
X1434094Y1320000D02*
X1445906D01*
X1440000Y1314094D02*
Y1325906D01*
X1494094Y1200000D02*
X1505906D01*
X1500000Y1194094D02*
Y1205906D01*
X1434094Y1080000D02*
X1445906D01*
X1440000Y1074094D02*
Y1085906D01*
X1494094Y960000D02*
X1505906D01*
X1500000Y954095D02*
Y965905D01*
X1434094Y840000D02*
X1445906D01*
X1440000Y834095D02*
Y845905D01*
X1494094Y720000D02*
X1505906D01*
X1500000Y714095D02*
Y725905D01*
X1434094Y600000D02*
X1445906D01*
X1440000Y594095D02*
Y605905D01*
X1494094Y480000D02*
X1505906D01*
X1500000Y474094D02*
Y485906D01*
X1434094Y120000D02*
X1445906D01*
X1440000Y114094D02*
Y125906D01*
X1374094Y3840000D02*
X1385906D01*
X1380000Y3834095D02*
Y3845905D01*
X1314094Y3720000D02*
X1325906D01*
X1320000Y3714095D02*
Y3725905D01*
X1374094Y3600000D02*
X1385906D01*
X1380000Y3594095D02*
Y3605905D01*
X1374094Y3360000D02*
X1385906D01*
X1380000Y3354095D02*
Y3365905D01*
X1374094Y3120000D02*
X1385906D01*
X1380000Y3114095D02*
Y3125905D01*
X1314094Y3000000D02*
X1325906D01*
X1320000Y2994095D02*
Y3005905D01*
X1314094Y2520000D02*
X1325906D01*
X1320000Y2514095D02*
Y2525905D01*
X1374094Y2400000D02*
X1385906D01*
X1380000Y2394095D02*
Y2405905D01*
X1314094Y2280000D02*
X1325906D01*
X1320000Y2274095D02*
Y2285905D01*
X1374094Y2160000D02*
X1385906D01*
X1380000Y2154095D02*
Y2165905D01*
X1314094Y1800000D02*
X1325906D01*
X1320000Y1794094D02*
Y1805906D01*
X1374094Y1680000D02*
X1385906D01*
X1380000Y1674094D02*
Y1685906D01*
X1314094Y1320000D02*
X1325906D01*
X1320000Y1314094D02*
Y1325906D01*
X1374094Y1200000D02*
X1385906D01*
X1380000Y1194094D02*
Y1205906D01*
X1314094Y1080000D02*
X1325906D01*
X1320000Y1074094D02*
Y1085906D01*
X1374094Y960000D02*
X1385906D01*
X1380000Y954095D02*
Y965905D01*
X1314094Y840000D02*
X1325906D01*
X1320000Y834095D02*
Y845905D01*
X1374094Y720000D02*
X1385906D01*
X1380000Y714095D02*
Y725905D01*
X1314094Y600000D02*
X1325906D01*
X1320000Y594095D02*
Y605905D01*
X1374094Y480000D02*
X1385906D01*
X1380000Y474094D02*
Y485906D01*
X1314094Y360000D02*
X1325906D01*
X1320000Y354094D02*
Y365906D01*
X1374094Y240000D02*
X1385906D01*
X1380000Y234095D02*
Y245905D01*
X1314094Y120000D02*
X1325906D01*
X1320000Y114094D02*
Y125906D01*
X1254094Y3840000D02*
X1265906D01*
X1260000Y3834095D02*
Y3845905D01*
X1194094Y3720000D02*
X1205906D01*
X1200000Y3714095D02*
Y3725905D01*
X1254094Y3600000D02*
X1265906D01*
X1260000Y3594095D02*
Y3605905D01*
X1254094Y3120000D02*
X1265906D01*
X1260000Y3114095D02*
Y3125905D01*
X1194094Y2760000D02*
X1205906D01*
X1200000Y2754095D02*
Y2765905D01*
X1254094Y2640000D02*
X1265906D01*
X1260000Y2634095D02*
Y2645905D01*
X1194094Y2520000D02*
X1205906D01*
X1200000Y2514095D02*
Y2525905D01*
X1254094Y2400000D02*
X1265906D01*
X1260000Y2394095D02*
Y2405905D01*
X1194094Y2280000D02*
X1205906D01*
X1200000Y2274095D02*
Y2285905D01*
X1254094Y2160000D02*
X1265906D01*
X1260000Y2154095D02*
Y2165905D01*
X1194094Y1800000D02*
X1205906D01*
X1200000Y1794094D02*
Y1805906D01*
X1254094Y1680000D02*
X1265906D01*
X1260000Y1674094D02*
Y1685906D01*
X1194094Y1560000D02*
X1205906D01*
X1200000Y1554094D02*
Y1565906D01*
X1254094Y1200000D02*
X1265906D01*
X1260000Y1194094D02*
Y1205906D01*
X1194094Y1080000D02*
X1205906D01*
X1200000Y1074094D02*
Y1085906D01*
X1254094Y960000D02*
X1265906D01*
X1260000Y954095D02*
Y965905D01*
X1194094Y840000D02*
X1205906D01*
X1200000Y834095D02*
Y845905D01*
X1254094Y720000D02*
X1265906D01*
X1260000Y714095D02*
Y725905D01*
X1194094Y600000D02*
X1205906D01*
X1200000Y594095D02*
Y605905D01*
X1254094Y480000D02*
X1265906D01*
X1260000Y474094D02*
Y485906D01*
X1194094Y360000D02*
X1205906D01*
X1200000Y354094D02*
Y365906D01*
X1254094Y240000D02*
X1265906D01*
X1260000Y234095D02*
Y245905D01*
X1194094Y120000D02*
X1205906D01*
X1200000Y114094D02*
Y125906D01*
X1134094Y3840000D02*
X1145906D01*
X1140000Y3834095D02*
Y3845905D01*
X1074094Y3720000D02*
X1085906D01*
X1080000Y3714095D02*
Y3725905D01*
X1134094Y3600000D02*
X1145906D01*
X1140000Y3594095D02*
Y3605905D01*
X1074094Y2760000D02*
X1085906D01*
X1080000Y2754095D02*
Y2765905D01*
X1134094Y2640000D02*
X1145906D01*
X1140000Y2634095D02*
Y2645905D01*
X1074094Y2520000D02*
X1085906D01*
X1080000Y2514095D02*
Y2525905D01*
X1134094Y2400000D02*
X1145906D01*
X1140000Y2394095D02*
Y2405905D01*
X1074094Y2280000D02*
X1085906D01*
X1080000Y2274095D02*
Y2285905D01*
X1134094Y2160000D02*
X1145906D01*
X1140000Y2154095D02*
Y2165905D01*
X1074094Y1800000D02*
X1085906D01*
X1080000Y1794094D02*
Y1805906D01*
X1134094Y1680000D02*
X1145906D01*
X1140000Y1674094D02*
Y1685906D01*
X1074094Y1560000D02*
X1085906D01*
X1080000Y1554094D02*
Y1565906D01*
X1134094Y1440000D02*
X1145906D01*
X1140000Y1434094D02*
Y1445906D01*
X1074094Y1080000D02*
X1085906D01*
X1080000Y1074094D02*
Y1085906D01*
X1134094Y960000D02*
X1145906D01*
X1140000Y954095D02*
Y965905D01*
X1074094Y840000D02*
X1085906D01*
X1080000Y834095D02*
Y845905D01*
X1134094Y720000D02*
X1145906D01*
X1140000Y714095D02*
Y725905D01*
X1074094Y600000D02*
X1085906D01*
X1080000Y594095D02*
Y605905D01*
X1134094Y480000D02*
X1145906D01*
X1140000Y474094D02*
Y485906D01*
X1074094Y360000D02*
X1085906D01*
X1080000Y354094D02*
Y365906D01*
X1134094Y240000D02*
X1145906D01*
X1140000Y234095D02*
Y245905D01*
X1014095Y3840000D02*
X1025906D01*
X1020000Y3834095D02*
Y3845905D01*
X954095Y3720000D02*
X965905D01*
X960000Y3714095D02*
Y3725905D01*
X1014095Y3600000D02*
X1025906D01*
X1020000Y3594095D02*
Y3605905D01*
X1014095Y3120000D02*
X1025906D01*
X1020000Y3114095D02*
Y3125905D01*
X1014095Y2880000D02*
X1025906D01*
X1020000Y2874095D02*
Y2885905D01*
X954095Y2760000D02*
X965905D01*
X960000Y2754095D02*
Y2765905D01*
X1014095Y2640000D02*
X1025906D01*
X1020000Y2634095D02*
Y2645905D01*
X954095Y2520000D02*
X965905D01*
X960000Y2514095D02*
Y2525905D01*
X1014095Y2400000D02*
X1025906D01*
X1020000Y2394095D02*
Y2405905D01*
X954095Y2280000D02*
X965905D01*
X960000Y2274095D02*
Y2285905D01*
X1014095Y2160000D02*
X1025906D01*
X1020000Y2154095D02*
Y2165905D01*
X954095Y1800000D02*
X965905D01*
X960000Y1794094D02*
Y1805906D01*
X1014095Y1680000D02*
X1025906D01*
X1020000Y1674094D02*
Y1685906D01*
X954095Y1560000D02*
X965905D01*
X960000Y1554094D02*
Y1565906D01*
X1014095Y1440000D02*
X1025906D01*
X1020000Y1434094D02*
Y1445906D01*
X954095Y1320000D02*
X965905D01*
X960000Y1314094D02*
Y1325906D01*
X1014095Y960000D02*
X1025906D01*
X1020000Y954095D02*
Y965905D01*
X954095Y840000D02*
X965905D01*
X960000Y834095D02*
Y845905D01*
X1014095Y720000D02*
X1025906D01*
X1020000Y714095D02*
Y725905D01*
X954095Y600000D02*
X965905D01*
X960000Y594095D02*
Y605905D01*
X1014095Y480000D02*
X1025906D01*
X1020000Y474094D02*
Y485906D01*
X954095Y360000D02*
X965905D01*
X960000Y354094D02*
Y365906D01*
X1014095Y240000D02*
X1025906D01*
X1020000Y234095D02*
Y245905D01*
X894095Y3840000D02*
X905905D01*
X900000Y3834095D02*
Y3845905D01*
X834095Y3720000D02*
X845905D01*
X840000Y3714095D02*
Y3725905D01*
X894095Y3600000D02*
X905905D01*
X900000Y3594095D02*
Y3605905D01*
X834095Y3480000D02*
X845905D01*
X840000Y3474095D02*
Y3485905D01*
X894095Y3360000D02*
X905905D01*
X900000Y3354095D02*
Y3365905D01*
X834095Y3240000D02*
X845905D01*
X840000Y3234095D02*
Y3245905D01*
X834095Y2760000D02*
X845905D01*
X840000Y2754095D02*
Y2765905D01*
X894095Y2640000D02*
X905905D01*
X900000Y2634095D02*
Y2645905D01*
X834095Y2520000D02*
X845905D01*
X840000Y2514095D02*
Y2525905D01*
X894095Y2400000D02*
X905905D01*
X900000Y2394095D02*
Y2405905D01*
X834095Y2280000D02*
X845905D01*
X840000Y2274095D02*
Y2285905D01*
X894095Y2160000D02*
X905905D01*
X900000Y2154095D02*
Y2165905D01*
X834095Y1800000D02*
X845905D01*
X840000Y1794094D02*
Y1805906D01*
X894095Y1680000D02*
X905905D01*
X900000Y1674094D02*
Y1685906D01*
X834095Y1560000D02*
X845905D01*
X840000Y1554094D02*
Y1565906D01*
X894095Y1440000D02*
X905905D01*
X900000Y1434094D02*
Y1445906D01*
X834095Y1320000D02*
X845905D01*
X840000Y1314094D02*
Y1325906D01*
X894095Y1200000D02*
X905905D01*
X900000Y1194094D02*
Y1205906D01*
X834095Y840000D02*
X845905D01*
X840000Y834095D02*
Y845905D01*
X894095Y720000D02*
X905905D01*
X900000Y714095D02*
Y725905D01*
X834095Y600000D02*
X845905D01*
X840000Y594095D02*
Y605905D01*
X894095Y480000D02*
X905905D01*
X900000Y474094D02*
Y485906D01*
X834095Y360000D02*
X845905D01*
X840000Y354094D02*
Y365906D01*
X774095Y3840000D02*
X785905D01*
X780000Y3834095D02*
Y3845905D01*
X714095Y3720000D02*
X725905D01*
X720000Y3714095D02*
Y3725905D01*
X774095Y3600000D02*
X785905D01*
X780000Y3594095D02*
Y3605905D01*
X714095Y3480000D02*
X725905D01*
X720000Y3474095D02*
Y3485905D01*
X774095Y3360000D02*
X785905D01*
X780000Y3354095D02*
Y3365905D01*
X714095Y3240000D02*
X725905D01*
X720000Y3234095D02*
Y3245905D01*
X714095Y2760000D02*
X725905D01*
X720000Y2754095D02*
Y2765905D01*
X774095Y2640000D02*
X785905D01*
X780000Y2634095D02*
Y2645905D01*
X714095Y2520000D02*
X725905D01*
X720000Y2514095D02*
Y2525905D01*
X774095Y2400000D02*
X785905D01*
X780000Y2394095D02*
Y2405905D01*
X714095Y2280000D02*
X725905D01*
X720000Y2274095D02*
Y2285905D01*
X774095Y2160000D02*
X785905D01*
X780000Y2154095D02*
Y2165905D01*
X714095Y1800000D02*
X725905D01*
X720000Y1794094D02*
Y1805906D01*
X774095Y1680000D02*
X785905D01*
X780000Y1674094D02*
Y1685906D01*
X714095Y1560000D02*
X725905D01*
X720000Y1554094D02*
Y1565906D01*
X774095Y1440000D02*
X785905D01*
X780000Y1434094D02*
Y1445906D01*
X714095Y1320000D02*
X725905D01*
X720000Y1314094D02*
Y1325906D01*
X774095Y1200000D02*
X785905D01*
X780000Y1194094D02*
Y1205906D01*
X714095Y1080000D02*
X725905D01*
X720000Y1074094D02*
Y1085906D01*
X774095Y480000D02*
X785905D01*
X780000Y474094D02*
Y485906D01*
X714095Y360000D02*
X725905D01*
X720000Y354094D02*
Y365906D01*
X654095Y3840000D02*
X665905D01*
X660000Y3834095D02*
Y3845905D01*
X594095Y3720000D02*
X605905D01*
X600000Y3714095D02*
Y3725905D01*
X654095Y3600000D02*
X665905D01*
X660000Y3594095D02*
Y3605905D01*
X594095Y3480000D02*
X605905D01*
X600000Y3474095D02*
Y3485905D01*
X654095Y3360000D02*
X665905D01*
X660000Y3354095D02*
Y3365905D01*
X594095Y3240000D02*
X605905D01*
X600000Y3234095D02*
Y3245905D01*
X594095Y3000000D02*
X605905D01*
X600000Y2994095D02*
Y3005905D01*
X594095Y2760000D02*
X605905D01*
X600000Y2754095D02*
Y2765905D01*
X654095Y2640000D02*
X665905D01*
X660000Y2634095D02*
Y2645905D01*
X594095Y2520000D02*
X605905D01*
X600000Y2514095D02*
Y2525905D01*
X654095Y2400000D02*
X665905D01*
X660000Y2394095D02*
Y2405905D01*
X594095Y2280000D02*
X605905D01*
X600000Y2274095D02*
Y2285905D01*
X654095Y2160000D02*
X665905D01*
X660000Y2154095D02*
Y2165905D01*
X594095Y1800000D02*
X605905D01*
X600000Y1794094D02*
Y1805906D01*
X654095Y1680000D02*
X665905D01*
X660000Y1674094D02*
Y1685906D01*
X594095Y1560000D02*
X605905D01*
X600000Y1554094D02*
Y1565906D01*
X654095Y1440000D02*
X665905D01*
X660000Y1434094D02*
Y1445906D01*
X594095Y1320000D02*
X605905D01*
X600000Y1314094D02*
Y1325906D01*
X654095Y1200000D02*
X665905D01*
X660000Y1194094D02*
Y1205906D01*
X594095Y1080000D02*
X605905D01*
X600000Y1074094D02*
Y1085906D01*
X654095Y480000D02*
X665905D01*
X660000Y474094D02*
Y485906D01*
X534095Y3840000D02*
X545905D01*
X540000Y3834095D02*
Y3845905D01*
X474094Y3720000D02*
X485906D01*
X480000Y3714095D02*
Y3725905D01*
X534095Y3600000D02*
X545905D01*
X540000Y3594095D02*
Y3605905D01*
X474094Y3480000D02*
X485906D01*
X480000Y3474095D02*
Y3485905D01*
X534095Y3360000D02*
X545905D01*
X540000Y3354095D02*
Y3365905D01*
X474094Y3240000D02*
X485906D01*
X480000Y3234095D02*
Y3245905D01*
X534095Y3120000D02*
X545905D01*
X540000Y3114095D02*
Y3125905D01*
X474094Y3000000D02*
X485906D01*
X480000Y2994095D02*
Y3005905D01*
X534095Y2880000D02*
X545905D01*
X540000Y2874095D02*
Y2885905D01*
X474094Y2760000D02*
X485906D01*
X480000Y2754095D02*
Y2765905D01*
X534095Y2640000D02*
X545905D01*
X540000Y2634095D02*
Y2645905D01*
X474094Y2520000D02*
X485906D01*
X480000Y2514095D02*
Y2525905D01*
X534095Y2400000D02*
X545905D01*
X540000Y2394095D02*
Y2405905D01*
X474094Y1560000D02*
X485906D01*
X480000Y1554094D02*
Y1565906D01*
X534095Y1440000D02*
X545905D01*
X540000Y1434094D02*
Y1445906D01*
X474094Y1320000D02*
X485906D01*
X480000Y1314094D02*
Y1325906D01*
X534095Y1200000D02*
X545905D01*
X540000Y1194094D02*
Y1205906D01*
X474094Y1080000D02*
X485906D01*
X480000Y1074094D02*
Y1085906D01*
X534095Y960000D02*
X545905D01*
X540000Y954095D02*
Y965905D01*
X474094Y840000D02*
X485906D01*
X480000Y834095D02*
Y845905D01*
X474094Y600000D02*
X485906D01*
X480000Y594095D02*
Y605905D01*
X534095Y480000D02*
X545905D01*
X540000Y474094D02*
Y485906D01*
X474094Y360000D02*
X485906D01*
X480000Y354094D02*
Y365906D01*
X414094Y3840000D02*
X425906D01*
X420000Y3834095D02*
Y3845905D01*
X354094Y3720000D02*
X365906D01*
X360000Y3714095D02*
Y3725905D01*
X414094Y3600000D02*
X425906D01*
X420000Y3594095D02*
Y3605905D01*
X354094Y3480000D02*
X365906D01*
X360000Y3474095D02*
Y3485905D01*
X414094Y3360000D02*
X425906D01*
X420000Y3354095D02*
Y3365905D01*
X354094Y3240000D02*
X365906D01*
X360000Y3234095D02*
Y3245905D01*
X414094Y3120000D02*
X425906D01*
X420000Y3114095D02*
Y3125905D01*
X354094Y3000000D02*
X365906D01*
X360000Y2994095D02*
Y3005905D01*
X414094Y2880000D02*
X425906D01*
X420000Y2874095D02*
Y2885905D01*
X354094Y2760000D02*
X365906D01*
X360000Y2754095D02*
Y2765905D01*
X414094Y2640000D02*
X425906D01*
X420000Y2634095D02*
Y2645905D01*
X354094Y2520000D02*
X365906D01*
X360000Y2514095D02*
Y2525905D01*
X414094Y2400000D02*
X425906D01*
X420000Y2394095D02*
Y2405905D01*
X414094Y1440000D02*
X425906D01*
X420000Y1434094D02*
Y1445906D01*
X354094Y1320000D02*
X365906D01*
X360000Y1314094D02*
Y1325906D01*
X414094Y1200000D02*
X425906D01*
X420000Y1194094D02*
Y1205906D01*
X354094Y1080000D02*
X365906D01*
X360000Y1074094D02*
Y1085906D01*
X414094Y960000D02*
X425906D01*
X420000Y954095D02*
Y965905D01*
X354094Y840000D02*
X365906D01*
X360000Y834095D02*
Y845905D01*
X414094Y720000D02*
X425906D01*
X420000Y714095D02*
Y725905D01*
X354094Y600000D02*
X365906D01*
X360000Y594095D02*
Y605905D01*
X414094Y480000D02*
X425906D01*
X420000Y474094D02*
Y485906D01*
X354094Y360000D02*
X365906D01*
X360000Y354094D02*
Y365906D01*
X414094Y240000D02*
X425906D01*
X420000Y234095D02*
Y245905D01*
X354094Y120000D02*
X365906D01*
X360000Y114094D02*
Y125906D01*
X294094Y3600000D02*
X305906D01*
X300000Y3594095D02*
Y3605905D01*
X234095Y3480000D02*
X245905D01*
X240000Y3474095D02*
Y3485905D01*
X294094Y3360000D02*
X305906D01*
X300000Y3354095D02*
Y3365905D01*
X234095Y3240000D02*
X245905D01*
X240000Y3234095D02*
Y3245905D01*
X294094Y3120000D02*
X305906D01*
X300000Y3114095D02*
Y3125905D01*
X234095Y3000000D02*
X245905D01*
X240000Y2994095D02*
Y3005905D01*
X294094Y2880000D02*
X305906D01*
X300000Y2874095D02*
Y2885905D01*
X234095Y2760000D02*
X245905D01*
X240000Y2754095D02*
Y2765905D01*
X294094Y2640000D02*
X305906D01*
X300000Y2634095D02*
Y2645905D01*
X234095Y2520000D02*
X245905D01*
X240000Y2514095D02*
Y2525905D01*
X294094Y1440000D02*
X305906D01*
X300000Y1434094D02*
Y1445906D01*
X234095Y1320000D02*
X245905D01*
X240000Y1314094D02*
Y1325906D01*
X294094Y1200000D02*
X305906D01*
X300000Y1194094D02*
Y1205906D01*
X234095Y1080000D02*
X245905D01*
X240000Y1074094D02*
Y1085906D01*
X294094Y960000D02*
X305906D01*
X300000Y954095D02*
Y965905D01*
X234095Y840000D02*
X245905D01*
X240000Y834095D02*
Y845905D01*
X294094Y720000D02*
X305906D01*
X300000Y714095D02*
Y725905D01*
X234095Y600000D02*
X245905D01*
X240000Y594095D02*
Y605905D01*
X294094Y480000D02*
X305906D01*
X300000Y474094D02*
Y485906D01*
X234095Y360000D02*
X245905D01*
X240000Y354094D02*
Y365906D01*
X114094Y3480000D02*
X125906D01*
X120000Y3474095D02*
Y3485905D01*
X174095Y3360000D02*
X185905D01*
X180000Y3354095D02*
Y3365905D01*
X114094Y3240000D02*
X125906D01*
X120000Y3234095D02*
Y3245905D01*
X174095Y3120000D02*
X185905D01*
X180000Y3114095D02*
Y3125905D01*
X114094Y3000000D02*
X125906D01*
X120000Y2994095D02*
Y3005905D01*
X174095Y2880000D02*
X185905D01*
X180000Y2874095D02*
Y2885905D01*
X114094Y2760000D02*
X125906D01*
X120000Y2754095D02*
Y2765905D01*
X174095Y2640000D02*
X185905D01*
X180000Y2634095D02*
Y2645905D01*
X114094Y2520000D02*
X125906D01*
X120000Y2514095D02*
Y2525905D01*
X174095Y2400000D02*
X185905D01*
X180000Y2394095D02*
Y2405905D01*
X114094Y2040000D02*
X125906D01*
X120000Y2034094D02*
Y2045906D01*
X174095Y1920000D02*
X185905D01*
X180000Y1914094D02*
Y1925906D01*
X114094Y1560000D02*
X125906D01*
X120000Y1554094D02*
Y1565906D01*
X174095Y1440000D02*
X185905D01*
X180000Y1434094D02*
Y1445906D01*
X114094Y1320000D02*
X125906D01*
X120000Y1314094D02*
Y1325906D01*
X174095Y1200000D02*
X185905D01*
X180000Y1194094D02*
Y1205906D01*
X114094Y1080000D02*
X125906D01*
X120000Y1074094D02*
Y1085906D01*
X174095Y960000D02*
X185905D01*
X180000Y954095D02*
Y965905D01*
X114094Y840000D02*
X125906D01*
X120000Y834095D02*
Y845905D01*
X174095Y720000D02*
X185905D01*
X180000Y714095D02*
Y725905D01*
X114094Y600000D02*
X125906D01*
X120000Y594095D02*
Y605905D01*
X174095Y480000D02*
X185905D01*
X180000Y474094D02*
Y485906D01*
X114094Y360000D02*
X125906D01*
X120000Y354094D02*
Y365906D01*
X1499584Y1753948D02*
X1509426D01*
X1504505Y1749027D02*
Y1758869D01*
X1439584Y1873948D02*
X1449426D01*
X1444505Y1869027D02*
Y1878869D01*
X1559584Y1873948D02*
X1569426D01*
X1564505Y1869027D02*
Y1878869D01*
X3014003Y2044999D02*
X3023845D01*
X3018924Y2040078D02*
Y2049920D01*
X2904241Y2044999D02*
X2914083D01*
X2909162Y2040078D02*
Y2049920D01*
X2794478Y2044999D02*
X2804321D01*
X2799400Y2040078D02*
Y2049920D01*
X2684716Y2044999D02*
X2694558D01*
X2689637Y2040078D02*
Y2049920D01*
X2574954Y2044999D02*
X2584796D01*
X2579875Y2040078D02*
Y2049920D01*
X2465191Y2044999D02*
X2475034D01*
X2470112Y2040078D02*
Y2049920D01*
X2495877Y2310553D02*
X2505720D01*
X2500799Y2305632D02*
Y2315474D01*
X2415031Y2230887D02*
X2424873D01*
X2419952Y2225965D02*
Y2235808D01*
X2328873Y2144139D02*
X2338716D01*
X2333795Y2139218D02*
Y2149060D01*
X1897496Y2413480D02*
X1907338D01*
X1902417Y2408559D02*
Y2418401D01*
X2152427Y2393760D02*
X2162270D01*
X2157349Y2388839D02*
Y2398681D01*
X1798324Y1695838D02*
X1808166D01*
X1803245Y1690917D02*
Y1700759D01*
X1798324Y1636468D02*
X1808166D01*
X1803245Y1631547D02*
Y1641389D01*
X1738954Y1636468D02*
X1748796D01*
X1743875Y1631547D02*
Y1641389D01*
X1738954Y1695838D02*
X1748796D01*
X1743875Y1690917D02*
Y1700759D01*
X1738954Y1814578D02*
X1748796D01*
X1743875Y1809657D02*
Y1819499D01*
X1738954Y1755208D02*
X1748796D01*
X1743875Y1750287D02*
Y1760129D01*
X1679584Y1755208D02*
X1689426D01*
X1684505Y1750287D02*
Y1760129D01*
X1623149Y2158932D02*
X1632992D01*
X1628071Y2154011D02*
Y2163854D01*
X1737738Y2285647D02*
X1747580D01*
X1742659Y2280725D02*
Y2290568D01*
X1710257Y2238932D02*
X1720100D01*
X1715178Y2234011D02*
Y2243853D01*
X2149862Y2265055D02*
X2159705D01*
X2154784Y2260134D02*
Y2269976D01*
X2213499Y2163022D02*
X2223341D01*
X2218420Y2158101D02*
Y2167944D01*
X2270253Y1749383D02*
X2280096D01*
X2275175Y1744462D02*
Y1754304D01*
X2210883Y1749383D02*
X2220726D01*
X2215805Y1744462D02*
Y1754304D01*
X2151513Y1749383D02*
X2161356D01*
X2156435Y1744462D02*
Y1754304D01*
X2210883Y1808753D02*
X2220726D01*
X2215805Y1803832D02*
Y1813674D01*
X2270253Y1808753D02*
X2280096D01*
X2275175Y1803832D02*
Y1813674D01*
X2151513Y1808753D02*
X2161356D01*
X2156435Y1803832D02*
Y1813674D01*
X1679584Y1814578D02*
X1689426D01*
X1684505Y1809657D02*
Y1819499D01*
X1679584Y1873948D02*
X1689426D01*
X1684505Y1869027D02*
Y1878869D01*
X1798324Y1873948D02*
X1808166D01*
X1803245Y1869027D02*
Y1878869D01*
X1738954Y1873948D02*
X1748796D01*
X1743875Y1869027D02*
Y1878869D01*
X1798324Y1933318D02*
X1808166D01*
X1803245Y1928397D02*
Y1938239D01*
X1738954Y1933318D02*
X1748796D01*
X1743875Y1928397D02*
Y1938239D01*
X2191843Y2227465D02*
X2201686D01*
X2196764Y2222544D02*
Y2232387D01*
X2107881Y2143503D02*
X2117724D01*
X2112802Y2138582D02*
Y2148425D01*
X2149862Y2185485D02*
X2159705D01*
X2154784Y2180563D02*
Y2190406D01*
X1820222Y2196951D02*
X1830065D01*
X1825144Y2192030D02*
Y2201872D01*
X1862203Y2154970D02*
X1872046D01*
X1867125Y2150049D02*
Y2159891D01*
X1778242Y2238932D02*
X1788084D01*
X1783163Y2234011D02*
Y2243853D01*
X1955717Y2225431D02*
X1965560D01*
X1960638Y2220510D02*
Y2230352D01*
X2051095Y2177506D02*
X2060937D01*
X2056016Y2172584D02*
Y2182427D01*
X2051095Y2147821D02*
X2060937D01*
X2056016Y2142899D02*
Y2152742D01*
X2051095Y2118136D02*
X2060937D01*
X2056016Y2113214D02*
Y2123057D01*
X1994181Y2118136D02*
X2004023D01*
X1999102Y2113214D02*
Y2123057D01*
X1994181Y2147821D02*
X2004023D01*
X1999102Y2142899D02*
Y2152742D01*
X1994181Y2177506D02*
X2004023D01*
X1999102Y2172584D02*
Y2182427D01*
X2002919Y1718939D02*
X2012761D01*
X2007840Y1714018D02*
Y1723861D01*
X1593070Y2099578D02*
X1602912D01*
X1597991Y2094657D02*
Y2104499D01*
X1486559Y2377921D02*
X1496402D01*
X1491480Y2372999D02*
Y2382842D01*
X1554166Y2445527D02*
X1564008D01*
X1559087Y2440606D02*
Y2450448D01*
X1537264Y2428626D02*
X1547107D01*
X1542186Y2423704D02*
Y2433547D01*
X1520363Y2411724D02*
X1530205D01*
X1525284Y2406803D02*
Y2416645D01*
X1503461Y2394822D02*
X1513303D01*
X1508382Y2389901D02*
Y2399743D01*
X2372999Y2445527D02*
X2382842D01*
X2377921Y2440606D02*
Y2450448D01*
X2440606Y2377921D02*
X2450448D01*
X2445527Y2372999D02*
Y2382842D01*
X2423704Y2394822D02*
X2433547D01*
X2428626Y2389901D02*
Y2399743D01*
X2406803Y2411724D02*
X2416645D01*
X2411724Y2406803D02*
Y2416645D01*
X2389901Y2428626D02*
X2399743D01*
X2394822Y2423704D02*
Y2433547D01*
X2440606Y1559087D02*
X2450448D01*
X2445527Y1554166D02*
Y1564008D01*
X2372999Y1491480D02*
X2382842D01*
X2377921Y1486559D02*
Y1496402D01*
X2389901Y1508382D02*
X2399743D01*
X2394822Y1503461D02*
Y1513303D01*
X2406803Y1525284D02*
X2416645D01*
X2411724Y1520363D02*
Y1530205D01*
X2423704Y1542186D02*
X2433547D01*
X2428626Y1537264D02*
Y1547107D01*
X1554166Y1491480D02*
X1564008D01*
X1559087Y1486559D02*
Y1496402D01*
X1486559Y1559087D02*
X1496402D01*
X1491480Y1554166D02*
Y1564008D01*
X1503461Y1542186D02*
X1513303D01*
X1508382Y1537264D02*
Y1547107D01*
X1520363Y1525284D02*
X1530205D01*
X1525284Y1520363D02*
Y1530205D01*
X1537264Y1508382D02*
X1547107D01*
X1542186Y1503461D02*
Y1513303D01*
X2049187Y1862420D02*
X2059030D01*
X2054108Y1857499D02*
Y1867341D01*
X1873990Y2212841D02*
X1883833D01*
X1878912Y2207920D02*
Y2217763D01*
X1930545Y2269396D02*
X1940387D01*
X1935466Y2264475D02*
Y2274317D01*
X1982417Y2238400D02*
X1992260D01*
X1987339Y2233479D02*
Y2243321D01*
X2062580Y2238400D02*
X2072422D01*
X2067501Y2233479D02*
Y2243321D01*
X1065929Y2971345D02*
X1075771D01*
X1070850Y2966423D02*
Y2976266D01*
X1095614Y2971345D02*
X1105456D01*
X1100535Y2966424D02*
Y2976266D01*
X991716Y3019221D02*
X1001559D01*
X996637Y3014300D02*
Y3024142D01*
X1171994Y3203089D02*
X1181836D01*
X1176915Y3198168D02*
Y3208010D01*
X1171994Y3255519D02*
X1181836D01*
X1176915Y3250598D02*
Y3260441D01*
X1171994Y3225834D02*
X1181836D01*
X1176915Y3220913D02*
Y3230756D01*
X1133128Y3270362D02*
X1142970D01*
X1138049Y3265441D02*
Y3275283D01*
X1133128Y3240677D02*
X1142970D01*
X1138049Y3235756D02*
Y3245598D01*
X1176498Y3129358D02*
X1186341D01*
X1181420Y3124437D02*
Y3134279D01*
X1124117Y3181307D02*
X1133960D01*
X1129039Y3176386D02*
Y3186228D01*
X1181004Y3181307D02*
X1190846D01*
X1185925Y3176386D02*
Y3186228D01*
X1181004Y3151622D02*
X1190846D01*
X1185925Y3146701D02*
Y3156543D01*
X1133128Y3210992D02*
X1142970D01*
X1138049Y3206071D02*
Y3215913D01*
X1124117Y3151622D02*
X1133960D01*
X1129039Y3146701D02*
Y3156543D01*
X1171993Y3107094D02*
X1181836D01*
X1176915Y3102173D02*
Y3112015D01*
X1133050Y3010288D02*
X1142892D01*
X1137971Y3005367D02*
Y3015209D01*
X1171993Y3077409D02*
X1181836D01*
X1176915Y3072488D02*
Y3082330D01*
X1133127Y3032882D02*
X1142970D01*
X1138049Y3027961D02*
Y3037803D01*
X1133127Y3062567D02*
X1142970D01*
X1138049Y3057646D02*
Y3067488D01*
X1133127Y3092252D02*
X1142970D01*
X1138049Y3087331D02*
Y3097173D01*
X1080771Y3010211D02*
X1090614D01*
X1085693Y3005290D02*
Y3015132D01*
X1110456Y3010211D02*
X1120299D01*
X1115378Y3005290D02*
Y3015132D01*
X1133128Y3121937D02*
X1142970D01*
X1138049Y3117016D02*
Y3126858D01*
X962031Y2962335D02*
X971874D01*
X966952Y2957414D02*
Y2967256D01*
X932346Y3010211D02*
X942188D01*
X937267Y3005290D02*
Y3015132D01*
X1021401Y3010211D02*
X1031244D01*
X1026322Y3005290D02*
Y3015132D01*
X1051086Y3010211D02*
X1060929D01*
X1056007Y3005290D02*
Y3015132D01*
X1036244Y2971345D02*
X1046086D01*
X1041165Y2966424D02*
Y2976266D01*
X991716Y2962335D02*
X1001558D01*
X996637Y2957414D02*
Y2967256D01*
X962031Y3019221D02*
X971874D01*
X966952Y3014300D02*
Y3024142D01*
X1013980Y2966840D02*
X1023822D01*
X1018901Y2961919D02*
Y2971761D01*
X902661Y3010211D02*
X912504D01*
X907582Y3005290D02*
Y3015132D01*
X872976Y3010211D02*
X882818D01*
X877897Y3005290D02*
Y3015132D01*
X917504Y2971345D02*
X927346D01*
X922425Y2966424D02*
Y2976266D01*
X887819Y2971345D02*
X897661D01*
X892740Y2966424D02*
Y2976266D01*
X940249Y2971345D02*
X950092D01*
X945171Y2966424D02*
Y2976266D01*
X1150005Y2957341D02*
X1159847D01*
X1154926Y2952420D02*
Y2962263D01*
X1212976Y2894370D02*
X1222819D01*
X1217898Y2889449D02*
Y2899291D01*
X1191986Y2915360D02*
X1201828D01*
X1196907Y2910439D02*
Y2920282D01*
X1170995Y2936351D02*
X1180838D01*
X1175917Y2931430D02*
Y2941272D01*
X1233967Y2873380D02*
X1243809D01*
X1238888Y2868458D02*
Y2878301D01*
X1254957Y2852389D02*
X1264800D01*
X1259879Y2847468D02*
Y2857310D01*
X1275948Y2831399D02*
X1285790D01*
X1280869Y2826477D02*
Y2836320D01*
X1185997Y2993333D02*
X1195839D01*
X1190918Y2988412D02*
Y2998254D01*
X1311939Y2867390D02*
X1321782D01*
X1316861Y2862469D02*
Y2872312D01*
X1290949Y2888381D02*
X1300791D01*
X1295870Y2883460D02*
Y2893302D01*
X1269959Y2909371D02*
X1279801D01*
X1274880Y2904450D02*
Y2914293D01*
X1206987Y2972343D02*
X1216830D01*
X1211908Y2967421D02*
Y2977264D01*
X1227978Y2951352D02*
X1237820D01*
X1232899Y2946431D02*
Y2956273D01*
X1171993Y3018039D02*
X1181836D01*
X1176915Y3013118D02*
Y3022960D01*
X1171993Y3047724D02*
X1181836D01*
X1176915Y3042803D02*
Y3052645D01*
X1125299Y2971345D02*
X1135141D01*
X1130220Y2966424D02*
Y2976266D01*
X1569814Y2537532D02*
X1579657D01*
X1574736Y2532611D02*
Y2542453D01*
X1779719Y2327628D02*
X1789561D01*
X1784640Y2322706D02*
Y2332549D01*
X1590805Y2516542D02*
X1600647D01*
X1595726Y2511620D02*
Y2521463D01*
X1689768Y2489562D02*
X1699610D01*
X1694689Y2484641D02*
Y2494483D01*
X1668777Y2510552D02*
X1678620D01*
X1673699Y2505631D02*
Y2515474D01*
X1647787Y2531543D02*
X1657629D01*
X1652708Y2526622D02*
Y2536464D01*
X1605806Y2573524D02*
X1615648D01*
X1610727Y2568603D02*
Y2578445D01*
X1626796Y2552533D02*
X1636639D01*
X1631718Y2547612D02*
Y2557455D01*
X1815711Y2363619D02*
X1825553D01*
X1820632Y2358698D02*
Y2368540D01*
X1794720Y2384610D02*
X1804563D01*
X1799641Y2379689D02*
Y2389531D01*
X1773730Y2405600D02*
X1783572D01*
X1778651Y2400679D02*
Y2410521D01*
X1710758Y2468572D02*
X1720601D01*
X1715679Y2463650D02*
Y2473493D01*
X1731749Y2447581D02*
X1741591D01*
X1736670Y2442660D02*
Y2452502D01*
X1863681Y2243666D02*
X1873523D01*
X1868602Y2238744D02*
Y2248587D01*
X1800709Y2306637D02*
X1810552D01*
X1805631Y2301716D02*
Y2311558D01*
X1821700Y2285647D02*
X1831542D01*
X1826621Y2280725D02*
Y2290568D01*
X1842690Y2264656D02*
X1852533D01*
X1847611Y2259735D02*
Y2269577D01*
X1716747Y2390599D02*
X1726590D01*
X1721669Y2385678D02*
Y2395520D01*
X1695757Y2411589D02*
X1705599D01*
X1700678Y2406668D02*
Y2416511D01*
X1674767Y2432580D02*
X1684609D01*
X1679688Y2427659D02*
Y2437501D01*
X1737738Y2369608D02*
X1747580D01*
X1742659Y2364687D02*
Y2374530D01*
X1758728Y2348618D02*
X1768571D01*
X1763650Y2343697D02*
Y2353539D01*
X1653776Y2453570D02*
X1663619D01*
X1658697Y2448649D02*
Y2458492D01*
X1611795Y2495551D02*
X1621638D01*
X1616716Y2490630D02*
Y2500472D01*
X1632786Y2474561D02*
X1642628D01*
X1637707Y2469640D02*
Y2479482D01*
X1248968Y2930362D02*
X1258811D01*
X1253889Y2925441D02*
Y2935283D01*
X1584815Y2594514D02*
X1594658D01*
X1589737Y2589593D02*
Y2599436D01*
X1752739Y2426591D02*
X1762582D01*
X1757660Y2421669D02*
Y2431512D01*
X1878682Y2300648D02*
X1888524D01*
X1883603Y2295727D02*
Y2305569D01*
X1857692Y2321638D02*
X1867534D01*
X1862613Y2316717D02*
Y2326559D01*
X1836701Y2342629D02*
X1846543D01*
X1841622Y2337708D02*
Y2347550D01*
X1899672Y2279657D02*
X1909515D01*
X1904594Y2274736D02*
Y2284579D01*
X1850507Y1728939D02*
X1860350D01*
X1855428Y1724018D02*
Y1733861D01*
X1924213Y524180D02*
X1934055D01*
X1929134Y519259D02*
Y529101D01*
X1898763Y1671953D02*
X1908605D01*
X1903684Y1667032D02*
Y1676874D01*
X1898763Y1642268D02*
X1908605D01*
X1903684Y1637347D02*
Y1647189D01*
X1898763Y1612583D02*
X1908605D01*
X1903684Y1607662D02*
Y1617504D01*
X1898763Y1582898D02*
X1908605D01*
X1903684Y1577977D02*
Y1587819D01*
X1898763Y1493843D02*
X1908605D01*
X1903684Y1488922D02*
Y1498764D01*
X1898763Y1523528D02*
X1908605D01*
X1903684Y1518607D02*
Y1528449D01*
X1898763Y1553213D02*
X1908605D01*
X1903684Y1548292D02*
Y1558134D01*
X1898763Y1375103D02*
X1908605D01*
X1903684Y1370182D02*
Y1380024D01*
X1898763Y1345418D02*
X1908605D01*
X1903684Y1340497D02*
Y1350339D01*
X1898763Y1315733D02*
X1908605D01*
X1903684Y1310812D02*
Y1320654D01*
X1898763Y1404788D02*
X1908605D01*
X1903684Y1399867D02*
Y1409709D01*
X1898763Y1434473D02*
X1908605D01*
X1903684Y1429552D02*
Y1439394D01*
X1898763Y1464158D02*
X1908605D01*
X1903684Y1459237D02*
Y1469079D01*
X1898763Y1196993D02*
X1908605D01*
X1903684Y1192072D02*
Y1201914D01*
X1898763Y1167308D02*
X1908605D01*
X1903684Y1162387D02*
Y1172229D01*
X1898763Y1137623D02*
X1908605D01*
X1903684Y1132702D02*
Y1142544D01*
X1898763Y1226678D02*
X1908605D01*
X1903684Y1221757D02*
Y1231599D01*
X1898763Y1256363D02*
X1908605D01*
X1903684Y1251442D02*
Y1261284D01*
X1898763Y1286048D02*
X1908605D01*
X1903684Y1281127D02*
Y1290969D01*
X1898763Y1018883D02*
X1908605D01*
X1903684Y1013962D02*
Y1023804D01*
X1898763Y989198D02*
X1908605D01*
X1903684Y984277D02*
Y994119D01*
X1898763Y959513D02*
X1908605D01*
X1903684Y954592D02*
Y964434D01*
X1898763Y1048568D02*
X1908605D01*
X1903684Y1043647D02*
Y1053489D01*
X1898763Y1078253D02*
X1908605D01*
X1903684Y1073332D02*
Y1083174D01*
X1898763Y1107938D02*
X1908605D01*
X1903684Y1103017D02*
Y1112859D01*
X1898763Y840773D02*
X1908605D01*
X1903684Y835852D02*
Y845694D01*
X1898763Y811088D02*
X1908605D01*
X1903684Y806167D02*
Y816009D01*
X1898763Y781403D02*
X1908605D01*
X1903684Y776482D02*
Y786324D01*
X1898763Y870458D02*
X1908605D01*
X1903684Y865537D02*
Y875379D01*
X1898763Y900143D02*
X1908605D01*
X1903684Y895222D02*
Y905064D01*
X1898763Y929828D02*
X1908605D01*
X1903684Y924907D02*
Y934749D01*
X1898763Y662663D02*
X1908605D01*
X1903684Y657742D02*
Y667584D01*
X1898763Y632978D02*
X1908605D01*
X1903684Y628057D02*
Y637899D01*
X1898763Y603293D02*
X1908605D01*
X1903684Y598372D02*
Y608214D01*
X1898763Y692348D02*
X1908605D01*
X1903684Y687427D02*
Y697269D01*
X1898763Y722033D02*
X1908605D01*
X1903684Y717112D02*
Y726954D01*
X1898763Y751718D02*
X1908605D01*
X1903684Y746797D02*
Y756639D01*
X1898763Y573608D02*
X1908605D01*
X1903684Y568687D02*
Y578529D01*
X1949663Y573608D02*
X1959505D01*
X1954584Y568687D02*
Y578529D01*
X1949663Y751718D02*
X1959505D01*
X1954584Y746797D02*
Y756639D01*
X1949663Y722033D02*
X1959505D01*
X1954584Y717112D02*
Y726954D01*
X1949663Y692348D02*
X1959505D01*
X1954584Y687427D02*
Y697269D01*
X1949663Y603293D02*
X1959505D01*
X1954584Y598372D02*
Y608214D01*
X1949663Y632978D02*
X1959505D01*
X1954584Y628057D02*
Y637899D01*
X1949663Y662663D02*
X1959505D01*
X1954584Y657742D02*
Y667584D01*
X1949663Y929828D02*
X1959505D01*
X1954584Y924907D02*
Y934749D01*
X1949663Y900143D02*
X1959505D01*
X1954584Y895222D02*
Y905064D01*
X1949663Y870458D02*
X1959505D01*
X1954584Y865537D02*
Y875379D01*
X1949663Y781403D02*
X1959505D01*
X1954584Y776482D02*
Y786324D01*
X1949663Y811088D02*
X1959505D01*
X1954584Y806167D02*
Y816009D01*
X1949663Y840773D02*
X1959505D01*
X1954584Y835852D02*
Y845694D01*
X1949663Y1107938D02*
X1959505D01*
X1954584Y1103017D02*
Y1112859D01*
X1949663Y1078253D02*
X1959505D01*
X1954584Y1073332D02*
Y1083174D01*
X1949663Y1048568D02*
X1959505D01*
X1954584Y1043647D02*
Y1053489D01*
X1949663Y959513D02*
X1959505D01*
X1954584Y954592D02*
Y964434D01*
X1949663Y989198D02*
X1959505D01*
X1954584Y984277D02*
Y994119D01*
X1949663Y1018883D02*
X1959505D01*
X1954584Y1013962D02*
Y1023804D01*
X1949663Y1286048D02*
X1959505D01*
X1954584Y1281127D02*
Y1290969D01*
X1949663Y1256363D02*
X1959505D01*
X1954584Y1251442D02*
Y1261284D01*
X1949663Y1226678D02*
X1959505D01*
X1954584Y1221757D02*
Y1231599D01*
X1949663Y1137623D02*
X1959505D01*
X1954584Y1132702D02*
Y1142544D01*
X1949663Y1167308D02*
X1959505D01*
X1954584Y1162387D02*
Y1172229D01*
X1949663Y1196993D02*
X1959505D01*
X1954584Y1192072D02*
Y1201914D01*
X1949663Y1464158D02*
X1959505D01*
X1954584Y1459237D02*
Y1469079D01*
X1949663Y1434473D02*
X1959505D01*
X1954584Y1429552D02*
Y1439394D01*
X1949663Y1404788D02*
X1959505D01*
X1954584Y1399867D02*
Y1409709D01*
X1949663Y1315733D02*
X1959505D01*
X1954584Y1310812D02*
Y1320654D01*
X1949663Y1345418D02*
X1959505D01*
X1954584Y1340497D02*
Y1350339D01*
X1949663Y1375103D02*
X1959505D01*
X1954584Y1370182D02*
Y1380024D01*
X1949663Y1553213D02*
X1959505D01*
X1954584Y1548292D02*
Y1558134D01*
X1949663Y1523528D02*
X1959505D01*
X1954584Y1518607D02*
Y1528449D01*
X1949663Y1493843D02*
X1959505D01*
X1954584Y1488922D02*
Y1498764D01*
X1949663Y1582898D02*
X1959505D01*
X1954584Y1577977D02*
Y1587819D01*
X1949663Y1612583D02*
X1959505D01*
X1954584Y1607662D02*
Y1617504D01*
X1949663Y1642268D02*
X1959505D01*
X1954584Y1637347D02*
Y1647189D01*
X1949663Y1671953D02*
X1959505D01*
X1954584Y1667032D02*
Y1676874D01*
X1957230Y546236D02*
X1967073D01*
X1962152Y541315D02*
Y551158D01*
X1978221Y525246D02*
X1988063D01*
X1983142Y520325D02*
Y530167D01*
X1999211Y504255D02*
X2009054D01*
X2004133Y499334D02*
Y509177D01*
X2020202Y483265D02*
X2030044D01*
X2025123Y478344D02*
Y488186D01*
X1940243Y508259D02*
X1950086D01*
X1945165Y503337D02*
Y513180D01*
X1961234Y487268D02*
X1971076D01*
X1966155Y482347D02*
Y492189D01*
X1982224Y466278D02*
X1992067D01*
X1987146Y461356D02*
Y471199D01*
X1845210Y445287D02*
X1855053D01*
X1850131Y440366D02*
Y450208D01*
X1866201Y466278D02*
X1876043D01*
X1871122Y461356D02*
Y471199D01*
X1887191Y487268D02*
X1897034D01*
X1892112Y482347D02*
Y492189D01*
X1908182Y508259D02*
X1918024D01*
X1913103Y503337D02*
Y513180D01*
X1828223Y483265D02*
X1838066D01*
X1833145Y478344D02*
Y488186D01*
X1849214Y504255D02*
X1859056D01*
X1854135Y499334D02*
Y509177D01*
X1870204Y525246D02*
X1880047D01*
X1875125Y520325D02*
Y530167D01*
X1891195Y546236D02*
X1901037D01*
X1896116Y541315D02*
Y551158D01*
X1830591Y417926D02*
X1840433D01*
X1835512Y413004D02*
Y422847D01*
X1782239Y382316D02*
X1792081D01*
X1787160Y377394D02*
Y387237D01*
X1790366Y458150D02*
X1800209D01*
X1795287Y453229D02*
Y463071D01*
X1769376Y437160D02*
X1779218D01*
X1774297Y432238D02*
Y442081D01*
X1809601Y396935D02*
X1819443D01*
X1814522Y392014D02*
Y401856D01*
X1809295Y470707D02*
X1819137D01*
X1814216Y465786D02*
Y475629D01*
X1761248Y361325D02*
X1771091D01*
X1766169Y356404D02*
Y366246D01*
X1740258Y340335D02*
X1750100D01*
X1745179Y335413D02*
Y345256D01*
X1744261Y399303D02*
X1754104D01*
X1749182Y394382D02*
Y404224D01*
X1723271Y378312D02*
X1733113D01*
X1728192Y373391D02*
Y383234D01*
X1760345Y415387D02*
X1770187D01*
X1765266Y410465D02*
Y420308D01*
X2088080Y415387D02*
X2097923D01*
X2093002Y410466D02*
Y420308D01*
X2125155Y378313D02*
X2134997D01*
X2130076Y373391D02*
Y383234D01*
X2104164Y399303D02*
X2114006D01*
X2109085Y394382D02*
Y404224D01*
X2108168Y340335D02*
X2118010D01*
X2113089Y335414D02*
Y345256D01*
X2087177Y361325D02*
X2097019D01*
X2092098Y356404D02*
Y366247D01*
X2039130Y470708D02*
X2048973D01*
X2044052Y465786D02*
Y475629D01*
X2038825Y396935D02*
X2048667D01*
X2043746Y392014D02*
Y401856D01*
X2079049Y437160D02*
X2088892D01*
X2083971Y432238D02*
Y442081D01*
X2058059Y458150D02*
X2067901D01*
X2062980Y453229D02*
Y463071D01*
X2066186Y382316D02*
X2076029D01*
X2071108Y377395D02*
Y387237D01*
X2017834Y417926D02*
X2027677D01*
X2022756Y413005D02*
Y422847D01*
X2003215Y445287D02*
X2013057D01*
X2008136Y440366D02*
Y450209D01*
X519259Y1968504D02*
X529101D01*
X524180Y1963583D02*
Y1973425D01*
X1667032Y1993954D02*
X1676874D01*
X1671953Y1989033D02*
Y1998875D01*
X1577977Y1993954D02*
X1587819D01*
X1582898Y1989033D02*
Y1998875D01*
X1488922Y1993954D02*
X1498764D01*
X1493843Y1989033D02*
Y1998875D01*
X1518607Y1993954D02*
X1528449D01*
X1523528Y1989033D02*
Y1998875D01*
X1548292Y1993954D02*
X1558134D01*
X1553213Y1989033D02*
Y1998875D01*
X1370182Y1993954D02*
X1380024D01*
X1375103Y1989033D02*
Y1998875D01*
X1340497Y1993954D02*
X1350339D01*
X1345418Y1989033D02*
Y1998875D01*
X1310812Y1993954D02*
X1320654D01*
X1315733Y1989033D02*
Y1998875D01*
X1399867Y1993954D02*
X1409709D01*
X1404788Y1989033D02*
Y1998875D01*
X1429552Y1993954D02*
X1439394D01*
X1434473Y1989033D02*
Y1998875D01*
X1459237Y1993954D02*
X1469079D01*
X1464158Y1989033D02*
Y1998875D01*
X1192072Y1993954D02*
X1201914D01*
X1196993Y1989033D02*
Y1998875D01*
X1162387Y1993954D02*
X1172229D01*
X1167308Y1989033D02*
Y1998875D01*
X1132702Y1993954D02*
X1142544D01*
X1137623Y1989033D02*
Y1998875D01*
X1221757Y1993954D02*
X1231599D01*
X1226678Y1989033D02*
Y1998875D01*
X1251442Y1993954D02*
X1261284D01*
X1256363Y1989033D02*
Y1998875D01*
X1281127Y1993954D02*
X1290969D01*
X1286048Y1989033D02*
Y1998875D01*
X1013962Y1993954D02*
X1023804D01*
X1018883Y1989033D02*
Y1998875D01*
X984277Y1993954D02*
X994119D01*
X989198Y1989033D02*
Y1998875D01*
X954592Y1993954D02*
X964434D01*
X959513Y1989033D02*
Y1998875D01*
X1043647Y1993954D02*
X1053489D01*
X1048568Y1989033D02*
Y1998875D01*
X1073332Y1993954D02*
X1083174D01*
X1078253Y1989033D02*
Y1998875D01*
X1103017Y1993954D02*
X1112859D01*
X1107938Y1989033D02*
Y1998875D01*
X835852Y1993954D02*
X845694D01*
X840773Y1989033D02*
Y1998875D01*
X806167Y1993954D02*
X816009D01*
X811088Y1989033D02*
Y1998875D01*
X776482Y1993954D02*
X786324D01*
X781403Y1989033D02*
Y1998875D01*
X865537Y1993954D02*
X875379D01*
X870458Y1989033D02*
Y1998875D01*
X895222Y1993954D02*
X905064D01*
X900143Y1989033D02*
Y1998875D01*
X924907Y1993954D02*
X934749D01*
X929828Y1989033D02*
Y1998875D01*
X657742Y1993954D02*
X667584D01*
X662663Y1989033D02*
Y1998875D01*
X628057Y1993954D02*
X637899D01*
X632978Y1989033D02*
Y1998875D01*
X598372Y1993954D02*
X608214D01*
X603293Y1989033D02*
Y1998875D01*
X687427Y1993954D02*
X697269D01*
X692348Y1989033D02*
Y1998875D01*
X717112Y1993954D02*
X726954D01*
X722033Y1989033D02*
Y1998875D01*
X746797Y1993954D02*
X756639D01*
X751718Y1989033D02*
Y1998875D01*
X568687Y1993954D02*
X578529D01*
X573608Y1989033D02*
Y1998875D01*
X568687Y1943054D02*
X578529D01*
X573608Y1938133D02*
Y1947975D01*
X746797Y1943054D02*
X756639D01*
X751718Y1938133D02*
Y1947975D01*
X717112Y1943054D02*
X726954D01*
X722033Y1938133D02*
Y1947975D01*
X687427Y1943054D02*
X697269D01*
X692348Y1938133D02*
Y1947975D01*
X598372Y1943054D02*
X608214D01*
X603293Y1938133D02*
Y1947975D01*
X628057Y1943054D02*
X637899D01*
X632978Y1938133D02*
Y1947975D01*
X657742Y1943054D02*
X667584D01*
X662663Y1938133D02*
Y1947975D01*
X924907Y1943054D02*
X934749D01*
X929828Y1938133D02*
Y1947975D01*
X895222Y1943054D02*
X905064D01*
X900143Y1938133D02*
Y1947975D01*
X865537Y1943054D02*
X875379D01*
X870458Y1938133D02*
Y1947975D01*
X776482Y1943054D02*
X786324D01*
X781403Y1938133D02*
Y1947975D01*
X806167Y1943054D02*
X816009D01*
X811088Y1938133D02*
Y1947975D01*
X835852Y1943054D02*
X845694D01*
X840773Y1938133D02*
Y1947975D01*
X1103017Y1943054D02*
X1112859D01*
X1107938Y1938133D02*
Y1947975D01*
X1073332Y1943054D02*
X1083174D01*
X1078253Y1938133D02*
Y1947975D01*
X1043647Y1943054D02*
X1053489D01*
X1048568Y1938133D02*
Y1947975D01*
X954592Y1943054D02*
X964434D01*
X959513Y1938133D02*
Y1947975D01*
X984277Y1943054D02*
X994119D01*
X989198Y1938133D02*
Y1947975D01*
X1013962Y1943054D02*
X1023804D01*
X1018883Y1938133D02*
Y1947975D01*
X1281127Y1943054D02*
X1290969D01*
X1286048Y1938133D02*
Y1947975D01*
X1251442Y1943054D02*
X1261284D01*
X1256363Y1938133D02*
Y1947975D01*
X1221757Y1943054D02*
X1231599D01*
X1226678Y1938133D02*
Y1947975D01*
X1132702Y1943054D02*
X1142544D01*
X1137623Y1938133D02*
Y1947975D01*
X1162387Y1943054D02*
X1172229D01*
X1167308Y1938133D02*
Y1947975D01*
X1192072Y1943054D02*
X1201914D01*
X1196993Y1938133D02*
Y1947975D01*
X1459237Y1943054D02*
X1469079D01*
X1464158Y1938133D02*
Y1947975D01*
X1429552Y1943054D02*
X1439394D01*
X1434473Y1938133D02*
Y1947975D01*
X1399867Y1943054D02*
X1409709D01*
X1404788Y1938133D02*
Y1947975D01*
X1310812Y1943054D02*
X1320654D01*
X1315733Y1938133D02*
Y1947975D01*
X1340497Y1943054D02*
X1350339D01*
X1345418Y1938133D02*
Y1947975D01*
X1370182Y1943054D02*
X1380024D01*
X1375103Y1938133D02*
Y1947975D01*
X1548292Y1943054D02*
X1558134D01*
X1553213Y1938133D02*
Y1947975D01*
X1518607Y1943054D02*
X1528449D01*
X1523528Y1938133D02*
Y1947975D01*
X1488922Y1943054D02*
X1498764D01*
X1493843Y1938133D02*
Y1947975D01*
X1577977Y1943054D02*
X1587819D01*
X1582898Y1938133D02*
Y1947975D01*
X1667032Y1943054D02*
X1676874D01*
X1671953Y1938133D02*
Y1947975D01*
X541315Y1935486D02*
X551158D01*
X546236Y1930565D02*
Y1940407D01*
X520325Y1914495D02*
X530167D01*
X525246Y1909574D02*
Y1919417D01*
X499334Y1893505D02*
X509177D01*
X504255Y1888584D02*
Y1898426D01*
X478344Y1872515D02*
X488186D01*
X483265Y1867593D02*
Y1877436D01*
X503337Y1952473D02*
X513180D01*
X508259Y1947552D02*
Y1957394D01*
X482347Y1931483D02*
X492189D01*
X487268Y1926561D02*
Y1936404D01*
X461356Y1910492D02*
X471199D01*
X466278Y1905571D02*
Y1915413D01*
X440366Y1889502D02*
X450208D01*
X445287Y1884580D02*
Y1894423D01*
X440366Y2047506D02*
X450208D01*
X445287Y2042585D02*
Y2052427D01*
X461356Y2026516D02*
X471199D01*
X466278Y2021594D02*
Y2031437D01*
X482347Y2005525D02*
X492189D01*
X487268Y2000604D02*
Y2010446D01*
X503337Y1984535D02*
X513180D01*
X508259Y1979613D02*
Y1989456D01*
X478344Y2064493D02*
X488186D01*
X483265Y2059572D02*
Y2069414D01*
X499334Y2043503D02*
X509177D01*
X504255Y2038582D02*
Y2048424D01*
X520325Y2022512D02*
X530167D01*
X525246Y2017591D02*
Y2027434D01*
X541315Y2001522D02*
X551158D01*
X546236Y1996601D02*
Y2006443D01*
X413004Y2062126D02*
X422847D01*
X417926Y2057204D02*
Y2067047D01*
X377394Y2110478D02*
X387237D01*
X382316Y2105557D02*
Y2115399D01*
X453229Y2102350D02*
X463071D01*
X458150Y2097429D02*
Y2107271D01*
X432238Y2123341D02*
X442081D01*
X437160Y2118419D02*
Y2128262D01*
X392014Y2083116D02*
X401856D01*
X396935Y2078195D02*
Y2088037D01*
X465786Y2083422D02*
X475629D01*
X470707Y2078501D02*
Y2088343D01*
X356404Y2131468D02*
X366246D01*
X361325Y2126547D02*
Y2136389D01*
X335413Y2152459D02*
X345256D01*
X340335Y2147537D02*
Y2157380D01*
X394382Y2148455D02*
X404224D01*
X399303Y2143534D02*
Y2153376D01*
X373391Y2169446D02*
X383234D01*
X378312Y2164524D02*
Y2174367D01*
X410465Y2132372D02*
X420308D01*
X415387Y2127450D02*
Y2137293D01*
X410466Y1804636D02*
X420308D01*
X415387Y1799715D02*
Y1809557D01*
X373391Y1767562D02*
X383234D01*
X378313Y1762641D02*
Y1772483D01*
X394382Y1788553D02*
X404224D01*
X399303Y1783631D02*
Y1793474D01*
X335414Y1784549D02*
X345256D01*
X340335Y1779628D02*
Y1789470D01*
X356404Y1805540D02*
X366247D01*
X361325Y1800618D02*
Y1810461D01*
X465786Y1853586D02*
X475629D01*
X470708Y1848665D02*
Y1858507D01*
X392014Y1853892D02*
X401856D01*
X396935Y1848970D02*
Y1858813D01*
X432238Y1813667D02*
X442081D01*
X437160Y1808746D02*
Y1818588D01*
X453229Y1834658D02*
X463071D01*
X458150Y1829736D02*
Y1839579D01*
X377395Y1826530D02*
X387237D01*
X382316Y1821609D02*
Y1831451D01*
X413005Y1874882D02*
X422847D01*
X417926Y1869961D02*
Y1879803D01*
X1929016Y3519082D02*
X1938858D01*
X1933937Y3514161D02*
Y3524003D01*
X1880664Y3554692D02*
X1890506D01*
X1885585Y3549771D02*
Y3559613D01*
X1888791Y3478858D02*
X1898634D01*
X1893713Y3473936D02*
Y3483779D01*
X1867801Y3499848D02*
X1877643D01*
X1872722Y3494927D02*
Y3504769D01*
X1908026Y3540073D02*
X1917868D01*
X1912947Y3535151D02*
Y3544994D01*
X1907720Y3466300D02*
X1917562D01*
X1912641Y3461379D02*
Y3471221D01*
X1859673Y3575682D02*
X1869516D01*
X1864595Y3570761D02*
Y3580604D01*
X1838683Y3596673D02*
X1848525D01*
X1843604Y3591752D02*
Y3601594D01*
X1842686Y3537705D02*
X1852529D01*
X1847608Y3532784D02*
Y3542626D01*
X1821696Y3558695D02*
X1831538D01*
X1826617Y3553774D02*
Y3563616D01*
X1858770Y3521621D02*
X1868612D01*
X1863691Y3516700D02*
Y3526542D01*
X2186506Y3521621D02*
X2196348D01*
X2191427Y3516700D02*
Y3526542D01*
X2223580Y3558695D02*
X2233422D01*
X2228501Y3553774D02*
Y3563617D01*
X2202589Y3537705D02*
X2212432D01*
X2207510Y3532784D02*
Y3542626D01*
X2206593Y3596673D02*
X2216435D01*
X2211514Y3591752D02*
Y3601594D01*
X2185602Y3575683D02*
X2195445D01*
X2190523Y3570761D02*
Y3580604D01*
X2137556Y3466300D02*
X2147398D01*
X2142477Y3461379D02*
Y3471222D01*
X2137250Y3540073D02*
X2147092D01*
X2142171Y3535151D02*
Y3544994D01*
X2177474Y3499848D02*
X2187317D01*
X2182396Y3494927D02*
Y3504769D01*
X2156484Y3478858D02*
X2166327D01*
X2161405Y3473937D02*
Y3483779D01*
X2164612Y3554692D02*
X2174454D01*
X2169533Y3549771D02*
Y3559613D01*
X2116260Y3519082D02*
X2126102D01*
X2121181Y3514161D02*
Y3524003D01*
X2055656Y3390771D02*
X2065498D01*
X2060577Y3385850D02*
Y3395693D01*
X2076646Y3411762D02*
X2086489D01*
X2081567Y3406841D02*
Y3416683D01*
X2097637Y3432752D02*
X2107479D01*
X2102558Y3427831D02*
Y3437673D01*
X2118627Y3453743D02*
X2128470D01*
X2123548Y3448822D02*
Y3458664D01*
X2038669Y3428749D02*
X2048511D01*
X2043590Y3423828D02*
Y3433670D01*
X2059659Y3449740D02*
X2069501D01*
X2064580Y3444818D02*
Y3454661D01*
X2080650Y3470730D02*
X2090492D01*
X2085571Y3465809D02*
Y3475651D01*
X2101640Y3491721D02*
X2111483D01*
X2106561Y3486799D02*
Y3496642D01*
X1943636Y3491721D02*
X1953478D01*
X1948557Y3486799D02*
Y3496642D01*
X1964626Y3470730D02*
X1974468D01*
X1969547Y3465809D02*
Y3475651D01*
X1985617Y3449740D02*
X1995459D01*
X1990538Y3444818D02*
Y3454661D01*
X2006607Y3428749D02*
X2016449D01*
X2011528Y3423828D02*
Y3433670D01*
X1926649Y3453743D02*
X1936491D01*
X1931570Y3448822D02*
Y3458664D01*
X1947639Y3432752D02*
X1957481D01*
X1952560Y3427831D02*
Y3437673D01*
X1968629Y3411762D02*
X1978472D01*
X1973551Y3406841D02*
Y3416683D01*
X1989620Y3390771D02*
X1999462D01*
X1994541Y3385850D02*
Y3395693D01*
X1997188Y2265055D02*
X2007030D01*
X2002109Y2260134D02*
Y2269976D01*
X1997188Y2294740D02*
X2007030D01*
X2002109Y2289819D02*
Y2299661D01*
X1997188Y2324425D02*
X2007030D01*
X2002109Y2319504D02*
Y2329346D01*
X1997188Y2354110D02*
X2007030D01*
X2002109Y2349189D02*
Y2359031D01*
X1997188Y2443165D02*
X2007030D01*
X2002109Y2438244D02*
Y2448086D01*
X1997188Y2413480D02*
X2007030D01*
X2002109Y2408559D02*
Y2418401D01*
X1997188Y2383795D02*
X2007030D01*
X2002109Y2378874D02*
Y2388716D01*
X1997188Y2561905D02*
X2007030D01*
X2002109Y2556984D02*
Y2566826D01*
X1997188Y2591590D02*
X2007030D01*
X2002109Y2586669D02*
Y2596511D01*
X1997188Y2621275D02*
X2007030D01*
X2002109Y2616354D02*
Y2626196D01*
X1997188Y2532220D02*
X2007030D01*
X2002109Y2527299D02*
Y2537141D01*
X1997188Y2502535D02*
X2007030D01*
X2002109Y2497614D02*
Y2507456D01*
X1997188Y2472850D02*
X2007030D01*
X2002109Y2467929D02*
Y2477771D01*
X1997188Y2740015D02*
X2007030D01*
X2002109Y2735094D02*
Y2744936D01*
X1997188Y2769700D02*
X2007030D01*
X2002109Y2764779D02*
Y2774621D01*
X1997188Y2799385D02*
X2007030D01*
X2002109Y2794464D02*
Y2804306D01*
X1997188Y2710330D02*
X2007030D01*
X2002109Y2705409D02*
Y2715251D01*
X1997188Y2680645D02*
X2007030D01*
X2002109Y2675724D02*
Y2685566D01*
X1997188Y2650960D02*
X2007030D01*
X2002109Y2646039D02*
Y2655881D01*
X1997188Y2918125D02*
X2007030D01*
X2002109Y2913204D02*
Y2923046D01*
X1997188Y2947810D02*
X2007030D01*
X2002109Y2942889D02*
Y2952731D01*
X1997188Y2977495D02*
X2007030D01*
X2002109Y2972574D02*
Y2982416D01*
X1997188Y2888440D02*
X2007030D01*
X2002109Y2883519D02*
Y2893361D01*
X1997188Y2858755D02*
X2007030D01*
X2002109Y2853834D02*
Y2863676D01*
X1997188Y2829070D02*
X2007030D01*
X2002109Y2824149D02*
Y2833991D01*
X1997188Y3096235D02*
X2007030D01*
X2002109Y3091314D02*
Y3101156D01*
X1997188Y3125920D02*
X2007030D01*
X2002109Y3120999D02*
Y3130841D01*
X1997188Y3155605D02*
X2007030D01*
X2002109Y3150684D02*
Y3160526D01*
X1997188Y3066550D02*
X2007030D01*
X2002109Y3061629D02*
Y3071471D01*
X1997188Y3036865D02*
X2007030D01*
X2002109Y3031944D02*
Y3041786D01*
X1997188Y3007180D02*
X2007030D01*
X2002109Y3002259D02*
Y3012101D01*
X1997188Y3274345D02*
X2007030D01*
X2002109Y3269424D02*
Y3279266D01*
X1997188Y3304030D02*
X2007030D01*
X2002109Y3299109D02*
Y3308951D01*
X1997188Y3333715D02*
X2007030D01*
X2002109Y3328794D02*
Y3338636D01*
X1997188Y3244660D02*
X2007030D01*
X2002109Y3239739D02*
Y3249581D01*
X1997188Y3214975D02*
X2007030D01*
X2002109Y3210054D02*
Y3219896D01*
X1997188Y3185290D02*
X2007030D01*
X2002109Y3180369D02*
Y3190211D01*
X1997188Y3363400D02*
X2007030D01*
X2002109Y3358479D02*
Y3368321D01*
X2048088Y3363400D02*
X2057930D01*
X2053009Y3358479D02*
Y3368321D01*
X2048088Y3185290D02*
X2057930D01*
X2053009Y3180369D02*
Y3190211D01*
X2048088Y3214975D02*
X2057930D01*
X2053009Y3210054D02*
Y3219896D01*
X2048088Y3244660D02*
X2057930D01*
X2053009Y3239739D02*
Y3249581D01*
X2048088Y3333715D02*
X2057930D01*
X2053009Y3328794D02*
Y3338636D01*
X2048088Y3304030D02*
X2057930D01*
X2053009Y3299109D02*
Y3308951D01*
X2048088Y3274345D02*
X2057930D01*
X2053009Y3269424D02*
Y3279266D01*
X2048088Y3007180D02*
X2057930D01*
X2053009Y3002259D02*
Y3012101D01*
X2048088Y3036865D02*
X2057930D01*
X2053009Y3031944D02*
Y3041786D01*
X2048088Y3066550D02*
X2057930D01*
X2053009Y3061629D02*
Y3071471D01*
X2048088Y3155605D02*
X2057930D01*
X2053009Y3150684D02*
Y3160526D01*
X2048088Y3125920D02*
X2057930D01*
X2053009Y3120999D02*
Y3130841D01*
X2048088Y3096235D02*
X2057930D01*
X2053009Y3091314D02*
Y3101156D01*
X2048088Y2829070D02*
X2057930D01*
X2053009Y2824149D02*
Y2833991D01*
X2048088Y2858755D02*
X2057930D01*
X2053009Y2853834D02*
Y2863676D01*
X2048088Y2888440D02*
X2057930D01*
X2053009Y2883519D02*
Y2893361D01*
X2048088Y2977495D02*
X2057930D01*
X2053009Y2972574D02*
Y2982416D01*
X2048088Y2947810D02*
X2057930D01*
X2053009Y2942889D02*
Y2952731D01*
X2048088Y2918125D02*
X2057930D01*
X2053009Y2913204D02*
Y2923046D01*
X2048088Y2650960D02*
X2057930D01*
X2053009Y2646039D02*
Y2655881D01*
X2048088Y2680645D02*
X2057930D01*
X2053009Y2675724D02*
Y2685566D01*
X2048088Y2710330D02*
X2057930D01*
X2053009Y2705409D02*
Y2715251D01*
X2048088Y2799385D02*
X2057930D01*
X2053009Y2794464D02*
Y2804306D01*
X2048088Y2769700D02*
X2057930D01*
X2053009Y2764779D02*
Y2774621D01*
X2048088Y2740015D02*
X2057930D01*
X2053009Y2735094D02*
Y2744936D01*
X2048088Y2472850D02*
X2057930D01*
X2053009Y2467929D02*
Y2477771D01*
X2048088Y2502535D02*
X2057930D01*
X2053009Y2497614D02*
Y2507456D01*
X2048088Y2532220D02*
X2057930D01*
X2053009Y2527299D02*
Y2537141D01*
X2048088Y2621275D02*
X2057930D01*
X2053009Y2616354D02*
Y2626196D01*
X2048088Y2591590D02*
X2057930D01*
X2053009Y2586669D02*
Y2596511D01*
X2048088Y2561905D02*
X2057930D01*
X2053009Y2556984D02*
Y2566826D01*
X2048088Y2383795D02*
X2057930D01*
X2053009Y2378874D02*
Y2388716D01*
X2048088Y2413480D02*
X2057930D01*
X2053009Y2408559D02*
Y2418401D01*
X2048088Y2443165D02*
X2057930D01*
X2053009Y2438244D02*
Y2448086D01*
X2048088Y2354110D02*
X2057930D01*
X2053009Y2349189D02*
Y2359031D01*
X2048088Y2324425D02*
X2057930D01*
X2053009Y2319504D02*
Y2329346D01*
X2048088Y2294740D02*
X2057930D01*
X2053009Y2289819D02*
Y2299661D01*
X2048088Y2265055D02*
X2057930D01*
X2053009Y2260134D02*
Y2269976D01*
X2022638Y3412828D02*
X2032480D01*
X2027559Y3407907D02*
Y3417749D01*
X3202636Y3454369D02*
X3212479D01*
X3207557Y3449448D02*
Y3459291D01*
X3202636Y3290242D02*
X3212479D01*
X3207557Y3285320D02*
Y3295163D01*
X3501491Y2883588D02*
X3511333D01*
X3506412Y2878667D02*
Y2888510D01*
X3533469Y2850941D02*
X3543311D01*
X3538390Y2846020D02*
Y2855862D01*
X3564800Y2883588D02*
X3574643D01*
X3569722Y2878667D02*
Y2888510D01*
X3533146Y2883588D02*
X3542988D01*
X3538067Y2878667D02*
Y2888510D01*
X1963583Y1911008D02*
X1973425D01*
X1968504Y1906087D02*
Y1915929D01*
X1963583Y1939756D02*
X1973425D01*
X1968504Y1934835D02*
Y1944677D01*
X1934835Y1911008D02*
X1944677D01*
X1939756Y1906087D02*
Y1915929D01*
X1934835Y1939756D02*
X1944677D01*
X1939756Y1934835D02*
Y1944677D01*
X1906087Y1911008D02*
X1915929D01*
X1911008Y1906087D02*
Y1915929D01*
X1906087Y1939756D02*
X1915929D01*
X1911008Y1934835D02*
Y1944677D01*
X1992331Y1911008D02*
X2002173D01*
X1997252Y1906087D02*
Y1915929D01*
X1992331Y1939756D02*
X2002173D01*
X1997252Y1934835D02*
Y1944677D01*
X2021079Y1911008D02*
X2030921D01*
X2026000Y1906087D02*
Y1915929D01*
X2021079Y1939756D02*
X2030921D01*
X2026000Y1934835D02*
Y1944677D01*
X1813447Y2062570D02*
X1823289D01*
X1818368Y2057649D02*
Y2067491D01*
X1906087Y1997252D02*
X1915929D01*
X1911008Y1992331D02*
Y2002173D01*
X1906087Y2026000D02*
X1915929D01*
X1911008Y2021079D02*
Y2030921D01*
X1934835Y1997252D02*
X1944677D01*
X1939756Y1992331D02*
Y2002173D01*
X1934835Y2026000D02*
X1944677D01*
X1939756Y2021079D02*
Y2030921D01*
X2021079Y1997252D02*
X2030921D01*
X2026000Y1992331D02*
Y2002173D01*
X2021079Y2026000D02*
X2030921D01*
X2026000Y2021079D02*
Y2030921D01*
X1992331Y1997252D02*
X2002173D01*
X1997252Y1992331D02*
Y2002173D01*
X1992331Y2026000D02*
X2002173D01*
X1997252Y2021079D02*
Y2030921D01*
X1963583Y1997252D02*
X1973425D01*
X1968504Y1992331D02*
Y2002173D01*
X1963583Y2026000D02*
X1973425D01*
X1968504Y2021079D02*
Y2030921D01*
X1642897Y2051826D02*
X1652739D01*
X1647818Y2046905D02*
Y2056747D01*
X1640051Y1678776D02*
X1649894D01*
X1644972Y1673855D02*
Y1683697D01*
X2108605Y1873938D02*
X2118448D01*
X2113527Y1869016D02*
Y1878859D01*
X1766387Y2007157D02*
X1776229D01*
X1771308Y2002236D02*
Y2012078D01*
X1856083Y2054860D02*
X1865925D01*
X1861004Y2049939D02*
Y2059782D01*
X1977633Y1765886D02*
X1987475D01*
X1982554Y1760965D02*
Y1770808D01*
X1966968Y1784662D02*
X1976810D01*
X1971889Y1779741D02*
Y1789583D01*
X3276610Y370989D02*
X3286453D01*
X3281532Y366068D02*
Y375911D01*
X3175793Y370989D02*
X3185635D01*
X3180714Y366068D02*
Y375911D01*
X2108476Y2050683D02*
X2118319D01*
X2113398Y2045762D02*
Y2055604D01*
X2108476Y2072084D02*
X2118319D01*
X2113398Y2067163D02*
Y2077005D01*
X2108863Y2093226D02*
X2118706D01*
X2113784Y2088305D02*
Y2098148D01*
X2108992Y1916481D02*
X2118835D01*
X2113913Y1911560D02*
Y1921402D01*
X2108605Y1895338D02*
X2118448D01*
X2113527Y1890417D02*
Y1900259D01*
X1879817Y1861898D02*
X1889660D01*
X1884739Y1856976D02*
Y1866819D01*
X2229858Y245576D02*
X2239700D01*
X2234779Y240654D02*
Y250497D01*
X2174213Y222586D02*
X2184055D01*
X2179134Y217665D02*
Y227507D01*
X2117465Y245576D02*
X2127307D01*
X2122386Y240654D02*
Y250497D01*
X2094188Y301772D02*
X2104030D01*
X2099109Y296851D02*
Y306693D01*
X2173661Y381245D02*
X2183504D01*
X2178582Y376324D02*
Y386167D01*
X2229858Y357968D02*
X2239700D01*
X2234779Y353047D02*
Y362889D01*
X2253135Y301772D02*
X2262977D01*
X2258056Y296851D02*
Y306693D01*
X1618016Y246127D02*
X1627859D01*
X1622938Y241206D02*
Y251048D01*
X1595027Y301772D02*
X1604869D01*
X1599948Y296851D02*
Y306693D01*
X1618016Y358520D02*
X1627859D01*
X1622938Y353599D02*
Y363441D01*
X1674213Y381797D02*
X1684055D01*
X1679134Y376876D02*
Y386718D01*
X1753686Y302323D02*
X1763528D01*
X1758607Y297402D02*
Y307245D01*
X1730409Y246127D02*
X1740251D01*
X1735330Y241206D02*
Y251048D01*
X1674213Y222850D02*
X1684055D01*
X1679134Y217929D02*
Y227771D01*
X240654Y1662859D02*
X250497D01*
X245576Y1657938D02*
Y1667780D01*
X217665Y1718504D02*
X227507D01*
X222586Y1713583D02*
Y1723425D01*
X240654Y1775252D02*
X250497D01*
X245576Y1770331D02*
Y1780173D01*
X296851Y1798529D02*
X306693D01*
X301772Y1793608D02*
Y1803450D01*
X376324Y1719055D02*
X386167D01*
X381245Y1714134D02*
Y1723976D01*
X353047Y1662859D02*
X362889D01*
X357968Y1657938D02*
Y1667780D01*
X296851Y1639582D02*
X306693D01*
X301772Y1634661D02*
Y1644503D01*
X241206Y2274700D02*
X251048D01*
X246127Y2269779D02*
Y2279621D01*
X296851Y2297690D02*
X306693D01*
X301772Y2292769D02*
Y2302611D01*
X353599Y2274700D02*
X363441D01*
X358520Y2269779D02*
Y2279621D01*
X376876Y2218504D02*
X386718D01*
X381797Y2213583D02*
Y2223425D01*
X297402Y2139030D02*
X307245D01*
X302323Y2134109D02*
Y2143952D01*
X241206Y2162308D02*
X251048D01*
X246127Y2157386D02*
Y2167229D01*
X217929Y2218504D02*
X227771D01*
X222850Y2213583D02*
Y2223425D01*
X2328834Y3690881D02*
X2338677D01*
X2333755Y3685960D02*
Y3695802D01*
X2351824Y3635236D02*
X2361666D01*
X2356745Y3630315D02*
Y3640157D01*
X2328834Y3578488D02*
X2338677D01*
X2333755Y3573567D02*
Y3583409D01*
X2272638Y3555211D02*
X2282480D01*
X2277559Y3550290D02*
Y3560132D01*
X2193164Y3634684D02*
X2203007D01*
X2198086Y3629763D02*
Y3639606D01*
X2216441Y3690881D02*
X2226284D01*
X2221363Y3685960D02*
Y3695802D01*
X2272638Y3714158D02*
X2282480D01*
X2277559Y3709237D02*
Y3719079D01*
X1716993Y3691432D02*
X1726835D01*
X1721914Y3686511D02*
Y3696353D01*
X1772638Y3714422D02*
X1782480D01*
X1777559Y3709501D02*
Y3719343D01*
X1829386Y3691432D02*
X1839228D01*
X1834307Y3686511D02*
Y3696353D01*
X1852663Y3635236D02*
X1862505D01*
X1857584Y3630315D02*
Y3640157D01*
X1773189Y3555762D02*
X1783032D01*
X1778110Y3550841D02*
Y3560684D01*
X1716993Y3579040D02*
X1726835D01*
X1721914Y3574118D02*
Y3583961D01*
X1693716Y3635236D02*
X1703558D01*
X1698637Y3630315D02*
Y3640157D01*
X1152560Y3423805D02*
X1162403D01*
X1157482Y3418884D02*
Y3428726D01*
X1208163Y3400714D02*
X1218006D01*
X1213084Y3395793D02*
Y3405635D01*
X1232034Y3344331D02*
X1241876D01*
X1236955Y3339410D02*
Y3349252D01*
X1208757Y3288135D02*
X1218599D01*
X1213678Y3283214D02*
Y3293056D01*
X1096364Y3288135D02*
X1106207D01*
X1101285Y3283214D02*
Y3293056D01*
X1073087Y3344331D02*
X1082929D01*
X1078008Y3339410D02*
Y3349252D01*
X1096364Y3400528D02*
X1106207D01*
X1101285Y3395606D02*
Y3405449D01*
X742811Y2934581D02*
X752653D01*
X747732Y2929660D02*
Y2939503D01*
X799007Y2911304D02*
X808849D01*
X803928Y2906383D02*
Y2916225D01*
X855203Y2934581D02*
X865046D01*
X860125Y2929660D02*
Y2939503D01*
X855203Y3046974D02*
X865046D01*
X860125Y3042053D02*
Y3051895D01*
X799007Y3070251D02*
X808849D01*
X803928Y3065330D02*
Y3075173D01*
X742624Y3046381D02*
X752467D01*
X747545Y3041459D02*
Y3051302D01*
X719533Y2990778D02*
X729376D01*
X724455Y2985857D02*
Y2995699D01*
X1979249Y1820485D02*
X1989092D01*
X1984171Y1815564D02*
Y1825407D01*
X1672424Y2158932D02*
X1682267D01*
X1677345Y2154011D02*
Y2163854D01*
X2213498Y2041393D02*
X2223340D01*
X2218419Y2036472D02*
Y2046315D01*
X2246925Y2074819D02*
X2256767D01*
X2251846Y2069898D02*
Y2079740D01*
X2213499Y2108246D02*
X2223341D01*
X2218420Y2103325D02*
Y2113167D01*
X2246925Y1881740D02*
X2256767D01*
X2251846Y1876819D02*
Y1886662D01*
X2213499Y1915167D02*
X2223341D01*
X2218420Y1910246D02*
Y1920088D01*
X1688632Y2018838D02*
X1698474D01*
X1693553Y2013917D02*
Y2023759D01*
X1719009Y2018838D02*
X1728852D01*
X1723930Y2013917D02*
Y2023760D01*
X2270213Y2275134D02*
X2280055D01*
X2275134Y2270213D02*
Y2280055D01*
X2253311Y2292035D02*
X2263153D01*
X2258232Y2287114D02*
Y2296957D01*
X2236409Y2308937D02*
X2246251D01*
X2241330Y2304016D02*
Y2313858D01*
X2287114Y2258232D02*
X2296957D01*
X2292035Y2253311D02*
Y2263153D01*
X2304016Y2241330D02*
X2313858D01*
X2308937Y2236409D02*
Y2246251D01*
X2270213Y1661874D02*
X2280055D01*
X2275134Y1656953D02*
Y1666795D01*
X2287114Y1678776D02*
X2296957D01*
X2292035Y1673855D02*
Y1683697D01*
X2304016Y1695678D02*
X2313858D01*
X2308937Y1690756D02*
Y1700599D01*
X2253311Y1644972D02*
X2263153D01*
X2258232Y1640051D02*
Y1649894D01*
X2236409Y1628071D02*
X2246251D01*
X2241330Y1623149D02*
Y1632992D01*
X1656953Y1661874D02*
X1666795D01*
X1661874Y1656953D02*
Y1666795D01*
X1673855Y1644972D02*
X1683697D01*
X1678776Y1640051D02*
Y1649894D01*
X1690756Y1628071D02*
X1700599D01*
X1695678Y1623149D02*
Y1632992D01*
X1623149Y1695678D02*
X1632992D01*
X1628071Y1690756D02*
Y1700599D01*
X1690756Y2308937D02*
X1700599D01*
X1695678Y2304016D02*
Y2313858D01*
X1673855Y2292035D02*
X1683697D01*
X1678776Y2287114D02*
Y2296957D01*
X1623149Y2241330D02*
X1632992D01*
X1628071Y2236409D02*
Y2246251D01*
X1640051Y2258232D02*
X1649894D01*
X1644972Y2253311D02*
Y2263153D01*
X1656953Y2275134D02*
X1666795D01*
X1661874Y2270213D02*
Y2280055D01*
X1747265Y2173412D02*
X1757107D01*
X1752186Y2168491D02*
Y2178333D01*
X1837493Y2032087D02*
X1847336D01*
X1842414Y2027165D02*
Y2037008D01*
X1772832Y2062941D02*
X1782674D01*
X1777753Y2058020D02*
Y2067862D01*
X1742454Y2062773D02*
X1752297D01*
X1747375Y2057852D02*
Y2067694D01*
X1794650Y2083228D02*
X1804492D01*
X1799571Y2078306D02*
Y2088149D01*
X1901890Y2110789D02*
X1911732D01*
X1906811Y2105868D02*
Y2115710D01*
X1879528Y2110789D02*
X1889371D01*
X1884449Y2105868D02*
Y2115710D01*
X1959161Y1804022D02*
X1969004D01*
X1964082Y1799100D02*
Y1808943D01*
X2148225Y1998032D02*
X2158067D01*
X2153146Y1993110D02*
Y2002953D01*
X2021079Y1968504D02*
X2030921D01*
X2026000Y1963583D02*
Y1973425D01*
X1992331Y1968504D02*
X2002173D01*
X1997252Y1963583D02*
Y1973425D01*
X2150506Y1915497D02*
X2160349D01*
X2155427Y1910576D02*
Y1920418D01*
X3090114Y405108D02*
X3099957D01*
X3095036Y400187D02*
Y410030D01*
X2989234Y717888D02*
X2999077D01*
X2994155Y712967D02*
Y722809D01*
X2989250Y694388D02*
X2999092D01*
X2994171Y689467D02*
Y699309D01*
X2989234Y670888D02*
X2999077D01*
X2994155Y665967D02*
Y675809D01*
X2892602Y620371D02*
X2902445D01*
X2897523Y615450D02*
Y625292D01*
X2882415Y789637D02*
X2892257D01*
X2887336Y784716D02*
Y794558D01*
X2996264Y406551D02*
X3006107D01*
X3001185Y401630D02*
Y411473D01*
X2082596Y2064314D02*
X2092438D01*
X2087517Y2059393D02*
Y2069235D01*
X1963583Y1968504D02*
X1973425D01*
X1968504Y1963583D02*
Y1973425D01*
X1906087Y1968504D02*
X1915929D01*
X1911008Y1963583D02*
Y1973425D01*
X1934835Y1968504D02*
X1944677D01*
X1939756Y1963583D02*
Y1973425D01*
X2950864Y670888D02*
X2960706D01*
X2955785Y665967D02*
Y675809D01*
X2950880Y694388D02*
X2960722D01*
X2955801Y689467D02*
Y699309D01*
X2912494Y717888D02*
X2922336D01*
X2917415Y712967D02*
Y722809D01*
X2912510Y694388D02*
X2922352D01*
X2917431Y689467D02*
Y699309D01*
X2950864Y717888D02*
X2960706D01*
X2955785Y712967D02*
Y722809D01*
X2912494Y670888D02*
X2922336D01*
X2917415Y665967D02*
Y675809D01*
M02*
