G04*
G04 #@! TF.GenerationSoftware,Altium Limited,Altium Designer,24.2.2 (26)*
G04*
G04 Layer_Color=32896*
%FSLAX26Y26*%
%MOIN*%
G70*
G04*
G04 #@! TF.SameCoordinates,46F5A5B2-6880-422F-88BA-D3FAC370E1DB*
G04*
G04*
G04 #@! TF.FilePolarity,Positive*
G04*
G01*
G75*
%ADD16C,0.010000*%
%ADD17C,0.008000*%
D16*
X963342Y89987D02*
X976671D01*
X970006D01*
Y56664D01*
X976671Y50000D01*
X983336D01*
X990000Y56664D01*
X950013Y76658D02*
Y56664D01*
X943348Y50000D01*
X923355D01*
Y76658D01*
X910026Y50000D02*
Y76658D01*
X890032D01*
X883368Y69993D01*
Y50000D01*
X850045D02*
X863374D01*
X870039Y56664D01*
Y69993D01*
X863374Y76658D01*
X850045D01*
X843381Y69993D01*
Y63329D01*
X870039D01*
X763407Y50000D02*
X790064D01*
X763407Y76658D01*
Y83323D01*
X770071Y89987D01*
X783400D01*
X790064Y83323D01*
X750077D02*
X743413Y89987D01*
X730084D01*
X723419Y83323D01*
Y56664D01*
X730084Y50000D01*
X743413D01*
X750077Y56664D01*
Y83323D01*
X683432Y50000D02*
X710090D01*
X683432Y76658D01*
Y83323D01*
X690097Y89987D01*
X703426D01*
X710090Y83323D01*
X650110Y50000D02*
Y89987D01*
X670103Y69993D01*
X643445D01*
X560000Y50000D02*
Y89987D01*
X540006D01*
X533342Y83323D01*
Y69993D01*
X540006Y63329D01*
X560000D01*
X546671D02*
X533342Y50000D01*
X500019D02*
X513348D01*
X520013Y56664D01*
Y69993D01*
X513348Y76658D01*
X500019D01*
X493355Y69993D01*
Y63329D01*
X520013D01*
X480026Y76658D02*
X466697Y50000D01*
X453368Y76658D01*
X400052Y50000D02*
X386723D01*
X393387D01*
Y89987D01*
X400052Y83323D01*
X366729Y50000D02*
Y56664D01*
X360065D01*
Y50000D01*
X366729D01*
X333406Y83323D02*
X326742Y89987D01*
X313413D01*
X306748Y83323D01*
Y56664D01*
X313413Y50000D01*
X326742D01*
X333406Y56664D01*
Y83323D01*
D17*
X1848267Y1895548D02*
Y1930537D01*
X1830773D01*
X1824941Y1924705D01*
Y1913042D01*
X1830773Y1907211D01*
X1848267D01*
X1836604D02*
X1824941Y1895548D01*
X1789953D02*
X1813278D01*
X1789953Y1918874D01*
Y1924705D01*
X1795784Y1930537D01*
X1807447D01*
X1813278Y1924705D01*
X1754964Y1895548D02*
X1778290D01*
X1754964Y1918874D01*
Y1924705D01*
X1760795Y1930537D01*
X1772458D01*
X1778290Y1924705D01*
X2166023Y1921544D02*
X2171855Y1927376D01*
X2183518D01*
X2189349Y1921544D01*
Y1898218D01*
X2183518Y1892387D01*
X2171855D01*
X2166023Y1898218D01*
X2131035Y1892387D02*
X2154360D01*
X2131035Y1915713D01*
Y1921544D01*
X2136866Y1927376D01*
X2148529D01*
X2154360Y1921544D01*
X2101877Y1892387D02*
Y1927376D01*
X2119372Y1909881D01*
X2096046D01*
X1915967Y1863082D02*
X1921799Y1868913D01*
X1933462D01*
X1939293Y1863082D01*
Y1839756D01*
X1933462Y1833925D01*
X1921799D01*
X1915967Y1839756D01*
X1880979Y1833925D02*
X1904304D01*
X1880979Y1857251D01*
Y1863082D01*
X1886810Y1868913D01*
X1898473D01*
X1904304Y1863082D01*
X1869316Y1833925D02*
X1857653D01*
X1863484D01*
Y1868913D01*
X1869316Y1863082D01*
X2111977Y1816257D02*
X2117809Y1822089D01*
X2129471D01*
X2135303Y1816257D01*
Y1792931D01*
X2129471Y1787100D01*
X2117809D01*
X2111977Y1792931D01*
X2076988Y1787100D02*
X2100314D01*
X2076988Y1810426D01*
Y1816257D01*
X2082820Y1822089D01*
X2094483D01*
X2100314Y1816257D01*
X2065325D02*
X2059494Y1822089D01*
X2047831D01*
X2042000Y1816257D01*
Y1792931D01*
X2047831Y1787100D01*
X2059494D01*
X2065325Y1792931D01*
Y1816257D01*
X2082861Y2095847D02*
X2088692Y2101679D01*
X2100355D01*
X2106186Y2095847D01*
Y2072521D01*
X2100355Y2066690D01*
X2088692D01*
X2082861Y2072521D01*
X2071198Y2066690D02*
X2059535D01*
X2065366D01*
Y2101679D01*
X2071198Y2095847D01*
X2042041D02*
X2036209Y2101679D01*
X2024546D01*
X2018715Y2095847D01*
Y2072521D01*
X2024546Y2066690D01*
X2036209D01*
X2042041Y2072521D01*
Y2095847D01*
X1935408Y2135784D02*
X1941240Y2141616D01*
X1952903D01*
X1958734Y2135784D01*
Y2112458D01*
X1952903Y2106627D01*
X1941240D01*
X1935408Y2112458D01*
X1923745Y2141616D02*
X1900420D01*
Y2135784D01*
X1923745Y2112458D01*
Y2106627D01*
M02*
