G04*
G04 #@! TF.GenerationSoftware,Altium Limited,Altium Designer,24.2.2 (26)*
G04*
G04 Layer_Color=32768*
%FSLAX26Y26*%
%MOIN*%
G70*
G04*
G04 #@! TF.SameCoordinates,46F5A5B2-6880-422F-88BA-D3FAC370E1DB*
G04*
G04*
G04 #@! TF.FilePolarity,Positive*
G04*
G01*
G75*
%ADD15C,0.006000*%
%ADD99C,0.001968*%
%ADD100C,0.003937*%
G36*
X1884606Y1860004D02*
X1860004D01*
Y1884606D01*
X1848004D01*
Y2052401D01*
X1860004D01*
Y2077004D01*
X1884606D01*
Y2089004D01*
X2052401D01*
Y2077004D01*
X2077004D01*
Y2052401D01*
X2089004D01*
Y1884606D01*
X2077004D01*
Y1860004D01*
X2052401D01*
Y1848004D01*
X1884606D01*
Y1860004D01*
D02*
G37*
D15*
X2077004Y2052401D02*
Y2077004D01*
Y2052401D02*
X2089004D01*
X2052401Y2077004D02*
X2077004D01*
X2052401D02*
Y2089004D01*
X2089004Y1884606D02*
Y2052401D01*
X2077004Y1884606D02*
X2089004D01*
X2077004Y1860004D02*
Y1884606D01*
X2052401Y1860004D02*
X2077004D01*
X2052401Y1848004D02*
Y1860004D01*
X1884606Y2089004D02*
X2052401D01*
X1884606Y2077004D02*
Y2089004D01*
X1860004Y2077004D02*
X1884606D01*
X1848004Y2052401D02*
X1860004D01*
Y2077004D01*
X1884606Y1848004D02*
X2052401D01*
X1848004Y1884606D02*
Y2052401D01*
X1884606Y1848004D02*
Y1860004D01*
X1848004Y1884606D02*
X1860004D01*
Y1860004D02*
X1884606D01*
X1860004D02*
Y1884606D01*
D99*
X1908868Y1728939D02*
G03*
X1908868Y1728939I-13780J0D01*
G01*
X1976960D02*
G03*
X1976960Y1728939I-13780J0D01*
G01*
X2363780Y1865000D02*
G03*
X2363780Y1865000I-13780J0D01*
G01*
X3446105Y2516208D02*
G03*
X3446105Y2516208I-13780J0D01*
G01*
X3564609Y2497704D02*
G03*
X3564609Y2497704I-13780J0D01*
G01*
X3483507Y2631971D02*
G03*
X3483507Y2631971I-13780J0D01*
G01*
X3620517D02*
G03*
X3620517Y2631971I-13780J0D01*
G01*
X3502011Y2850941D02*
G03*
X3502011Y2850941I-13780J0D01*
G01*
X3221337Y3336119D02*
G03*
X3221337Y3336119I-13780J0D01*
G01*
Y3408407D02*
G03*
X3221337Y3408407I-13780J0D01*
G01*
X3294107Y3354259D02*
G03*
X3294107Y3354259I-13780J0D01*
G01*
Y3389941D02*
G03*
X3294107Y3389941I-13780J0D01*
G01*
X3602013Y2850941D02*
G03*
X3602013Y2850941I-13780J0D01*
G01*
X1886110Y1911577D02*
G03*
X1886110Y1911577I-13780J0D01*
G01*
X2921303Y467613D02*
G03*
X2921303Y467613I-13780J0D01*
G01*
X3014965Y471523D02*
G03*
X3014965Y471523I-13780J0D01*
G01*
X3175990Y431093D02*
G03*
X3175990Y431093I-13780J0D01*
G01*
X3074526Y418101D02*
G03*
X3074526Y418101I-13780J0D01*
G01*
X2983469Y370989D02*
G03*
X2983469Y370989I-13780J0D01*
G01*
X3157092Y281206D02*
G03*
X3157092Y281206I-13780J0D01*
G01*
X2969581Y694388D02*
G03*
X2969581Y694388I-13780J0D01*
G01*
X2068288Y2221283D02*
G03*
X2068288Y2221283I-13780J0D01*
G01*
X2014385D02*
G03*
X2014385Y2221283I-13780J0D01*
G01*
X1952450Y2247710D02*
G03*
X1952450Y2247710I-13780J0D01*
G01*
X1914323Y2209583D02*
G03*
X1914323Y2209583I-13780J0D01*
G01*
X1801637Y2129011D02*
G03*
X1801637Y2129011I-13780J0D01*
G01*
X1747462Y2146926D02*
G03*
X1747462Y2146926I-13780J0D01*
G01*
X1705580Y2051826D02*
G03*
X1705580Y2051826I-13780J0D01*
G01*
X1942913Y1773389D02*
G03*
X1942913Y1773389I-13780J0D01*
G01*
X2072388Y1799371D02*
G03*
X2072388Y1799371I-13780J0D01*
G01*
X2859907Y753443D02*
G03*
X2859907Y753443I-13780J0D01*
G01*
X1859261Y1747050D02*
X1930915D01*
X1859261Y1710829D02*
Y1747050D01*
Y1710829D02*
X1930915D01*
Y1747050D01*
X1895088Y1709254D02*
Y1748624D01*
X1875403Y1728939D02*
X1914773D01*
X1927353Y1747050D02*
X1999007D01*
X1927353Y1710829D02*
Y1747050D01*
Y1710829D02*
X1999007D01*
Y1747050D01*
X1963180Y1709254D02*
Y1748624D01*
X1943495Y1728939D02*
X1982865D01*
X2306693Y1790197D02*
Y1939803D01*
Y1790197D02*
X2393307D01*
Y1939803D01*
X2306693D02*
X2393307D01*
X2330315Y1865000D02*
X2369685D01*
X2350000Y1845315D02*
Y1884685D01*
X3432326Y2496523D02*
Y2535893D01*
X3450436Y2480381D02*
Y2552035D01*
X3414215D02*
X3450436D01*
X3412641Y2516208D02*
X3452011D01*
X3414215Y2480381D02*
X3450436D01*
X3414215D02*
Y2552035D01*
X3531144Y2497704D02*
X3570515D01*
X3515003Y2479594D02*
X3586656D01*
Y2515814D01*
X3550829Y2478019D02*
Y2517389D01*
X3515003Y2479594D02*
Y2515814D01*
X3586656D01*
X3469727Y2612286D02*
Y2651656D01*
X3400830Y2706774D02*
X3538625D01*
X3450042Y2631971D02*
X3489412D01*
X3400830Y2557168D02*
Y2706774D01*
X3538625Y2557168D02*
Y2706774D01*
X3400830Y2557168D02*
X3538625D01*
X3606737Y2612286D02*
Y2651656D01*
X3537839Y2706774D02*
X3675635D01*
X3587052Y2631971D02*
X3626422D01*
X3537839Y2557168D02*
Y2706774D01*
X3675635Y2557168D02*
Y2706774D01*
X3537839Y2557168D02*
X3675635D01*
X3495318Y2713220D02*
Y2829362D01*
X3444137D02*
X3495318D01*
X3444137Y2713220D02*
X3495318D01*
X3444137D02*
Y2829362D01*
X3468546Y2850941D02*
X3507916D01*
X3452404Y2832831D02*
X3524058D01*
Y2869051D01*
X3488231Y2831256D02*
Y2870626D01*
X3452404Y2832831D02*
Y2869051D01*
X3524058D01*
X3207557Y3316434D02*
Y3355804D01*
X3187872Y3336119D02*
X3227242D01*
X3189447Y3371946D02*
X3225668D01*
Y3300293D02*
Y3371946D01*
X3189447Y3300293D02*
X3225668D01*
X3189447D02*
Y3371946D01*
X3207557Y3388722D02*
Y3428092D01*
X3187872Y3408407D02*
X3227242D01*
X3189447Y3372580D02*
X3225668D01*
X3189447D02*
Y3444234D01*
X3225668D01*
Y3372580D02*
Y3444234D01*
X3260643Y3354259D02*
X3300013D01*
X3280328Y3334574D02*
Y3373944D01*
X3244501Y3336149D02*
Y3372369D01*
X3316154D01*
Y3336149D02*
Y3372369D01*
X3244501Y3336149D02*
X3316154D01*
X3260643Y3389941D02*
X3300013D01*
X3280328Y3370256D02*
Y3409626D01*
X3244501Y3371831D02*
Y3408051D01*
X3316154D01*
Y3371831D02*
Y3408051D01*
X3244501Y3371831D02*
X3316154D01*
X3632328Y2713220D02*
Y2829362D01*
X3581146D02*
X3632328D01*
X3581146Y2713220D02*
X3632328D01*
X3581146D02*
Y2829362D01*
X3568548Y2850941D02*
X3607918D01*
X3552406Y2869051D02*
X3624060D01*
X3552406Y2832831D02*
Y2869051D01*
X3588233Y2831256D02*
Y2870626D01*
X3624060Y2832831D02*
Y2869051D01*
X3552406Y2832831D02*
X3624060D01*
X1797926Y2007157D02*
X1821548D01*
X1776272Y1988456D02*
X1843202D01*
Y2025858D01*
X1809737Y1995346D02*
Y2018968D01*
X1776272Y1988456D02*
Y2025858D01*
X1843202D01*
X1891032Y1878900D02*
Y1944254D01*
X1853630Y1878900D02*
X1891032D01*
X1853630D02*
Y1944254D01*
X1891032D01*
X1872331Y1891892D02*
Y1931262D01*
X2947459Y800552D02*
Y824174D01*
X2935648Y812363D02*
X2959270D01*
X2913994Y793662D02*
X2980924D01*
X2913994Y831064D02*
X2980924D01*
Y793662D02*
Y831064D01*
X2913994Y793662D02*
Y831064D01*
X2031251Y1877990D02*
X2094243D01*
X2031251D02*
Y1940982D01*
X2094243Y1877990D02*
Y1940982D01*
X2031251D02*
X2094243D01*
X1960630Y2034070D02*
Y2097062D01*
X1897638Y2034070D02*
X1960630D01*
X1897638Y2097062D02*
X1960630D01*
X1897638Y2034070D02*
Y2097062D01*
X2000000Y1838508D02*
Y1901500D01*
X1937008Y1838508D02*
X2000000D01*
X1937008Y1901500D02*
X2000000D01*
X1937008Y1838508D02*
Y1901500D01*
X1980838Y1865131D02*
X2039893D01*
X1980838Y1743083D02*
X2039893D01*
X1980838D02*
Y1865131D01*
X2039893Y1743083D02*
Y1865131D01*
X2010365Y1792296D02*
Y1815918D01*
X1998554Y1804107D02*
X2022176D01*
X2926805Y574883D02*
Y610316D01*
Y574883D02*
X2962238D01*
X2926805Y610316D02*
X2962238D01*
Y574883D02*
Y610316D01*
X2968547Y502569D02*
Y561624D01*
X2846500Y502569D02*
Y561624D01*
Y502569D02*
X2968547D01*
X2846500Y561624D02*
X2968547D01*
X2895713Y532097D02*
X2919335D01*
X2907524Y520286D02*
Y543908D01*
X2848468Y438085D02*
Y497140D01*
Y438085D02*
X2966579D01*
X2848468Y497140D02*
X2966579D01*
X2907524Y447928D02*
Y487298D01*
X2966579Y438085D02*
Y497140D01*
X2887839Y467613D02*
X2927209D01*
X3030713Y412468D02*
Y530578D01*
X2971658Y412468D02*
Y530578D01*
X3030713D01*
X2971658Y412468D02*
X3030713D01*
X2981500Y471523D02*
X3020870D01*
X3001185Y451838D02*
Y491208D01*
X3126384Y412983D02*
X3198037D01*
Y449203D01*
X3162210Y411408D02*
Y450778D01*
X3126384Y412983D02*
Y449203D01*
X3198037D01*
X3142525Y431093D02*
X3181895D01*
X3060747Y398416D02*
Y437786D01*
X3042046Y385423D02*
X3079447D01*
X3042046D02*
Y450778D01*
X3079447D01*
Y385423D02*
Y450778D01*
X2910634Y341462D02*
X3028744D01*
X2910634Y400517D02*
X3028744D01*
Y341462D02*
Y400517D01*
X2910634Y341462D02*
Y400517D01*
X2969689Y351304D02*
Y390674D01*
X2950004Y370989D02*
X2989374D01*
X3074415Y356009D02*
X3212210D01*
X3074415Y206403D02*
Y356009D01*
X3212210Y206403D02*
Y356009D01*
X3074415Y206403D02*
X3212210D01*
X3123628Y281206D02*
X3162998D01*
X3143313Y261521D02*
Y300891D01*
X3255941Y326482D02*
X3307122D01*
X3255941Y210340D02*
Y326482D01*
Y210340D02*
X3307122D01*
Y326482D01*
X3083632Y729546D02*
X3142687D01*
X3083632Y607499D02*
X3142687D01*
Y729546D01*
X3083632Y607499D02*
Y729546D01*
X3113160Y656712D02*
Y680334D01*
X3101349Y668523D02*
X3124971D01*
X3220052Y599702D02*
Y666631D01*
X3182650D02*
X3220052D01*
X3189540Y633167D02*
X3213162D01*
X3182650Y599702D02*
X3220052D01*
X3182650D02*
Y666631D01*
X3201351Y621356D02*
Y644978D01*
X3251738Y629824D02*
Y653446D01*
X3239927Y641635D02*
X3263549D01*
X3222211Y580611D02*
Y702658D01*
Y580611D02*
X3281266D01*
X3222211Y702658D02*
X3281266D01*
Y580611D02*
Y702658D01*
X3031506Y688612D02*
X3068907D01*
X3031506Y621683D02*
X3068907D01*
Y688612D01*
X3031506Y621683D02*
Y688612D01*
X3050206Y643337D02*
Y666959D01*
X3038396Y655148D02*
X3062017D01*
X3161334Y739572D02*
Y798627D01*
X3039287Y739572D02*
Y798627D01*
Y739572D02*
X3161334D01*
X3039287Y798627D02*
X3161334D01*
X3088499Y769099D02*
X3112122D01*
X3100311Y757288D02*
Y780910D01*
X2884935Y609742D02*
Y779034D01*
Y609742D02*
X3026667D01*
Y779034D01*
X2884935D02*
X3026667D01*
X2936116Y694388D02*
X2975486D01*
X2955801Y674703D02*
Y714073D01*
X3087323Y931800D02*
X3126693D01*
X3107008Y912115D02*
Y951485D01*
X3199528Y868808D02*
Y994792D01*
X3014488Y868808D02*
X3199528D01*
X3014488D02*
Y994792D01*
X3199528D01*
X3343781Y951236D02*
Y1463048D01*
X2635120D02*
X3343781D01*
X2635120Y951236D02*
Y1463048D01*
Y951236D02*
X3343781D01*
X2478501Y1120406D02*
Y1305446D01*
Y1120406D02*
X2604485D01*
X2478501Y1305446D02*
X2604485D01*
Y1120406D02*
Y1305446D01*
X2521808Y1212926D02*
X2561178D01*
X2541493Y1193241D02*
Y1232611D01*
X392977Y1836156D02*
X419424Y1809709D01*
X440303Y1883482D02*
X466750Y1857035D01*
X392977Y1836156D02*
X440303Y1883482D01*
X419424Y1809709D02*
X466750Y1857035D01*
X421512Y1838244D02*
X438215Y1854947D01*
X421512D02*
X438215Y1838244D01*
X392977Y2100852D02*
X419424Y2127299D01*
X440303Y2053526D02*
X466750Y2079973D01*
X419424Y2127299D02*
X466750Y2079973D01*
X392977Y2100852D02*
X440303Y2053526D01*
X421512Y2098764D02*
X438215Y2082061D01*
X421512D02*
X438215Y2098764D01*
X1145671Y3163182D02*
X1169293D01*
X1157482Y3151371D02*
Y3174993D01*
X1176182Y3129718D02*
Y3196647D01*
X1138781Y3129718D02*
Y3196647D01*
X1176182D01*
X1138781Y3129718D02*
X1176182D01*
X999411Y3186260D02*
Y3502402D01*
X1315553Y3186260D02*
Y3502402D01*
X999411D02*
X1315553D01*
X999411Y3186260D02*
X1315553D01*
X985077Y2978967D02*
Y3002589D01*
X973266Y2990778D02*
X996888D01*
X951613Y3009479D02*
X1018542D01*
X951613Y2972077D02*
X1018542D01*
X951613D02*
Y3009479D01*
X1018542Y2972077D02*
Y3009479D01*
X645857Y2832707D02*
Y3148849D01*
X961999Y2832707D02*
Y3148849D01*
X645857D02*
X961999D01*
X645857Y2832707D02*
X961999D01*
X2179134Y78226D02*
X2402680Y301772D01*
X1955588D02*
X2179134Y525318D01*
X1955588Y301772D02*
X2179134Y78226D01*
Y525318D02*
X2402680Y301772D01*
X1455588D02*
X1679134Y78226D01*
Y525318D02*
X1902680Y301772D01*
X1455588D02*
X1679134Y525318D01*
Y78226D02*
X1902680Y301772D01*
X78226Y1718504D02*
X301772Y1494958D01*
Y1942050D02*
X525318Y1718504D01*
X301772Y1494958D02*
X525318Y1718504D01*
X78226D02*
X301772Y1942050D01*
X78226Y2218504D02*
X301772Y2442050D01*
Y1994958D02*
X525318Y2218504D01*
X78226D02*
X301772Y1994958D01*
Y2442050D02*
X525318Y2218504D01*
X1554013Y3635236D02*
X1777559Y3858782D01*
Y3411690D02*
X2001105Y3635236D01*
X1777559Y3858782D02*
X2001105Y3635236D01*
X1554013D02*
X1777559Y3411690D01*
X2054013Y3635236D02*
X2277559Y3858782D01*
Y3411690D02*
X2501105Y3635236D01*
X2054013D02*
X2277559Y3411690D01*
Y3858782D02*
X2501105Y3635236D01*
X1483616Y2364308D02*
X1572700Y2453392D01*
X1483616Y2364308D02*
X1614458Y2233465D01*
X1572700Y2453392D02*
X1703543Y2322550D01*
X1614458Y2233465D02*
X1703543Y2322550D01*
X1579660Y2329509D02*
X1607498Y2357348D01*
X1579660D02*
X1607498Y2329509D01*
X1579660Y1579660D02*
X1607498Y1607498D01*
X1579660D02*
X1607498Y1579660D01*
X1483616Y1572700D02*
X1572700Y1483616D01*
X1483616Y1572700D02*
X1614458Y1703543D01*
X1703542Y1614458D01*
X1572700Y1483616D02*
X1703542Y1614458D01*
X2329509Y2329509D02*
X2357348Y2357348D01*
X2329509D02*
X2357348Y2329509D01*
X2364308Y2453392D02*
X2453392Y2364308D01*
X2322550Y2233465D02*
X2453392Y2364308D01*
X2233465Y2322550D02*
X2322550Y2233465D01*
X2233465Y2322550D02*
X2364308Y2453392D01*
X2034824Y2221283D02*
X2074194D01*
X2021832Y2202583D02*
Y2239984D01*
X2087186D01*
Y2202583D02*
Y2239984D01*
X2021832Y2202583D02*
X2087186D01*
X1967928D02*
Y2239984D01*
Y2202583D02*
X2033283D01*
X1980920Y2221283D02*
X2020291D01*
X1967928Y2239984D02*
X2033283D01*
Y2202583D02*
Y2239984D01*
X1924751Y2233790D02*
X1952590Y2261629D01*
X1902341Y2237827D02*
X1928788Y2211380D01*
X1902341Y2237827D02*
X1948553Y2284039D01*
X1975000Y2257593D01*
X1928788Y2211380D02*
X1975000Y2257593D01*
X1886624Y2195663D02*
X1914463Y2223502D01*
X1910427Y2245912D02*
X1936874Y2219466D01*
X1890661Y2173253D02*
X1936874Y2219466D01*
X1864214Y2199700D02*
X1890661Y2173253D01*
X1864214Y2199700D02*
X1910427Y2245912D01*
X1946850Y2092551D02*
Y2127984D01*
X1911417Y2092551D02*
Y2127984D01*
Y2092551D02*
X1946850D01*
X1911417Y2127984D02*
X1946850D01*
X1769747Y2093184D02*
Y2164838D01*
Y2093184D02*
X1805967D01*
Y2164838D01*
X1769747D02*
X1805967D01*
X1768172Y2129011D02*
X1807542D01*
X1787857Y2109326D02*
Y2148696D01*
X1697855Y2128815D02*
X1769509D01*
Y2165036D01*
X1697855D02*
X1769509D01*
X1697855Y2128815D02*
Y2165036D01*
X1733682Y2127241D02*
Y2166611D01*
X1713997Y2146926D02*
X1753367D01*
X1647818Y2070050D02*
Y2129106D01*
X1769865Y2070050D02*
Y2129106D01*
X1647818D02*
X1769865D01*
X1647818Y2070050D02*
X1769865D01*
X1697031Y2099578D02*
X1720652D01*
X1708841Y2087767D02*
Y2111389D01*
X1727636Y2006982D02*
X1790628D01*
X1727636Y2069974D02*
X1790628D01*
X1727636Y2006982D02*
Y2069974D01*
X1790628Y2006982D02*
Y2069974D01*
X1790674Y2019761D02*
X1826107D01*
X1790674Y2055195D02*
X1826107D01*
X1790674Y2019761D02*
Y2055195D01*
X1826107Y2019761D02*
Y2055195D01*
X1655973Y2033716D02*
X1727627D01*
Y2069936D01*
X1655973D02*
X1727627D01*
X1655973Y2033716D02*
Y2069936D01*
X1691800Y2032141D02*
Y2071511D01*
X1672115Y2051826D02*
X1711485D01*
X1986220Y1812647D02*
Y1848080D01*
X1950787Y1812647D02*
Y1848080D01*
Y1812647D02*
X1986220D01*
X1950787Y1848080D02*
X1986220D01*
X1909449Y1773389D02*
X1948819D01*
X1896457Y1754688D02*
Y1792090D01*
X1961811D01*
Y1754688D02*
Y1792090D01*
X1896457Y1754688D02*
X1961811D01*
X2038924Y1799371D02*
X2078294D01*
X2058609Y1779686D02*
Y1819056D01*
X2125538Y1760001D02*
Y1838741D01*
X1991680D02*
X2125538D01*
X1991680Y1760001D02*
X2125538D01*
X1991680D02*
Y1838741D01*
X2071215Y1849212D02*
Y1884645D01*
X2106648Y1849212D02*
Y1884645D01*
X2071215D02*
X2106648D01*
X2071215Y1849212D02*
X2106648D01*
X2186923Y1869930D02*
Y1893552D01*
X2175112Y1881741D02*
X2198734D01*
X2125900Y1911268D02*
X2247947D01*
X2125900Y1852213D02*
X2247947D01*
X2125900D02*
Y1911268D01*
X2247947Y1852213D02*
Y1911268D01*
X2090271Y2009842D02*
X2125704D01*
X2090271Y2045275D02*
X2125704D01*
X2090271Y2009842D02*
Y2045275D01*
X2125704Y2009842D02*
Y2045275D01*
X2247947Y2045292D02*
Y2104347D01*
X2125900D02*
X2247947D01*
X2125900Y2045292D02*
X2247947D01*
X2125900D02*
Y2104347D01*
X2175112Y2074820D02*
X2198734D01*
X2186923Y2063009D02*
Y2086631D01*
X2329509Y1607498D02*
X2357348Y1579660D01*
X2329509D02*
X2357348Y1607498D01*
X2364308Y1483616D02*
X2453392Y1572700D01*
X2233465Y1614458D02*
X2364308Y1483616D01*
X2233465Y1614458D02*
X2322550Y1703543D01*
X2453392Y1572700D01*
X2031251Y2059266D02*
X2094243D01*
Y1996274D02*
Y2059266D01*
X2031251Y1996274D02*
Y2059266D01*
Y1996274D02*
X2094243D01*
X2810301Y735333D02*
X2881955D01*
Y771553D01*
X2810301D02*
X2881955D01*
X2810301Y735333D02*
Y771553D01*
X2846128Y733758D02*
Y773128D01*
X2826443Y753443D02*
X2865813D01*
X1916090Y3470258D02*
X1942537Y3496705D01*
X1868764Y3517584D02*
X1895211Y3544031D01*
X1868764Y3517584D02*
X1916090Y3470258D01*
X1895211Y3544031D02*
X1942537Y3496705D01*
X1897299Y3515496D02*
X1914002Y3498793D01*
X1897299D02*
X1914002Y3515496D01*
X1770339Y419424D02*
X1796786Y392977D01*
X1817665Y466750D02*
X1844112Y440303D01*
X1770339Y419424D02*
X1817665Y466750D01*
X1796786Y392977D02*
X1844112Y440303D01*
X1798874Y421512D02*
X1815577Y438215D01*
X1798874D02*
X1815577Y421512D01*
X2061482Y392977D02*
X2087929Y419424D01*
X2014156Y440303D02*
X2040602Y466750D01*
X2014156Y440303D02*
X2061482Y392977D01*
X2040602Y466750D02*
X2087929Y419424D01*
X2042690Y438215D02*
X2059394Y421512D01*
X2042690D02*
X2059394Y438215D01*
X2112581Y3496705D02*
X2139028Y3470258D01*
X2159907Y3544031D02*
X2186354Y3517584D01*
X2112581Y3496705D02*
X2159907Y3544031D01*
X2139028Y3470258D02*
X2186354Y3517584D01*
X2141116Y3498793D02*
X2157819Y3515496D01*
X2141116D02*
X2157819Y3498793D01*
D100*
X2051526Y1909486D02*
X2073967D01*
X2062747Y1898266D02*
Y1920707D01*
X1929134Y2054345D02*
Y2076786D01*
X1917913Y2065566D02*
X1940354D01*
X1968504Y1858783D02*
Y1881224D01*
X1957283Y1870004D02*
X1979724D01*
X2944521Y586103D02*
Y599095D01*
X2938025Y592599D02*
X2951017D01*
X1922638Y2110267D02*
X1935630D01*
X1929134Y2103771D02*
Y2116764D01*
X1759131Y2027257D02*
Y2049698D01*
X1747911Y2038478D02*
X1770352D01*
X1808390Y2030982D02*
Y2043974D01*
X1801894Y2037478D02*
X1814886D01*
X1962008Y1830363D02*
X1975000D01*
X1968504Y1823867D02*
Y1836859D01*
X2082435Y1866928D02*
X2095427D01*
X2088931Y1860432D02*
Y1873424D01*
X2107988Y2021063D02*
Y2034055D01*
X2101492Y2027559D02*
X2114484D01*
X2062747Y2016550D02*
Y2038991D01*
X2051526Y2027770D02*
X2073967D01*
M02*
