G04*
G04 #@! TF.GenerationSoftware,Altium Limited,Altium Designer,24.2.2 (26)*
G04*
G04 Layer_Color=16711935*
%FSLAX26Y26*%
%MOIN*%
G70*
G04*
G04 #@! TF.SameCoordinates,46F5A5B2-6880-422F-88BA-D3FAC370E1DB*
G04*
G04*
G04 #@! TF.FilePolarity,Negative*
G04*
G01*
G75*
%ADD31R,0.015748X0.017716*%
%ADD32R,0.039370X0.037402*%
%ADD49C,0.059055*%
%ADD51C,0.078740*%
%ADD52C,0.066929*%
%ADD53R,0.066929X0.066929*%
%ADD54R,0.066929X0.066929*%
%ADD55C,0.110236*%
%ADD56C,0.062992*%
%ADD57C,0.086614*%
%ADD58C,0.196850*%
%ADD96R,0.011811X0.047244*%
G36*
X2585139Y332238D02*
X2587417D01*
Y332104D01*
X2589695D01*
Y331970D01*
X2591571D01*
Y331836D01*
X2592911D01*
Y331702D01*
X2594653D01*
Y331568D01*
X2595725D01*
Y331434D01*
X2596663D01*
Y331300D01*
X2597735D01*
Y331166D01*
X2598405D01*
Y331032D01*
X2599343D01*
Y330898D01*
X2600281D01*
Y330764D01*
X2600683D01*
Y330630D01*
X2601487D01*
Y330496D01*
X2602157D01*
Y330362D01*
X2602827D01*
Y330228D01*
X2603363D01*
Y330094D01*
X2603899D01*
Y329960D01*
X2604569D01*
Y329826D01*
X2605106D01*
Y329692D01*
X2605508D01*
Y329558D01*
X2606177D01*
Y329424D01*
X2606579D01*
Y329290D01*
X2607115D01*
Y329156D01*
X2607652D01*
Y329022D01*
X2607920D01*
Y328888D01*
X2608456D01*
Y328754D01*
X2608992D01*
Y328620D01*
X2609394D01*
Y328486D01*
X2609796D01*
Y328352D01*
X2610198D01*
Y328218D01*
X2610600D01*
Y328084D01*
X2611136D01*
Y327950D01*
X2611404D01*
Y327816D01*
X2611806D01*
Y327682D01*
X2612208D01*
Y327548D01*
X2612476D01*
Y327414D01*
X2612878D01*
Y327279D01*
X2613280D01*
Y327146D01*
X2613548D01*
Y327012D01*
X2613950D01*
Y326878D01*
X2614218D01*
Y326743D01*
X2614620D01*
Y326610D01*
X2615022D01*
Y326476D01*
X2615290D01*
Y326341D01*
X2615692D01*
Y326207D01*
X2615960D01*
Y326074D01*
X2616228D01*
Y325940D01*
X2616630D01*
Y325805D01*
X2616898D01*
Y325672D01*
X2617166D01*
Y325538D01*
X2617568D01*
Y325404D01*
X2617702D01*
Y325269D01*
X2618104D01*
Y325135D01*
X2618372D01*
Y325002D01*
X2618640D01*
Y324868D01*
X2619042D01*
Y324733D01*
X2619310D01*
Y324599D01*
X2619578D01*
Y324466D01*
X2619846D01*
Y324332D01*
X2620114D01*
Y324197D01*
X2620382D01*
Y324063D01*
X2620650D01*
Y323930D01*
X2620918D01*
Y323796D01*
X2621186D01*
Y323661D01*
X2621454D01*
Y323527D01*
X2621722D01*
Y323394D01*
X2621990D01*
Y323259D01*
X2622124D01*
Y323125D01*
X2622526D01*
Y322991D01*
X2622660D01*
Y322858D01*
X2622928D01*
Y322723D01*
X2623330D01*
Y322589D01*
X2623464D01*
Y322455D01*
X2623732D01*
Y322321D01*
X2624000D01*
Y322187D01*
X2624134D01*
Y322053D01*
X2624402D01*
Y321919D01*
X2624670D01*
Y321785D01*
X2624938D01*
Y321651D01*
X2625206D01*
Y321517D01*
X2625340D01*
Y321383D01*
X2625608D01*
Y321249D01*
X2625876D01*
Y321115D01*
X2626010D01*
Y320981D01*
X2626278D01*
Y320847D01*
X2626546D01*
Y320713D01*
X2626680D01*
Y320579D01*
X2626948D01*
Y320445D01*
X2627082D01*
Y320311D01*
X2627350D01*
Y320177D01*
X2627618D01*
Y320043D01*
X2627752D01*
Y319909D01*
X2628020D01*
Y319775D01*
X2628154D01*
Y319641D01*
X2628422D01*
Y319507D01*
X2628690D01*
Y319373D01*
X2628824D01*
Y319239D01*
X2629092D01*
Y319105D01*
X2629226D01*
Y318971D01*
X2629360D01*
Y318837D01*
X2629628D01*
Y318703D01*
X2629762D01*
Y318569D01*
X2630030D01*
Y318435D01*
X2630298D01*
Y318301D01*
X2630432D01*
Y318167D01*
X2630566D01*
Y318033D01*
X2630834D01*
Y317899D01*
X2630968D01*
Y317765D01*
X2631236D01*
Y317631D01*
X2631370D01*
Y317497D01*
X2631504D01*
Y317363D01*
X2631772D01*
Y317229D01*
X2631906D01*
Y317095D01*
X2632174D01*
Y316961D01*
X2632308D01*
Y316827D01*
X2632442D01*
Y316693D01*
X2632710D01*
Y316559D01*
X2632844D01*
Y316425D01*
X2632978D01*
Y316291D01*
X2633246D01*
Y316157D01*
X2633380D01*
Y316023D01*
X2633514D01*
Y315889D01*
X2633782D01*
Y315755D01*
X2633916D01*
Y315621D01*
X2634050D01*
Y315487D01*
X2634184D01*
Y315353D01*
X2634452D01*
Y315219D01*
X2634586D01*
Y315085D01*
X2634720D01*
Y314951D01*
X2634854D01*
Y314817D01*
X2635122D01*
Y314683D01*
X2635256D01*
Y314549D01*
X2635390D01*
Y314415D01*
X2635524D01*
Y314281D01*
X2635792D01*
Y314147D01*
X2635926D01*
Y314013D01*
X2636060D01*
Y313879D01*
X2636194D01*
Y313745D01*
X2636328D01*
Y313611D01*
X2636596D01*
Y313477D01*
X2636730D01*
Y313343D01*
X2636864D01*
Y313209D01*
X2636998D01*
Y313075D01*
X2637132D01*
Y312941D01*
X2637266D01*
Y312807D01*
X2637534D01*
Y312673D01*
X2637668D01*
Y312539D01*
X2637802D01*
Y312405D01*
X2637936D01*
Y312271D01*
X2638070D01*
Y312137D01*
X2638204D01*
Y312003D01*
X2638472D01*
Y311735D01*
X2638740D01*
Y311601D01*
X2638874D01*
Y311467D01*
X2639008D01*
Y311333D01*
X2639142D01*
Y311199D01*
X2639276D01*
Y311065D01*
X2639410D01*
Y310931D01*
X2639544D01*
Y310797D01*
X2639678D01*
Y310663D01*
X2639812D01*
Y310529D01*
X2639947D01*
Y310395D01*
X2640081D01*
Y310261D01*
X2640349D01*
Y310127D01*
X2640483D01*
Y309993D01*
X2640617D01*
Y309859D01*
X2640751D01*
Y309725D01*
X2640885D01*
Y309591D01*
X2641019D01*
Y309457D01*
X2641153D01*
Y309323D01*
X2641287D01*
Y309189D01*
X2641421D01*
Y309055D01*
X2641555D01*
Y308921D01*
X2641689D01*
Y308787D01*
X2641823D01*
Y308653D01*
X2641956D01*
Y308519D01*
X2642091D01*
Y308385D01*
X2642224D01*
Y308251D01*
X2642359D01*
Y308117D01*
X2642493D01*
Y307983D01*
X2642627D01*
Y307849D01*
X2642761D01*
Y307715D01*
X2642895D01*
Y307581D01*
X2643029D01*
Y307447D01*
X2643163D01*
Y307179D01*
X2643297D01*
Y307045D01*
X2643431D01*
Y306911D01*
X2643565D01*
Y306777D01*
X2643699D01*
Y306643D01*
X2643833D01*
Y306509D01*
X2643967D01*
Y306375D01*
X2644101D01*
Y306241D01*
X2644235D01*
Y306107D01*
X2644369D01*
Y305973D01*
X2644503D01*
Y305839D01*
X2644637D01*
Y305705D01*
X2644771D01*
Y305571D01*
X2644905D01*
Y305303D01*
X2645039D01*
Y305169D01*
X2645173D01*
Y305035D01*
X2645307D01*
Y304901D01*
X2645441D01*
Y304767D01*
X2645575D01*
Y304633D01*
X2645709D01*
Y304499D01*
X2645843D01*
Y304231D01*
X2645977D01*
Y304097D01*
X2646111D01*
Y303963D01*
X2646245D01*
Y303829D01*
X2646379D01*
Y303695D01*
X2646513D01*
Y303561D01*
X2646647D01*
Y303293D01*
X2646781D01*
Y303159D01*
X2646915D01*
Y303025D01*
X2647049D01*
Y302891D01*
X2647183D01*
Y302757D01*
X2647317D01*
Y302489D01*
X2647451D01*
Y302355D01*
X2647585D01*
Y302221D01*
X2647719D01*
Y301953D01*
X2647853D01*
Y301819D01*
X2647987D01*
Y301685D01*
X2648121D01*
Y301551D01*
X2648255D01*
Y301417D01*
X2648389D01*
Y301149D01*
X2648523D01*
Y301015D01*
X2648657D01*
Y300881D01*
X2648791D01*
Y300613D01*
X2648925D01*
Y300479D01*
X2649059D01*
Y300345D01*
X2649193D01*
Y300077D01*
X2649327D01*
Y299943D01*
X2649461D01*
Y299809D01*
X2649595D01*
Y299541D01*
X2649729D01*
Y299407D01*
X2649863D01*
Y299273D01*
X2649997D01*
Y299005D01*
X2650131D01*
Y298871D01*
X2650265D01*
Y298737D01*
X2650399D01*
Y298469D01*
X2650533D01*
Y298335D01*
X2650667D01*
Y298067D01*
X2650801D01*
Y297933D01*
X2650935D01*
Y297799D01*
X2651069D01*
Y297531D01*
X2651203D01*
Y297397D01*
X2651337D01*
Y297129D01*
X2651471D01*
Y296995D01*
X2651605D01*
Y296727D01*
X2651739D01*
Y296593D01*
X2651873D01*
Y296459D01*
X2652007D01*
Y296191D01*
X2652141D01*
Y296057D01*
X2652275D01*
Y295789D01*
X2652409D01*
Y295521D01*
X2652543D01*
Y295387D01*
X2652677D01*
Y295119D01*
X2652811D01*
Y294985D01*
X2652945D01*
Y294851D01*
X2653079D01*
Y294583D01*
X2653213D01*
Y294315D01*
X2653347D01*
Y294181D01*
X2653481D01*
Y293913D01*
X2653615D01*
Y293645D01*
X2653749D01*
Y293511D01*
X2653883D01*
Y293243D01*
X2654017D01*
Y293109D01*
X2654151D01*
Y292841D01*
X2654285D01*
Y292573D01*
X2654419D01*
Y292439D01*
X2654553D01*
Y292171D01*
X2654687D01*
Y291902D01*
X2654821D01*
Y291769D01*
X2654955D01*
Y291366D01*
X2655089D01*
Y291233D01*
X2655223D01*
Y290964D01*
X2655357D01*
Y290697D01*
X2655491D01*
Y290562D01*
X2655625D01*
Y290295D01*
X2655759D01*
Y290026D01*
X2655893D01*
Y289759D01*
X2656027D01*
Y289490D01*
X2656161D01*
Y289356D01*
X2656295D01*
Y289089D01*
X2656429D01*
Y288820D01*
X2656563D01*
Y288553D01*
X2656697D01*
Y288284D01*
X2656831D01*
Y288017D01*
X2656965D01*
Y287748D01*
X2657099D01*
Y287480D01*
X2657233D01*
Y287212D01*
X2657367D01*
Y286944D01*
X2657501D01*
Y286676D01*
X2657635D01*
Y286408D01*
X2657769D01*
Y286140D01*
X2657903D01*
Y285872D01*
X2658037D01*
Y285604D01*
X2658171D01*
Y285336D01*
X2658305D01*
Y285068D01*
X2658439D01*
Y284800D01*
X2658573D01*
Y284398D01*
X2658707D01*
Y284130D01*
X2658841D01*
Y283862D01*
X2658975D01*
Y283594D01*
X2659109D01*
Y283192D01*
X2659243D01*
Y282924D01*
X2659377D01*
Y282790D01*
X2659511D01*
Y282388D01*
X2659645D01*
Y281986D01*
X2659779D01*
Y281718D01*
X2659913D01*
Y281316D01*
X2660047D01*
Y281048D01*
X2660181D01*
Y280780D01*
X2660315D01*
Y280378D01*
X2660449D01*
Y280110D01*
X2660583D01*
Y279708D01*
X2660717D01*
Y279306D01*
X2660851D01*
Y279038D01*
X2660985D01*
Y278636D01*
X2661119D01*
Y278368D01*
X2661253D01*
Y277832D01*
X2661387D01*
Y277430D01*
X2661521D01*
Y277162D01*
X2661655D01*
Y276760D01*
X2661789D01*
Y276358D01*
X2661923D01*
Y275956D01*
X2662057D01*
Y275554D01*
X2662191D01*
Y275152D01*
X2662325D01*
Y274750D01*
X2662459D01*
Y274214D01*
X2662593D01*
Y273946D01*
X2662727D01*
Y273410D01*
X2662861D01*
Y272874D01*
X2662995D01*
Y272472D01*
X2663129D01*
Y271936D01*
X2663263D01*
Y271534D01*
X2663397D01*
Y270998D01*
X2663531D01*
Y270462D01*
X2663665D01*
Y270060D01*
X2663799D01*
Y269390D01*
X2663933D01*
Y268854D01*
X2664067D01*
Y268318D01*
X2664201D01*
Y267514D01*
X2664335D01*
Y267112D01*
X2664469D01*
Y266308D01*
X2664603D01*
Y265504D01*
X2664737D01*
Y265102D01*
X2664871D01*
Y264164D01*
X2665005D01*
Y263494D01*
X2665139D01*
Y262556D01*
X2665273D01*
Y261484D01*
X2665407D01*
Y260814D01*
X2665541D01*
Y259474D01*
X2665675D01*
Y258000D01*
X2665809D01*
Y256793D01*
X2665943D01*
Y254247D01*
X2666077D01*
Y247547D01*
X2665943D01*
Y245135D01*
X2665809D01*
Y243929D01*
X2665675D01*
Y242455D01*
X2665541D01*
Y241115D01*
X2665407D01*
Y240311D01*
X2665273D01*
Y239239D01*
X2665139D01*
Y238301D01*
X2665005D01*
Y237497D01*
X2664871D01*
Y236559D01*
X2664737D01*
Y235889D01*
X2664603D01*
Y235085D01*
X2664469D01*
Y234147D01*
X2664335D01*
Y233611D01*
X2664201D01*
Y232807D01*
X2664067D01*
Y232137D01*
X2663933D01*
Y231467D01*
X2663799D01*
Y230797D01*
X2663665D01*
Y230261D01*
X2663531D01*
Y229591D01*
X2663397D01*
Y228921D01*
X2663263D01*
Y228385D01*
X2663129D01*
Y227715D01*
X2662995D01*
Y227179D01*
X2662861D01*
Y226643D01*
X2662727D01*
Y225973D01*
X2662593D01*
Y225571D01*
X2662459D01*
Y224901D01*
X2662325D01*
Y224231D01*
X2662191D01*
Y223829D01*
X2662057D01*
Y223159D01*
X2661923D01*
Y222623D01*
X2661789D01*
Y222220D01*
X2661655D01*
Y221550D01*
X2661521D01*
Y221149D01*
X2661387D01*
Y220613D01*
X2661253D01*
Y219942D01*
X2661119D01*
Y219541D01*
X2660985D01*
Y219005D01*
X2660851D01*
Y218468D01*
X2660717D01*
Y218066D01*
X2660583D01*
Y217396D01*
X2660449D01*
Y216994D01*
X2660315D01*
Y216458D01*
X2660181D01*
Y215922D01*
X2660047D01*
Y215520D01*
X2659913D01*
Y214984D01*
X2659779D01*
Y214448D01*
X2659645D01*
Y214046D01*
X2659511D01*
Y213376D01*
X2659377D01*
Y213108D01*
X2659243D01*
Y212438D01*
X2659109D01*
Y212036D01*
X2658975D01*
Y211634D01*
X2658841D01*
Y211098D01*
X2658707D01*
Y210562D01*
X2658573D01*
Y210160D01*
X2658439D01*
Y209624D01*
X2658305D01*
Y209222D01*
X2658171D01*
Y208686D01*
X2658037D01*
Y208150D01*
X2657903D01*
Y207748D01*
X2657769D01*
Y207212D01*
X2657635D01*
Y206810D01*
X2657501D01*
Y206408D01*
X2657367D01*
Y205738D01*
X2657233D01*
Y205470D01*
X2657099D01*
Y204934D01*
X2656965D01*
Y204398D01*
X2656831D01*
Y203996D01*
X2656697D01*
Y203460D01*
X2656563D01*
Y203058D01*
X2656429D01*
Y202522D01*
X2656295D01*
Y201986D01*
X2656161D01*
Y201718D01*
X2656027D01*
Y201182D01*
X2655893D01*
Y200646D01*
X2655759D01*
Y200244D01*
X2655625D01*
Y199708D01*
X2655491D01*
Y199306D01*
X2655357D01*
Y198904D01*
X2655223D01*
Y198234D01*
X2655089D01*
Y197966D01*
X2654955D01*
Y197430D01*
X2654821D01*
Y196894D01*
X2654687D01*
Y196492D01*
X2654553D01*
Y195956D01*
X2654419D01*
Y195554D01*
X2654285D01*
Y195018D01*
X2654151D01*
Y194482D01*
X2654017D01*
Y194214D01*
X2653883D01*
Y193678D01*
X2653749D01*
Y193142D01*
X2653615D01*
Y192740D01*
X2653481D01*
Y192204D01*
X2653347D01*
Y191802D01*
X2653213D01*
Y191400D01*
X2653079D01*
Y190730D01*
X2652945D01*
Y190462D01*
X2652811D01*
Y189926D01*
X2652677D01*
Y189390D01*
X2652543D01*
Y188988D01*
X2652409D01*
Y188452D01*
X2652275D01*
Y188049D01*
X2652141D01*
Y187648D01*
X2652007D01*
Y186977D01*
X2651873D01*
Y186709D01*
X2651739D01*
Y186173D01*
X2651605D01*
Y185637D01*
X2651471D01*
Y185235D01*
X2651337D01*
Y184699D01*
X2651203D01*
Y184297D01*
X2651069D01*
Y183895D01*
X2650935D01*
Y183359D01*
X2650801D01*
Y182957D01*
X2650667D01*
Y182421D01*
X2650533D01*
Y181885D01*
X2650399D01*
Y181617D01*
X2650265D01*
Y181081D01*
X2650131D01*
Y180545D01*
X2649997D01*
Y180143D01*
X2649863D01*
Y179607D01*
X2649729D01*
Y179205D01*
X2649595D01*
Y178803D01*
X2649461D01*
Y178133D01*
X2649327D01*
Y177865D01*
X2649193D01*
Y177329D01*
X2649059D01*
Y176793D01*
X2648925D01*
Y176391D01*
X2648791D01*
Y175855D01*
X2648657D01*
Y175453D01*
X2648523D01*
Y174917D01*
X2648389D01*
Y174515D01*
X2648255D01*
Y174113D01*
X2648121D01*
Y173577D01*
X2647987D01*
Y173175D01*
X2647853D01*
Y172639D01*
X2647719D01*
Y172103D01*
X2647585D01*
Y171835D01*
X2647451D01*
Y171299D01*
X2647317D01*
Y170763D01*
X2647183D01*
Y170361D01*
X2647049D01*
Y169825D01*
X2646915D01*
Y169423D01*
X2646781D01*
Y169021D01*
X2646647D01*
Y168485D01*
X2646513D01*
Y168083D01*
X2646379D01*
Y167547D01*
X2646245D01*
Y167011D01*
X2646111D01*
Y166743D01*
X2645977D01*
Y166073D01*
X2645843D01*
Y165671D01*
X2645709D01*
Y165269D01*
X2645575D01*
Y164733D01*
X2645441D01*
Y164331D01*
X2645307D01*
Y163795D01*
X2645173D01*
Y163259D01*
X2645039D01*
Y162991D01*
X2644905D01*
Y162455D01*
X2644771D01*
Y162053D01*
X2644637D01*
Y161517D01*
X2644503D01*
Y160981D01*
X2644369D01*
Y160579D01*
X2644235D01*
Y160177D01*
X2644101D01*
Y159641D01*
X2643967D01*
Y159239D01*
X2643833D01*
Y158703D01*
X2643699D01*
Y158301D01*
X2643565D01*
Y157899D01*
X2643431D01*
Y157363D01*
X2643297D01*
Y156961D01*
X2643163D01*
Y156693D01*
X2639008D01*
Y156827D01*
X2638874D01*
Y156961D01*
X2639008D01*
Y157229D01*
X2639142D01*
Y157899D01*
X2639276D01*
Y158167D01*
X2639410D01*
Y158703D01*
X2639544D01*
Y159239D01*
X2639678D01*
Y159507D01*
X2639812D01*
Y160043D01*
X2639947D01*
Y160445D01*
X2640081D01*
Y160847D01*
X2640215D01*
Y161517D01*
X2640349D01*
Y161785D01*
X2640483D01*
Y162321D01*
X2640617D01*
Y162857D01*
X2640751D01*
Y163125D01*
X2640885D01*
Y163661D01*
X2641019D01*
Y164063D01*
X2641153D01*
Y164465D01*
X2641287D01*
Y165001D01*
X2641421D01*
Y165403D01*
X2641555D01*
Y165939D01*
X2641689D01*
Y166475D01*
X2641823D01*
Y166743D01*
X2641956D01*
Y167279D01*
X2642091D01*
Y167681D01*
X2642224D01*
Y168083D01*
X2642359D01*
Y168619D01*
X2642493D01*
Y169021D01*
X2642627D01*
Y169557D01*
X2642761D01*
Y170093D01*
X2642895D01*
Y170361D01*
X2643029D01*
Y170897D01*
X2643163D01*
Y171299D01*
X2643297D01*
Y171701D01*
X2643431D01*
Y172371D01*
X2643565D01*
Y172639D01*
X2643699D01*
Y173175D01*
X2643833D01*
Y173711D01*
X2643967D01*
Y173979D01*
X2644101D01*
Y174515D01*
X2644235D01*
Y174917D01*
X2644369D01*
Y175319D01*
X2644503D01*
Y175989D01*
X2644637D01*
Y176257D01*
X2644771D01*
Y176793D01*
X2644905D01*
Y177329D01*
X2645039D01*
Y177597D01*
X2645173D01*
Y178133D01*
X2645307D01*
Y178535D01*
X2645441D01*
Y178937D01*
X2645575D01*
Y179607D01*
X2645709D01*
Y179875D01*
X2645843D01*
Y180411D01*
X2645977D01*
Y180947D01*
X2646111D01*
Y181215D01*
X2646245D01*
Y181751D01*
X2646379D01*
Y182153D01*
X2646513D01*
Y182689D01*
X2646647D01*
Y183091D01*
X2646781D01*
Y183493D01*
X2646915D01*
Y184029D01*
X2647049D01*
Y184565D01*
X2647183D01*
Y184833D01*
X2647317D01*
Y185369D01*
X2647451D01*
Y185905D01*
X2647585D01*
Y186173D01*
X2647719D01*
Y186844D01*
X2647853D01*
Y187112D01*
X2647987D01*
Y187648D01*
X2648121D01*
Y188184D01*
X2648255D01*
Y188452D01*
X2648389D01*
Y188988D01*
X2648523D01*
Y189390D01*
X2648657D01*
Y189792D01*
X2648791D01*
Y190462D01*
X2648925D01*
Y190730D01*
X2649059D01*
Y191266D01*
X2649193D01*
Y191802D01*
X2649327D01*
Y192070D01*
X2649461D01*
Y192606D01*
X2649595D01*
Y193008D01*
X2649729D01*
Y193410D01*
X2649863D01*
Y193946D01*
X2649997D01*
Y194348D01*
X2650131D01*
Y194884D01*
X2650265D01*
Y195420D01*
X2650399D01*
Y195688D01*
X2650533D01*
Y196224D01*
X2650667D01*
Y196626D01*
X2650801D01*
Y197028D01*
X2650935D01*
Y197564D01*
X2651069D01*
Y197966D01*
X2651203D01*
Y198502D01*
X2651337D01*
Y199038D01*
X2651471D01*
Y199306D01*
X2651605D01*
Y199842D01*
X2651739D01*
Y200244D01*
X2651873D01*
Y200646D01*
X2652007D01*
Y201316D01*
X2652141D01*
Y201584D01*
X2652275D01*
Y202120D01*
X2652409D01*
Y202656D01*
X2652543D01*
Y202924D01*
X2652677D01*
Y203460D01*
X2652811D01*
Y203862D01*
X2652945D01*
Y204264D01*
X2653079D01*
Y204934D01*
X2653213D01*
Y205202D01*
X2653347D01*
Y205738D01*
X2653481D01*
Y206274D01*
X2653615D01*
Y206542D01*
X2653749D01*
Y207078D01*
X2653883D01*
Y207480D01*
X2654017D01*
Y207882D01*
X2654151D01*
Y208552D01*
X2654285D01*
Y208820D01*
X2654419D01*
Y209356D01*
X2654553D01*
Y209758D01*
X2654687D01*
Y210160D01*
X2654821D01*
Y210562D01*
X2654553D01*
Y210294D01*
X2654419D01*
Y210026D01*
X2654285D01*
Y209758D01*
X2654151D01*
Y209490D01*
X2654017D01*
Y209356D01*
X2653883D01*
Y208954D01*
X2653749D01*
Y208820D01*
X2653615D01*
Y208552D01*
X2653481D01*
Y208284D01*
X2653347D01*
Y208150D01*
X2653213D01*
Y207882D01*
X2653079D01*
Y207614D01*
X2652945D01*
Y207346D01*
X2652811D01*
Y207212D01*
X2652677D01*
Y206944D01*
X2652543D01*
Y206810D01*
X2652409D01*
Y206542D01*
X2652275D01*
Y206274D01*
X2652141D01*
Y206140D01*
X2652007D01*
Y205872D01*
X2651873D01*
Y205738D01*
X2651739D01*
Y205470D01*
X2651605D01*
Y205202D01*
X2651471D01*
Y205068D01*
X2651337D01*
Y204800D01*
X2651203D01*
Y204666D01*
X2651069D01*
Y204398D01*
X2650935D01*
Y204264D01*
X2650801D01*
Y203996D01*
X2650667D01*
Y203862D01*
X2650533D01*
Y203594D01*
X2650399D01*
Y203460D01*
X2650265D01*
Y203192D01*
X2650131D01*
Y203058D01*
X2649997D01*
Y202924D01*
X2649863D01*
Y202656D01*
X2649729D01*
Y202522D01*
X2649595D01*
Y202254D01*
X2649461D01*
Y202120D01*
X2649327D01*
Y201986D01*
X2649193D01*
Y201718D01*
X2649059D01*
Y201584D01*
X2648925D01*
Y201450D01*
X2648791D01*
Y201182D01*
X2648657D01*
Y201048D01*
X2648523D01*
Y200914D01*
X2648389D01*
Y200646D01*
X2648255D01*
Y200512D01*
X2648121D01*
Y200378D01*
X2647987D01*
Y200244D01*
X2647853D01*
Y199976D01*
X2647719D01*
Y199842D01*
X2647585D01*
Y199708D01*
X2647451D01*
Y199440D01*
X2647317D01*
Y199306D01*
X2647183D01*
Y199172D01*
X2647049D01*
Y199038D01*
X2646915D01*
Y198770D01*
X2646781D01*
Y198636D01*
X2646647D01*
Y198502D01*
X2646513D01*
Y198368D01*
X2646379D01*
Y198234D01*
X2646245D01*
Y197966D01*
X2646111D01*
Y197832D01*
X2645977D01*
Y197698D01*
X2645843D01*
Y197564D01*
X2645709D01*
Y197430D01*
X2645575D01*
Y197296D01*
X2645441D01*
Y197028D01*
X2645307D01*
Y196894D01*
X2645173D01*
Y196760D01*
X2645039D01*
Y196626D01*
X2644905D01*
Y196492D01*
X2644771D01*
Y196358D01*
X2644637D01*
Y196224D01*
X2644503D01*
Y196090D01*
X2644369D01*
Y195956D01*
X2644235D01*
Y195688D01*
X2644101D01*
Y195554D01*
X2643967D01*
Y195420D01*
X2643833D01*
Y195286D01*
X2643699D01*
Y195152D01*
X2643565D01*
Y195018D01*
X2643431D01*
Y194884D01*
X2643297D01*
Y194750D01*
X2643163D01*
Y194616D01*
X2643029D01*
Y194482D01*
X2642895D01*
Y194348D01*
X2642761D01*
Y194214D01*
X2642627D01*
Y194080D01*
X2642493D01*
Y193946D01*
X2642359D01*
Y193812D01*
X2642224D01*
Y193678D01*
X2642091D01*
Y193544D01*
X2641956D01*
Y193410D01*
X2641823D01*
Y193276D01*
X2641689D01*
Y193142D01*
X2641555D01*
Y193008D01*
X2641421D01*
Y192874D01*
X2641287D01*
Y192740D01*
X2641153D01*
Y192606D01*
X2641019D01*
Y192472D01*
X2640885D01*
Y192338D01*
X2640751D01*
Y192204D01*
X2640617D01*
Y192070D01*
X2640483D01*
Y191936D01*
X2640349D01*
Y191802D01*
X2640215D01*
Y191668D01*
X2640081D01*
Y191534D01*
X2639947D01*
Y191400D01*
X2639812D01*
Y191266D01*
X2639678D01*
Y191132D01*
X2639544D01*
Y190998D01*
X2639276D01*
Y190864D01*
X2639142D01*
Y190730D01*
X2639008D01*
Y190596D01*
X2638874D01*
Y190462D01*
X2638740D01*
Y190328D01*
X2638606D01*
Y190194D01*
X2638472D01*
Y190060D01*
X2638338D01*
Y189926D01*
X2638070D01*
Y189792D01*
X2637936D01*
Y189658D01*
X2637802D01*
Y189524D01*
X2637668D01*
Y189390D01*
X2637534D01*
Y189256D01*
X2637400D01*
Y189122D01*
X2637132D01*
Y188988D01*
X2636998D01*
Y188854D01*
X2636864D01*
Y188720D01*
X2636730D01*
Y188586D01*
X2636596D01*
Y188452D01*
X2636328D01*
Y188317D01*
X2636194D01*
Y188184D01*
X2636060D01*
Y188049D01*
X2635926D01*
Y187916D01*
X2635792D01*
Y187781D01*
X2635658D01*
Y187648D01*
X2635390D01*
Y187513D01*
X2635256D01*
Y187380D01*
X2635122D01*
Y187245D01*
X2634854D01*
Y187112D01*
X2634720D01*
Y186977D01*
X2634586D01*
Y186844D01*
X2634318D01*
Y186709D01*
X2634184D01*
Y186576D01*
X2634050D01*
Y186441D01*
X2633916D01*
Y186308D01*
X2633648D01*
Y186173D01*
X2633514D01*
Y186040D01*
X2633380D01*
Y185905D01*
X2633112D01*
Y185771D01*
X2632978D01*
Y185637D01*
X2632844D01*
Y185503D01*
X2632576D01*
Y185369D01*
X2632442D01*
Y185235D01*
X2632308D01*
Y185101D01*
X2632040D01*
Y184967D01*
X2631906D01*
Y184833D01*
X2631638D01*
Y184699D01*
X2631504D01*
Y184565D01*
X2631370D01*
Y184431D01*
X2631102D01*
Y184297D01*
X2630834D01*
Y184163D01*
X2630700D01*
Y184029D01*
X2630432D01*
Y183895D01*
X2630298D01*
Y183761D01*
X2630164D01*
Y183627D01*
X2629896D01*
Y183493D01*
X2629762D01*
Y183359D01*
X2629494D01*
Y183225D01*
X2629360D01*
Y183091D01*
X2629092D01*
Y182957D01*
X2628824D01*
Y182823D01*
X2628690D01*
Y182689D01*
X2628556D01*
Y182555D01*
X2628288D01*
Y182421D01*
X2628154D01*
Y182287D01*
X2627752D01*
Y182153D01*
X2627618D01*
Y182019D01*
X2627350D01*
Y181885D01*
X2627216D01*
Y181751D01*
X2626948D01*
Y181617D01*
X2626814D01*
Y181483D01*
X2626546D01*
Y181349D01*
X2626278D01*
Y181215D01*
X2626144D01*
Y181081D01*
X2625876D01*
Y180947D01*
X2625608D01*
Y180813D01*
X2625340D01*
Y180679D01*
X2625206D01*
Y180545D01*
X2624938D01*
Y180411D01*
X2624670D01*
Y180277D01*
X2624536D01*
Y180143D01*
X2624268D01*
Y180009D01*
X2624000D01*
Y179875D01*
X2623732D01*
Y179741D01*
X2623464D01*
Y179607D01*
X2623330D01*
Y179473D01*
X2623062D01*
Y179339D01*
X2622660D01*
Y179205D01*
X2622526D01*
Y179071D01*
X2622258D01*
Y178937D01*
X2621990D01*
Y178803D01*
X2621722D01*
Y178669D01*
X2621454D01*
Y178535D01*
X2621186D01*
Y178401D01*
X2620918D01*
Y178267D01*
X2620650D01*
Y178133D01*
X2620382D01*
Y177999D01*
X2620114D01*
Y177865D01*
X2619846D01*
Y177731D01*
X2619578D01*
Y177597D01*
X2619310D01*
Y177463D01*
X2619042D01*
Y177329D01*
X2618640D01*
Y177195D01*
X2618372D01*
Y177061D01*
X2618104D01*
Y176927D01*
X2617836D01*
Y176793D01*
X2617568D01*
Y176659D01*
X2617300D01*
Y176525D01*
X2616898D01*
Y176391D01*
X2616630D01*
Y176257D01*
X2616228D01*
Y176123D01*
X2615960D01*
Y175989D01*
X2615692D01*
Y175855D01*
X2615290D01*
Y175721D01*
X2615022D01*
Y175587D01*
X2614620D01*
Y175453D01*
X2614218D01*
Y175319D01*
X2614084D01*
Y175185D01*
X2613682D01*
Y175051D01*
X2613146D01*
Y174917D01*
X2613012D01*
Y174783D01*
X2612476D01*
Y174649D01*
X2612208D01*
Y174515D01*
X2611806D01*
Y174381D01*
X2611404D01*
Y174247D01*
X2611136D01*
Y174113D01*
X2610600D01*
Y173979D01*
X2610198D01*
Y173845D01*
X2609930D01*
Y173711D01*
X2609394D01*
Y173577D01*
X2608992D01*
Y173443D01*
X2608590D01*
Y173309D01*
X2608054D01*
Y173175D01*
X2607786D01*
Y173041D01*
X2607250D01*
Y172907D01*
X2606714D01*
Y172773D01*
X2606445D01*
Y172639D01*
X2605776D01*
Y172505D01*
X2605374D01*
Y172371D01*
X2604838D01*
Y172237D01*
X2604168D01*
Y172103D01*
X2603765D01*
Y171969D01*
X2603229D01*
Y171835D01*
X2602559D01*
Y171701D01*
X2602023D01*
Y171567D01*
X2601353D01*
Y171433D01*
X2600817D01*
Y171299D01*
X2600147D01*
Y171165D01*
X2599209D01*
Y171031D01*
X2598673D01*
Y170897D01*
X2597735D01*
Y170763D01*
X2596931D01*
Y170629D01*
X2596127D01*
Y170495D01*
X2594921D01*
Y170361D01*
X2593983D01*
Y170227D01*
X2592777D01*
Y170093D01*
X2592643D01*
Y170227D01*
X2592509D01*
Y170093D01*
X2590901D01*
Y169959D01*
X2589025D01*
Y169825D01*
X2581119D01*
Y169959D01*
X2579377D01*
Y170093D01*
X2577501D01*
Y170227D01*
X2577367D01*
Y170093D01*
X2577233D01*
Y170227D01*
X2576027D01*
Y170361D01*
X2574955D01*
Y170495D01*
X2573749D01*
Y170629D01*
X2573079D01*
Y170763D01*
X2572006D01*
Y170897D01*
X2571068D01*
Y171031D01*
X2570532D01*
Y171165D01*
X2569728D01*
Y171299D01*
X2568924D01*
Y171433D01*
X2568388D01*
Y171567D01*
X2567718D01*
Y171701D01*
X2567048D01*
Y171835D01*
X2566512D01*
Y171969D01*
X2565842D01*
Y172103D01*
X2565440D01*
Y172237D01*
X2564770D01*
Y172371D01*
X2564234D01*
Y172505D01*
X2563832D01*
Y172639D01*
X2563162D01*
Y172773D01*
X2562894D01*
Y172907D01*
X2562358D01*
Y173041D01*
X2561822D01*
Y173175D01*
X2561554D01*
Y173309D01*
X2560884D01*
Y173443D01*
X2560482D01*
Y173577D01*
X2560214D01*
Y173711D01*
X2559678D01*
Y173845D01*
X2559410D01*
Y173979D01*
X2558874D01*
Y174113D01*
X2558472D01*
Y174247D01*
X2558204D01*
Y174381D01*
X2557668D01*
Y174515D01*
X2557400D01*
Y174649D01*
X2557132D01*
Y174783D01*
X2556596D01*
Y174917D01*
X2556328D01*
Y175051D01*
X2555926D01*
Y175185D01*
X2555658D01*
Y175319D01*
X2555390D01*
Y175453D01*
X2554988D01*
Y175587D01*
X2554586D01*
Y175721D01*
X2554318D01*
Y175855D01*
X2553916D01*
Y175989D01*
X2553782D01*
Y176123D01*
X2553380D01*
Y176257D01*
X2552978D01*
Y176391D01*
X2552844D01*
Y176525D01*
X2552442D01*
Y176659D01*
X2552174D01*
Y176793D01*
X2551906D01*
Y176927D01*
X2551504D01*
Y177061D01*
X2551370D01*
Y177195D01*
X2550968D01*
Y177329D01*
X2550700D01*
Y177463D01*
X2550566D01*
Y177597D01*
X2550164D01*
Y177731D01*
X2549896D01*
Y177865D01*
X2549628D01*
Y177999D01*
X2549360D01*
Y178133D01*
X2549226D01*
Y178267D01*
X2548824D01*
Y178401D01*
X2548556D01*
Y178535D01*
X2548422D01*
Y178669D01*
X2548154D01*
Y178803D01*
X2547886D01*
Y178937D01*
X2547618D01*
Y179071D01*
X2547350D01*
Y179205D01*
X2547216D01*
Y179339D01*
X2546814D01*
Y179473D01*
X2546680D01*
Y179607D01*
X2546412D01*
Y179741D01*
X2546144D01*
Y179875D01*
X2546010D01*
Y180009D01*
X2545742D01*
Y180143D01*
X2545474D01*
Y180277D01*
X2545340D01*
Y180411D01*
X2545072D01*
Y180545D01*
X2544804D01*
Y180679D01*
X2544670D01*
Y180813D01*
X2544402D01*
Y180947D01*
X2544134D01*
Y181081D01*
X2544000D01*
Y181215D01*
X2543732D01*
Y181349D01*
X2543598D01*
Y181483D01*
X2543330D01*
Y181617D01*
X2543196D01*
Y181751D01*
X2542928D01*
Y181885D01*
X2542660D01*
Y182019D01*
X2542526D01*
Y182153D01*
X2542392D01*
Y182287D01*
X2542124D01*
Y182421D01*
X2541990D01*
Y182555D01*
X2541722D01*
Y182689D01*
X2541588D01*
Y182823D01*
X2541454D01*
Y182957D01*
X2541186D01*
Y182689D01*
X2541320D01*
Y182555D01*
X2541454D01*
Y182421D01*
X2541588D01*
Y182287D01*
X2541722D01*
Y182153D01*
X2541856D01*
Y182019D01*
X2541990D01*
Y181885D01*
X2542124D01*
Y181751D01*
X2542258D01*
Y181617D01*
X2542392D01*
Y181483D01*
X2542526D01*
Y181349D01*
X2542660D01*
Y181081D01*
X2542794D01*
Y180947D01*
X2542928D01*
Y180813D01*
X2543062D01*
Y180679D01*
X2543196D01*
Y180545D01*
X2543330D01*
Y180411D01*
X2543464D01*
Y180277D01*
X2543598D01*
Y180143D01*
X2543732D01*
Y180009D01*
X2543866D01*
Y179875D01*
X2544000D01*
Y179741D01*
X2544134D01*
Y179607D01*
X2544268D01*
Y179473D01*
X2544402D01*
Y179339D01*
X2544536D01*
Y179071D01*
X2544670D01*
Y178937D01*
X2544804D01*
Y178803D01*
X2544938D01*
Y178669D01*
X2545072D01*
Y178535D01*
X2545206D01*
Y178401D01*
X2545340D01*
Y178267D01*
X2545474D01*
Y178133D01*
X2545608D01*
Y177999D01*
X2545742D01*
Y177865D01*
X2545876D01*
Y177731D01*
X2546010D01*
Y177597D01*
X2546144D01*
Y177463D01*
X2546278D01*
Y177329D01*
X2546412D01*
Y177195D01*
X2546546D01*
Y176927D01*
X2546680D01*
Y176793D01*
X2546814D01*
Y176659D01*
X2546948D01*
Y176525D01*
X2547082D01*
Y176391D01*
X2547216D01*
Y176257D01*
X2547350D01*
Y176123D01*
X2547484D01*
Y175989D01*
X2547618D01*
Y175855D01*
X2547752D01*
Y175721D01*
X2547886D01*
Y175587D01*
X2548020D01*
Y175453D01*
X2548154D01*
Y175319D01*
X2548288D01*
Y175185D01*
X2548422D01*
Y175051D01*
X2548556D01*
Y174917D01*
X2548690D01*
Y174783D01*
X2548824D01*
Y174515D01*
X2548958D01*
Y174381D01*
X2549092D01*
Y174247D01*
X2549226D01*
Y174113D01*
X2549360D01*
Y173979D01*
X2549494D01*
Y173845D01*
X2549628D01*
Y173711D01*
X2549762D01*
Y173577D01*
X2549896D01*
Y173443D01*
X2550030D01*
Y173309D01*
X2550164D01*
Y173175D01*
X2550298D01*
Y173041D01*
X2550432D01*
Y172907D01*
X2550566D01*
Y172639D01*
X2550834D01*
Y172371D01*
X2550968D01*
Y172237D01*
X2551102D01*
Y172103D01*
X2551236D01*
Y171969D01*
X2551370D01*
Y171835D01*
X2551504D01*
Y171701D01*
X2551638D01*
Y171567D01*
X2551772D01*
Y171433D01*
X2551906D01*
Y171299D01*
X2552040D01*
Y171165D01*
X2552174D01*
Y171031D01*
X2552308D01*
Y170897D01*
X2552442D01*
Y170763D01*
X2552576D01*
Y170629D01*
X2552710D01*
Y170495D01*
X2552844D01*
Y170361D01*
X2552978D01*
Y170093D01*
X2553112D01*
Y169959D01*
X2553246D01*
Y169825D01*
X2553380D01*
Y169691D01*
X2553514D01*
Y169557D01*
X2553648D01*
Y169423D01*
X2553782D01*
Y169289D01*
X2553916D01*
Y169155D01*
X2554050D01*
Y169021D01*
X2554184D01*
Y168887D01*
X2554318D01*
Y168753D01*
X2554452D01*
Y168619D01*
X2554586D01*
Y168485D01*
X2554720D01*
Y168351D01*
X2554854D01*
Y168083D01*
X2555122D01*
Y167949D01*
X2555256D01*
Y167681D01*
X2555390D01*
Y167547D01*
X2555524D01*
Y167413D01*
X2555658D01*
Y167279D01*
X2555792D01*
Y167145D01*
X2555926D01*
Y167011D01*
X2556060D01*
Y166877D01*
X2556194D01*
Y166743D01*
X2556328D01*
Y166609D01*
X2556462D01*
Y166475D01*
X2556596D01*
Y166341D01*
X2556730D01*
Y166207D01*
X2556864D01*
Y166073D01*
X2556998D01*
Y165805D01*
X2557132D01*
Y165671D01*
X2557266D01*
Y165537D01*
X2557400D01*
Y165403D01*
X2557534D01*
Y165269D01*
X2557668D01*
Y165135D01*
X2557802D01*
Y165001D01*
X2557936D01*
Y164867D01*
X2558070D01*
Y164733D01*
X2558204D01*
Y164599D01*
X2558338D01*
Y164465D01*
X2558472D01*
Y164331D01*
X2558606D01*
Y164197D01*
X2558740D01*
Y164063D01*
X2558874D01*
Y163929D01*
X2559008D01*
Y163795D01*
X2559142D01*
Y163527D01*
X2559276D01*
Y163393D01*
X2559410D01*
Y163259D01*
X2559544D01*
Y163125D01*
X2559678D01*
Y162991D01*
X2559812D01*
Y162857D01*
X2559946D01*
Y162723D01*
X2560080D01*
Y162589D01*
X2560214D01*
Y162455D01*
X2560348D01*
Y162321D01*
X2560482D01*
Y162187D01*
X2560616D01*
Y162053D01*
X2560750D01*
Y161919D01*
X2560884D01*
Y161785D01*
X2561018D01*
Y161651D01*
X2561152D01*
Y161517D01*
X2561286D01*
Y161249D01*
X2561420D01*
Y161115D01*
X2561554D01*
Y160981D01*
X2561688D01*
Y160847D01*
X2561822D01*
Y160713D01*
X2561956D01*
Y160579D01*
X2562090D01*
Y160445D01*
X2562224D01*
Y160311D01*
X2562358D01*
Y160177D01*
X2562492D01*
Y160043D01*
X2562626D01*
Y159909D01*
X2562760D01*
Y159775D01*
X2562894D01*
Y159641D01*
X2563028D01*
Y159373D01*
X2563162D01*
Y159239D01*
X2563296D01*
Y159105D01*
X2563430D01*
Y158971D01*
X2563564D01*
Y158837D01*
X2563698D01*
Y158703D01*
X2563832D01*
Y158569D01*
X2563966D01*
Y158435D01*
X2564100D01*
Y158301D01*
X2564234D01*
Y158167D01*
X2564368D01*
Y158033D01*
X2564502D01*
Y157899D01*
X2564636D01*
Y157765D01*
X2564770D01*
Y157631D01*
X2564904D01*
Y157497D01*
X2565038D01*
Y157363D01*
X2565172D01*
Y157229D01*
X2565306D01*
Y157095D01*
X2565440D01*
Y156961D01*
X2565574D01*
Y156693D01*
X2565708D01*
Y156559D01*
X2565842D01*
Y156425D01*
X2565976D01*
Y156291D01*
X2566110D01*
Y156157D01*
X2566244D01*
Y156023D01*
X2566378D01*
Y155889D01*
X2566512D01*
Y155755D01*
X2566646D01*
Y155621D01*
X2566780D01*
Y155487D01*
X2566914D01*
Y155353D01*
X2567048D01*
Y155219D01*
X2567182D01*
Y155085D01*
X2567316D01*
Y154817D01*
X2567450D01*
Y154683D01*
X2567584D01*
Y154549D01*
X2567718D01*
Y154415D01*
X2567852D01*
Y154281D01*
X2567986D01*
Y154147D01*
X2568120D01*
Y154013D01*
X2568254D01*
Y153879D01*
X2568388D01*
Y153745D01*
X2568522D01*
Y153611D01*
X2568656D01*
Y153476D01*
X2568790D01*
Y153343D01*
X2568924D01*
Y153208D01*
X2569059D01*
Y153075D01*
X2569192D01*
Y152940D01*
X2569327D01*
Y152806D01*
X2569460D01*
Y152538D01*
X2569595D01*
Y152405D01*
X2569728D01*
Y152270D01*
X2569863D01*
Y152137D01*
X2569997D01*
Y152002D01*
X2570131D01*
Y151869D01*
X2570265D01*
Y151734D01*
X2570398D01*
Y151601D01*
X2570532D01*
Y151466D01*
X2570666D01*
Y151333D01*
X2570800D01*
Y151198D01*
X2570934D01*
Y151065D01*
X2571068D01*
Y150930D01*
X2571202D01*
Y150797D01*
X2571336D01*
Y150529D01*
X2571604D01*
Y150394D01*
X2571738D01*
Y150261D01*
X2571873D01*
Y150126D01*
X2572006D01*
Y149858D01*
X2572141D01*
Y149724D01*
X2572274D01*
Y149590D01*
X2572409D01*
Y149456D01*
X2572543D01*
Y149322D01*
X2572677D01*
Y149188D01*
X2572811D01*
Y149054D01*
X2572945D01*
Y148920D01*
X2573079D01*
Y148786D01*
X2573213D01*
Y148652D01*
X2573347D01*
Y148518D01*
X2573481D01*
Y148384D01*
X2573615D01*
Y148250D01*
X2573749D01*
Y147982D01*
X2573883D01*
Y147848D01*
X2574017D01*
Y147714D01*
X2574151D01*
Y147580D01*
X2574285D01*
Y147446D01*
X2574419D01*
Y147312D01*
X2574553D01*
Y147178D01*
X2574687D01*
Y147044D01*
X2574821D01*
Y146910D01*
X2574955D01*
Y146776D01*
X2575089D01*
Y146642D01*
X2575223D01*
Y146508D01*
X2575357D01*
Y146374D01*
X2575491D01*
Y146240D01*
X2575625D01*
Y146106D01*
X2575759D01*
Y145972D01*
X2575893D01*
Y145704D01*
X2576027D01*
Y145570D01*
X2576161D01*
Y145436D01*
X2576295D01*
Y145302D01*
X2576429D01*
Y145168D01*
X2576563D01*
Y145034D01*
X2576697D01*
Y144900D01*
X2576831D01*
Y144766D01*
X2576965D01*
Y144632D01*
X2577099D01*
Y144498D01*
X2577233D01*
Y144364D01*
X2577367D01*
Y144230D01*
X2577501D01*
Y144096D01*
X2577635D01*
Y143962D01*
X2577769D01*
Y143694D01*
X2577903D01*
Y143560D01*
X2578037D01*
Y143426D01*
X2578171D01*
Y143292D01*
X2578305D01*
Y143158D01*
X2578439D01*
Y143024D01*
X2578573D01*
Y142890D01*
X2578707D01*
Y142756D01*
X2578841D01*
Y142622D01*
X2578975D01*
Y142488D01*
X2579109D01*
Y142354D01*
X2579243D01*
Y142220D01*
X2579377D01*
Y142086D01*
X2579511D01*
Y141818D01*
X2579645D01*
Y141684D01*
X2579779D01*
Y141550D01*
X2579913D01*
Y141416D01*
X2580047D01*
Y141282D01*
X2580181D01*
Y141148D01*
X2580315D01*
Y141014D01*
X2580449D01*
Y140880D01*
X2580583D01*
Y140746D01*
X2580717D01*
Y140612D01*
X2580851D01*
Y140478D01*
X2580985D01*
Y140344D01*
X2581119D01*
Y140210D01*
X2581253D01*
Y140076D01*
X2581387D01*
Y139942D01*
X2581521D01*
Y139808D01*
X2581655D01*
Y139674D01*
X2581789D01*
Y139540D01*
X2581923D01*
Y139406D01*
X2582057D01*
Y139138D01*
X2582191D01*
Y139004D01*
X2582325D01*
Y138870D01*
X2582459D01*
Y138736D01*
X2582593D01*
Y138602D01*
X2582727D01*
Y138468D01*
X2582861D01*
Y138334D01*
X2582995D01*
Y138200D01*
X2583129D01*
Y138066D01*
X2583263D01*
Y137932D01*
X2583397D01*
Y137798D01*
X2583531D01*
Y137664D01*
X2583665D01*
Y137530D01*
X2583799D01*
Y137262D01*
X2584067D01*
Y136994D01*
X2584201D01*
Y136860D01*
X2584335D01*
Y136726D01*
X2584469D01*
Y136592D01*
X2584603D01*
Y136458D01*
X2584737D01*
Y136324D01*
X2584871D01*
Y136190D01*
X2585005D01*
Y136056D01*
X2585139D01*
Y135922D01*
X2585273D01*
Y135788D01*
X2585407D01*
Y135654D01*
X2585541D01*
Y135520D01*
X2585675D01*
Y135386D01*
X2585809D01*
Y135252D01*
X2585943D01*
Y135118D01*
X2586077D01*
Y134850D01*
X2586211D01*
Y134716D01*
X2586345D01*
Y134582D01*
X2586479D01*
Y134448D01*
X2586613D01*
Y134314D01*
X2586747D01*
Y134180D01*
X2586881D01*
Y134046D01*
X2587015D01*
Y133912D01*
X2587149D01*
Y133778D01*
X2587283D01*
Y133644D01*
X2587417D01*
Y133510D01*
X2587551D01*
Y133376D01*
X2587685D01*
Y133242D01*
X2587819D01*
Y133108D01*
X2587953D01*
Y132974D01*
X2588087D01*
Y132706D01*
X2588355D01*
Y132572D01*
X2588489D01*
Y132304D01*
X2588623D01*
Y132170D01*
X2588757D01*
Y132036D01*
X2588891D01*
Y131902D01*
X2589025D01*
Y131768D01*
X2589159D01*
Y131634D01*
X2589293D01*
Y131500D01*
X2589427D01*
Y131366D01*
X2589561D01*
Y131232D01*
X2589695D01*
Y131098D01*
X2589829D01*
Y130964D01*
X2589963D01*
Y130830D01*
X2590097D01*
Y130696D01*
X2590231D01*
Y130428D01*
X2590365D01*
Y130294D01*
X2590499D01*
Y130160D01*
X2590633D01*
Y130026D01*
X2590767D01*
Y129892D01*
X2590901D01*
Y129758D01*
X2591035D01*
Y129624D01*
X2591169D01*
Y129490D01*
X2591303D01*
Y129356D01*
X2591437D01*
Y129222D01*
X2591571D01*
Y129088D01*
X2591705D01*
Y128954D01*
X2591839D01*
Y128820D01*
X2591973D01*
Y128686D01*
X2592107D01*
Y128552D01*
X2592241D01*
Y128418D01*
X2592375D01*
Y128150D01*
X2592509D01*
Y128016D01*
X2592643D01*
Y127882D01*
X2592777D01*
Y127748D01*
X2592911D01*
Y127614D01*
X2593045D01*
Y127480D01*
X2593179D01*
Y127346D01*
X2593313D01*
Y127212D01*
X2593447D01*
Y127078D01*
X2593581D01*
Y126944D01*
X2593715D01*
Y126810D01*
X2593849D01*
Y126676D01*
X2593983D01*
Y126542D01*
X2594117D01*
Y126408D01*
X2594251D01*
Y126274D01*
X2594385D01*
Y126140D01*
X2594519D01*
Y125872D01*
X2594653D01*
Y125738D01*
X2594787D01*
Y125604D01*
X2594921D01*
Y125470D01*
X2595055D01*
Y125336D01*
X2595189D01*
Y125202D01*
X2595323D01*
Y125068D01*
X2595457D01*
Y124934D01*
X2595591D01*
Y124800D01*
X2595725D01*
Y124666D01*
X2595859D01*
Y124532D01*
X2595993D01*
Y124398D01*
X2596127D01*
Y124264D01*
X2596261D01*
Y123996D01*
X2596395D01*
Y123862D01*
X2596529D01*
Y123728D01*
X2596663D01*
Y123594D01*
X2596797D01*
Y123460D01*
X2596931D01*
Y123326D01*
X2597065D01*
Y123192D01*
X2597199D01*
Y123058D01*
X2597333D01*
Y122924D01*
X2597467D01*
Y122790D01*
X2597601D01*
Y122656D01*
X2597735D01*
Y122522D01*
X2597869D01*
Y122388D01*
X2598003D01*
Y122254D01*
X2598137D01*
Y122120D01*
X2598271D01*
Y121986D01*
X2598405D01*
Y121852D01*
X2598539D01*
Y121718D01*
X2598673D01*
Y121450D01*
X2598807D01*
Y121316D01*
X2598941D01*
Y121182D01*
X2599075D01*
Y121048D01*
X2599209D01*
Y120914D01*
X2599343D01*
Y120780D01*
X2599477D01*
Y120646D01*
X2599611D01*
Y120511D01*
X2599745D01*
Y120378D01*
X2599879D01*
Y120244D01*
X2600013D01*
Y120110D01*
X2600147D01*
Y119976D01*
X2600281D01*
Y119842D01*
X2600415D01*
Y119708D01*
X2600549D01*
Y119440D01*
X2600683D01*
Y119305D01*
X2600817D01*
Y119172D01*
X2600951D01*
Y119037D01*
X2601085D01*
Y118904D01*
X2601219D01*
Y118769D01*
X2601353D01*
Y118635D01*
X2601487D01*
Y118501D01*
X2601621D01*
Y118368D01*
X2601755D01*
Y118234D01*
X2601889D01*
Y118100D01*
X2602023D01*
Y117966D01*
X2602157D01*
Y117832D01*
X2602291D01*
Y117698D01*
X2602425D01*
Y117564D01*
X2602559D01*
Y117430D01*
X2602693D01*
Y117162D01*
X2602827D01*
Y117028D01*
X2602961D01*
Y116894D01*
X2603095D01*
Y116759D01*
X2603229D01*
Y116626D01*
X2603363D01*
Y116491D01*
X2603497D01*
Y116358D01*
X2603631D01*
Y116223D01*
X2603765D01*
Y116090D01*
X2603899D01*
Y115956D01*
X2604034D01*
Y115821D01*
X2604168D01*
Y115688D01*
X2604302D01*
Y115553D01*
X2604436D01*
Y115419D01*
X2604569D01*
Y115151D01*
X2604838D01*
Y115017D01*
X2604972D01*
Y114883D01*
X2605106D01*
Y114749D01*
X2605240D01*
Y114481D01*
X2605374D01*
Y114347D01*
X2605508D01*
Y114213D01*
X2605642D01*
Y114079D01*
X2605776D01*
Y113945D01*
X2605910D01*
Y113811D01*
X2606044D01*
Y113677D01*
X2606177D01*
Y113543D01*
X2606311D01*
Y113409D01*
X2606445D01*
Y113275D01*
X2606579D01*
Y113141D01*
X2606714D01*
Y113007D01*
X2606847D01*
Y112739D01*
X2606982D01*
Y112605D01*
X2607115D01*
Y112471D01*
X2607250D01*
Y112337D01*
X2607383D01*
Y112203D01*
X2607518D01*
Y112069D01*
X2607652D01*
Y111935D01*
X2607786D01*
Y111801D01*
X2607920D01*
Y111667D01*
X2608054D01*
Y111533D01*
X2608188D01*
Y111399D01*
X2608322D01*
Y111265D01*
X2608456D01*
Y111131D01*
X2608590D01*
Y110997D01*
X2608724D01*
Y110863D01*
X2608858D01*
Y110595D01*
X2608992D01*
Y110461D01*
X2609126D01*
Y110327D01*
X2609260D01*
Y110193D01*
X2609394D01*
Y110059D01*
X2609528D01*
Y109925D01*
X2609662D01*
Y109791D01*
X2609796D01*
Y109657D01*
X2609930D01*
Y109523D01*
X2610064D01*
Y109389D01*
X2610198D01*
Y109255D01*
X2610332D01*
Y109121D01*
X2610466D01*
Y108987D01*
X2610600D01*
Y108853D01*
X2610734D01*
Y108719D01*
X2610868D01*
Y108585D01*
X2611002D01*
Y108317D01*
X2611136D01*
Y108183D01*
X2611270D01*
Y108049D01*
X2611404D01*
Y107915D01*
X2611538D01*
Y107781D01*
X2611672D01*
Y107647D01*
X2611806D01*
Y107513D01*
X2611940D01*
Y107379D01*
X2612074D01*
Y107245D01*
X2606579D01*
Y107379D01*
X2606445D01*
Y107513D01*
X2606311D01*
Y107647D01*
X2606177D01*
Y107781D01*
X2606044D01*
Y107915D01*
X2605910D01*
Y108049D01*
X2605776D01*
Y108183D01*
X2605642D01*
Y108317D01*
X2605508D01*
Y108451D01*
X2605374D01*
Y108585D01*
X2605240D01*
Y108719D01*
X2605106D01*
Y108987D01*
X2604838D01*
Y109255D01*
X2604704D01*
Y109389D01*
X2604569D01*
Y109523D01*
X2604436D01*
Y109657D01*
X2604302D01*
Y109791D01*
X2604168D01*
Y109925D01*
X2604034D01*
Y110059D01*
X2603899D01*
Y110193D01*
X2603765D01*
Y110327D01*
X2603631D01*
Y110461D01*
X2603497D01*
Y110595D01*
X2603363D01*
Y110729D01*
X2603229D01*
Y110863D01*
X2603095D01*
Y111131D01*
X2602961D01*
Y111265D01*
X2602827D01*
Y111399D01*
X2602693D01*
Y111533D01*
X2602559D01*
Y111667D01*
X2602425D01*
Y111801D01*
X2602291D01*
Y111935D01*
X2602157D01*
Y112069D01*
X2602023D01*
Y112203D01*
X2601889D01*
Y112337D01*
X2601755D01*
Y112471D01*
X2601621D01*
Y112605D01*
X2601487D01*
Y112739D01*
X2601353D01*
Y112873D01*
X2601219D01*
Y113007D01*
X2601085D01*
Y113141D01*
X2600951D01*
Y113409D01*
X2600817D01*
Y113543D01*
X2600683D01*
Y113677D01*
X2600549D01*
Y113811D01*
X2600415D01*
Y113945D01*
X2600281D01*
Y114079D01*
X2600147D01*
Y114213D01*
X2600013D01*
Y114347D01*
X2599879D01*
Y114481D01*
X2599745D01*
Y114615D01*
X2599611D01*
Y114749D01*
X2599477D01*
Y114883D01*
X2599343D01*
Y115017D01*
X2599209D01*
Y115151D01*
X2599075D01*
Y115419D01*
X2598941D01*
Y115553D01*
X2598807D01*
Y115688D01*
X2598673D01*
Y115821D01*
X2598539D01*
Y115956D01*
X2598405D01*
Y116090D01*
X2598271D01*
Y116223D01*
X2598137D01*
Y116358D01*
X2598003D01*
Y116491D01*
X2597869D01*
Y116626D01*
X2597735D01*
Y116759D01*
X2597601D01*
Y116894D01*
X2597467D01*
Y117028D01*
X2597333D01*
Y117162D01*
X2597199D01*
Y117296D01*
X2597065D01*
Y117564D01*
X2596931D01*
Y117698D01*
X2596797D01*
Y117832D01*
X2596663D01*
Y117966D01*
X2596529D01*
Y118100D01*
X2596395D01*
Y118234D01*
X2596261D01*
Y118368D01*
X2596127D01*
Y118501D01*
X2595993D01*
Y118635D01*
X2595859D01*
Y118769D01*
X2595725D01*
Y118904D01*
X2595591D01*
Y119037D01*
X2595457D01*
Y119172D01*
X2595323D01*
Y119305D01*
X2595189D01*
Y119440D01*
X2595055D01*
Y119573D01*
X2594921D01*
Y119708D01*
X2594787D01*
Y119976D01*
X2594653D01*
Y120110D01*
X2594519D01*
Y120244D01*
X2594385D01*
Y120378D01*
X2594251D01*
Y120511D01*
X2594117D01*
Y120646D01*
X2593983D01*
Y120780D01*
X2593849D01*
Y120914D01*
X2593715D01*
Y121048D01*
X2593581D01*
Y121182D01*
X2593447D01*
Y121316D01*
X2593313D01*
Y121450D01*
X2593179D01*
Y121584D01*
X2593045D01*
Y121852D01*
X2592777D01*
Y121986D01*
X2592643D01*
Y122254D01*
X2592509D01*
Y122388D01*
X2592375D01*
Y122522D01*
X2592241D01*
Y122656D01*
X2592107D01*
Y122790D01*
X2591973D01*
Y122924D01*
X2591839D01*
Y123058D01*
X2591705D01*
Y123192D01*
X2591571D01*
Y123326D01*
X2591437D01*
Y123460D01*
X2591303D01*
Y123594D01*
X2591169D01*
Y123728D01*
X2591035D01*
Y123862D01*
X2590901D01*
Y123996D01*
X2590767D01*
Y124264D01*
X2590633D01*
Y124398D01*
X2590499D01*
Y124532D01*
X2590365D01*
Y124666D01*
X2590231D01*
Y124800D01*
X2590097D01*
Y124934D01*
X2589963D01*
Y125068D01*
X2589829D01*
Y125202D01*
X2589695D01*
Y125336D01*
X2589561D01*
Y125470D01*
X2589427D01*
Y125604D01*
X2589293D01*
Y125738D01*
X2589159D01*
Y125872D01*
X2589025D01*
Y126006D01*
X2588891D01*
Y126140D01*
X2588757D01*
Y126274D01*
X2588623D01*
Y126408D01*
X2588489D01*
Y126542D01*
X2588355D01*
Y126810D01*
X2588221D01*
Y126944D01*
X2588087D01*
Y127078D01*
X2587953D01*
Y127212D01*
X2587819D01*
Y127346D01*
X2587685D01*
Y127480D01*
X2587551D01*
Y127614D01*
X2587417D01*
Y127748D01*
X2587283D01*
Y127882D01*
X2587149D01*
Y128016D01*
X2587015D01*
Y128150D01*
X2586881D01*
Y128284D01*
X2586747D01*
Y128418D01*
X2586613D01*
Y128686D01*
X2586479D01*
Y128820D01*
X2586345D01*
Y128954D01*
X2586211D01*
Y129088D01*
X2586077D01*
Y129222D01*
X2585943D01*
Y129356D01*
X2585809D01*
Y129490D01*
X2585675D01*
Y129624D01*
X2585541D01*
Y129758D01*
X2585407D01*
Y129892D01*
X2585273D01*
Y130026D01*
X2585139D01*
Y130160D01*
X2585005D01*
Y130294D01*
X2584871D01*
Y130428D01*
X2584737D01*
Y130562D01*
X2584603D01*
Y130696D01*
X2584469D01*
Y130964D01*
X2584335D01*
Y131098D01*
X2584201D01*
Y131232D01*
X2584067D01*
Y131366D01*
X2583933D01*
Y131500D01*
X2583799D01*
Y131634D01*
X2583665D01*
Y131768D01*
X2583531D01*
Y131902D01*
X2583397D01*
Y132036D01*
X2583263D01*
Y132170D01*
X2583129D01*
Y132304D01*
X2582995D01*
Y132438D01*
X2582861D01*
Y132572D01*
X2582727D01*
Y132706D01*
X2582593D01*
Y132974D01*
X2582325D01*
Y133242D01*
X2582191D01*
Y133376D01*
X2582057D01*
Y133510D01*
X2581923D01*
Y133644D01*
X2581789D01*
Y133778D01*
X2581655D01*
Y133912D01*
X2581521D01*
Y134046D01*
X2581387D01*
Y134180D01*
X2581253D01*
Y134314D01*
X2581119D01*
Y134448D01*
X2580985D01*
Y134582D01*
X2580851D01*
Y134716D01*
X2580717D01*
Y134850D01*
X2580583D01*
Y135118D01*
X2580449D01*
Y135252D01*
X2580315D01*
Y135386D01*
X2580181D01*
Y135520D01*
X2580047D01*
Y135654D01*
X2579913D01*
Y135788D01*
X2579779D01*
Y135922D01*
X2579645D01*
Y136056D01*
X2579511D01*
Y136190D01*
X2579377D01*
Y136324D01*
X2579243D01*
Y136458D01*
X2579109D01*
Y136592D01*
X2578975D01*
Y136726D01*
X2578841D01*
Y136860D01*
X2578707D01*
Y136994D01*
X2578573D01*
Y137128D01*
X2578439D01*
Y137262D01*
X2578305D01*
Y137396D01*
X2578171D01*
Y137530D01*
X2578037D01*
Y137798D01*
X2577903D01*
Y137932D01*
X2577769D01*
Y138066D01*
X2577635D01*
Y138200D01*
X2577501D01*
Y138334D01*
X2577367D01*
Y138468D01*
X2577233D01*
Y138602D01*
X2577099D01*
Y138736D01*
X2576965D01*
Y138870D01*
X2576831D01*
Y139004D01*
X2576697D01*
Y139138D01*
X2576563D01*
Y139272D01*
X2576429D01*
Y139406D01*
X2576295D01*
Y139674D01*
X2576161D01*
Y139808D01*
X2575893D01*
Y140076D01*
X2575759D01*
Y140210D01*
X2575625D01*
Y140344D01*
X2575491D01*
Y140478D01*
X2575357D01*
Y140612D01*
X2575223D01*
Y140746D01*
X2575089D01*
Y140880D01*
X2574955D01*
Y141014D01*
X2574821D01*
Y141148D01*
X2574687D01*
Y141282D01*
X2574553D01*
Y141416D01*
X2574419D01*
Y141550D01*
X2574285D01*
Y141684D01*
X2574151D01*
Y141818D01*
X2574017D01*
Y142086D01*
X2573883D01*
Y142220D01*
X2573749D01*
Y142354D01*
X2573615D01*
Y142488D01*
X2573481D01*
Y142622D01*
X2573347D01*
Y142756D01*
X2573213D01*
Y142890D01*
X2573079D01*
Y143024D01*
X2572945D01*
Y143158D01*
X2572811D01*
Y143292D01*
X2572677D01*
Y143426D01*
X2572543D01*
Y143560D01*
X2572409D01*
Y143694D01*
X2572274D01*
Y143828D01*
X2572141D01*
Y143962D01*
X2572006D01*
Y144096D01*
X2571873D01*
Y144230D01*
X2571738D01*
Y144364D01*
X2571604D01*
Y144632D01*
X2571470D01*
Y144766D01*
X2571336D01*
Y144900D01*
X2571202D01*
Y145034D01*
X2571068D01*
Y145168D01*
X2570934D01*
Y145302D01*
X2570800D01*
Y145436D01*
X2570666D01*
Y145570D01*
X2570532D01*
Y145704D01*
X2570398D01*
Y145838D01*
X2570265D01*
Y145972D01*
X2570131D01*
Y146106D01*
X2569997D01*
Y146240D01*
X2569863D01*
Y146508D01*
X2569728D01*
Y146642D01*
X2569595D01*
Y146776D01*
X2569460D01*
Y146910D01*
X2569327D01*
Y147044D01*
X2569192D01*
Y147178D01*
X2569059D01*
Y147312D01*
X2568924D01*
Y147446D01*
X2568790D01*
Y147580D01*
X2568656D01*
Y147714D01*
X2568522D01*
Y147848D01*
X2568388D01*
Y147982D01*
X2568254D01*
Y148116D01*
X2568120D01*
Y148250D01*
X2567986D01*
Y148384D01*
X2567852D01*
Y148518D01*
X2567718D01*
Y148652D01*
X2567584D01*
Y148920D01*
X2567450D01*
Y149054D01*
X2567316D01*
Y149188D01*
X2567182D01*
Y149322D01*
X2567048D01*
Y149456D01*
X2566914D01*
Y149590D01*
X2566780D01*
Y149724D01*
X2566646D01*
Y149858D01*
X2566512D01*
Y149993D01*
X2566378D01*
Y150126D01*
X2566244D01*
Y150261D01*
X2566110D01*
Y150394D01*
X2565976D01*
Y150529D01*
X2565842D01*
Y150662D01*
X2565708D01*
Y150797D01*
X2565574D01*
Y151065D01*
X2565440D01*
Y151198D01*
X2565306D01*
Y151333D01*
X2565172D01*
Y151466D01*
X2565038D01*
Y151601D01*
X2564904D01*
Y151734D01*
X2564770D01*
Y151869D01*
X2564636D01*
Y152002D01*
X2564502D01*
Y152137D01*
X2564368D01*
Y152270D01*
X2564234D01*
Y152405D01*
X2564100D01*
Y152538D01*
X2563966D01*
Y152673D01*
X2563832D01*
Y152806D01*
X2563698D01*
Y153075D01*
X2563564D01*
Y153208D01*
X2563430D01*
Y153343D01*
X2563296D01*
Y153476D01*
X2563162D01*
Y153611D01*
X2563028D01*
Y153745D01*
X2562894D01*
Y153879D01*
X2562760D01*
Y154013D01*
X2562626D01*
Y154147D01*
X2562492D01*
Y154281D01*
X2562358D01*
Y154415D01*
X2562224D01*
Y154549D01*
X2562090D01*
Y154683D01*
X2561956D01*
Y154817D01*
X2561822D01*
Y154951D01*
X2561688D01*
Y155085D01*
X2561554D01*
Y155219D01*
X2561420D01*
Y155353D01*
X2561286D01*
Y155621D01*
X2561152D01*
Y155755D01*
X2561018D01*
Y155889D01*
X2560884D01*
Y156023D01*
X2560750D01*
Y156157D01*
X2560616D01*
Y156291D01*
X2560482D01*
Y156425D01*
X2560348D01*
Y156559D01*
X2560214D01*
Y156693D01*
X2560080D01*
Y156827D01*
X2559946D01*
Y156961D01*
X2559812D01*
Y157095D01*
X2559678D01*
Y157229D01*
X2559544D01*
Y157363D01*
X2559410D01*
Y157631D01*
X2559142D01*
Y157899D01*
X2559008D01*
Y158033D01*
X2558874D01*
Y158167D01*
X2558740D01*
Y158301D01*
X2558606D01*
Y158435D01*
X2558472D01*
Y158569D01*
X2558338D01*
Y158703D01*
X2558204D01*
Y158837D01*
X2558070D01*
Y158971D01*
X2557936D01*
Y159105D01*
X2557802D01*
Y159239D01*
X2557668D01*
Y159373D01*
X2557534D01*
Y159507D01*
X2557400D01*
Y159641D01*
X2557266D01*
Y159909D01*
X2557132D01*
Y160043D01*
X2556998D01*
Y160177D01*
X2556864D01*
Y160311D01*
X2556730D01*
Y160445D01*
X2556596D01*
Y160579D01*
X2556462D01*
Y160713D01*
X2556328D01*
Y160847D01*
X2556194D01*
Y160981D01*
X2556060D01*
Y161115D01*
X2555926D01*
Y161249D01*
X2555792D01*
Y161383D01*
X2555658D01*
Y161517D01*
X2555524D01*
Y161651D01*
X2555390D01*
Y161785D01*
X2555256D01*
Y161919D01*
X2555122D01*
Y162053D01*
X2554988D01*
Y162187D01*
X2554854D01*
Y162455D01*
X2554720D01*
Y162589D01*
X2554586D01*
Y162723D01*
X2554452D01*
Y162857D01*
X2554318D01*
Y162991D01*
X2554184D01*
Y163125D01*
X2554050D01*
Y163259D01*
X2553916D01*
Y163393D01*
X2553782D01*
Y163527D01*
X2553648D01*
Y163661D01*
X2553514D01*
Y163795D01*
X2553380D01*
Y163929D01*
X2553246D01*
Y164063D01*
X2553112D01*
Y164197D01*
X2552978D01*
Y164465D01*
X2552844D01*
Y164599D01*
X2552710D01*
Y164733D01*
X2552576D01*
Y164867D01*
X2552442D01*
Y165001D01*
X2552308D01*
Y165135D01*
X2552174D01*
Y165269D01*
X2552040D01*
Y165403D01*
X2551906D01*
Y165537D01*
X2551772D01*
Y165671D01*
X2551638D01*
Y165805D01*
X2551504D01*
Y165939D01*
X2551370D01*
Y166073D01*
X2551236D01*
Y166207D01*
X2551102D01*
Y166341D01*
X2550968D01*
Y166475D01*
X2550834D01*
Y166743D01*
X2550700D01*
Y166877D01*
X2550566D01*
Y167011D01*
X2550432D01*
Y167145D01*
X2550298D01*
Y167279D01*
X2550164D01*
Y167413D01*
X2550030D01*
Y167547D01*
X2549896D01*
Y167681D01*
X2549762D01*
Y167815D01*
X2549628D01*
Y167949D01*
X2549494D01*
Y168083D01*
X2549360D01*
Y168217D01*
X2549226D01*
Y168351D01*
X2549092D01*
Y168485D01*
X2548958D01*
Y168619D01*
X2548824D01*
Y168753D01*
X2548690D01*
Y169021D01*
X2548556D01*
Y169155D01*
X2548422D01*
Y169289D01*
X2548288D01*
Y169423D01*
X2548154D01*
Y169557D01*
X2548020D01*
Y169691D01*
X2547886D01*
Y169825D01*
X2547752D01*
Y169959D01*
X2547618D01*
Y170093D01*
X2547484D01*
Y170227D01*
X2547350D01*
Y170361D01*
X2547216D01*
Y170495D01*
X2547082D01*
Y170629D01*
X2546948D01*
Y170897D01*
X2546814D01*
Y171031D01*
X2546680D01*
Y171165D01*
X2546546D01*
Y171299D01*
X2546412D01*
Y171433D01*
X2546278D01*
Y171567D01*
X2546144D01*
Y171701D01*
X2546010D01*
Y171835D01*
X2545876D01*
Y171969D01*
X2545742D01*
Y172103D01*
X2545608D01*
Y172237D01*
X2545474D01*
Y172371D01*
X2545340D01*
Y172505D01*
X2545206D01*
Y172639D01*
X2545072D01*
Y172773D01*
X2544938D01*
Y172907D01*
X2544804D01*
Y173041D01*
X2544670D01*
Y173175D01*
X2544536D01*
Y173309D01*
X2544402D01*
Y173577D01*
X2544268D01*
Y173711D01*
X2544134D01*
Y173845D01*
X2544000D01*
Y173979D01*
X2543866D01*
Y174113D01*
X2543732D01*
Y174247D01*
X2543598D01*
Y174381D01*
X2543464D01*
Y174515D01*
X2543330D01*
Y174649D01*
X2543196D01*
Y174783D01*
X2543062D01*
Y174917D01*
X2542928D01*
Y175051D01*
X2542794D01*
Y175185D01*
X2542660D01*
Y175319D01*
X2542526D01*
Y175453D01*
X2542392D01*
Y175587D01*
X2542258D01*
Y175855D01*
X2542124D01*
Y175989D01*
X2541990D01*
Y176123D01*
X2541856D01*
Y176257D01*
X2541722D01*
Y176391D01*
X2541588D01*
Y176525D01*
X2541454D01*
Y176659D01*
X2541320D01*
Y176793D01*
X2541186D01*
Y176927D01*
X2541052D01*
Y177061D01*
X2540918D01*
Y177195D01*
X2540784D01*
Y177329D01*
X2540650D01*
Y177463D01*
X2540516D01*
Y177597D01*
X2540382D01*
Y177865D01*
X2540248D01*
Y177999D01*
X2540114D01*
Y178133D01*
X2539980D01*
Y178267D01*
X2539846D01*
Y178401D01*
X2539712D01*
Y178535D01*
X2539578D01*
Y178669D01*
X2539444D01*
Y178803D01*
X2539310D01*
Y178937D01*
X2539176D01*
Y179071D01*
X2539042D01*
Y179205D01*
X2538908D01*
Y179339D01*
X2538774D01*
Y179473D01*
X2538640D01*
Y179607D01*
X2538506D01*
Y179741D01*
X2538372D01*
Y179875D01*
X2538238D01*
Y180009D01*
X2538104D01*
Y180143D01*
X2537970D01*
Y180411D01*
X2537836D01*
Y180545D01*
X2537702D01*
Y180679D01*
X2537568D01*
Y180813D01*
X2537434D01*
Y180947D01*
X2537300D01*
Y181081D01*
X2537166D01*
Y181215D01*
X2537032D01*
Y181349D01*
X2536898D01*
Y181483D01*
X2536764D01*
Y181617D01*
X2536630D01*
Y181885D01*
X2536495D01*
Y182019D01*
X2536361D01*
Y182153D01*
X2536227D01*
Y182287D01*
X2536093D01*
Y182421D01*
X2535959D01*
Y182555D01*
X2535825D01*
Y182689D01*
X2535691D01*
Y182823D01*
X2535557D01*
Y182957D01*
X2535423D01*
Y183091D01*
X2535289D01*
Y183225D01*
X2535155D01*
Y183493D01*
X2535021D01*
Y183627D01*
X2534887D01*
Y183761D01*
X2534753D01*
Y183895D01*
X2534619D01*
Y184029D01*
X2534485D01*
Y184163D01*
X2534351D01*
Y184297D01*
X2534218D01*
Y184431D01*
X2534083D01*
Y184565D01*
X2533950D01*
Y184699D01*
X2533815D01*
Y184967D01*
X2533681D01*
Y185101D01*
X2533547D01*
Y185235D01*
X2533413D01*
Y185369D01*
X2533279D01*
Y185503D01*
X2533145D01*
Y185637D01*
X2533011D01*
Y185771D01*
X2532877D01*
Y185905D01*
X2532743D01*
Y186173D01*
X2532609D01*
Y186308D01*
X2532475D01*
Y186441D01*
X2532341D01*
Y186576D01*
X2532207D01*
Y186709D01*
X2532073D01*
Y186844D01*
X2531939D01*
Y186977D01*
X2531805D01*
Y187112D01*
X2531671D01*
Y187245D01*
X2531537D01*
Y187513D01*
X2531403D01*
Y187648D01*
X2531269D01*
Y187781D01*
X2531135D01*
Y187916D01*
X2531001D01*
Y188049D01*
X2530867D01*
Y188184D01*
X2530733D01*
Y188317D01*
X2530599D01*
Y188586D01*
X2530465D01*
Y188720D01*
X2530331D01*
Y188854D01*
X2530197D01*
Y188988D01*
X2530063D01*
Y189122D01*
X2529929D01*
Y189256D01*
X2529795D01*
Y189524D01*
X2529661D01*
Y189658D01*
X2529527D01*
Y189792D01*
X2529393D01*
Y189926D01*
X2529259D01*
Y190060D01*
X2529125D01*
Y190194D01*
X2528991D01*
Y190462D01*
X2528723D01*
Y190730D01*
X2528589D01*
Y190864D01*
X2528455D01*
Y190998D01*
X2528321D01*
Y191132D01*
X2528187D01*
Y191266D01*
X2528053D01*
Y191534D01*
X2527919D01*
Y191668D01*
X2527785D01*
Y191802D01*
X2527651D01*
Y191936D01*
X2527517D01*
Y192070D01*
X2527383D01*
Y192338D01*
X2527249D01*
Y192472D01*
X2527115D01*
Y192606D01*
X2526981D01*
Y192740D01*
X2526847D01*
Y192874D01*
X2526713D01*
Y193008D01*
X2526579D01*
Y193276D01*
X2526445D01*
Y193410D01*
X2526311D01*
Y193544D01*
X2526177D01*
Y193678D01*
X2526043D01*
Y193812D01*
X2525909D01*
Y194080D01*
X2525775D01*
Y194214D01*
X2525641D01*
Y194348D01*
X2525507D01*
Y194482D01*
X2525373D01*
Y194750D01*
X2525239D01*
Y194884D01*
X2525105D01*
Y195018D01*
X2524971D01*
Y195152D01*
X2524837D01*
Y195286D01*
X2524703D01*
Y195554D01*
X2524569D01*
Y195688D01*
X2524435D01*
Y195822D01*
X2524301D01*
Y196090D01*
X2524167D01*
Y196224D01*
X2524033D01*
Y196358D01*
X2523899D01*
Y196492D01*
X2523765D01*
Y196626D01*
X2523631D01*
Y196894D01*
X2523497D01*
Y197028D01*
X2523363D01*
Y197162D01*
X2523229D01*
Y197430D01*
X2523095D01*
Y197564D01*
X2522961D01*
Y197698D01*
X2522827D01*
Y197832D01*
X2522693D01*
Y198100D01*
X2522559D01*
Y198234D01*
X2522425D01*
Y198368D01*
X2522291D01*
Y198636D01*
X2522157D01*
Y198770D01*
X2522023D01*
Y198904D01*
X2521889D01*
Y199172D01*
X2521755D01*
Y199306D01*
X2521621D01*
Y199440D01*
X2521487D01*
Y199574D01*
X2521353D01*
Y199708D01*
X2521219D01*
Y199976D01*
X2521085D01*
Y200110D01*
X2520951D01*
Y200378D01*
X2520817D01*
Y200512D01*
X2520683D01*
Y200646D01*
X2520549D01*
Y200914D01*
X2520415D01*
Y201048D01*
X2520281D01*
Y201182D01*
X2520147D01*
Y201450D01*
X2520013D01*
Y201584D01*
X2519879D01*
Y201852D01*
X2519745D01*
Y201986D01*
X2519611D01*
Y202120D01*
X2519477D01*
Y202388D01*
X2519343D01*
Y202522D01*
X2519209D01*
Y202656D01*
X2519075D01*
Y202924D01*
X2518941D01*
Y203192D01*
X2518807D01*
Y203326D01*
X2518673D01*
Y203594D01*
X2518539D01*
Y203728D01*
X2518405D01*
Y203862D01*
X2518271D01*
Y204130D01*
X2518137D01*
Y204264D01*
X2518003D01*
Y204532D01*
X2517869D01*
Y204666D01*
X2517735D01*
Y204934D01*
X2517601D01*
Y205202D01*
X2517467D01*
Y205336D01*
X2517333D01*
Y205604D01*
X2517199D01*
Y205872D01*
X2517065D01*
Y206006D01*
X2516931D01*
Y206274D01*
X2516797D01*
Y206408D01*
X2516663D01*
Y206676D01*
X2516529D01*
Y206944D01*
X2516395D01*
Y207078D01*
X2516261D01*
Y207346D01*
X2516127D01*
Y207480D01*
X2515993D01*
Y207748D01*
X2515859D01*
Y208016D01*
X2515725D01*
Y208150D01*
X2515591D01*
Y208418D01*
X2515457D01*
Y208686D01*
X2515323D01*
Y208820D01*
X2515189D01*
Y209088D01*
X2515055D01*
Y209356D01*
X2514921D01*
Y209490D01*
X2514787D01*
Y209758D01*
X2514653D01*
Y210026D01*
X2514519D01*
Y210160D01*
X2514385D01*
Y210428D01*
X2514251D01*
Y210562D01*
X2514117D01*
Y210964D01*
X2513983D01*
Y211098D01*
X2513849D01*
Y211366D01*
X2513715D01*
Y211634D01*
X2513581D01*
Y211902D01*
X2513447D01*
Y212036D01*
X2513313D01*
Y212304D01*
X2513179D01*
Y212572D01*
X2513045D01*
Y212840D01*
X2512911D01*
Y213108D01*
X2512777D01*
Y213242D01*
X2512643D01*
Y213644D01*
X2512509D01*
Y213778D01*
X2512375D01*
Y214046D01*
X2512241D01*
Y214448D01*
X2512107D01*
Y214582D01*
X2511973D01*
Y214850D01*
X2511839D01*
Y215252D01*
X2511705D01*
Y215386D01*
X2511571D01*
Y215788D01*
X2511437D01*
Y215922D01*
X2511303D01*
Y216190D01*
X2511169D01*
Y216592D01*
X2511035D01*
Y216860D01*
X2510901D01*
Y217128D01*
X2510767D01*
Y217396D01*
X2510633D01*
Y217664D01*
X2510499D01*
Y218066D01*
X2510365D01*
Y218334D01*
X2510231D01*
Y218602D01*
X2510097D01*
Y219005D01*
X2509963D01*
Y219138D01*
X2509829D01*
Y219541D01*
X2509695D01*
Y219942D01*
X2509561D01*
Y220077D01*
X2509427D01*
Y220478D01*
X2509293D01*
Y220881D01*
X2509159D01*
Y221149D01*
X2509025D01*
Y221550D01*
X2508891D01*
Y221819D01*
X2508757D01*
Y222220D01*
X2508623D01*
Y222623D01*
X2508489D01*
Y222891D01*
X2508355D01*
Y223293D01*
X2508221D01*
Y223695D01*
X2508087D01*
Y223963D01*
X2507953D01*
Y224499D01*
X2507819D01*
Y224767D01*
X2507685D01*
Y225303D01*
X2507551D01*
Y225705D01*
X2507417D01*
Y225973D01*
X2507283D01*
Y226509D01*
X2507149D01*
Y226911D01*
X2507015D01*
Y227313D01*
X2506881D01*
Y227983D01*
X2506747D01*
Y228251D01*
X2506613D01*
Y228787D01*
X2506479D01*
Y229323D01*
X2506345D01*
Y229725D01*
X2506211D01*
Y230395D01*
X2506077D01*
Y230797D01*
X2505943D01*
Y231333D01*
X2505809D01*
Y232003D01*
X2505675D01*
Y232539D01*
X2505541D01*
Y233209D01*
X2505407D01*
Y234013D01*
X2505273D01*
Y234549D01*
X2505139D01*
Y235353D01*
X2505005D01*
Y236157D01*
X2504871D01*
Y236961D01*
X2504737D01*
Y238167D01*
X2504603D01*
Y238837D01*
X2504468D01*
Y240177D01*
X2504335D01*
Y241919D01*
X2504201D01*
Y243259D01*
X2504067D01*
Y248753D01*
X2503799D01*
Y248217D01*
X2503665D01*
Y247547D01*
X2503530D01*
Y247011D01*
X2503397D01*
Y246341D01*
X2503262D01*
Y245805D01*
X2503129D01*
Y245269D01*
X2502994D01*
Y244465D01*
X2502861D01*
Y244063D01*
X2502727D01*
Y243393D01*
X2502593D01*
Y242589D01*
X2502459D01*
Y242321D01*
X2502325D01*
Y241517D01*
X2502191D01*
Y240847D01*
X2502057D01*
Y240311D01*
X2501923D01*
Y239641D01*
X2501789D01*
Y239239D01*
X2501655D01*
Y238435D01*
X2501521D01*
Y237765D01*
X2501387D01*
Y237363D01*
X2501253D01*
Y236693D01*
X2501119D01*
Y236023D01*
X2500985D01*
Y235487D01*
X2500851D01*
Y234817D01*
X2500716D01*
Y234281D01*
X2500582D01*
Y233611D01*
X2500448D01*
Y232941D01*
X2500314D01*
Y232539D01*
X2500180D01*
Y231735D01*
X2500046D01*
Y231199D01*
X2499912D01*
Y230663D01*
X2499778D01*
Y229859D01*
X2499644D01*
Y229457D01*
X2499510D01*
Y228653D01*
X2499376D01*
Y228117D01*
X2499242D01*
Y227581D01*
X2499108D01*
Y226911D01*
X2498974D01*
Y226375D01*
X2498840D01*
Y225705D01*
X2498706D01*
Y225035D01*
X2498572D01*
Y224499D01*
X2498438D01*
Y223963D01*
X2498304D01*
Y223159D01*
X2498170D01*
Y222757D01*
X2498036D01*
Y221952D01*
X2497902D01*
Y221417D01*
X2497768D01*
Y220881D01*
X2497634D01*
Y220077D01*
X2497500D01*
Y219674D01*
X2497366D01*
Y219005D01*
X2497232D01*
Y218334D01*
X2497098D01*
Y217798D01*
X2496964D01*
Y217128D01*
X2496830D01*
Y216592D01*
X2496696D01*
Y215922D01*
X2496562D01*
Y215252D01*
X2496428D01*
Y214850D01*
X2496294D01*
Y214046D01*
X2496160D01*
Y213376D01*
X2496026D01*
Y212974D01*
X2495892D01*
Y212304D01*
X2495758D01*
Y211634D01*
X2495624D01*
Y211098D01*
X2495490D01*
Y210428D01*
X2495356D01*
Y209892D01*
X2495222D01*
Y209222D01*
X2495088D01*
Y208552D01*
X2494954D01*
Y208150D01*
X2494820D01*
Y207346D01*
X2494686D01*
Y206810D01*
X2494552D01*
Y206274D01*
X2494418D01*
Y205604D01*
X2494284D01*
Y205068D01*
X2494150D01*
Y204398D01*
X2494016D01*
Y203728D01*
X2493882D01*
Y203192D01*
X2493748D01*
Y202522D01*
X2493614D01*
Y201852D01*
X2493480D01*
Y201450D01*
X2493346D01*
Y200646D01*
X2493212D01*
Y200244D01*
X2493078D01*
Y199574D01*
X2492944D01*
Y198770D01*
X2492810D01*
Y198368D01*
X2492676D01*
Y197564D01*
X2492542D01*
Y197028D01*
X2492408D01*
Y196492D01*
X2492274D01*
Y195822D01*
X2492140D01*
Y195286D01*
X2492006D01*
Y194616D01*
X2491872D01*
Y193946D01*
X2491738D01*
Y193544D01*
X2491604D01*
Y192740D01*
X2491470D01*
Y192204D01*
X2491336D01*
Y191668D01*
X2491202D01*
Y190864D01*
X2491068D01*
Y190462D01*
X2490934D01*
Y189792D01*
X2490800D01*
Y188988D01*
X2490666D01*
Y188720D01*
X2490532D01*
Y187916D01*
X2490398D01*
Y187245D01*
X2490264D01*
Y186709D01*
X2490130D01*
Y186040D01*
X2489996D01*
Y185637D01*
X2489862D01*
Y184833D01*
X2489728D01*
Y184297D01*
X2489594D01*
Y183761D01*
X2489460D01*
Y183091D01*
X2489326D01*
Y182421D01*
X2489192D01*
Y181885D01*
X2489058D01*
Y181081D01*
X2488924D01*
Y180679D01*
X2488790D01*
Y180009D01*
X2488656D01*
Y179339D01*
X2488522D01*
Y178937D01*
X2488388D01*
Y178133D01*
X2488254D01*
Y177597D01*
X2488120D01*
Y176927D01*
X2487986D01*
Y176257D01*
X2487852D01*
Y175855D01*
X2487718D01*
Y175051D01*
X2487584D01*
Y174515D01*
X2487450D01*
Y173979D01*
X2487316D01*
Y173309D01*
X2487182D01*
Y172639D01*
X2487048D01*
Y172103D01*
X2486914D01*
Y171433D01*
X2486780D01*
Y170897D01*
X2486646D01*
Y170227D01*
X2486512D01*
Y169557D01*
X2486378D01*
Y169155D01*
X2486244D01*
Y168351D01*
X2486110D01*
Y167815D01*
X2485976D01*
Y167279D01*
X2485842D01*
Y166609D01*
X2485708D01*
Y166073D01*
X2485574D01*
Y165403D01*
X2485440D01*
Y164733D01*
X2485306D01*
Y164197D01*
X2485172D01*
Y163527D01*
X2485038D01*
Y162991D01*
X2484904D01*
Y162321D01*
X2484770D01*
Y161651D01*
X2484636D01*
Y161249D01*
X2484502D01*
Y160445D01*
X2484368D01*
Y159775D01*
X2484234D01*
Y159373D01*
X2484100D01*
Y158703D01*
X2483966D01*
Y158033D01*
X2483832D01*
Y157497D01*
X2483698D01*
Y156693D01*
X2483564D01*
Y156425D01*
X2483430D01*
Y155621D01*
X2483296D01*
Y154951D01*
X2483162D01*
Y154415D01*
X2483028D01*
Y153745D01*
X2482894D01*
Y153208D01*
X2482760D01*
Y152673D01*
X2482626D01*
Y152002D01*
X2482492D01*
Y151466D01*
X2482358D01*
Y150797D01*
X2482224D01*
Y150126D01*
X2482090D01*
Y149590D01*
X2481956D01*
Y148920D01*
X2481822D01*
Y148250D01*
X2481688D01*
Y147848D01*
X2481554D01*
Y147044D01*
X2481420D01*
Y146642D01*
X2481286D01*
Y145838D01*
X2481152D01*
Y145168D01*
X2481018D01*
Y144766D01*
X2480884D01*
Y143962D01*
X2480750D01*
Y143426D01*
X2480616D01*
Y142890D01*
X2480482D01*
Y142220D01*
X2480348D01*
Y141684D01*
X2480214D01*
Y141014D01*
X2480080D01*
Y140344D01*
X2479946D01*
Y139942D01*
X2479812D01*
Y139138D01*
X2479678D01*
Y138468D01*
X2479544D01*
Y138066D01*
X2479410D01*
Y137262D01*
X2479276D01*
Y136860D01*
X2479142D01*
Y136190D01*
X2479008D01*
Y135386D01*
X2478874D01*
Y134984D01*
X2478740D01*
Y134180D01*
X2478606D01*
Y133644D01*
X2478472D01*
Y133108D01*
X2478338D01*
Y132438D01*
X2478204D01*
Y131902D01*
X2478070D01*
Y131232D01*
X2477936D01*
Y130696D01*
X2477802D01*
Y130160D01*
X2477668D01*
Y129490D01*
X2477534D01*
Y128820D01*
X2477400D01*
Y128284D01*
X2477266D01*
Y127480D01*
X2477132D01*
Y127078D01*
X2476998D01*
Y126408D01*
X2476864D01*
Y125738D01*
X2476730D01*
Y125336D01*
X2476596D01*
Y124532D01*
X2476462D01*
Y123996D01*
X2476328D01*
Y123326D01*
X2476194D01*
Y122656D01*
X2476060D01*
Y122120D01*
X2475926D01*
Y121450D01*
X2475792D01*
Y120914D01*
X2475658D01*
Y120378D01*
X2475524D01*
Y119708D01*
X2475390D01*
Y119037D01*
X2475256D01*
Y118501D01*
X2475122D01*
Y117832D01*
X2474988D01*
Y117296D01*
X2474854D01*
Y116626D01*
X2474720D01*
Y115956D01*
X2474586D01*
Y115553D01*
X2474452D01*
Y114749D01*
X2474318D01*
Y114213D01*
X2474184D01*
Y113677D01*
X2474050D01*
Y113007D01*
X2473916D01*
Y112471D01*
X2473782D01*
Y111801D01*
X2473648D01*
Y111131D01*
X2473514D01*
Y110595D01*
X2473380D01*
Y109925D01*
X2473246D01*
Y109255D01*
X2473112D01*
Y108719D01*
X2472978D01*
Y108049D01*
X2472844D01*
Y107647D01*
X2472710D01*
Y107245D01*
X2468287D01*
Y107513D01*
X2468421D01*
Y108183D01*
X2468555D01*
Y108719D01*
X2468689D01*
Y109389D01*
X2468823D01*
Y109791D01*
X2468958D01*
Y110595D01*
X2469091D01*
Y111265D01*
X2469226D01*
Y111667D01*
X2469360D01*
Y112337D01*
X2469494D01*
Y113007D01*
X2469628D01*
Y113409D01*
X2469762D01*
Y114079D01*
X2469896D01*
Y114615D01*
X2470030D01*
Y115285D01*
X2470164D01*
Y115956D01*
X2470298D01*
Y116491D01*
X2470432D01*
Y117162D01*
X2470566D01*
Y117698D01*
X2470700D01*
Y118234D01*
X2470834D01*
Y118904D01*
X2470968D01*
Y119305D01*
X2471102D01*
Y119976D01*
X2471236D01*
Y120780D01*
X2471370D01*
Y121182D01*
X2471504D01*
Y121852D01*
X2471638D01*
Y122388D01*
X2471772D01*
Y122924D01*
X2471906D01*
Y123594D01*
X2472040D01*
Y124130D01*
X2472174D01*
Y124800D01*
X2472308D01*
Y125470D01*
X2472442D01*
Y125872D01*
X2472576D01*
Y126676D01*
X2472710D01*
Y127212D01*
X2472844D01*
Y127748D01*
X2472978D01*
Y128418D01*
X2473112D01*
Y128954D01*
X2473246D01*
Y129490D01*
X2473380D01*
Y130294D01*
X2473514D01*
Y130696D01*
X2473648D01*
Y131366D01*
X2473782D01*
Y132036D01*
X2473916D01*
Y132572D01*
X2474050D01*
Y133242D01*
X2474184D01*
Y133644D01*
X2474318D01*
Y134448D01*
X2474452D01*
Y134984D01*
X2474586D01*
Y135520D01*
X2474720D01*
Y136190D01*
X2474854D01*
Y136726D01*
X2474988D01*
Y137262D01*
X2475122D01*
Y138066D01*
X2475256D01*
Y138334D01*
X2475390D01*
Y139138D01*
X2475524D01*
Y139808D01*
X2475658D01*
Y140210D01*
X2475792D01*
Y140880D01*
X2475926D01*
Y141550D01*
X2476060D01*
Y142086D01*
X2476194D01*
Y142756D01*
X2476328D01*
Y143158D01*
X2476462D01*
Y143828D01*
X2476596D01*
Y144498D01*
X2476730D01*
Y145034D01*
X2476864D01*
Y145704D01*
X2476998D01*
Y146240D01*
X2477132D01*
Y146776D01*
X2477266D01*
Y147580D01*
X2477400D01*
Y147982D01*
X2477534D01*
Y148652D01*
X2477668D01*
Y149322D01*
X2477802D01*
Y149724D01*
X2477936D01*
Y150529D01*
X2478070D01*
Y151065D01*
X2478204D01*
Y151601D01*
X2478338D01*
Y152270D01*
X2478472D01*
Y152806D01*
X2478606D01*
Y153476D01*
X2478740D01*
Y154147D01*
X2478874D01*
Y154549D01*
X2479008D01*
Y155219D01*
X2479142D01*
Y155889D01*
X2479276D01*
Y156425D01*
X2479410D01*
Y157095D01*
X2479544D01*
Y157497D01*
X2479678D01*
Y158167D01*
X2479812D01*
Y158971D01*
X2479946D01*
Y159239D01*
X2480080D01*
Y160043D01*
X2480214D01*
Y160579D01*
X2480348D01*
Y161115D01*
X2480482D01*
Y161919D01*
X2480616D01*
Y162321D01*
X2480750D01*
Y162991D01*
X2480884D01*
Y163661D01*
X2481018D01*
Y164197D01*
X2481152D01*
Y164867D01*
X2481286D01*
Y165403D01*
X2481420D01*
Y165939D01*
X2481554D01*
Y166609D01*
X2481688D01*
Y167145D01*
X2481822D01*
Y167815D01*
X2481956D01*
Y168485D01*
X2482090D01*
Y168887D01*
X2482224D01*
Y169691D01*
X2482358D01*
Y170227D01*
X2482492D01*
Y170763D01*
X2482626D01*
Y171433D01*
X2482760D01*
Y171835D01*
X2482894D01*
Y172505D01*
X2483028D01*
Y173309D01*
X2483162D01*
Y173711D01*
X2483296D01*
Y174381D01*
X2483430D01*
Y175051D01*
X2483564D01*
Y175453D01*
X2483698D01*
Y176257D01*
X2483832D01*
Y176659D01*
X2483966D01*
Y177329D01*
X2484100D01*
Y177999D01*
X2484234D01*
Y178535D01*
X2484368D01*
Y179205D01*
X2484502D01*
Y179741D01*
X2484636D01*
Y180411D01*
X2484770D01*
Y180947D01*
X2484904D01*
Y181483D01*
X2485038D01*
Y182153D01*
X2485172D01*
Y182823D01*
X2485306D01*
Y183359D01*
X2485440D01*
Y184029D01*
X2485574D01*
Y184565D01*
X2485708D01*
Y185101D01*
X2485842D01*
Y185771D01*
X2485976D01*
Y186308D01*
X2486110D01*
Y186977D01*
X2486244D01*
Y187648D01*
X2486378D01*
Y188049D01*
X2486512D01*
Y188854D01*
X2486646D01*
Y189390D01*
X2486780D01*
Y189926D01*
X2486914D01*
Y190596D01*
X2487048D01*
Y191132D01*
X2487182D01*
Y191668D01*
X2487316D01*
Y192472D01*
X2487450D01*
Y192874D01*
X2487584D01*
Y193544D01*
X2487718D01*
Y194214D01*
X2487852D01*
Y194750D01*
X2487986D01*
Y195420D01*
X2488120D01*
Y195822D01*
X2488254D01*
Y196626D01*
X2488388D01*
Y197296D01*
X2488522D01*
Y197698D01*
X2488656D01*
Y198368D01*
X2488790D01*
Y199038D01*
X2488924D01*
Y199440D01*
X2489058D01*
Y200244D01*
X2489192D01*
Y200780D01*
X2489326D01*
Y201316D01*
X2489460D01*
Y202120D01*
X2489594D01*
Y202522D01*
X2489728D01*
Y203192D01*
X2489862D01*
Y203862D01*
X2489996D01*
Y204398D01*
X2490130D01*
Y205068D01*
X2490264D01*
Y205470D01*
X2490398D01*
Y206140D01*
X2490532D01*
Y206944D01*
X2490666D01*
Y207346D01*
X2490800D01*
Y208016D01*
X2490934D01*
Y208686D01*
X2491068D01*
Y209222D01*
X2491202D01*
Y209892D01*
X2491336D01*
Y210428D01*
X2491470D01*
Y211098D01*
X2491604D01*
Y211768D01*
X2491738D01*
Y212170D01*
X2491872D01*
Y212974D01*
X2492006D01*
Y213510D01*
X2492140D01*
Y214046D01*
X2492274D01*
Y214716D01*
X2492408D01*
Y215118D01*
X2492542D01*
Y215922D01*
X2492676D01*
Y216592D01*
X2492810D01*
Y216994D01*
X2492944D01*
Y217664D01*
X2493078D01*
Y218334D01*
X2493212D01*
Y218870D01*
X2493346D01*
Y219541D01*
X2493480D01*
Y220077D01*
X2493614D01*
Y220613D01*
X2493748D01*
Y221417D01*
X2493882D01*
Y221819D01*
X2494016D01*
Y222623D01*
X2494150D01*
Y223159D01*
X2494284D01*
Y223695D01*
X2494418D01*
Y224365D01*
X2494552D01*
Y224901D01*
X2494686D01*
Y225571D01*
X2494820D01*
Y226241D01*
X2494954D01*
Y226643D01*
X2495088D01*
Y227447D01*
X2495222D01*
Y227983D01*
X2495356D01*
Y228653D01*
X2495490D01*
Y229323D01*
X2495624D01*
Y229725D01*
X2495758D01*
Y230395D01*
X2495892D01*
Y231199D01*
X2496026D01*
Y231601D01*
X2496160D01*
Y232271D01*
X2496294D01*
Y232941D01*
X2496428D01*
Y233477D01*
X2496562D01*
Y234147D01*
X2496696D01*
Y234683D01*
X2496830D01*
Y235353D01*
X2496964D01*
Y236023D01*
X2497098D01*
Y236425D01*
X2497232D01*
Y237229D01*
X2497366D01*
Y237765D01*
X2497500D01*
Y238301D01*
X2497634D01*
Y239105D01*
X2497768D01*
Y239641D01*
X2497902D01*
Y240311D01*
X2498036D01*
Y240981D01*
X2498170D01*
Y241383D01*
X2498304D01*
Y242187D01*
X2498438D01*
Y242723D01*
X2498572D01*
Y243393D01*
X2498706D01*
Y244063D01*
X2498840D01*
Y244599D01*
X2498974D01*
Y245269D01*
X2499108D01*
Y245939D01*
X2499242D01*
Y246475D01*
X2499376D01*
Y247279D01*
X2499510D01*
Y247815D01*
X2499644D01*
Y248351D01*
X2499778D01*
Y249021D01*
X2499912D01*
Y249557D01*
X2500046D01*
Y250227D01*
X2500180D01*
Y250897D01*
X2500314D01*
Y251433D01*
X2500448D01*
Y252103D01*
X2500582D01*
Y252639D01*
X2500716D01*
Y253309D01*
X2500851D01*
Y253979D01*
X2500985D01*
Y254247D01*
X2501119D01*
Y254917D01*
X2501253D01*
Y255588D01*
X2501387D01*
Y255989D01*
X2501521D01*
Y256660D01*
X2501655D01*
Y257196D01*
X2501789D01*
Y257731D01*
X2501923D01*
Y258267D01*
X2502057D01*
Y258670D01*
X2502191D01*
Y259340D01*
X2502325D01*
Y259876D01*
X2502459D01*
Y260278D01*
X2502593D01*
Y260948D01*
X2502727D01*
Y261350D01*
X2502861D01*
Y261886D01*
X2502994D01*
Y262422D01*
X2503129D01*
Y262824D01*
X2503262D01*
Y263360D01*
X2503397D01*
Y263896D01*
X2503530D01*
Y264298D01*
X2503665D01*
Y264834D01*
X2503799D01*
Y265236D01*
X2503933D01*
Y265638D01*
X2504067D01*
Y266174D01*
X2504201D01*
Y266576D01*
X2504335D01*
Y267112D01*
X2504468D01*
Y267648D01*
X2504603D01*
Y267916D01*
X2504737D01*
Y268452D01*
X2504871D01*
Y268854D01*
X2505005D01*
Y269256D01*
X2505139D01*
Y269792D01*
X2505273D01*
Y270060D01*
X2505407D01*
Y270462D01*
X2505541D01*
Y270998D01*
X2505675D01*
Y271266D01*
X2505809D01*
Y271802D01*
X2505943D01*
Y272204D01*
X2506077D01*
Y272472D01*
X2506211D01*
Y273008D01*
X2506345D01*
Y273276D01*
X2506479D01*
Y273678D01*
X2506613D01*
Y274214D01*
X2506747D01*
Y274482D01*
X2506881D01*
Y274884D01*
X2507015D01*
Y275286D01*
X2507149D01*
Y275554D01*
X2507283D01*
Y275956D01*
X2507417D01*
Y276358D01*
X2507551D01*
Y276760D01*
X2507685D01*
Y277162D01*
X2507819D01*
Y277430D01*
X2507953D01*
Y277832D01*
X2508087D01*
Y278100D01*
X2508221D01*
Y278502D01*
X2508355D01*
Y278904D01*
X2508489D01*
Y279172D01*
X2508623D01*
Y279440D01*
X2508757D01*
Y279842D01*
X2508891D01*
Y280110D01*
X2509025D01*
Y280512D01*
X2509159D01*
Y280780D01*
X2509293D01*
Y281048D01*
X2509427D01*
Y281450D01*
X2509561D01*
Y281718D01*
X2509695D01*
Y281986D01*
X2509829D01*
Y282388D01*
X2509963D01*
Y282522D01*
X2510097D01*
Y282924D01*
X2510231D01*
Y283192D01*
X2510365D01*
Y283460D01*
X2510499D01*
Y283862D01*
X2510633D01*
Y283996D01*
X2510767D01*
Y284398D01*
X2510901D01*
Y284666D01*
X2511035D01*
Y284934D01*
X2511169D01*
Y285202D01*
X2511303D01*
Y285470D01*
X2511437D01*
Y285738D01*
X2511571D01*
Y286140D01*
X2511705D01*
Y286274D01*
X2511839D01*
Y286542D01*
X2511973D01*
Y286810D01*
X2512107D01*
Y287078D01*
X2512241D01*
Y287346D01*
X2512375D01*
Y287614D01*
X2512509D01*
Y287748D01*
X2512643D01*
Y288150D01*
X2512777D01*
Y288284D01*
X2512911D01*
Y288553D01*
X2513045D01*
Y288820D01*
X2513179D01*
Y288954D01*
X2513313D01*
Y289356D01*
X2513447D01*
Y289490D01*
X2513581D01*
Y289759D01*
X2513715D01*
Y290026D01*
X2513849D01*
Y290161D01*
X2513983D01*
Y290428D01*
X2514117D01*
Y290697D01*
X2514251D01*
Y290830D01*
X2514385D01*
Y291099D01*
X2514519D01*
Y291233D01*
X2514653D01*
Y291501D01*
X2514787D01*
Y291769D01*
X2514921D01*
Y291902D01*
X2515055D01*
Y292171D01*
X2515189D01*
Y292305D01*
X2515323D01*
Y292439D01*
X2515457D01*
Y292707D01*
X2515591D01*
Y292975D01*
X2515725D01*
Y293109D01*
X2515859D01*
Y293243D01*
X2515993D01*
Y293511D01*
X2516127D01*
Y293645D01*
X2516261D01*
Y293913D01*
X2516395D01*
Y294047D01*
X2516529D01*
Y294181D01*
X2516663D01*
Y294315D01*
X2516797D01*
Y294449D01*
X2516931D01*
Y294583D01*
X2517199D01*
Y294717D01*
X2517467D01*
Y294851D01*
X2517735D01*
Y294985D01*
X2518003D01*
Y295119D01*
X2518271D01*
Y295253D01*
X2518673D01*
Y295387D01*
X2518807D01*
Y295521D01*
X2519209D01*
Y295655D01*
X2519477D01*
Y295789D01*
X2519745D01*
Y295923D01*
X2520147D01*
Y296057D01*
X2520415D01*
Y296191D01*
X2520683D01*
Y296325D01*
X2521085D01*
Y296459D01*
X2521353D01*
Y296593D01*
X2521755D01*
Y296727D01*
X2522157D01*
Y296861D01*
X2522425D01*
Y296995D01*
X2522961D01*
Y297129D01*
X2523363D01*
Y297263D01*
X2523765D01*
Y297129D01*
X2523631D01*
Y296995D01*
X2523497D01*
Y296861D01*
X2523363D01*
Y296593D01*
X2523229D01*
Y296459D01*
X2523095D01*
Y296325D01*
X2522961D01*
Y296057D01*
X2522827D01*
Y295923D01*
X2522693D01*
Y295655D01*
X2522559D01*
Y295521D01*
X2522425D01*
Y295387D01*
X2522291D01*
Y295119D01*
X2522157D01*
Y294985D01*
X2522023D01*
Y294851D01*
X2521889D01*
Y294583D01*
X2521755D01*
Y294449D01*
X2521621D01*
Y294181D01*
X2521487D01*
Y294047D01*
X2521353D01*
Y293913D01*
X2521219D01*
Y293645D01*
X2521085D01*
Y293511D01*
X2520951D01*
Y293243D01*
X2520817D01*
Y292975D01*
X2520683D01*
Y292841D01*
X2520549D01*
Y292707D01*
X2520415D01*
Y292439D01*
X2520281D01*
Y292305D01*
X2520147D01*
Y292037D01*
X2520013D01*
Y291902D01*
X2519879D01*
Y291635D01*
X2519745D01*
Y291366D01*
X2519611D01*
Y291233D01*
X2519477D01*
Y290964D01*
X2519343D01*
Y290697D01*
X2519209D01*
Y290562D01*
X2519075D01*
Y290295D01*
X2518941D01*
Y290161D01*
X2518807D01*
Y289892D01*
X2518673D01*
Y289624D01*
X2518539D01*
Y289490D01*
X2518405D01*
Y289223D01*
X2518271D01*
Y288954D01*
X2518137D01*
Y288686D01*
X2518003D01*
Y288418D01*
X2517869D01*
Y288284D01*
X2517735D01*
Y288017D01*
X2517601D01*
Y287748D01*
X2517467D01*
Y287480D01*
X2517333D01*
Y287346D01*
X2517199D01*
Y287078D01*
X2517065D01*
Y286810D01*
X2516931D01*
Y286542D01*
X2516797D01*
Y286274D01*
X2516663D01*
Y286006D01*
X2516529D01*
Y285738D01*
X2516395D01*
Y285470D01*
X2516261D01*
Y285202D01*
X2516127D01*
Y284934D01*
X2515993D01*
Y284666D01*
X2515859D01*
Y284398D01*
X2515725D01*
Y284130D01*
X2515591D01*
Y283862D01*
X2515457D01*
Y283594D01*
X2515323D01*
Y283326D01*
X2515189D01*
Y283058D01*
X2515055D01*
Y282790D01*
X2514921D01*
Y282522D01*
X2514787D01*
Y282120D01*
X2514653D01*
Y281852D01*
X2514519D01*
Y281584D01*
X2514385D01*
Y281182D01*
X2514251D01*
Y280914D01*
X2514117D01*
Y280646D01*
X2513983D01*
Y280244D01*
X2513849D01*
Y279976D01*
X2513715D01*
Y279574D01*
X2513581D01*
Y279440D01*
X2513447D01*
Y279038D01*
X2513313D01*
Y278636D01*
X2513179D01*
Y278368D01*
X2513045D01*
Y277966D01*
X2512911D01*
Y277564D01*
X2512777D01*
Y277296D01*
X2512643D01*
Y276894D01*
X2512509D01*
Y276626D01*
X2512375D01*
Y276224D01*
X2512241D01*
Y275822D01*
X2512107D01*
Y275420D01*
X2511973D01*
Y275018D01*
X2511839D01*
Y274616D01*
X2511705D01*
Y274348D01*
X2511571D01*
Y273812D01*
X2511437D01*
Y273544D01*
X2511303D01*
Y273008D01*
X2511169D01*
Y272472D01*
X2511035D01*
Y272204D01*
X2510901D01*
Y271668D01*
X2510767D01*
Y271266D01*
X2510633D01*
Y270730D01*
X2510499D01*
Y270194D01*
X2510365D01*
Y269792D01*
X2510231D01*
Y269256D01*
X2510097D01*
Y268720D01*
X2509963D01*
Y268318D01*
X2509829D01*
Y267648D01*
X2509695D01*
Y267112D01*
X2509561D01*
Y266576D01*
X2509427D01*
Y265772D01*
X2509293D01*
Y265236D01*
X2509159D01*
Y264432D01*
X2509025D01*
Y263762D01*
X2508891D01*
Y263226D01*
X2508757D01*
Y262288D01*
X2508623D01*
Y261350D01*
X2508489D01*
Y260680D01*
X2508355D01*
Y259340D01*
X2508221D01*
Y258536D01*
X2508087D01*
Y256928D01*
X2507953D01*
Y254917D01*
X2507819D01*
Y251969D01*
X2507685D01*
Y249825D01*
X2507819D01*
Y246877D01*
X2507953D01*
Y244733D01*
X2508087D01*
Y242991D01*
X2508221D01*
Y241919D01*
X2508355D01*
Y240847D01*
X2508489D01*
Y239909D01*
X2508623D01*
Y238971D01*
X2508757D01*
Y238167D01*
X2508891D01*
Y237497D01*
X2509025D01*
Y236693D01*
X2509159D01*
Y235889D01*
X2509293D01*
Y235353D01*
X2509427D01*
Y234683D01*
X2509561D01*
Y234147D01*
X2509695D01*
Y233611D01*
X2509829D01*
Y232941D01*
X2509963D01*
Y232405D01*
X2510097D01*
Y231869D01*
X2510231D01*
Y231333D01*
X2510365D01*
Y230931D01*
X2510499D01*
Y230261D01*
X2510633D01*
Y229859D01*
X2510767D01*
Y229457D01*
X2510901D01*
Y228921D01*
X2511035D01*
Y228653D01*
X2511169D01*
Y228117D01*
X2511303D01*
Y227581D01*
X2511437D01*
Y227313D01*
X2511571D01*
Y226777D01*
X2511705D01*
Y226509D01*
X2511839D01*
Y226107D01*
X2511973D01*
Y225571D01*
X2512107D01*
Y225303D01*
X2512241D01*
Y224901D01*
X2512375D01*
Y224499D01*
X2512509D01*
Y224231D01*
X2512643D01*
Y223829D01*
X2512777D01*
Y223427D01*
X2512911D01*
Y223159D01*
X2513045D01*
Y222757D01*
X2513179D01*
Y222488D01*
X2513313D01*
Y222087D01*
X2513447D01*
Y221685D01*
X2513581D01*
Y221550D01*
X2513715D01*
Y221149D01*
X2513849D01*
Y220881D01*
X2513983D01*
Y220613D01*
X2514117D01*
Y220210D01*
X2514251D01*
Y219942D01*
X2514385D01*
Y219674D01*
X2514519D01*
Y219273D01*
X2514653D01*
Y219138D01*
X2514787D01*
Y218736D01*
X2514921D01*
Y218468D01*
X2515055D01*
Y218200D01*
X2515189D01*
Y217798D01*
X2515323D01*
Y217664D01*
X2515457D01*
Y217262D01*
X2515591D01*
Y216994D01*
X2515725D01*
Y216860D01*
X2515859D01*
Y216458D01*
X2515993D01*
Y216190D01*
X2516127D01*
Y216056D01*
X2516261D01*
Y215654D01*
X2516395D01*
Y215520D01*
X2516529D01*
Y215252D01*
X2516663D01*
Y214984D01*
X2516797D01*
Y214716D01*
X2516931D01*
Y214448D01*
X2517065D01*
Y214180D01*
X2517199D01*
Y214046D01*
X2517333D01*
Y213778D01*
X2517467D01*
Y213510D01*
X2517601D01*
Y213242D01*
X2517735D01*
Y212974D01*
X2517869D01*
Y212840D01*
X2518003D01*
Y212572D01*
X2518137D01*
Y212304D01*
X2518271D01*
Y212170D01*
X2518405D01*
Y211902D01*
X2518539D01*
Y211634D01*
X2518673D01*
Y211366D01*
X2518807D01*
Y211232D01*
X2518941D01*
Y210964D01*
X2519075D01*
Y210696D01*
X2519209D01*
Y210562D01*
X2519343D01*
Y210294D01*
X2519477D01*
Y210160D01*
X2519611D01*
Y209892D01*
X2519745D01*
Y209758D01*
X2519879D01*
Y209490D01*
X2520013D01*
Y209356D01*
X2520147D01*
Y209088D01*
X2520281D01*
Y208820D01*
X2520415D01*
Y208686D01*
X2520549D01*
Y208418D01*
X2520683D01*
Y208284D01*
X2520817D01*
Y208016D01*
X2520951D01*
Y207882D01*
X2521085D01*
Y207748D01*
X2521219D01*
Y207480D01*
X2521353D01*
Y207212D01*
X2521487D01*
Y207078D01*
X2521621D01*
Y206810D01*
X2521755D01*
Y206676D01*
X2521889D01*
Y206542D01*
X2522023D01*
Y206274D01*
X2522157D01*
Y206140D01*
X2522291D01*
Y206006D01*
X2522425D01*
Y205738D01*
X2522559D01*
Y205604D01*
X2522693D01*
Y205336D01*
X2522827D01*
Y205202D01*
X2522961D01*
Y205068D01*
X2523095D01*
Y204800D01*
X2523229D01*
Y204666D01*
X2523363D01*
Y204532D01*
X2523497D01*
Y204264D01*
X2523631D01*
Y204130D01*
X2523765D01*
Y203996D01*
X2523899D01*
Y203862D01*
X2524033D01*
Y203594D01*
X2524167D01*
Y203460D01*
X2524301D01*
Y203326D01*
X2524435D01*
Y203192D01*
X2524569D01*
Y202924D01*
X2524703D01*
Y202790D01*
X2524837D01*
Y202656D01*
X2524971D01*
Y202522D01*
X2525105D01*
Y202254D01*
X2525239D01*
Y202120D01*
X2525373D01*
Y201986D01*
X2525507D01*
Y201852D01*
X2525641D01*
Y201718D01*
X2525775D01*
Y201584D01*
X2525909D01*
Y201316D01*
X2526043D01*
Y201182D01*
X2526177D01*
Y201048D01*
X2526311D01*
Y200914D01*
X2526445D01*
Y200780D01*
X2526579D01*
Y200512D01*
X2526713D01*
Y200378D01*
X2526847D01*
Y200244D01*
X2526981D01*
Y200110D01*
X2527115D01*
Y199976D01*
X2527249D01*
Y199842D01*
X2527383D01*
Y199574D01*
X2527517D01*
Y199440D01*
X2527651D01*
Y199306D01*
X2527785D01*
Y199172D01*
X2527919D01*
Y199038D01*
X2528053D01*
Y198904D01*
X2528187D01*
Y198770D01*
X2528321D01*
Y198636D01*
X2528455D01*
Y198502D01*
X2528589D01*
Y198368D01*
X2528723D01*
Y198234D01*
X2528857D01*
Y198100D01*
X2528991D01*
Y197966D01*
X2529125D01*
Y197698D01*
X2529259D01*
Y197564D01*
X2529393D01*
Y197430D01*
X2529527D01*
Y197296D01*
X2529661D01*
Y197162D01*
X2529795D01*
Y197028D01*
X2529929D01*
Y196894D01*
X2530063D01*
Y196760D01*
X2530197D01*
Y196626D01*
X2530331D01*
Y196492D01*
X2530465D01*
Y196358D01*
X2530599D01*
Y196224D01*
X2530733D01*
Y196090D01*
X2530867D01*
Y195956D01*
X2531001D01*
Y195822D01*
X2531135D01*
Y195688D01*
X2531269D01*
Y195554D01*
X2531537D01*
Y195420D01*
X2531671D01*
Y195152D01*
X2531939D01*
Y195018D01*
X2532073D01*
Y194884D01*
X2532207D01*
Y194750D01*
X2532341D01*
Y194616D01*
X2532475D01*
Y194482D01*
X2532609D01*
Y194348D01*
X2532743D01*
Y194214D01*
X2532877D01*
Y194080D01*
X2533011D01*
Y193946D01*
X2533145D01*
Y193812D01*
X2533279D01*
Y193678D01*
X2533547D01*
Y193544D01*
X2533681D01*
Y193410D01*
X2533815D01*
Y193276D01*
X2533950D01*
Y193142D01*
X2534083D01*
Y193008D01*
X2534218D01*
Y192874D01*
X2534351D01*
Y192740D01*
X2534619D01*
Y192606D01*
X2534753D01*
Y192472D01*
X2534887D01*
Y192338D01*
X2535021D01*
Y192204D01*
X2535155D01*
Y192070D01*
X2535289D01*
Y191936D01*
X2535557D01*
Y191802D01*
X2535691D01*
Y191668D01*
X2535825D01*
Y191534D01*
X2535959D01*
Y191400D01*
X2536093D01*
Y191266D01*
X2536361D01*
Y191132D01*
X2536495D01*
Y190998D01*
X2536630D01*
Y190864D01*
X2536898D01*
Y190730D01*
X2537032D01*
Y190596D01*
X2537166D01*
Y190462D01*
X2537300D01*
Y190328D01*
X2537434D01*
Y190194D01*
X2537702D01*
Y190060D01*
X2537836D01*
Y189926D01*
X2537970D01*
Y189792D01*
X2538238D01*
Y189658D01*
X2538372D01*
Y189524D01*
X2538506D01*
Y189390D01*
X2538774D01*
Y189256D01*
X2538908D01*
Y189122D01*
X2539042D01*
Y188988D01*
X2539310D01*
Y188854D01*
X2539444D01*
Y188720D01*
X2539712D01*
Y188586D01*
X2539846D01*
Y188452D01*
X2539980D01*
Y188317D01*
X2540248D01*
Y188184D01*
X2540382D01*
Y188049D01*
X2540650D01*
Y187916D01*
X2540784D01*
Y187781D01*
X2540918D01*
Y187648D01*
X2541186D01*
Y187513D01*
X2541320D01*
Y187380D01*
X2541588D01*
Y187245D01*
X2541722D01*
Y187112D01*
X2541856D01*
Y186977D01*
X2542124D01*
Y186844D01*
X2542392D01*
Y186709D01*
X2542526D01*
Y186576D01*
X2542794D01*
Y186441D01*
X2542928D01*
Y186308D01*
X2543196D01*
Y186173D01*
X2543330D01*
Y186040D01*
X2543598D01*
Y185905D01*
X2543732D01*
Y185771D01*
X2544000D01*
Y185637D01*
X2544134D01*
Y185503D01*
X2544536D01*
Y185369D01*
X2544670D01*
Y185235D01*
X2544938D01*
Y185101D01*
X2545072D01*
Y184967D01*
X2545340D01*
Y184833D01*
X2545608D01*
Y184699D01*
X2545742D01*
Y184565D01*
X2546010D01*
Y184431D01*
X2546278D01*
Y184297D01*
X2546412D01*
Y184163D01*
X2546680D01*
Y184029D01*
X2546948D01*
Y183895D01*
X2547082D01*
Y183761D01*
X2547484D01*
Y183627D01*
X2547618D01*
Y183493D01*
X2547886D01*
Y183359D01*
X2548154D01*
Y183225D01*
X2548288D01*
Y183091D01*
X2548690D01*
Y182957D01*
X2548958D01*
Y182823D01*
X2549092D01*
Y182689D01*
X2549360D01*
Y182555D01*
X2549628D01*
Y182421D01*
X2549896D01*
Y182287D01*
X2550164D01*
Y182153D01*
X2550432D01*
Y182019D01*
X2550700D01*
Y181885D01*
X2550968D01*
Y181751D01*
X2551236D01*
Y181617D01*
X2551504D01*
Y181483D01*
X2551906D01*
Y181349D01*
X2552040D01*
Y181215D01*
X2552442D01*
Y181081D01*
X2552576D01*
Y180947D01*
X2552978D01*
Y180813D01*
X2553246D01*
Y180679D01*
X2553514D01*
Y180545D01*
X2553916D01*
Y180411D01*
X2554184D01*
Y180277D01*
X2554452D01*
Y180143D01*
X2554854D01*
Y180009D01*
X2555122D01*
Y179875D01*
X2555390D01*
Y179741D01*
X2555792D01*
Y179607D01*
X2556060D01*
Y179473D01*
X2556462D01*
Y179339D01*
X2556730D01*
Y179205D01*
X2557132D01*
Y179071D01*
X2557534D01*
Y178937D01*
X2557802D01*
Y178803D01*
X2558204D01*
Y178669D01*
X2558606D01*
Y178535D01*
X2558874D01*
Y178401D01*
X2559276D01*
Y178267D01*
X2559678D01*
Y178133D01*
X2560080D01*
Y177999D01*
X2560616D01*
Y177865D01*
X2560884D01*
Y177731D01*
X2561286D01*
Y177597D01*
X2561822D01*
Y177463D01*
X2562090D01*
Y177329D01*
X2562626D01*
Y177195D01*
X2563028D01*
Y177061D01*
X2563430D01*
Y176927D01*
X2563966D01*
Y176793D01*
X2564368D01*
Y176659D01*
X2565038D01*
Y176525D01*
X2565574D01*
Y176391D01*
X2565842D01*
Y176257D01*
X2566512D01*
Y176123D01*
X2567048D01*
Y175989D01*
X2567584D01*
Y175855D01*
X2568254D01*
Y175721D01*
X2568790D01*
Y175587D01*
X2569595D01*
Y175453D01*
X2570265D01*
Y175319D01*
X2570800D01*
Y175185D01*
X2571738D01*
Y175051D01*
X2572543D01*
Y174917D01*
X2573347D01*
Y174783D01*
X2574419D01*
Y174649D01*
X2575223D01*
Y174515D01*
X2576563D01*
Y174381D01*
X2578171D01*
Y174247D01*
X2579511D01*
Y174113D01*
X2582593D01*
Y173979D01*
X2582727D01*
Y174113D01*
X2582861D01*
Y173979D01*
X2586211D01*
Y174113D01*
X2586345D01*
Y173979D01*
X2586747D01*
Y174113D01*
X2590097D01*
Y174247D01*
X2591437D01*
Y174381D01*
X2592911D01*
Y174515D01*
X2594251D01*
Y174649D01*
X2595055D01*
Y174783D01*
X2596261D01*
Y174917D01*
X2596931D01*
Y175051D01*
X2597735D01*
Y175185D01*
X2598673D01*
Y175319D01*
X2599209D01*
Y175453D01*
X2599879D01*
Y175587D01*
X2600683D01*
Y175721D01*
X2601219D01*
Y175855D01*
X2601889D01*
Y175989D01*
X2602291D01*
Y176123D01*
X2602827D01*
Y176257D01*
X2603497D01*
Y176391D01*
X2604034D01*
Y176525D01*
X2604569D01*
Y176659D01*
X2605106D01*
Y176793D01*
X2605508D01*
Y176927D01*
X2606044D01*
Y177061D01*
X2606445D01*
Y177195D01*
X2606847D01*
Y177329D01*
X2607383D01*
Y177463D01*
X2607652D01*
Y177597D01*
X2608188D01*
Y177731D01*
X2608590D01*
Y177865D01*
X2608992D01*
Y177999D01*
X2609394D01*
Y178133D01*
X2609796D01*
Y178267D01*
X2610198D01*
Y178401D01*
X2610600D01*
Y178535D01*
X2610868D01*
Y178669D01*
X2611270D01*
Y178803D01*
X2611672D01*
Y178937D01*
X2611940D01*
Y179071D01*
X2612342D01*
Y179205D01*
X2612744D01*
Y179339D01*
X2613012D01*
Y179473D01*
X2613414D01*
Y179607D01*
X2613682D01*
Y179741D01*
X2614084D01*
Y179875D01*
X2614352D01*
Y180009D01*
X2614620D01*
Y180143D01*
X2615022D01*
Y180277D01*
X2615290D01*
Y180411D01*
X2615558D01*
Y180545D01*
X2615960D01*
Y180679D01*
X2616228D01*
Y180813D01*
X2616496D01*
Y180947D01*
X2616898D01*
Y181081D01*
X2617032D01*
Y181215D01*
X2617434D01*
Y181349D01*
X2617702D01*
Y181483D01*
X2617970D01*
Y181617D01*
X2618238D01*
Y181751D01*
X2618506D01*
Y181885D01*
X2618774D01*
Y182019D01*
X2619042D01*
Y182153D01*
X2619310D01*
Y182287D01*
X2619578D01*
Y182421D01*
X2619846D01*
Y182555D01*
X2620114D01*
Y182689D01*
X2620382D01*
Y182823D01*
X2620516D01*
Y182957D01*
X2620784D01*
Y183091D01*
X2621186D01*
Y183225D01*
X2621320D01*
Y183359D01*
X2621588D01*
Y183493D01*
X2621856D01*
Y183627D01*
X2621990D01*
Y183761D01*
X2622392D01*
Y183895D01*
X2622526D01*
Y184029D01*
X2622794D01*
Y184163D01*
X2623062D01*
Y184297D01*
X2623196D01*
Y184431D01*
X2623464D01*
Y184565D01*
X2623732D01*
Y184699D01*
X2623866D01*
Y184833D01*
X2624134D01*
Y184967D01*
X2624402D01*
Y185101D01*
X2624536D01*
Y185235D01*
X2624804D01*
Y185369D01*
X2625072D01*
Y185503D01*
X2625340D01*
Y185637D01*
X2625474D01*
Y185771D01*
X2625608D01*
Y185905D01*
X2625876D01*
Y186040D01*
X2626144D01*
Y186173D01*
X2626278D01*
Y186308D01*
X2626546D01*
Y186441D01*
X2626680D01*
Y186576D01*
X2626948D01*
Y186709D01*
X2627082D01*
Y186844D01*
X2627350D01*
Y186977D01*
X2627618D01*
Y187112D01*
X2627752D01*
Y187245D01*
X2627886D01*
Y187380D01*
X2628154D01*
Y187513D01*
X2628288D01*
Y187648D01*
X2628556D01*
Y187781D01*
X2628690D01*
Y187916D01*
X2628958D01*
Y188049D01*
X2629092D01*
Y188184D01*
X2629226D01*
Y188317D01*
X2629494D01*
Y188452D01*
X2629628D01*
Y188586D01*
X2629762D01*
Y188720D01*
X2630030D01*
Y188854D01*
X2630164D01*
Y188988D01*
X2630432D01*
Y189122D01*
X2630566D01*
Y189256D01*
X2630700D01*
Y189390D01*
X2630968D01*
Y189524D01*
X2631102D01*
Y189658D01*
X2631236D01*
Y189792D01*
X2631504D01*
Y189926D01*
X2631638D01*
Y190060D01*
X2631772D01*
Y190194D01*
X2632040D01*
Y190328D01*
X2632174D01*
Y190462D01*
X2632308D01*
Y190596D01*
X2632442D01*
Y190730D01*
X2632710D01*
Y190864D01*
X2632844D01*
Y190998D01*
X2632978D01*
Y191132D01*
X2633112D01*
Y191266D01*
X2633380D01*
Y191400D01*
X2633514D01*
Y191534D01*
X2633648D01*
Y191668D01*
X2633782D01*
Y191802D01*
X2633916D01*
Y191936D01*
X2634184D01*
Y192070D01*
X2634318D01*
Y192204D01*
X2634452D01*
Y192338D01*
X2634586D01*
Y192472D01*
X2634720D01*
Y192606D01*
X2634854D01*
Y192740D01*
X2635122D01*
Y192874D01*
X2635256D01*
Y193008D01*
X2635390D01*
Y193142D01*
X2635524D01*
Y193276D01*
X2635658D01*
Y193410D01*
X2635792D01*
Y193544D01*
X2635926D01*
Y193678D01*
X2636194D01*
Y193812D01*
X2636328D01*
Y193946D01*
X2636462D01*
Y194080D01*
X2636596D01*
Y194214D01*
X2636730D01*
Y194348D01*
X2636864D01*
Y194482D01*
X2636998D01*
Y194616D01*
X2637132D01*
Y194750D01*
X2637266D01*
Y194884D01*
X2637400D01*
Y195018D01*
X2637534D01*
Y195152D01*
X2637802D01*
Y195286D01*
X2637936D01*
Y195420D01*
X2638070D01*
Y195554D01*
X2638204D01*
Y195688D01*
X2638338D01*
Y195822D01*
X2638472D01*
Y195956D01*
X2638606D01*
Y196090D01*
X2638740D01*
Y196224D01*
X2638874D01*
Y196358D01*
X2639008D01*
Y196492D01*
X2639142D01*
Y196626D01*
X2639276D01*
Y196760D01*
X2639410D01*
Y196894D01*
X2639544D01*
Y197028D01*
X2639678D01*
Y197162D01*
X2639812D01*
Y197296D01*
X2639947D01*
Y197430D01*
X2640081D01*
Y197564D01*
X2640215D01*
Y197698D01*
X2640349D01*
Y197832D01*
X2640483D01*
Y198100D01*
X2640617D01*
Y198234D01*
X2640751D01*
Y198368D01*
X2640885D01*
Y198502D01*
X2641019D01*
Y198636D01*
X2641153D01*
Y198770D01*
X2641287D01*
Y198904D01*
X2641421D01*
Y199038D01*
X2641555D01*
Y199172D01*
X2641689D01*
Y199306D01*
X2641823D01*
Y199440D01*
X2641956D01*
Y199574D01*
X2642091D01*
Y199842D01*
X2642224D01*
Y199976D01*
X2642359D01*
Y200110D01*
X2642493D01*
Y200244D01*
X2642627D01*
Y200378D01*
X2642761D01*
Y200512D01*
X2642895D01*
Y200646D01*
X2643029D01*
Y200914D01*
X2643163D01*
Y201048D01*
X2643297D01*
Y201182D01*
X2643431D01*
Y201316D01*
X2643565D01*
Y201450D01*
X2643699D01*
Y201584D01*
X2643833D01*
Y201852D01*
X2643967D01*
Y201986D01*
X2644101D01*
Y202120D01*
X2644235D01*
Y202254D01*
X2644369D01*
Y202388D01*
X2644503D01*
Y202656D01*
X2644637D01*
Y202790D01*
X2644771D01*
Y202924D01*
X2644905D01*
Y203192D01*
X2645039D01*
Y203326D01*
X2645173D01*
Y203460D01*
X2645307D01*
Y203594D01*
X2645441D01*
Y203728D01*
X2645575D01*
Y203996D01*
X2645709D01*
Y204130D01*
X2645843D01*
Y204264D01*
X2645977D01*
Y204532D01*
X2646111D01*
Y204666D01*
X2646245D01*
Y204800D01*
X2646379D01*
Y205068D01*
X2646513D01*
Y205202D01*
X2646647D01*
Y205336D01*
X2646781D01*
Y205604D01*
X2646915D01*
Y205738D01*
X2647049D01*
Y206006D01*
X2647183D01*
Y206140D01*
X2647317D01*
Y206274D01*
X2647451D01*
Y206542D01*
X2647585D01*
Y206676D01*
X2647719D01*
Y206944D01*
X2647853D01*
Y207078D01*
X2647987D01*
Y207212D01*
X2648121D01*
Y207480D01*
X2648255D01*
Y207614D01*
X2648389D01*
Y207882D01*
X2648523D01*
Y208016D01*
X2648657D01*
Y208284D01*
X2648791D01*
Y208418D01*
X2648925D01*
Y208686D01*
X2649059D01*
Y208820D01*
X2649193D01*
Y209088D01*
X2649327D01*
Y209222D01*
X2649461D01*
Y209490D01*
X2649595D01*
Y209624D01*
X2649729D01*
Y209892D01*
X2649863D01*
Y210160D01*
X2649997D01*
Y210294D01*
X2650131D01*
Y210562D01*
X2650265D01*
Y210696D01*
X2650399D01*
Y210964D01*
X2650533D01*
Y211232D01*
X2650667D01*
Y211366D01*
X2650801D01*
Y211634D01*
X2650935D01*
Y211902D01*
X2651069D01*
Y212036D01*
X2651203D01*
Y212304D01*
X2651337D01*
Y212572D01*
X2651471D01*
Y212706D01*
X2651605D01*
Y212974D01*
X2651739D01*
Y213242D01*
X2651873D01*
Y213510D01*
X2652007D01*
Y213778D01*
X2652141D01*
Y213912D01*
X2652275D01*
Y214180D01*
X2652409D01*
Y214448D01*
X2652543D01*
Y214716D01*
X2652677D01*
Y214984D01*
X2652811D01*
Y215118D01*
X2652945D01*
Y215386D01*
X2653079D01*
Y215788D01*
X2653213D01*
Y215922D01*
X2653347D01*
Y216190D01*
X2653481D01*
Y216592D01*
X2653615D01*
Y216726D01*
X2653749D01*
Y217128D01*
X2653883D01*
Y217396D01*
X2654017D01*
Y217530D01*
X2654151D01*
Y217932D01*
X2654285D01*
Y218066D01*
X2654419D01*
Y218468D01*
X2654553D01*
Y218736D01*
X2654687D01*
Y219005D01*
X2654821D01*
Y219273D01*
X2654955D01*
Y219541D01*
X2655089D01*
Y219809D01*
X2655223D01*
Y220210D01*
X2655357D01*
Y220478D01*
X2655491D01*
Y220881D01*
X2655625D01*
Y221149D01*
X2655759D01*
Y221417D01*
X2655893D01*
Y221819D01*
X2656027D01*
Y222087D01*
X2656161D01*
Y222355D01*
X2656295D01*
Y222757D01*
X2656429D01*
Y223025D01*
X2656563D01*
Y223427D01*
X2656697D01*
Y223829D01*
X2656831D01*
Y224097D01*
X2656965D01*
Y224633D01*
X2657099D01*
Y224901D01*
X2657233D01*
Y225169D01*
X2657367D01*
Y225705D01*
X2657501D01*
Y225973D01*
X2657635D01*
Y226375D01*
X2657769D01*
Y226911D01*
X2657903D01*
Y227179D01*
X2658037D01*
Y227715D01*
X2658171D01*
Y228117D01*
X2658305D01*
Y228519D01*
X2658439D01*
Y229055D01*
X2658573D01*
Y229323D01*
X2658707D01*
Y229859D01*
X2658841D01*
Y230395D01*
X2658975D01*
Y230797D01*
X2659109D01*
Y231333D01*
X2659243D01*
Y231869D01*
X2659377D01*
Y232271D01*
X2659511D01*
Y232941D01*
X2659645D01*
Y233343D01*
X2659779D01*
Y234147D01*
X2659913D01*
Y234683D01*
X2660047D01*
Y235219D01*
X2660181D01*
Y236023D01*
X2660315D01*
Y236693D01*
X2660449D01*
Y237229D01*
X2660583D01*
Y238167D01*
X2660717D01*
Y238837D01*
X2660851D01*
Y239909D01*
X2660985D01*
Y240981D01*
X2661119D01*
Y241651D01*
X2661253D01*
Y243125D01*
X2661387D01*
Y244465D01*
X2661521D01*
Y246073D01*
X2661655D01*
Y250763D01*
X2661789D01*
Y250897D01*
X2661655D01*
Y255856D01*
X2661521D01*
Y257464D01*
X2661387D01*
Y258938D01*
X2661253D01*
Y260278D01*
X2661119D01*
Y261082D01*
X2660985D01*
Y262288D01*
X2660851D01*
Y263226D01*
X2660717D01*
Y263896D01*
X2660583D01*
Y264834D01*
X2660449D01*
Y265370D01*
X2660315D01*
Y266040D01*
X2660181D01*
Y266844D01*
X2660047D01*
Y267246D01*
X2659913D01*
Y268050D01*
X2659779D01*
Y268586D01*
X2659645D01*
Y269122D01*
X2659511D01*
Y269792D01*
X2659377D01*
Y270194D01*
X2659243D01*
Y270596D01*
X2659109D01*
Y271266D01*
X2658975D01*
Y271668D01*
X2658841D01*
Y272204D01*
X2658707D01*
Y272740D01*
X2658573D01*
Y273008D01*
X2658439D01*
Y273544D01*
X2658305D01*
Y273946D01*
X2658171D01*
Y274348D01*
X2658037D01*
Y274884D01*
X2657903D01*
Y275152D01*
X2657769D01*
Y275554D01*
X2657635D01*
Y276090D01*
X2657501D01*
Y276358D01*
X2657367D01*
Y276760D01*
X2657233D01*
Y277162D01*
X2657099D01*
Y277430D01*
X2656965D01*
Y277966D01*
X2656831D01*
Y278100D01*
X2656697D01*
Y278502D01*
X2656563D01*
Y278904D01*
X2656429D01*
Y279172D01*
X2656295D01*
Y279574D01*
X2656161D01*
Y279976D01*
X2656027D01*
Y280244D01*
X2655893D01*
Y280646D01*
X2655759D01*
Y280914D01*
X2655625D01*
Y281182D01*
X2655491D01*
Y281584D01*
X2655357D01*
Y281718D01*
X2655223D01*
Y282120D01*
X2655089D01*
Y282388D01*
X2654955D01*
Y282656D01*
X2654821D01*
Y283058D01*
X2654687D01*
Y283326D01*
X2654553D01*
Y283594D01*
X2654419D01*
Y283862D01*
X2654285D01*
Y284130D01*
X2654151D01*
Y284398D01*
X2654017D01*
Y284666D01*
X2653883D01*
Y284934D01*
X2653749D01*
Y285336D01*
X2653615D01*
Y285470D01*
X2653481D01*
Y285738D01*
X2653347D01*
Y286140D01*
X2653213D01*
Y286274D01*
X2653079D01*
Y286542D01*
X2652945D01*
Y286810D01*
X2652811D01*
Y287078D01*
X2652677D01*
Y287346D01*
X2652543D01*
Y287480D01*
X2652409D01*
Y287748D01*
X2652275D01*
Y288150D01*
X2652141D01*
Y288284D01*
X2652007D01*
Y288553D01*
X2651873D01*
Y288820D01*
X2651739D01*
Y288954D01*
X2651605D01*
Y289356D01*
X2651471D01*
Y289490D01*
X2651337D01*
Y289759D01*
X2651203D01*
Y289892D01*
X2651069D01*
Y290161D01*
X2650935D01*
Y290428D01*
X2650801D01*
Y290562D01*
X2650667D01*
Y290830D01*
X2650533D01*
Y291099D01*
X2650399D01*
Y291233D01*
X2650265D01*
Y291501D01*
X2650131D01*
Y291769D01*
X2649997D01*
Y291902D01*
X2649863D01*
Y292171D01*
X2649729D01*
Y292305D01*
X2649595D01*
Y292573D01*
X2649461D01*
Y292841D01*
X2649327D01*
Y292975D01*
X2649193D01*
Y293109D01*
X2649059D01*
Y293377D01*
X2648925D01*
Y293511D01*
X2648791D01*
Y293779D01*
X2648657D01*
Y293913D01*
X2648523D01*
Y294181D01*
X2648389D01*
Y294449D01*
X2648255D01*
Y294583D01*
X2648121D01*
Y294717D01*
X2647987D01*
Y294985D01*
X2647853D01*
Y295119D01*
X2647719D01*
Y295387D01*
X2647585D01*
Y295521D01*
X2647451D01*
Y295655D01*
X2647317D01*
Y295923D01*
X2647183D01*
Y296057D01*
X2647049D01*
Y296325D01*
X2646915D01*
Y296459D01*
X2646781D01*
Y296593D01*
X2646647D01*
Y296861D01*
X2646513D01*
Y296995D01*
X2646379D01*
Y297129D01*
X2646245D01*
Y297397D01*
X2646111D01*
Y297531D01*
X2645977D01*
Y297665D01*
X2645843D01*
Y297933D01*
X2645709D01*
Y298067D01*
X2645575D01*
Y298201D01*
X2645441D01*
Y298335D01*
X2645307D01*
Y298603D01*
X2645173D01*
Y298737D01*
X2645039D01*
Y298871D01*
X2644905D01*
Y299139D01*
X2644771D01*
Y299273D01*
X2644637D01*
Y299407D01*
X2644503D01*
Y299541D01*
X2644369D01*
Y299675D01*
X2644235D01*
Y299943D01*
X2644101D01*
Y300077D01*
X2643967D01*
Y300211D01*
X2643833D01*
Y300345D01*
X2643699D01*
Y300613D01*
X2643565D01*
Y300747D01*
X2643431D01*
Y300881D01*
X2643297D01*
Y301015D01*
X2643163D01*
Y301149D01*
X2643029D01*
Y301283D01*
X2642895D01*
Y301417D01*
X2642761D01*
Y301685D01*
X2642627D01*
Y301819D01*
X2642493D01*
Y301953D01*
X2642359D01*
Y302087D01*
X2642224D01*
Y302221D01*
X2642091D01*
Y302355D01*
X2641956D01*
Y302489D01*
X2641823D01*
Y302623D01*
X2641689D01*
Y302757D01*
X2641555D01*
Y303025D01*
X2641421D01*
Y303159D01*
X2641287D01*
Y303293D01*
X2641153D01*
Y303427D01*
X2641019D01*
Y303561D01*
X2640885D01*
Y303695D01*
X2640751D01*
Y303829D01*
X2640617D01*
Y303963D01*
X2640483D01*
Y304097D01*
X2640349D01*
Y304231D01*
X2640215D01*
Y304365D01*
X2640081D01*
Y304499D01*
X2639947D01*
Y304633D01*
X2639812D01*
Y304767D01*
X2639678D01*
Y304901D01*
X2639544D01*
Y305035D01*
X2639410D01*
Y305169D01*
X2639276D01*
Y305303D01*
X2639142D01*
Y305571D01*
X2638874D01*
Y305705D01*
X2638740D01*
Y305839D01*
X2638606D01*
Y305973D01*
X2638472D01*
Y306107D01*
X2638338D01*
Y306241D01*
X2638204D01*
Y306375D01*
X2638070D01*
Y306509D01*
X2637936D01*
Y306643D01*
X2637802D01*
Y306777D01*
X2637668D01*
Y306911D01*
X2637534D01*
Y307045D01*
X2637400D01*
Y307179D01*
X2637266D01*
Y307313D01*
X2637132D01*
Y307447D01*
X2636998D01*
Y307581D01*
X2636864D01*
Y307715D01*
X2636596D01*
Y307983D01*
X2636328D01*
Y308117D01*
X2636194D01*
Y308251D01*
X2636060D01*
Y308385D01*
X2635926D01*
Y308519D01*
X2635792D01*
Y308653D01*
X2635658D01*
Y308787D01*
X2635524D01*
Y308921D01*
X2635390D01*
Y309055D01*
X2635256D01*
Y309189D01*
X2634988D01*
Y309323D01*
X2634854D01*
Y309457D01*
X2634720D01*
Y309591D01*
X2634586D01*
Y309725D01*
X2634452D01*
Y309859D01*
X2634184D01*
Y309993D01*
X2634050D01*
Y310127D01*
X2633916D01*
Y310261D01*
X2633782D01*
Y310395D01*
X2633648D01*
Y310529D01*
X2633380D01*
Y310663D01*
X2633246D01*
Y310797D01*
X2633112D01*
Y310931D01*
X2632978D01*
Y311065D01*
X2632844D01*
Y311199D01*
X2632576D01*
Y311333D01*
X2632442D01*
Y311467D01*
X2632308D01*
Y311601D01*
X2632040D01*
Y311735D01*
X2631906D01*
Y311869D01*
X2631772D01*
Y312003D01*
X2631638D01*
Y312137D01*
X2631370D01*
Y312271D01*
X2631236D01*
Y312405D01*
X2631102D01*
Y312539D01*
X2630834D01*
Y312673D01*
X2630700D01*
Y312807D01*
X2630566D01*
Y312941D01*
X2630298D01*
Y313075D01*
X2630164D01*
Y313209D01*
X2630030D01*
Y313343D01*
X2629762D01*
Y313477D01*
X2629628D01*
Y313611D01*
X2629494D01*
Y313745D01*
X2629226D01*
Y313879D01*
X2629092D01*
Y314013D01*
X2628824D01*
Y314147D01*
X2628690D01*
Y314281D01*
X2628422D01*
Y314415D01*
X2628288D01*
Y314549D01*
X2628020D01*
Y314683D01*
X2627886D01*
Y314817D01*
X2627752D01*
Y314951D01*
X2627484D01*
Y315085D01*
X2627350D01*
Y315219D01*
X2627082D01*
Y315353D01*
X2626948D01*
Y315487D01*
X2626680D01*
Y315621D01*
X2626412D01*
Y315755D01*
X2626278D01*
Y315889D01*
X2626010D01*
Y316023D01*
X2625876D01*
Y316157D01*
X2625608D01*
Y316291D01*
X2625474D01*
Y316425D01*
X2625206D01*
Y316559D01*
X2624938D01*
Y316693D01*
X2624804D01*
Y316827D01*
X2624536D01*
Y316961D01*
X2624268D01*
Y317095D01*
X2624134D01*
Y317229D01*
X2623866D01*
Y317363D01*
X2623598D01*
Y317497D01*
X2623464D01*
Y317631D01*
X2623196D01*
Y317765D01*
X2622928D01*
Y317899D01*
X2622794D01*
Y318033D01*
X2622526D01*
Y318167D01*
X2622258D01*
Y318301D01*
X2621990D01*
Y318435D01*
X2621722D01*
Y318569D01*
X2621588D01*
Y318703D01*
X2621320D01*
Y318837D01*
X2621052D01*
Y318971D01*
X2620784D01*
Y319105D01*
X2620516D01*
Y319239D01*
X2620248D01*
Y319373D01*
X2619980D01*
Y319507D01*
X2619712D01*
Y319641D01*
X2619578D01*
Y319775D01*
X2619176D01*
Y319909D01*
X2618908D01*
Y320043D01*
X2618774D01*
Y320177D01*
X2618372D01*
Y320311D01*
X2618104D01*
Y320445D01*
X2617970D01*
Y320579D01*
X2617568D01*
Y320713D01*
X2617434D01*
Y320847D01*
X2617032D01*
Y320981D01*
X2616764D01*
Y321115D01*
X2616496D01*
Y321249D01*
X2616094D01*
Y321383D01*
X2615960D01*
Y321517D01*
X2615558D01*
Y321651D01*
X2615156D01*
Y321785D01*
X2615022D01*
Y321919D01*
X2614620D01*
Y322053D01*
X2614218D01*
Y322187D01*
X2614084D01*
Y322321D01*
X2613682D01*
Y322455D01*
X2613280D01*
Y322589D01*
X2613012D01*
Y322723D01*
X2612610D01*
Y322858D01*
X2612342D01*
Y322991D01*
X2611940D01*
Y323125D01*
X2611538D01*
Y323259D01*
X2611270D01*
Y323394D01*
X2610868D01*
Y323527D01*
X2610466D01*
Y323661D01*
X2610198D01*
Y323796D01*
X2609662D01*
Y323930D01*
X2609394D01*
Y324063D01*
X2608992D01*
Y324197D01*
X2608456D01*
Y324332D01*
X2608188D01*
Y324466D01*
X2607652D01*
Y324599D01*
X2607250D01*
Y324733D01*
X2606847D01*
Y324868D01*
X2606311D01*
Y325002D01*
X2606044D01*
Y325135D01*
X2605508D01*
Y325269D01*
X2604972D01*
Y325404D01*
X2604569D01*
Y325538D01*
X2603899D01*
Y325672D01*
X2603363D01*
Y325805D01*
X2602961D01*
Y325940D01*
X2602291D01*
Y326074D01*
X2601889D01*
Y326207D01*
X2601219D01*
Y326341D01*
X2600549D01*
Y326476D01*
X2600013D01*
Y326610D01*
X2599209D01*
Y326743D01*
X2598539D01*
Y326878D01*
X2597869D01*
Y327012D01*
X2596931D01*
Y327146D01*
X2596261D01*
Y327279D01*
X2595189D01*
Y327414D01*
X2593983D01*
Y327548D01*
X2593045D01*
Y327682D01*
X2591705D01*
Y327816D01*
X2591571D01*
Y327682D01*
X2591437D01*
Y327816D01*
X2589829D01*
Y327950D01*
X2587417D01*
Y328084D01*
X2582057D01*
Y327950D01*
X2579645D01*
Y327816D01*
X2577903D01*
Y327682D01*
X2576295D01*
Y327548D01*
X2575491D01*
Y327414D01*
X2574285D01*
Y327279D01*
X2573347D01*
Y327146D01*
X2572543D01*
Y327012D01*
X2571738D01*
Y326878D01*
X2570934D01*
Y326743D01*
X2570265D01*
Y326610D01*
X2569460D01*
Y326476D01*
X2569059D01*
Y326341D01*
X2568254D01*
Y326207D01*
X2567584D01*
Y326074D01*
X2567182D01*
Y325940D01*
X2566512D01*
Y325805D01*
X2565976D01*
Y325672D01*
X2565574D01*
Y325538D01*
X2564904D01*
Y325404D01*
X2564502D01*
Y325269D01*
X2563966D01*
Y325135D01*
X2563564D01*
Y325002D01*
X2563162D01*
Y324868D01*
X2562626D01*
Y324733D01*
X2562224D01*
Y324599D01*
X2561822D01*
Y324466D01*
X2561286D01*
Y324332D01*
X2561018D01*
Y324197D01*
X2560482D01*
Y324063D01*
X2560080D01*
Y323930D01*
X2559812D01*
Y323796D01*
X2559276D01*
Y323661D01*
X2559008D01*
Y323527D01*
X2558606D01*
Y323394D01*
X2558204D01*
Y323259D01*
X2557936D01*
Y323125D01*
X2557534D01*
Y322991D01*
X2557132D01*
Y322858D01*
X2556864D01*
Y322723D01*
X2556462D01*
Y322589D01*
X2556194D01*
Y322455D01*
X2555792D01*
Y322321D01*
X2555524D01*
Y322187D01*
X2555256D01*
Y322053D01*
X2554854D01*
Y321919D01*
X2554586D01*
Y321785D01*
X2554318D01*
Y321651D01*
X2553916D01*
Y321517D01*
X2553648D01*
Y321383D01*
X2553380D01*
Y321249D01*
X2552978D01*
Y321115D01*
X2552844D01*
Y320981D01*
X2552442D01*
Y320847D01*
X2552174D01*
Y320713D01*
X2551906D01*
Y320579D01*
X2551638D01*
Y320445D01*
X2551370D01*
Y320311D01*
X2551102D01*
Y320177D01*
X2550700D01*
Y320043D01*
X2550566D01*
Y319909D01*
X2550164D01*
Y319775D01*
X2549896D01*
Y319641D01*
X2549762D01*
Y319507D01*
X2549494D01*
Y319373D01*
X2549226D01*
Y319239D01*
X2548958D01*
Y319105D01*
X2548690D01*
Y318971D01*
X2548422D01*
Y318837D01*
X2548154D01*
Y318703D01*
X2547886D01*
Y318569D01*
X2547752D01*
Y318435D01*
X2547484D01*
Y318301D01*
X2547216D01*
Y318167D01*
X2546948D01*
Y318033D01*
X2546680D01*
Y317899D01*
X2546546D01*
Y317765D01*
X2546278D01*
Y317631D01*
X2546010D01*
Y317497D01*
X2545876D01*
Y317363D01*
X2545608D01*
Y317229D01*
X2545340D01*
Y317095D01*
X2545206D01*
Y316961D01*
X2544938D01*
Y316827D01*
X2544670D01*
Y316693D01*
X2544402D01*
Y316559D01*
X2544268D01*
Y316425D01*
X2544134D01*
Y316291D01*
X2543866D01*
Y316157D01*
X2543598D01*
Y316023D01*
X2543464D01*
Y315889D01*
X2543196D01*
Y315755D01*
X2543062D01*
Y315621D01*
X2542794D01*
Y315487D01*
X2542526D01*
Y315353D01*
X2542392D01*
Y315219D01*
X2542124D01*
Y315085D01*
X2541990D01*
Y314951D01*
X2541856D01*
Y314817D01*
X2541588D01*
Y314683D01*
X2541454D01*
Y314549D01*
X2541186D01*
Y314415D01*
X2540918D01*
Y314281D01*
X2540784D01*
Y314147D01*
X2540650D01*
Y314013D01*
X2540382D01*
Y313879D01*
X2540248D01*
Y313745D01*
X2539980D01*
Y313611D01*
X2539846D01*
Y313477D01*
X2539712D01*
Y313343D01*
X2539444D01*
Y313209D01*
X2539310D01*
Y313075D01*
X2539176D01*
Y312941D01*
X2538908D01*
Y312807D01*
X2538774D01*
Y312673D01*
X2538640D01*
Y312539D01*
X2538372D01*
Y312405D01*
X2538238D01*
Y312271D01*
X2538104D01*
Y312137D01*
X2537836D01*
Y312003D01*
X2537702D01*
Y311869D01*
X2537568D01*
Y311735D01*
X2537300D01*
Y311601D01*
X2537166D01*
Y311467D01*
X2537032D01*
Y311333D01*
X2536898D01*
Y311199D01*
X2536630D01*
Y311065D01*
X2536495D01*
Y310931D01*
X2536361D01*
Y310797D01*
X2536227D01*
Y310663D01*
X2536093D01*
Y310529D01*
X2535825D01*
Y310395D01*
X2535691D01*
Y310261D01*
X2535557D01*
Y310127D01*
X2535423D01*
Y309993D01*
X2535289D01*
Y309859D01*
X2535021D01*
Y309725D01*
X2534351D01*
Y309591D01*
X2533547D01*
Y309457D01*
X2532609D01*
Y309323D01*
X2532207D01*
Y309189D01*
X2531537D01*
Y309055D01*
X2530733D01*
Y308921D01*
X2530331D01*
Y308787D01*
X2529795D01*
Y308653D01*
X2529259D01*
Y308519D01*
X2528723D01*
Y308385D01*
X2528321D01*
Y308251D01*
X2527919D01*
Y308117D01*
X2527517D01*
Y307983D01*
X2526981D01*
Y308117D01*
X2527249D01*
Y308251D01*
X2527383D01*
Y308385D01*
X2527517D01*
Y308519D01*
X2527651D01*
Y308653D01*
X2527785D01*
Y308787D01*
X2527919D01*
Y308921D01*
X2528053D01*
Y309055D01*
X2528187D01*
Y309189D01*
X2528321D01*
Y309323D01*
X2528455D01*
Y309457D01*
X2528589D01*
Y309591D01*
X2528723D01*
Y309725D01*
X2528857D01*
Y309859D01*
X2528991D01*
Y309993D01*
X2529125D01*
Y310127D01*
X2529393D01*
Y310261D01*
X2529527D01*
Y310395D01*
X2529661D01*
Y310529D01*
X2529795D01*
Y310663D01*
X2529929D01*
Y310797D01*
X2530063D01*
Y310931D01*
X2530197D01*
Y311065D01*
X2530331D01*
Y311199D01*
X2530465D01*
Y311333D01*
X2530733D01*
Y311467D01*
X2530867D01*
Y311601D01*
X2531001D01*
Y311735D01*
X2531135D01*
Y311869D01*
X2531269D01*
Y312003D01*
X2531403D01*
Y312137D01*
X2531537D01*
Y312271D01*
X2531805D01*
Y312405D01*
X2531939D01*
Y312539D01*
X2532073D01*
Y312673D01*
X2532207D01*
Y312807D01*
X2532475D01*
Y312941D01*
X2532609D01*
Y313075D01*
X2532743D01*
Y313209D01*
X2532877D01*
Y313343D01*
X2533011D01*
Y313477D01*
X2533279D01*
Y313611D01*
X2533413D01*
Y313745D01*
X2533547D01*
Y313879D01*
X2533681D01*
Y314013D01*
X2533815D01*
Y314147D01*
X2534083D01*
Y314281D01*
X2534218D01*
Y314415D01*
X2534351D01*
Y314549D01*
X2534619D01*
Y314683D01*
X2534753D01*
Y314817D01*
X2534887D01*
Y314951D01*
X2535155D01*
Y315085D01*
X2535289D01*
Y315219D01*
X2535423D01*
Y315353D01*
X2535691D01*
Y315487D01*
X2535825D01*
Y315621D01*
X2535959D01*
Y315755D01*
X2536093D01*
Y315889D01*
X2536361D01*
Y316023D01*
X2536495D01*
Y316157D01*
X2536764D01*
Y316291D01*
X2536898D01*
Y316425D01*
X2537166D01*
Y316559D01*
X2537300D01*
Y316693D01*
X2537568D01*
Y316827D01*
X2537702D01*
Y316961D01*
X2537836D01*
Y317095D01*
X2538104D01*
Y317229D01*
X2538238D01*
Y317363D01*
X2538506D01*
Y317497D01*
X2538640D01*
Y317631D01*
X2538774D01*
Y317765D01*
X2539042D01*
Y317899D01*
X2539176D01*
Y318033D01*
X2539444D01*
Y318167D01*
X2539712D01*
Y318301D01*
X2539846D01*
Y318435D01*
X2540114D01*
Y318569D01*
X2540248D01*
Y318703D01*
X2540516D01*
Y318837D01*
X2540650D01*
Y318971D01*
X2540918D01*
Y319105D01*
X2541052D01*
Y319239D01*
X2541320D01*
Y319373D01*
X2541454D01*
Y319507D01*
X2541722D01*
Y319641D01*
X2541990D01*
Y319775D01*
X2542124D01*
Y319909D01*
X2542526D01*
Y320043D01*
X2542660D01*
Y320177D01*
X2542928D01*
Y320311D01*
X2543062D01*
Y320445D01*
X2543330D01*
Y320579D01*
X2543598D01*
Y320713D01*
X2543866D01*
Y320847D01*
X2544000D01*
Y320981D01*
X2544268D01*
Y321115D01*
X2544536D01*
Y321249D01*
X2544670D01*
Y321383D01*
X2545072D01*
Y321517D01*
X2545206D01*
Y321651D01*
X2545474D01*
Y321785D01*
X2545742D01*
Y321919D01*
X2546010D01*
Y322053D01*
X2546278D01*
Y322187D01*
X2546412D01*
Y322321D01*
X2546680D01*
Y322455D01*
X2547082D01*
Y322589D01*
X2547216D01*
Y322723D01*
X2547618D01*
Y322858D01*
X2547886D01*
Y322991D01*
X2548020D01*
Y323125D01*
X2548422D01*
Y323259D01*
X2548556D01*
Y323394D01*
X2548824D01*
Y323527D01*
X2549226D01*
Y323661D01*
X2549360D01*
Y323796D01*
X2549762D01*
Y323930D01*
X2550030D01*
Y324063D01*
X2550298D01*
Y324197D01*
X2550700D01*
Y324332D01*
X2550834D01*
Y324466D01*
X2551236D01*
Y324599D01*
X2551638D01*
Y324733D01*
X2551772D01*
Y324868D01*
X2552174D01*
Y325002D01*
X2552442D01*
Y325135D01*
X2552710D01*
Y325269D01*
X2553112D01*
Y325404D01*
X2553380D01*
Y325538D01*
X2553782D01*
Y325672D01*
X2554184D01*
Y325805D01*
X2554452D01*
Y325940D01*
X2554854D01*
Y326074D01*
X2555122D01*
Y326207D01*
X2555524D01*
Y326341D01*
X2555926D01*
Y326476D01*
X2556194D01*
Y326610D01*
X2556596D01*
Y326743D01*
X2556998D01*
Y326878D01*
X2557266D01*
Y327012D01*
X2557802D01*
Y327146D01*
X2558204D01*
Y327279D01*
X2558472D01*
Y327414D01*
X2559008D01*
Y327548D01*
X2559276D01*
Y327682D01*
X2559812D01*
Y327816D01*
X2560214D01*
Y327950D01*
X2560616D01*
Y328084D01*
X2561152D01*
Y328218D01*
X2561688D01*
Y328352D01*
X2561956D01*
Y328486D01*
X2544670D01*
Y328352D01*
X2544402D01*
Y328486D01*
X2544134D01*
Y328352D01*
X2543330D01*
Y328486D01*
X2543196D01*
Y328352D01*
X2542124D01*
Y328486D01*
X2541990D01*
Y328352D01*
X2520013D01*
Y328218D01*
X2519611D01*
Y328352D01*
X2519343D01*
Y328218D01*
X2503933D01*
Y328084D01*
X2503799D01*
Y328218D01*
X2502861D01*
Y328084D01*
X2502459D01*
Y328218D01*
X2502191D01*
Y328084D01*
X2478338D01*
Y327950D01*
X2458773D01*
Y327816D01*
X2458371D01*
Y327950D01*
X2458103D01*
Y327816D01*
X2440549D01*
Y327682D01*
X2440415D01*
Y327816D01*
X2438539D01*
Y331434D01*
X2438673D01*
Y331568D01*
X2449661D01*
Y331702D01*
X2449795D01*
Y331568D01*
X2450733D01*
Y331702D01*
X2451001D01*
Y331568D01*
X2451135D01*
Y331702D01*
X2451671D01*
Y331568D01*
X2451805D01*
Y331702D01*
X2453949D01*
Y331568D01*
X2454083D01*
Y331702D01*
X2472844D01*
Y331836D01*
X2487718D01*
Y331970D01*
X2508623D01*
Y332104D01*
X2508757D01*
Y331970D01*
X2509025D01*
Y332104D01*
X2509293D01*
Y331970D01*
X2509695D01*
Y332104D01*
X2509963D01*
Y331970D01*
X2510097D01*
Y332104D01*
X2510633D01*
Y331970D01*
X2510767D01*
Y332104D01*
X2511303D01*
Y331970D01*
X2511437D01*
Y332104D01*
X2533950D01*
Y332238D01*
X2534083D01*
Y332104D01*
X2534485D01*
Y332238D01*
X2534753D01*
Y332104D01*
X2535021D01*
Y332238D01*
X2553782D01*
Y332372D01*
X2553916D01*
Y332238D01*
X2555122D01*
Y332372D01*
X2555390D01*
Y332238D01*
X2555658D01*
Y332372D01*
X2556060D01*
Y332238D01*
X2556328D01*
Y332372D01*
X2585139D01*
Y332238D01*
D02*
G37*
G36*
X2461319Y312137D02*
X2461453D01*
Y312003D01*
X2461587D01*
Y311869D01*
X2461453D01*
Y311735D01*
X2461587D01*
Y310127D01*
X2461721D01*
Y309055D01*
X2461855D01*
Y307581D01*
X2461989D01*
Y305973D01*
X2462123D01*
Y304901D01*
X2462257D01*
Y303293D01*
X2462391D01*
Y302087D01*
X2462525D01*
Y300747D01*
X2462659D01*
Y300613D01*
X2462525D01*
Y300479D01*
X2462659D01*
Y299005D01*
X2462793D01*
Y298067D01*
X2462927D01*
Y296459D01*
X2463061D01*
Y294851D01*
X2463195D01*
Y293779D01*
X2463329D01*
Y292171D01*
X2463463D01*
Y290964D01*
X2463597D01*
Y289624D01*
X2463731D01*
Y287882D01*
X2463865D01*
Y286944D01*
X2463999D01*
Y285470D01*
X2464133D01*
Y283728D01*
X2464267D01*
Y282656D01*
X2464401D01*
Y281048D01*
X2464535D01*
Y279842D01*
X2464669D01*
Y278636D01*
X2464803D01*
Y276894D01*
X2464937D01*
Y275822D01*
X2465071D01*
Y274348D01*
X2465206D01*
Y272740D01*
X2465339D01*
Y271668D01*
X2465474D01*
Y270060D01*
X2465607D01*
Y268854D01*
X2465742D01*
Y267514D01*
X2465875D01*
Y267380D01*
X2465742D01*
Y267246D01*
X2465875D01*
Y265772D01*
X2466010D01*
Y264834D01*
X2466144D01*
Y263226D01*
X2466278D01*
Y261618D01*
X2466412D01*
Y260546D01*
X2466546D01*
Y258938D01*
X2466680D01*
Y257866D01*
X2466814D01*
Y256392D01*
X2466948D01*
Y254784D01*
X2467081D01*
Y253711D01*
X2467215D01*
Y252237D01*
X2467349D01*
Y250495D01*
X2467483D01*
Y249423D01*
X2467617D01*
Y247949D01*
X2467751D01*
Y246609D01*
X2467885D01*
Y245403D01*
X2468020D01*
Y243661D01*
X2468153D01*
Y242589D01*
X2468287D01*
Y241115D01*
X2468421D01*
Y239507D01*
X2468555D01*
Y238435D01*
X2468689D01*
Y236827D01*
X2468823D01*
Y235755D01*
X2469091D01*
Y236961D01*
X2469226D01*
Y238033D01*
X2469360D01*
Y239239D01*
X2469494D01*
Y240177D01*
X2469628D01*
Y240847D01*
X2469762D01*
Y241785D01*
X2469896D01*
Y242321D01*
X2470030D01*
Y243125D01*
X2470164D01*
Y243929D01*
X2470298D01*
Y244331D01*
X2470432D01*
Y245135D01*
X2470566D01*
Y245671D01*
X2470700D01*
Y246207D01*
X2470834D01*
Y246743D01*
X2470968D01*
Y247279D01*
X2471102D01*
Y247815D01*
X2471236D01*
Y248351D01*
X2471370D01*
Y248753D01*
X2471504D01*
Y249289D01*
X2471638D01*
Y249691D01*
X2471772D01*
Y250093D01*
X2471906D01*
Y250629D01*
X2472040D01*
Y251031D01*
X2472174D01*
Y251433D01*
X2472308D01*
Y251969D01*
X2472442D01*
Y252237D01*
X2472576D01*
Y252773D01*
X2472710D01*
Y253175D01*
X2472844D01*
Y253443D01*
X2472978D01*
Y253979D01*
X2473112D01*
Y254247D01*
X2473246D01*
Y254649D01*
X2473380D01*
Y255052D01*
X2473514D01*
Y255320D01*
X2473648D01*
Y255856D01*
X2473782D01*
Y256123D01*
X2473916D01*
Y256392D01*
X2474050D01*
Y256928D01*
X2474184D01*
Y257196D01*
X2474318D01*
Y257464D01*
X2474452D01*
Y257866D01*
X2474586D01*
Y258134D01*
X2474720D01*
Y258536D01*
X2474854D01*
Y258804D01*
X2474988D01*
Y259206D01*
X2475122D01*
Y259474D01*
X2475256D01*
Y259742D01*
X2475390D01*
Y260144D01*
X2475524D01*
Y260412D01*
X2475658D01*
Y260680D01*
X2475792D01*
Y261082D01*
X2475926D01*
Y261350D01*
X2476060D01*
Y261618D01*
X2476194D01*
Y262020D01*
X2476328D01*
Y262154D01*
X2476462D01*
Y262556D01*
X2476596D01*
Y262824D01*
X2476730D01*
Y263092D01*
X2476864D01*
Y263360D01*
X2476998D01*
Y263628D01*
X2477132D01*
Y263896D01*
X2477266D01*
Y264164D01*
X2477400D01*
Y264432D01*
X2477534D01*
Y264700D01*
X2477668D01*
Y264968D01*
X2477802D01*
Y265236D01*
X2477936D01*
Y265504D01*
X2478070D01*
Y265772D01*
X2478204D01*
Y266040D01*
X2478338D01*
Y266308D01*
X2478472D01*
Y266576D01*
X2478606D01*
Y266844D01*
X2478740D01*
Y267112D01*
X2478874D01*
Y267246D01*
X2479008D01*
Y267514D01*
X2479142D01*
Y267782D01*
X2479276D01*
Y268050D01*
X2479410D01*
Y268318D01*
X2479544D01*
Y268452D01*
X2479678D01*
Y268720D01*
X2479812D01*
Y268988D01*
X2479946D01*
Y269122D01*
X2480080D01*
Y269390D01*
X2480214D01*
Y269658D01*
X2480348D01*
Y269926D01*
X2480482D01*
Y270194D01*
X2480616D01*
Y270328D01*
X2480750D01*
Y270596D01*
X2480884D01*
Y270864D01*
X2481018D01*
Y270998D01*
X2481152D01*
Y271266D01*
X2481286D01*
Y271400D01*
X2481420D01*
Y271668D01*
X2481554D01*
Y271936D01*
X2481688D01*
Y272070D01*
X2481822D01*
Y272338D01*
X2481956D01*
Y272472D01*
X2482090D01*
Y272740D01*
X2482224D01*
Y272874D01*
X2482358D01*
Y273142D01*
X2482492D01*
Y273276D01*
X2482626D01*
Y273544D01*
X2482760D01*
Y273678D01*
X2482894D01*
Y273946D01*
X2483028D01*
Y274080D01*
X2483162D01*
Y274348D01*
X2483296D01*
Y274482D01*
X2483430D01*
Y274750D01*
X2483564D01*
Y274884D01*
X2483698D01*
Y275018D01*
X2483832D01*
Y275286D01*
X2483966D01*
Y275420D01*
X2484100D01*
Y275688D01*
X2484234D01*
Y275822D01*
X2484368D01*
Y275956D01*
X2484502D01*
Y276224D01*
X2484636D01*
Y276358D01*
X2484770D01*
Y276492D01*
X2484904D01*
Y276760D01*
X2485038D01*
Y276894D01*
X2485172D01*
Y277028D01*
X2485306D01*
Y277296D01*
X2485440D01*
Y277430D01*
X2485574D01*
Y277564D01*
X2485708D01*
Y277698D01*
X2485842D01*
Y277966D01*
X2485976D01*
Y278100D01*
X2486110D01*
Y278234D01*
X2486244D01*
Y278368D01*
X2486378D01*
Y278502D01*
X2486512D01*
Y278770D01*
X2486646D01*
Y278904D01*
X2486780D01*
Y279038D01*
X2486914D01*
Y279172D01*
X2487048D01*
Y279306D01*
X2487182D01*
Y279574D01*
X2487316D01*
Y279708D01*
X2487450D01*
Y279842D01*
X2487584D01*
Y279976D01*
X2487718D01*
Y280110D01*
X2487852D01*
Y280378D01*
X2487986D01*
Y280512D01*
X2488120D01*
Y280646D01*
X2488254D01*
Y280780D01*
X2488388D01*
Y280914D01*
X2488522D01*
Y281048D01*
X2488656D01*
Y281182D01*
X2488790D01*
Y281450D01*
X2488924D01*
Y281584D01*
X2489058D01*
Y281718D01*
X2489192D01*
Y281852D01*
X2489326D01*
Y281986D01*
X2489460D01*
Y282120D01*
X2489594D01*
Y282254D01*
X2489728D01*
Y282388D01*
X2489862D01*
Y282522D01*
X2489996D01*
Y282656D01*
X2490130D01*
Y282790D01*
X2490264D01*
Y282924D01*
X2490398D01*
Y283058D01*
X2490532D01*
Y283192D01*
X2490666D01*
Y283326D01*
X2490800D01*
Y283460D01*
X2490934D01*
Y283728D01*
X2491068D01*
Y283862D01*
X2491202D01*
Y283996D01*
X2491336D01*
Y284130D01*
X2491470D01*
Y284264D01*
X2491604D01*
Y284398D01*
X2491738D01*
Y284532D01*
X2491872D01*
Y284666D01*
X2492006D01*
Y284800D01*
X2492140D01*
Y284934D01*
X2492274D01*
Y285068D01*
X2492408D01*
Y285202D01*
X2492542D01*
Y285336D01*
X2492676D01*
Y285470D01*
X2492810D01*
Y285604D01*
X2492944D01*
Y285738D01*
X2493078D01*
Y285872D01*
X2493346D01*
Y286006D01*
X2493480D01*
Y286140D01*
X2493614D01*
Y286274D01*
X2493748D01*
Y286408D01*
X2493882D01*
Y286542D01*
X2494016D01*
Y286676D01*
X2494150D01*
Y286810D01*
X2494284D01*
Y286944D01*
X2494418D01*
Y287078D01*
X2494552D01*
Y287212D01*
X2494686D01*
Y287346D01*
X2494820D01*
Y287480D01*
X2494954D01*
Y287614D01*
X2495088D01*
Y287748D01*
X2495222D01*
Y287882D01*
X2495490D01*
Y288017D01*
X2495624D01*
Y288150D01*
X2495758D01*
Y288284D01*
X2495892D01*
Y288418D01*
X2496026D01*
Y288553D01*
X2496160D01*
Y288686D01*
X2496294D01*
Y288820D01*
X2496562D01*
Y288954D01*
X2496696D01*
Y289089D01*
X2496830D01*
Y289223D01*
X2496964D01*
Y289356D01*
X2497098D01*
Y289490D01*
X2497232D01*
Y289624D01*
X2497500D01*
Y289759D01*
X2497634D01*
Y289892D01*
X2497768D01*
Y290026D01*
X2497902D01*
Y290161D01*
X2498036D01*
Y290295D01*
X2498304D01*
Y290428D01*
X2498438D01*
Y290562D01*
X2498572D01*
Y290697D01*
X2498706D01*
Y290830D01*
X2498840D01*
Y290964D01*
X2499108D01*
Y291099D01*
X2499242D01*
Y291233D01*
X2499376D01*
Y291366D01*
X2499644D01*
Y291501D01*
X2499778D01*
Y291635D01*
X2499912D01*
Y291769D01*
X2500180D01*
Y291902D01*
X2500314D01*
Y292037D01*
X2500448D01*
Y292171D01*
X2500582D01*
Y292305D01*
X2500851D01*
Y292439D01*
X2500985D01*
Y292573D01*
X2501119D01*
Y292707D01*
X2501387D01*
Y292841D01*
X2501521D01*
Y292975D01*
X2501655D01*
Y293109D01*
X2501923D01*
Y293243D01*
X2502057D01*
Y293377D01*
X2502325D01*
Y293511D01*
X2502459D01*
Y293645D01*
X2502593D01*
Y293779D01*
X2502861D01*
Y293913D01*
X2502994D01*
Y294047D01*
X2503262D01*
Y294181D01*
X2503397D01*
Y294315D01*
X2503530D01*
Y294449D01*
X2503799D01*
Y294583D01*
X2504067D01*
Y294717D01*
X2504201D01*
Y294851D01*
X2504335D01*
Y294985D01*
X2504603D01*
Y295119D01*
X2504737D01*
Y295253D01*
X2505005D01*
Y295387D01*
X2505139D01*
Y295521D01*
X2505407D01*
Y295655D01*
X2505675D01*
Y295789D01*
X2505809D01*
Y295923D01*
X2506077D01*
Y296057D01*
X2506211D01*
Y296191D01*
X2506479D01*
Y296325D01*
X2506747D01*
Y296459D01*
X2506881D01*
Y296593D01*
X2507149D01*
Y296727D01*
X2507283D01*
Y296861D01*
X2507551D01*
Y296995D01*
X2507819D01*
Y297129D01*
X2507953D01*
Y297263D01*
X2508221D01*
Y297397D01*
X2508489D01*
Y297531D01*
X2508623D01*
Y297665D01*
X2508891D01*
Y297799D01*
X2509159D01*
Y297933D01*
X2509293D01*
Y298067D01*
X2509561D01*
Y298201D01*
X2509829D01*
Y298335D01*
X2509963D01*
Y298469D01*
X2510365D01*
Y298603D01*
X2510499D01*
Y298737D01*
X2510767D01*
Y298871D01*
X2511035D01*
Y299005D01*
X2511169D01*
Y299139D01*
X2511571D01*
Y299273D01*
X2511839D01*
Y299407D01*
X2511973D01*
Y299541D01*
X2512375D01*
Y299675D01*
X2512509D01*
Y299809D01*
X2512777D01*
Y299943D01*
X2513179D01*
Y300077D01*
X2513313D01*
Y300211D01*
X2513581D01*
Y300345D01*
X2513849D01*
Y300479D01*
X2514117D01*
Y300613D01*
X2514519D01*
Y300747D01*
X2514787D01*
Y300881D01*
X2515055D01*
Y301015D01*
X2515323D01*
Y301149D01*
X2515591D01*
Y301283D01*
X2515859D01*
Y301417D01*
X2516127D01*
Y301551D01*
X2516395D01*
Y301685D01*
X2516797D01*
Y301819D01*
X2517065D01*
Y301953D01*
X2517333D01*
Y302087D01*
X2517735D01*
Y302221D01*
X2518003D01*
Y302355D01*
X2518405D01*
Y302489D01*
X2518673D01*
Y302623D01*
X2518941D01*
Y302757D01*
X2519343D01*
Y302891D01*
X2519611D01*
Y303025D01*
X2520013D01*
Y303159D01*
X2520415D01*
Y303293D01*
X2520683D01*
Y303427D01*
X2521085D01*
Y303561D01*
X2521353D01*
Y303695D01*
X2521755D01*
Y303829D01*
X2522157D01*
Y303963D01*
X2522425D01*
Y304097D01*
X2522827D01*
Y304231D01*
X2523363D01*
Y304365D01*
X2523631D01*
Y304499D01*
X2524033D01*
Y304633D01*
X2524435D01*
Y304767D01*
X2524837D01*
Y304901D01*
X2525373D01*
Y305035D01*
X2525641D01*
Y305169D01*
X2526177D01*
Y305303D01*
X2526713D01*
Y305437D01*
X2527115D01*
Y305571D01*
X2527651D01*
Y305705D01*
X2528053D01*
Y305839D01*
X2528589D01*
Y305973D01*
X2529125D01*
Y306107D01*
X2529527D01*
Y306241D01*
X2530197D01*
Y306375D01*
X2530867D01*
Y306509D01*
X2531135D01*
Y306643D01*
X2531939D01*
Y306777D01*
X2532475D01*
Y306911D01*
X2533145D01*
Y307045D01*
X2533950D01*
Y307179D01*
X2534351D01*
Y307313D01*
X2535289D01*
Y307447D01*
X2536227D01*
Y307581D01*
X2536764D01*
Y307715D01*
X2537702D01*
Y307849D01*
X2538640D01*
Y307983D01*
X2539578D01*
Y308117D01*
X2541052D01*
Y308251D01*
X2541990D01*
Y308385D01*
X2543866D01*
Y308519D01*
X2546814D01*
Y308653D01*
X2552576D01*
Y308519D01*
X2555524D01*
Y308385D01*
X2557266D01*
Y308251D01*
X2558338D01*
Y308117D01*
X2559678D01*
Y307983D01*
X2560616D01*
Y307849D01*
X2561554D01*
Y307715D01*
X2562626D01*
Y307581D01*
X2563296D01*
Y307447D01*
X2564100D01*
Y307313D01*
X2564904D01*
Y307179D01*
X2565306D01*
Y307045D01*
X2566110D01*
Y306911D01*
X2566780D01*
Y306777D01*
X2567316D01*
Y306643D01*
X2567986D01*
Y306509D01*
X2568522D01*
Y306375D01*
X2569059D01*
Y306241D01*
X2569728D01*
Y306107D01*
X2569997D01*
Y305973D01*
X2570666D01*
Y305839D01*
X2571068D01*
Y305705D01*
X2571604D01*
Y305571D01*
X2572141D01*
Y305437D01*
X2572409D01*
Y305303D01*
X2572945D01*
Y305169D01*
X2573481D01*
Y305035D01*
X2573749D01*
Y304901D01*
X2574285D01*
Y304767D01*
X2574687D01*
Y304633D01*
X2575089D01*
Y304499D01*
X2575625D01*
Y304365D01*
X2575893D01*
Y304231D01*
X2576295D01*
Y304097D01*
X2576697D01*
Y303963D01*
X2576965D01*
Y303829D01*
X2577501D01*
Y303695D01*
X2577769D01*
Y303561D01*
X2578037D01*
Y303427D01*
X2578439D01*
Y303293D01*
X2578707D01*
Y303159D01*
X2579109D01*
Y303025D01*
X2579511D01*
Y302891D01*
X2579779D01*
Y302757D01*
X2580181D01*
Y302623D01*
X2580449D01*
Y302489D01*
X2580717D01*
Y302355D01*
X2581119D01*
Y302221D01*
X2581387D01*
Y302087D01*
X2581789D01*
Y301953D01*
X2582057D01*
Y301819D01*
X2582325D01*
Y301685D01*
X2582727D01*
Y301551D01*
X2582995D01*
Y301417D01*
X2583263D01*
Y301283D01*
X2583531D01*
Y301149D01*
X2583799D01*
Y301015D01*
X2584067D01*
Y300881D01*
X2584469D01*
Y300747D01*
X2584603D01*
Y300613D01*
X2585005D01*
Y300479D01*
X2585139D01*
Y300345D01*
X2585407D01*
Y300211D01*
X2585809D01*
Y300077D01*
X2585943D01*
Y299943D01*
X2586211D01*
Y299809D01*
X2586613D01*
Y299675D01*
X2586747D01*
Y299541D01*
X2587015D01*
Y299407D01*
X2587283D01*
Y299273D01*
X2587551D01*
Y299139D01*
X2587819D01*
Y299005D01*
X2587953D01*
Y298871D01*
X2588355D01*
Y298737D01*
X2588623D01*
Y298603D01*
X2588757D01*
Y298469D01*
X2589025D01*
Y298335D01*
X2589293D01*
Y298201D01*
X2589561D01*
Y298067D01*
X2589695D01*
Y297933D01*
X2589963D01*
Y297799D01*
X2590231D01*
Y297665D01*
X2590365D01*
Y297531D01*
X2590633D01*
Y297397D01*
X2590901D01*
Y297263D01*
X2591035D01*
Y297129D01*
X2591303D01*
Y296995D01*
X2591571D01*
Y296861D01*
X2591705D01*
Y296727D01*
X2591973D01*
Y296593D01*
X2592241D01*
Y296459D01*
X2592375D01*
Y296325D01*
X2592643D01*
Y296191D01*
X2592777D01*
Y296057D01*
X2593045D01*
Y295923D01*
X2593313D01*
Y295789D01*
X2593447D01*
Y295655D01*
X2593715D01*
Y295521D01*
X2593849D01*
Y295387D01*
X2593983D01*
Y295253D01*
X2594251D01*
Y295119D01*
X2594519D01*
Y294985D01*
X2594653D01*
Y294851D01*
X2594921D01*
Y294717D01*
X2595055D01*
Y294583D01*
X2595323D01*
Y294449D01*
X2595457D01*
Y294315D01*
X2595591D01*
Y294181D01*
X2595859D01*
Y294047D01*
X2595993D01*
Y293913D01*
X2596261D01*
Y293779D01*
X2596395D01*
Y293645D01*
X2596529D01*
Y293511D01*
X2596797D01*
Y293377D01*
X2597065D01*
Y293243D01*
X2597199D01*
Y293109D01*
X2597333D01*
Y292975D01*
X2597467D01*
Y292841D01*
X2597735D01*
Y292707D01*
X2597869D01*
Y292573D01*
X2598003D01*
Y292439D01*
X2598271D01*
Y292305D01*
X2598405D01*
Y292171D01*
X2598539D01*
Y292037D01*
X2598807D01*
Y291902D01*
X2598941D01*
Y291769D01*
X2599075D01*
Y291635D01*
X2599343D01*
Y291501D01*
X2599477D01*
Y291366D01*
X2599611D01*
Y291233D01*
X2599879D01*
Y291099D01*
X2600013D01*
Y290964D01*
X2600147D01*
Y290830D01*
X2600281D01*
Y290697D01*
X2600415D01*
Y290562D01*
X2600683D01*
Y290428D01*
X2600817D01*
Y290295D01*
X2600951D01*
Y290161D01*
X2601085D01*
Y290026D01*
X2601219D01*
Y289892D01*
X2601487D01*
Y289759D01*
X2601621D01*
Y289624D01*
X2601755D01*
Y289490D01*
X2602023D01*
Y289223D01*
X2602291D01*
Y289089D01*
X2602425D01*
Y288954D01*
X2602559D01*
Y288820D01*
X2602693D01*
Y288686D01*
X2602827D01*
Y288553D01*
X2602961D01*
Y288418D01*
X2603229D01*
Y288284D01*
X2603363D01*
Y288150D01*
X2603497D01*
Y288017D01*
X2603631D01*
Y287882D01*
X2603765D01*
Y287748D01*
X2603899D01*
Y287614D01*
X2604034D01*
Y287480D01*
X2604168D01*
Y287346D01*
X2604302D01*
Y287212D01*
X2604436D01*
Y287078D01*
X2604704D01*
Y286944D01*
X2604838D01*
Y286810D01*
X2604972D01*
Y286676D01*
X2605106D01*
Y286542D01*
X2605240D01*
Y286408D01*
X2605374D01*
Y286274D01*
X2605508D01*
Y286140D01*
X2605642D01*
Y286006D01*
X2605776D01*
Y285872D01*
X2605910D01*
Y285738D01*
X2606044D01*
Y285604D01*
X2606177D01*
Y285470D01*
X2606311D01*
Y285336D01*
X2606445D01*
Y285202D01*
X2606579D01*
Y285068D01*
X2606714D01*
Y284934D01*
X2606847D01*
Y284800D01*
X2606982D01*
Y284666D01*
X2607115D01*
Y284532D01*
X2607250D01*
Y284398D01*
X2607383D01*
Y284264D01*
X2607518D01*
Y284130D01*
X2607652D01*
Y283996D01*
X2607786D01*
Y283862D01*
X2607920D01*
Y283728D01*
X2608054D01*
Y283594D01*
X2608188D01*
Y283460D01*
X2608322D01*
Y283326D01*
X2608456D01*
Y283192D01*
X2608590D01*
Y283058D01*
X2608724D01*
Y282924D01*
X2608858D01*
Y282790D01*
X2608992D01*
Y282656D01*
X2609126D01*
Y282388D01*
X2609260D01*
Y282254D01*
X2609394D01*
Y282120D01*
X2609528D01*
Y281986D01*
X2609662D01*
Y281852D01*
X2609796D01*
Y281718D01*
X2609930D01*
Y281584D01*
X2610064D01*
Y281450D01*
X2610198D01*
Y281316D01*
X2610332D01*
Y281182D01*
X2610466D01*
Y280914D01*
X2610332D01*
Y280780D01*
X2610064D01*
Y280646D01*
X2609930D01*
Y280512D01*
X2609796D01*
Y280378D01*
X2609662D01*
Y280244D01*
X2609394D01*
Y280110D01*
X2609260D01*
Y279976D01*
X2609126D01*
Y279842D01*
X2608858D01*
Y279708D01*
X2608724D01*
Y279574D01*
X2608590D01*
Y279440D01*
X2608456D01*
Y279306D01*
X2608188D01*
Y279172D01*
X2608054D01*
Y279038D01*
X2607920D01*
Y278904D01*
X2607786D01*
Y278770D01*
X2607518D01*
Y278636D01*
X2607383D01*
Y278502D01*
X2607250D01*
Y278368D01*
X2606982D01*
Y278502D01*
X2606847D01*
Y278636D01*
X2606714D01*
Y278770D01*
X2606579D01*
Y279038D01*
X2606445D01*
Y279172D01*
X2606311D01*
Y279306D01*
X2606177D01*
Y279440D01*
X2606044D01*
Y279574D01*
X2605910D01*
Y279708D01*
X2605776D01*
Y279842D01*
X2605642D01*
Y279976D01*
X2605508D01*
Y280110D01*
X2605374D01*
Y280244D01*
X2605240D01*
Y280512D01*
X2605106D01*
Y280646D01*
X2604972D01*
Y280780D01*
X2604838D01*
Y280914D01*
X2604704D01*
Y281048D01*
X2604569D01*
Y281182D01*
X2604436D01*
Y281316D01*
X2604302D01*
Y281450D01*
X2604168D01*
Y281584D01*
X2604034D01*
Y281718D01*
X2603899D01*
Y281852D01*
X2603765D01*
Y281986D01*
X2603631D01*
Y282120D01*
X2603497D01*
Y282254D01*
X2603363D01*
Y282388D01*
X2603229D01*
Y282522D01*
X2603095D01*
Y282656D01*
X2602961D01*
Y282790D01*
X2602827D01*
Y282924D01*
X2602693D01*
Y283058D01*
X2602559D01*
Y283192D01*
X2602425D01*
Y283326D01*
X2602291D01*
Y283460D01*
X2602023D01*
Y283594D01*
X2601889D01*
Y283728D01*
X2601755D01*
Y283862D01*
X2601621D01*
Y283996D01*
X2601487D01*
Y284130D01*
X2601353D01*
Y284264D01*
X2601219D01*
Y284398D01*
X2601085D01*
Y284532D01*
X2600951D01*
Y284666D01*
X2600817D01*
Y284800D01*
X2600549D01*
Y284934D01*
X2600415D01*
Y285068D01*
X2600281D01*
Y285202D01*
X2600147D01*
Y285336D01*
X2600013D01*
Y285470D01*
X2599879D01*
Y285604D01*
X2599745D01*
Y285738D01*
X2599611D01*
Y285872D01*
X2599343D01*
Y286006D01*
X2599209D01*
Y286140D01*
X2599075D01*
Y286274D01*
X2598941D01*
Y286408D01*
X2598807D01*
Y286542D01*
X2598673D01*
Y286676D01*
X2598405D01*
Y286810D01*
X2598271D01*
Y286944D01*
X2598137D01*
Y287078D01*
X2598003D01*
Y287212D01*
X2597869D01*
Y287346D01*
X2597601D01*
Y287480D01*
X2597467D01*
Y287614D01*
X2597333D01*
Y287748D01*
X2597199D01*
Y287882D01*
X2597065D01*
Y288017D01*
X2596797D01*
Y288150D01*
X2596663D01*
Y288284D01*
X2596529D01*
Y288418D01*
X2596261D01*
Y288553D01*
X2596127D01*
Y288686D01*
X2595993D01*
Y288820D01*
X2595725D01*
Y288954D01*
X2595591D01*
Y289089D01*
X2595457D01*
Y289223D01*
X2595189D01*
Y289356D01*
X2595055D01*
Y289490D01*
X2594787D01*
Y289624D01*
X2594653D01*
Y289759D01*
X2594519D01*
Y289892D01*
X2594251D01*
Y290026D01*
X2594117D01*
Y290161D01*
X2593983D01*
Y290295D01*
X2593849D01*
Y290428D01*
X2593581D01*
Y290562D01*
X2593313D01*
Y290697D01*
X2593179D01*
Y290830D01*
X2593045D01*
Y290964D01*
X2592777D01*
Y291099D01*
X2592643D01*
Y291233D01*
X2592375D01*
Y291366D01*
X2592241D01*
Y291501D01*
X2591973D01*
Y291635D01*
X2591839D01*
Y291769D01*
X2591705D01*
Y291902D01*
X2591437D01*
Y292037D01*
X2591169D01*
Y292171D01*
X2591035D01*
Y292305D01*
X2590767D01*
Y292439D01*
X2590633D01*
Y292573D01*
X2590365D01*
Y292707D01*
X2590097D01*
Y292841D01*
X2589963D01*
Y292975D01*
X2589695D01*
Y293109D01*
X2589561D01*
Y293243D01*
X2589293D01*
Y293377D01*
X2589159D01*
Y293511D01*
X2588891D01*
Y293645D01*
X2588623D01*
Y293779D01*
X2588355D01*
Y293913D01*
X2588221D01*
Y294047D01*
X2587953D01*
Y294181D01*
X2587685D01*
Y294315D01*
X2587551D01*
Y294449D01*
X2587283D01*
Y294583D01*
X2587015D01*
Y294717D01*
X2586881D01*
Y294851D01*
X2586479D01*
Y294985D01*
X2586345D01*
Y295119D01*
X2586077D01*
Y295253D01*
X2585809D01*
Y295387D01*
X2585675D01*
Y295521D01*
X2585273D01*
Y295655D01*
X2585139D01*
Y295789D01*
X2584871D01*
Y295923D01*
X2584603D01*
Y296057D01*
X2584335D01*
Y296191D01*
X2584067D01*
Y296325D01*
X2583799D01*
Y296459D01*
X2583531D01*
Y296593D01*
X2583263D01*
Y296727D01*
X2582995D01*
Y296861D01*
X2582727D01*
Y296995D01*
X2582459D01*
Y297129D01*
X2582191D01*
Y297263D01*
X2581923D01*
Y297397D01*
X2581521D01*
Y297531D01*
X2581253D01*
Y297665D01*
X2580985D01*
Y297799D01*
X2580717D01*
Y297933D01*
X2580449D01*
Y298067D01*
X2580047D01*
Y298201D01*
X2579779D01*
Y298335D01*
X2579511D01*
Y298469D01*
X2579109D01*
Y298603D01*
X2578841D01*
Y298737D01*
X2578439D01*
Y298871D01*
X2578171D01*
Y299005D01*
X2577903D01*
Y299139D01*
X2577501D01*
Y299273D01*
X2577233D01*
Y299407D01*
X2576831D01*
Y299541D01*
X2576429D01*
Y299675D01*
X2576161D01*
Y299809D01*
X2575759D01*
Y299943D01*
X2575357D01*
Y300077D01*
X2574955D01*
Y300211D01*
X2574553D01*
Y300345D01*
X2574285D01*
Y300479D01*
X2573883D01*
Y300613D01*
X2573347D01*
Y300747D01*
X2573079D01*
Y300881D01*
X2572543D01*
Y301015D01*
X2572141D01*
Y301149D01*
X2571738D01*
Y301283D01*
X2571202D01*
Y301417D01*
X2570934D01*
Y301551D01*
X2570265D01*
Y301685D01*
X2569728D01*
Y301819D01*
X2569327D01*
Y301953D01*
X2568790D01*
Y302087D01*
X2568254D01*
Y302221D01*
X2567852D01*
Y302355D01*
X2567048D01*
Y302489D01*
X2566646D01*
Y302623D01*
X2566110D01*
Y302757D01*
X2565306D01*
Y302891D01*
X2564770D01*
Y303025D01*
X2563966D01*
Y303159D01*
X2563296D01*
Y303293D01*
X2562626D01*
Y303427D01*
X2561688D01*
Y303561D01*
X2560884D01*
Y303695D01*
X2559812D01*
Y303829D01*
X2558606D01*
Y303963D01*
X2557668D01*
Y304097D01*
X2555792D01*
Y304231D01*
X2554050D01*
Y304365D01*
X2545474D01*
Y304231D01*
X2543464D01*
Y304097D01*
X2543330D01*
Y304231D01*
X2543196D01*
Y304097D01*
X2541588D01*
Y303963D01*
X2540650D01*
Y303829D01*
X2539444D01*
Y303695D01*
X2538372D01*
Y303561D01*
X2537568D01*
Y303427D01*
X2536630D01*
Y303293D01*
X2535959D01*
Y303159D01*
X2535155D01*
Y303025D01*
X2534351D01*
Y302891D01*
X2533815D01*
Y302757D01*
X2533145D01*
Y302623D01*
X2532475D01*
Y302489D01*
X2532073D01*
Y302355D01*
X2531403D01*
Y302221D01*
X2530867D01*
Y302087D01*
X2530331D01*
Y301953D01*
X2529661D01*
Y301819D01*
X2529393D01*
Y301685D01*
X2528723D01*
Y301551D01*
X2528321D01*
Y301417D01*
X2527919D01*
Y301283D01*
X2527383D01*
Y301149D01*
X2526981D01*
Y301015D01*
X2526579D01*
Y300881D01*
X2525909D01*
Y300747D01*
X2525775D01*
Y300613D01*
X2525239D01*
Y300479D01*
X2524837D01*
Y300345D01*
X2524435D01*
Y300211D01*
X2524033D01*
Y300077D01*
X2523631D01*
Y299943D01*
X2523363D01*
Y299809D01*
X2522827D01*
Y299675D01*
X2522559D01*
Y299541D01*
X2522157D01*
Y299407D01*
X2521755D01*
Y299273D01*
X2521487D01*
Y299139D01*
X2521085D01*
Y299005D01*
X2520817D01*
Y298871D01*
X2520549D01*
Y298737D01*
X2520147D01*
Y298603D01*
X2519879D01*
Y298469D01*
X2519477D01*
Y298335D01*
X2519209D01*
Y298201D01*
X2518941D01*
Y298067D01*
X2518539D01*
Y297933D01*
X2518271D01*
Y297799D01*
X2518003D01*
Y297665D01*
X2517601D01*
Y297531D01*
X2517467D01*
Y297397D01*
X2517065D01*
Y297263D01*
X2516797D01*
Y297129D01*
X2516529D01*
Y296995D01*
X2516261D01*
Y296861D01*
X2515993D01*
Y296727D01*
X2515725D01*
Y296593D01*
X2515323D01*
Y296459D01*
X2515189D01*
Y296325D01*
X2514787D01*
Y296191D01*
X2514519D01*
Y296057D01*
X2514385D01*
Y295923D01*
X2514117D01*
Y295789D01*
X2513849D01*
Y295655D01*
X2513581D01*
Y295521D01*
X2513179D01*
Y295387D01*
X2513045D01*
Y295253D01*
X2512777D01*
Y295119D01*
X2512509D01*
Y294985D01*
X2512375D01*
Y294851D01*
X2511973D01*
Y294717D01*
X2511839D01*
Y294583D01*
X2511571D01*
Y294449D01*
X2511303D01*
Y294315D01*
X2511169D01*
Y294181D01*
X2510901D01*
Y294047D01*
X2510633D01*
Y293913D01*
X2510499D01*
Y293779D01*
X2510231D01*
Y293645D01*
X2509963D01*
Y293511D01*
X2509829D01*
Y293377D01*
X2509561D01*
Y293243D01*
X2509293D01*
Y293109D01*
X2509025D01*
Y292975D01*
X2508891D01*
Y292841D01*
X2508757D01*
Y292707D01*
X2508489D01*
Y292573D01*
X2508221D01*
Y292439D01*
X2508087D01*
Y292305D01*
X2507819D01*
Y292171D01*
X2507685D01*
Y292037D01*
X2507417D01*
Y291902D01*
X2507149D01*
Y291769D01*
X2507015D01*
Y291635D01*
X2506747D01*
Y291501D01*
X2506613D01*
Y291366D01*
X2506479D01*
Y291233D01*
X2506211D01*
Y291099D01*
X2506077D01*
Y290964D01*
X2505809D01*
Y290830D01*
X2505541D01*
Y290562D01*
X2505273D01*
Y290428D01*
X2505005D01*
Y290295D01*
X2504871D01*
Y290161D01*
X2504603D01*
Y290026D01*
X2504468D01*
Y289892D01*
X2504335D01*
Y289759D01*
X2504067D01*
Y289624D01*
X2503933D01*
Y289490D01*
X2503799D01*
Y289356D01*
X2503530D01*
Y289223D01*
X2503397D01*
Y289089D01*
X2503262D01*
Y288954D01*
X2503129D01*
Y288820D01*
X2502861D01*
Y288686D01*
X2502727D01*
Y288553D01*
X2502593D01*
Y288418D01*
X2502325D01*
Y288284D01*
X2502191D01*
Y288150D01*
X2502057D01*
Y288017D01*
X2501789D01*
Y287882D01*
X2501655D01*
Y287748D01*
X2501521D01*
Y287614D01*
X2501387D01*
Y287480D01*
X2501253D01*
Y287346D01*
X2500985D01*
Y287212D01*
X2500851D01*
Y287078D01*
X2500716D01*
Y286944D01*
X2500448D01*
Y286810D01*
X2500314D01*
Y286676D01*
X2500180D01*
Y286542D01*
X2500046D01*
Y286408D01*
X2499912D01*
Y286274D01*
X2499778D01*
Y286140D01*
X2499510D01*
Y286006D01*
X2499376D01*
Y285872D01*
X2499242D01*
Y285738D01*
X2499108D01*
Y285604D01*
X2498974D01*
Y285470D01*
X2498840D01*
Y285336D01*
X2498706D01*
Y285202D01*
X2498438D01*
Y285068D01*
X2498304D01*
Y284934D01*
X2498170D01*
Y284800D01*
X2498036D01*
Y284666D01*
X2497902D01*
Y284532D01*
X2497768D01*
Y284398D01*
X2497634D01*
Y284264D01*
X2497500D01*
Y284130D01*
X2497232D01*
Y283996D01*
X2497098D01*
Y283862D01*
X2496964D01*
Y283728D01*
X2496830D01*
Y283594D01*
X2496696D01*
Y283460D01*
X2496562D01*
Y283326D01*
X2496428D01*
Y283192D01*
X2496294D01*
Y283058D01*
X2496160D01*
Y282924D01*
X2496026D01*
Y282790D01*
X2495892D01*
Y282656D01*
X2495758D01*
Y282522D01*
X2495624D01*
Y282388D01*
X2495490D01*
Y282254D01*
X2495356D01*
Y282120D01*
X2495222D01*
Y281986D01*
X2495088D01*
Y281852D01*
X2494954D01*
Y281718D01*
X2494820D01*
Y281584D01*
X2494686D01*
Y281450D01*
X2494552D01*
Y281316D01*
X2494418D01*
Y281182D01*
X2494284D01*
Y281048D01*
X2494150D01*
Y280914D01*
X2494016D01*
Y280780D01*
X2493882D01*
Y280646D01*
X2493748D01*
Y280512D01*
X2493614D01*
Y280244D01*
X2493480D01*
Y280110D01*
X2493346D01*
Y279976D01*
X2493212D01*
Y279842D01*
X2493078D01*
Y279708D01*
X2492944D01*
Y279574D01*
X2492810D01*
Y279440D01*
X2492676D01*
Y279306D01*
X2492542D01*
Y279172D01*
X2492408D01*
Y279038D01*
X2492274D01*
Y278770D01*
X2492140D01*
Y278636D01*
X2492006D01*
Y278502D01*
X2491872D01*
Y278368D01*
X2491738D01*
Y278234D01*
X2491604D01*
Y278100D01*
X2491470D01*
Y277832D01*
X2491336D01*
Y277698D01*
X2491202D01*
Y277564D01*
X2491068D01*
Y277430D01*
X2490934D01*
Y277296D01*
X2490800D01*
Y277162D01*
X2490666D01*
Y276894D01*
X2490532D01*
Y276760D01*
X2490398D01*
Y276626D01*
X2490264D01*
Y276492D01*
X2490130D01*
Y276224D01*
X2489996D01*
Y276090D01*
X2489862D01*
Y275956D01*
X2489728D01*
Y275822D01*
X2489594D01*
Y275688D01*
X2489460D01*
Y275420D01*
X2489326D01*
Y275286D01*
X2489192D01*
Y275152D01*
X2489058D01*
Y274884D01*
X2488924D01*
Y274750D01*
X2488790D01*
Y274616D01*
X2488656D01*
Y274348D01*
X2488522D01*
Y274214D01*
X2488388D01*
Y274080D01*
X2488254D01*
Y273812D01*
X2488120D01*
Y273678D01*
X2487986D01*
Y273544D01*
X2487852D01*
Y273276D01*
X2487718D01*
Y273142D01*
X2487584D01*
Y272874D01*
X2487450D01*
Y272740D01*
X2487316D01*
Y272606D01*
X2487182D01*
Y272338D01*
X2487048D01*
Y272204D01*
X2486914D01*
Y271936D01*
X2486780D01*
Y271802D01*
X2486646D01*
Y271668D01*
X2486512D01*
Y271400D01*
X2486378D01*
Y271266D01*
X2486244D01*
Y270998D01*
X2486110D01*
Y270864D01*
X2485976D01*
Y270596D01*
X2485842D01*
Y270462D01*
X2485708D01*
Y270194D01*
X2485574D01*
Y270060D01*
X2485440D01*
Y269792D01*
X2485306D01*
Y269658D01*
X2485172D01*
Y269390D01*
X2485038D01*
Y269122D01*
X2484904D01*
Y268988D01*
X2484770D01*
Y268720D01*
X2484636D01*
Y268586D01*
X2484502D01*
Y268318D01*
X2484368D01*
Y268050D01*
X2484234D01*
Y267916D01*
X2484100D01*
Y267648D01*
X2483966D01*
Y267380D01*
X2483832D01*
Y267246D01*
X2483698D01*
Y266978D01*
X2483564D01*
Y266710D01*
X2483430D01*
Y266442D01*
X2483296D01*
Y266174D01*
X2483162D01*
Y266040D01*
X2483028D01*
Y265772D01*
X2482894D01*
Y265504D01*
X2482760D01*
Y265370D01*
X2482626D01*
Y264968D01*
X2482492D01*
Y264834D01*
X2482358D01*
Y264566D01*
X2482224D01*
Y264298D01*
X2482090D01*
Y264030D01*
X2481956D01*
Y263762D01*
X2481822D01*
Y263494D01*
X2481688D01*
Y263226D01*
X2481554D01*
Y262958D01*
X2481420D01*
Y262824D01*
X2481286D01*
Y262422D01*
X2481152D01*
Y262154D01*
X2481018D01*
Y262020D01*
X2480884D01*
Y261618D01*
X2480750D01*
Y261350D01*
X2480616D01*
Y261082D01*
X2480482D01*
Y260680D01*
X2480348D01*
Y260546D01*
X2480214D01*
Y260278D01*
X2480080D01*
Y259876D01*
X2479946D01*
Y259608D01*
X2479812D01*
Y259340D01*
X2479678D01*
Y259072D01*
X2479544D01*
Y258670D01*
X2479410D01*
Y258402D01*
X2479276D01*
Y258134D01*
X2479142D01*
Y257731D01*
X2479008D01*
Y257464D01*
X2478874D01*
Y257196D01*
X2478740D01*
Y256793D01*
X2478606D01*
Y256526D01*
X2478472D01*
Y256123D01*
X2478338D01*
Y255721D01*
X2478204D01*
Y255453D01*
X2478070D01*
Y255052D01*
X2477936D01*
Y254649D01*
X2477802D01*
Y254381D01*
X2477668D01*
Y253979D01*
X2477534D01*
Y253711D01*
X2477400D01*
Y253309D01*
X2477266D01*
Y252907D01*
X2477132D01*
Y252505D01*
X2476998D01*
Y252103D01*
X2476864D01*
Y251701D01*
X2476730D01*
Y251299D01*
X2476596D01*
Y250897D01*
X2476462D01*
Y250495D01*
X2476328D01*
Y250093D01*
X2476194D01*
Y249557D01*
X2476060D01*
Y249289D01*
X2475926D01*
Y248753D01*
X2475792D01*
Y248217D01*
X2475658D01*
Y247815D01*
X2475524D01*
Y247279D01*
X2475390D01*
Y246877D01*
X2475256D01*
Y246341D01*
X2475122D01*
Y245805D01*
X2474988D01*
Y245403D01*
X2474854D01*
Y244733D01*
X2474720D01*
Y244197D01*
X2474586D01*
Y243795D01*
X2474452D01*
Y243125D01*
X2474318D01*
Y242455D01*
X2474184D01*
Y241919D01*
X2474050D01*
Y241115D01*
X2473916D01*
Y240579D01*
X2473782D01*
Y239775D01*
X2473648D01*
Y238971D01*
X2473514D01*
Y238435D01*
X2473380D01*
Y237363D01*
X2473246D01*
Y236559D01*
X2473112D01*
Y235755D01*
X2472978D01*
Y234549D01*
X2472844D01*
Y233745D01*
X2472710D01*
Y232271D01*
X2472576D01*
Y230529D01*
X2472442D01*
Y229055D01*
X2472308D01*
Y219942D01*
X2472442D01*
Y218602D01*
X2472576D01*
Y216994D01*
X2472710D01*
Y215520D01*
X2472844D01*
Y214850D01*
X2472978D01*
Y213778D01*
X2473112D01*
Y213108D01*
X2473246D01*
Y212304D01*
X2473380D01*
Y211366D01*
X2473514D01*
Y210964D01*
X2473648D01*
Y210026D01*
X2473782D01*
Y209356D01*
X2473916D01*
Y208820D01*
X2474050D01*
Y208150D01*
X2474184D01*
Y207614D01*
X2474318D01*
Y207078D01*
X2474452D01*
Y206408D01*
X2474586D01*
Y206006D01*
X2474720D01*
Y205336D01*
X2474854D01*
Y204800D01*
X2474988D01*
Y204532D01*
X2475122D01*
Y203862D01*
X2475256D01*
Y203460D01*
X2475390D01*
Y203058D01*
X2475524D01*
Y202522D01*
X2475658D01*
Y202254D01*
X2475792D01*
Y201718D01*
X2475926D01*
Y201182D01*
X2476060D01*
Y200914D01*
X2476194D01*
Y200512D01*
X2476328D01*
Y200110D01*
X2476462D01*
Y199708D01*
X2476596D01*
Y199306D01*
X2476730D01*
Y199038D01*
X2476864D01*
Y198502D01*
X2476998D01*
Y198234D01*
X2477132D01*
Y197832D01*
X2477266D01*
Y197430D01*
X2477400D01*
Y197162D01*
X2477534D01*
Y196894D01*
X2477668D01*
Y196358D01*
X2477802D01*
Y196224D01*
X2477936D01*
Y195822D01*
X2478070D01*
Y195420D01*
X2478204D01*
Y195152D01*
X2478338D01*
Y194884D01*
X2478472D01*
Y194482D01*
X2478606D01*
Y194214D01*
X2478740D01*
Y193946D01*
X2478874D01*
Y193678D01*
X2479008D01*
Y193276D01*
X2479142D01*
Y193008D01*
X2479276D01*
Y192740D01*
X2479410D01*
Y192472D01*
X2479544D01*
Y192070D01*
X2479678D01*
Y191936D01*
X2479812D01*
Y191534D01*
X2479946D01*
Y191400D01*
X2480080D01*
Y190998D01*
X2480214D01*
Y190730D01*
X2480348D01*
Y190596D01*
X2480482D01*
Y190194D01*
X2480616D01*
Y189926D01*
X2480750D01*
Y189792D01*
X2480884D01*
Y189390D01*
X2481018D01*
Y189256D01*
X2481152D01*
Y188988D01*
X2481286D01*
Y188720D01*
X2481420D01*
Y188452D01*
X2481554D01*
Y188184D01*
X2481688D01*
Y187916D01*
X2481822D01*
Y187648D01*
X2481956D01*
Y187513D01*
X2482090D01*
Y187245D01*
X2482224D01*
Y186977D01*
X2482358D01*
Y186709D01*
X2482492D01*
Y186576D01*
X2482626D01*
Y186308D01*
X2482760D01*
Y186040D01*
X2482894D01*
Y185905D01*
X2483028D01*
Y185503D01*
X2483162D01*
Y185369D01*
X2483296D01*
Y185101D01*
X2483430D01*
Y184967D01*
X2483296D01*
Y184297D01*
X2483162D01*
Y183895D01*
X2483028D01*
Y183225D01*
X2482894D01*
Y182689D01*
X2482760D01*
Y182019D01*
X2482626D01*
Y181349D01*
X2482492D01*
Y180947D01*
X2482358D01*
Y180277D01*
X2482224D01*
Y179607D01*
X2481956D01*
Y179741D01*
X2481822D01*
Y180009D01*
X2481688D01*
Y180143D01*
X2481554D01*
Y180411D01*
X2481420D01*
Y180679D01*
X2481286D01*
Y180813D01*
X2481152D01*
Y181081D01*
X2481018D01*
Y181215D01*
X2480884D01*
Y181483D01*
X2480750D01*
Y181751D01*
X2480616D01*
Y181885D01*
X2480482D01*
Y182153D01*
X2480348D01*
Y182421D01*
X2480214D01*
Y182555D01*
X2480080D01*
Y182823D01*
X2479946D01*
Y182957D01*
X2479812D01*
Y183225D01*
X2479678D01*
Y183493D01*
X2479544D01*
Y183627D01*
X2479410D01*
Y184029D01*
X2479276D01*
Y184163D01*
X2479142D01*
Y184431D01*
X2479008D01*
Y184699D01*
X2478874D01*
Y184833D01*
X2478740D01*
Y185101D01*
X2478606D01*
Y185369D01*
X2478472D01*
Y185637D01*
X2478338D01*
Y185771D01*
X2478204D01*
Y186040D01*
X2478070D01*
Y186308D01*
X2477936D01*
Y186576D01*
X2477802D01*
Y186844D01*
X2477668D01*
Y187112D01*
X2477534D01*
Y187380D01*
X2477400D01*
Y187513D01*
X2477266D01*
Y187781D01*
X2477132D01*
Y188049D01*
X2476998D01*
Y188317D01*
X2476864D01*
Y188720D01*
X2476730D01*
Y188854D01*
X2476596D01*
Y189122D01*
X2476462D01*
Y189524D01*
X2476328D01*
Y189658D01*
X2476194D01*
Y189926D01*
X2476060D01*
Y190194D01*
X2475926D01*
Y190462D01*
X2475792D01*
Y190864D01*
X2475658D01*
Y191132D01*
X2475524D01*
Y191400D01*
X2475390D01*
Y191668D01*
X2475256D01*
Y191936D01*
X2475122D01*
Y192338D01*
X2474988D01*
Y192606D01*
X2474854D01*
Y192874D01*
X2474720D01*
Y193276D01*
X2474586D01*
Y193410D01*
X2474452D01*
Y193812D01*
X2474318D01*
Y194214D01*
X2474184D01*
Y194348D01*
X2474050D01*
Y194750D01*
X2473916D01*
Y195152D01*
X2473782D01*
Y195420D01*
X2473648D01*
Y195822D01*
X2473514D01*
Y196090D01*
X2473380D01*
Y196492D01*
X2473246D01*
Y196894D01*
X2473112D01*
Y197162D01*
X2472978D01*
Y197564D01*
X2472844D01*
Y197966D01*
X2472710D01*
Y198368D01*
X2472576D01*
Y198770D01*
X2472442D01*
Y199038D01*
X2472308D01*
Y199574D01*
X2472174D01*
Y199976D01*
X2472040D01*
Y200244D01*
X2471906D01*
Y200780D01*
X2471772D01*
Y201182D01*
X2471638D01*
Y201584D01*
X2471504D01*
Y201986D01*
X2471370D01*
Y202388D01*
X2471236D01*
Y202924D01*
X2471102D01*
Y203326D01*
X2470968D01*
Y203728D01*
X2470834D01*
Y204264D01*
X2470700D01*
Y204666D01*
X2470566D01*
Y205202D01*
X2470432D01*
Y205738D01*
X2470298D01*
Y206140D01*
X2470164D01*
Y206810D01*
X2470030D01*
Y207346D01*
X2469896D01*
Y207748D01*
X2469762D01*
Y208418D01*
X2469628D01*
Y208820D01*
X2469494D01*
Y209356D01*
X2469360D01*
Y210026D01*
X2469226D01*
Y210562D01*
X2469091D01*
Y211232D01*
X2468958D01*
Y211902D01*
X2468823D01*
Y212438D01*
X2468689D01*
Y213108D01*
X2468555D01*
Y213644D01*
X2468421D01*
Y214314D01*
X2468287D01*
Y215118D01*
X2468153D01*
Y215654D01*
X2468020D01*
Y216458D01*
X2467885D01*
Y217262D01*
X2467751D01*
Y217932D01*
X2467617D01*
Y218736D01*
X2467483D01*
Y219406D01*
X2467349D01*
Y220077D01*
X2467215D01*
Y221149D01*
X2467081D01*
Y221819D01*
X2466948D01*
Y222623D01*
X2466814D01*
Y223561D01*
X2466680D01*
Y224365D01*
X2466546D01*
Y225437D01*
X2466412D01*
Y226241D01*
X2466278D01*
Y227045D01*
X2466144D01*
Y228251D01*
X2466010D01*
Y228921D01*
X2465875D01*
Y230127D01*
X2465742D01*
Y231333D01*
X2465607D01*
Y232003D01*
X2465474D01*
Y233343D01*
X2465339D01*
Y234281D01*
X2465206D01*
Y235353D01*
X2465071D01*
Y236693D01*
X2464937D01*
Y237631D01*
X2464803D01*
Y238971D01*
X2464669D01*
Y240311D01*
X2464535D01*
Y241249D01*
X2464401D01*
Y242723D01*
X2464267D01*
Y243795D01*
X2464133D01*
Y245001D01*
X2463999D01*
Y246475D01*
X2463865D01*
Y247413D01*
X2463731D01*
Y248887D01*
X2463597D01*
Y250361D01*
X2463463D01*
Y251299D01*
X2463329D01*
Y252773D01*
X2463195D01*
Y253845D01*
X2463061D01*
Y255052D01*
X2462927D01*
Y255185D01*
X2463061D01*
Y255320D01*
X2462927D01*
Y256660D01*
X2462793D01*
Y257598D01*
X2462659D01*
Y259072D01*
X2462525D01*
Y260546D01*
X2462391D01*
Y261618D01*
X2462257D01*
Y263226D01*
X2462123D01*
Y264298D01*
X2461989D01*
Y265504D01*
X2461855D01*
Y267112D01*
X2461721D01*
Y268184D01*
X2461587D01*
Y269658D01*
X2461453D01*
Y271132D01*
X2461319D01*
Y272204D01*
X2461185D01*
Y273812D01*
X2461051D01*
Y274884D01*
X2460917D01*
Y276090D01*
X2460783D01*
Y276224D01*
X2460917D01*
Y276358D01*
X2460783D01*
Y277966D01*
X2460649D01*
Y278904D01*
X2460515D01*
Y280378D01*
X2460381D01*
Y281852D01*
X2460247D01*
Y282924D01*
X2460113D01*
Y284532D01*
X2459979D01*
Y285604D01*
X2459845D01*
Y287078D01*
X2459711D01*
Y288553D01*
X2459577D01*
Y289624D01*
X2459443D01*
Y291233D01*
X2459309D01*
Y292707D01*
X2459175D01*
Y293779D01*
X2459041D01*
Y295387D01*
X2458907D01*
Y296593D01*
X2458773D01*
Y297933D01*
X2458639D01*
Y299541D01*
X2458505D01*
Y300613D01*
X2458371D01*
Y302087D01*
X2458237D01*
Y303695D01*
X2458103D01*
Y304767D01*
X2457969D01*
Y306375D01*
X2457835D01*
Y307581D01*
X2457701D01*
Y308921D01*
X2457567D01*
Y310529D01*
X2457433D01*
Y311735D01*
X2457299D01*
Y312137D01*
X2457433D01*
Y312271D01*
X2459845D01*
Y312137D01*
X2459979D01*
Y312271D01*
X2460515D01*
Y312137D01*
X2460649D01*
Y312271D01*
X2461319D01*
Y312137D01*
D02*
G37*
G36*
X2630834Y223293D02*
X2630968D01*
Y222757D01*
X2630834D01*
Y222488D01*
X2630968D01*
Y222355D01*
X2630834D01*
Y222220D01*
X2630968D01*
Y222087D01*
X2630834D01*
Y219942D01*
X2630700D01*
Y218468D01*
X2630566D01*
Y216994D01*
X2630432D01*
Y216056D01*
X2630298D01*
Y214716D01*
X2630164D01*
Y213778D01*
X2630030D01*
Y212974D01*
X2629896D01*
Y212036D01*
X2629762D01*
Y211232D01*
X2629628D01*
Y210562D01*
X2629494D01*
Y209758D01*
X2629360D01*
Y209222D01*
X2629226D01*
Y208552D01*
X2629092D01*
Y207748D01*
X2628958D01*
Y207480D01*
X2628824D01*
Y206676D01*
X2628690D01*
Y206140D01*
X2628556D01*
Y205738D01*
X2628422D01*
Y205068D01*
X2628288D01*
Y204666D01*
X2628154D01*
Y203996D01*
X2628020D01*
Y203460D01*
X2627886D01*
Y203192D01*
X2627752D01*
Y202656D01*
X2627618D01*
Y202120D01*
X2627484D01*
Y201718D01*
X2627350D01*
Y201182D01*
X2627216D01*
Y200914D01*
X2627082D01*
Y200378D01*
X2626948D01*
Y199976D01*
X2626814D01*
Y199708D01*
X2626680D01*
Y199172D01*
X2626546D01*
Y198770D01*
X2626412D01*
Y198368D01*
X2626278D01*
Y197966D01*
X2626144D01*
Y197698D01*
X2626010D01*
Y197296D01*
X2625876D01*
Y196894D01*
X2625742D01*
Y196626D01*
X2625608D01*
Y196090D01*
X2625474D01*
Y195822D01*
X2625340D01*
Y195554D01*
X2625206D01*
Y195152D01*
X2625072D01*
Y194884D01*
X2624938D01*
Y194482D01*
X2624804D01*
Y194080D01*
X2624670D01*
Y193812D01*
X2624536D01*
Y193410D01*
X2624402D01*
Y193142D01*
X2624268D01*
Y192874D01*
X2624134D01*
Y192472D01*
X2624000D01*
Y192204D01*
X2623866D01*
Y191936D01*
X2623732D01*
Y191534D01*
X2623598D01*
Y191400D01*
X2623464D01*
Y190998D01*
X2623330D01*
Y190730D01*
X2623196D01*
Y190462D01*
X2623062D01*
Y190060D01*
X2622928D01*
Y189926D01*
X2622794D01*
Y189524D01*
X2622660D01*
Y189256D01*
X2622526D01*
Y189122D01*
X2622392D01*
Y188720D01*
X2622258D01*
Y188452D01*
X2622124D01*
Y188184D01*
X2621990D01*
Y187916D01*
X2621856D01*
Y187781D01*
X2621722D01*
Y187380D01*
X2621588D01*
Y187112D01*
X2621454D01*
Y186977D01*
X2621320D01*
Y186576D01*
X2621186D01*
Y186441D01*
X2621052D01*
Y186308D01*
X2620918D01*
Y186173D01*
X2620650D01*
Y186040D01*
X2620516D01*
Y185905D01*
X2620248D01*
Y185771D01*
X2619980D01*
Y185637D01*
X2619846D01*
Y185503D01*
X2619578D01*
Y185369D01*
X2619310D01*
Y185235D01*
X2619042D01*
Y185101D01*
X2618774D01*
Y184967D01*
X2618640D01*
Y184833D01*
X2618238D01*
Y184699D01*
X2617970D01*
Y184565D01*
X2617702D01*
Y184431D01*
X2617434D01*
Y184297D01*
X2617166D01*
Y184163D01*
X2616764D01*
Y184029D01*
X2616496D01*
Y183895D01*
X2616228D01*
Y183761D01*
X2615826D01*
Y183627D01*
X2615424D01*
Y183493D01*
X2615156D01*
Y183359D01*
X2614620D01*
Y183225D01*
X2614218D01*
Y183359D01*
X2614352D01*
Y183493D01*
X2614486D01*
Y183761D01*
X2614620D01*
Y183895D01*
X2614754D01*
Y184163D01*
X2614888D01*
Y184431D01*
X2615022D01*
Y184565D01*
X2615156D01*
Y184833D01*
X2615290D01*
Y185101D01*
X2615424D01*
Y185235D01*
X2615558D01*
Y185503D01*
X2615692D01*
Y185771D01*
X2615826D01*
Y185905D01*
X2615960D01*
Y186173D01*
X2616094D01*
Y186441D01*
X2616228D01*
Y186709D01*
X2616362D01*
Y186844D01*
X2616496D01*
Y187112D01*
X2616630D01*
Y187380D01*
X2616764D01*
Y187648D01*
X2616898D01*
Y187916D01*
X2617032D01*
Y188184D01*
X2617166D01*
Y188317D01*
X2617300D01*
Y188586D01*
X2617434D01*
Y188854D01*
X2617568D01*
Y189122D01*
X2617702D01*
Y189390D01*
X2617836D01*
Y189658D01*
X2617970D01*
Y189926D01*
X2618104D01*
Y190194D01*
X2618238D01*
Y190328D01*
X2618372D01*
Y190730D01*
X2618506D01*
Y190998D01*
X2618640D01*
Y191266D01*
X2618774D01*
Y191534D01*
X2618908D01*
Y191802D01*
X2619042D01*
Y192070D01*
X2619176D01*
Y192472D01*
X2619310D01*
Y192606D01*
X2619444D01*
Y193008D01*
X2619578D01*
Y193276D01*
X2619712D01*
Y193544D01*
X2619846D01*
Y193812D01*
X2619980D01*
Y194214D01*
X2620114D01*
Y194482D01*
X2620248D01*
Y194884D01*
X2620382D01*
Y195018D01*
X2620516D01*
Y195420D01*
X2620650D01*
Y195822D01*
X2620784D01*
Y196090D01*
X2620918D01*
Y196492D01*
X2621052D01*
Y196760D01*
X2621186D01*
Y197162D01*
X2621320D01*
Y197430D01*
X2621454D01*
Y197698D01*
X2621588D01*
Y198234D01*
X2621722D01*
Y198502D01*
X2621856D01*
Y198904D01*
X2621990D01*
Y199306D01*
X2622124D01*
Y199574D01*
X2622258D01*
Y199976D01*
X2622392D01*
Y200378D01*
X2622526D01*
Y200780D01*
X2622660D01*
Y201182D01*
X2622794D01*
Y201584D01*
X2622928D01*
Y201986D01*
X2623062D01*
Y202522D01*
X2623196D01*
Y202924D01*
X2623330D01*
Y203326D01*
X2623464D01*
Y203862D01*
X2623598D01*
Y204264D01*
X2623732D01*
Y204800D01*
X2623866D01*
Y205202D01*
X2624000D01*
Y205738D01*
X2624134D01*
Y206274D01*
X2624268D01*
Y206810D01*
X2624402D01*
Y207346D01*
X2624536D01*
Y208016D01*
X2624670D01*
Y208418D01*
X2624804D01*
Y209222D01*
X2624938D01*
Y209758D01*
X2625072D01*
Y210428D01*
X2625206D01*
Y211098D01*
X2625340D01*
Y211768D01*
X2625474D01*
Y212706D01*
X2625608D01*
Y213510D01*
X2625742D01*
Y214180D01*
X2625876D01*
Y215252D01*
X2626010D01*
Y216324D01*
X2626144D01*
Y217396D01*
X2626278D01*
Y218870D01*
X2626412D01*
Y220210D01*
X2626546D01*
Y223159D01*
X2626680D01*
Y223293D01*
X2626814D01*
Y223427D01*
X2627082D01*
Y223293D01*
X2627216D01*
Y223427D01*
X2630298D01*
Y223293D01*
X2630432D01*
Y223427D01*
X2630566D01*
Y223293D01*
X2630700D01*
Y223427D01*
X2630834D01*
Y223293D01*
D02*
G37*
G36*
X2611404Y171299D02*
X2611270D01*
Y171165D01*
X2611136D01*
Y171031D01*
X2611002D01*
Y170897D01*
X2610868D01*
Y170763D01*
X2610734D01*
Y170629D01*
X2610600D01*
Y170495D01*
X2610466D01*
Y170361D01*
X2610332D01*
Y170227D01*
X2610198D01*
Y170093D01*
X2610064D01*
Y169959D01*
X2609930D01*
Y169825D01*
X2609796D01*
Y169691D01*
X2609662D01*
Y169557D01*
X2609528D01*
Y169289D01*
X2609394D01*
Y169155D01*
X2609260D01*
Y169021D01*
X2609126D01*
Y168887D01*
X2608992D01*
Y168753D01*
X2608858D01*
Y168619D01*
X2608724D01*
Y168485D01*
X2608590D01*
Y168351D01*
X2608456D01*
Y168217D01*
X2608322D01*
Y168083D01*
X2608188D01*
Y167949D01*
X2608054D01*
Y167815D01*
X2607920D01*
Y167681D01*
X2607786D01*
Y167547D01*
X2607652D01*
Y167413D01*
X2607518D01*
Y167279D01*
X2607383D01*
Y167145D01*
X2607250D01*
Y167011D01*
X2607115D01*
Y166877D01*
X2606982D01*
Y166743D01*
X2606714D01*
Y166609D01*
X2606579D01*
Y166475D01*
X2606445D01*
Y166341D01*
X2606311D01*
Y166207D01*
X2606177D01*
Y166073D01*
X2606044D01*
Y165939D01*
X2605910D01*
Y165805D01*
X2605776D01*
Y165671D01*
X2605642D01*
Y165537D01*
X2605508D01*
Y165403D01*
X2605374D01*
Y165269D01*
X2605240D01*
Y165135D01*
X2605106D01*
Y165001D01*
X2604972D01*
Y164867D01*
X2604838D01*
Y164733D01*
X2604569D01*
Y164599D01*
X2604436D01*
Y164465D01*
X2604302D01*
Y164331D01*
X2604168D01*
Y164197D01*
X2604034D01*
Y164063D01*
X2603765D01*
Y163929D01*
X2603631D01*
Y163795D01*
X2603497D01*
Y163661D01*
X2603363D01*
Y163527D01*
X2603229D01*
Y163393D01*
X2603095D01*
Y163259D01*
X2602827D01*
Y163125D01*
X2602693D01*
Y162991D01*
X2602559D01*
Y162857D01*
X2602425D01*
Y162723D01*
X2602291D01*
Y162589D01*
X2602023D01*
Y162455D01*
X2601889D01*
Y162321D01*
X2601755D01*
Y162187D01*
X2601621D01*
Y162053D01*
X2601487D01*
Y161919D01*
X2601219D01*
Y161785D01*
X2601085D01*
Y161651D01*
X2600951D01*
Y161517D01*
X2600683D01*
Y161383D01*
X2600549D01*
Y161249D01*
X2600415D01*
Y161115D01*
X2600281D01*
Y160981D01*
X2600013D01*
Y160847D01*
X2599879D01*
Y160713D01*
X2599745D01*
Y160579D01*
X2599477D01*
Y160445D01*
X2599343D01*
Y160311D01*
X2599209D01*
Y160177D01*
X2598941D01*
Y160043D01*
X2598807D01*
Y159909D01*
X2598673D01*
Y159775D01*
X2598405D01*
Y159641D01*
X2598271D01*
Y159507D01*
X2598137D01*
Y159373D01*
X2597869D01*
Y159239D01*
X2597735D01*
Y159105D01*
X2597601D01*
Y158971D01*
X2597333D01*
Y158837D01*
X2597199D01*
Y158703D01*
X2596931D01*
Y158569D01*
X2596797D01*
Y158435D01*
X2596663D01*
Y158301D01*
X2596395D01*
Y158167D01*
X2596261D01*
Y158033D01*
X2595993D01*
Y157899D01*
X2595859D01*
Y157765D01*
X2595591D01*
Y157631D01*
X2595457D01*
Y157497D01*
X2595189D01*
Y157363D01*
X2595055D01*
Y157229D01*
X2594787D01*
Y157095D01*
X2594653D01*
Y156961D01*
X2594385D01*
Y156827D01*
X2594251D01*
Y156693D01*
X2594117D01*
Y156559D01*
X2593849D01*
Y156425D01*
X2593581D01*
Y156291D01*
X2593447D01*
Y156157D01*
X2593179D01*
Y156023D01*
X2593045D01*
Y155889D01*
X2592777D01*
Y155755D01*
X2592509D01*
Y155621D01*
X2592375D01*
Y155487D01*
X2592107D01*
Y155353D01*
X2591973D01*
Y155219D01*
X2591705D01*
Y155085D01*
X2591437D01*
Y154951D01*
X2591303D01*
Y154817D01*
X2591035D01*
Y154683D01*
X2590767D01*
Y154549D01*
X2590633D01*
Y154415D01*
X2590365D01*
Y154281D01*
X2590097D01*
Y154147D01*
X2589829D01*
Y154013D01*
X2589695D01*
Y153879D01*
X2589427D01*
Y153745D01*
X2589159D01*
Y153611D01*
X2588891D01*
Y153476D01*
X2588757D01*
Y153343D01*
X2588489D01*
Y153208D01*
X2588221D01*
Y153075D01*
X2587953D01*
Y152940D01*
X2587685D01*
Y152806D01*
X2587551D01*
Y152673D01*
X2587283D01*
Y152538D01*
X2586881D01*
Y152405D01*
X2586747D01*
Y152270D01*
X2586479D01*
Y152137D01*
X2586211D01*
Y152002D01*
X2585943D01*
Y151869D01*
X2585675D01*
Y151734D01*
X2585541D01*
Y151601D01*
X2585139D01*
Y151466D01*
X2584871D01*
Y151333D01*
X2584737D01*
Y151198D01*
X2584335D01*
Y151065D01*
X2584067D01*
Y150930D01*
X2583799D01*
Y150797D01*
X2583531D01*
Y150662D01*
X2583263D01*
Y150529D01*
X2582995D01*
Y150394D01*
X2582727D01*
Y150261D01*
X2582459D01*
Y150126D01*
X2582057D01*
Y149993D01*
X2581789D01*
Y149858D01*
X2581521D01*
Y149724D01*
X2581253D01*
Y149590D01*
X2580851D01*
Y149456D01*
X2580583D01*
Y149322D01*
X2580315D01*
Y149188D01*
X2580047D01*
Y149054D01*
X2579645D01*
Y148920D01*
X2579377D01*
Y148786D01*
X2579109D01*
Y148652D01*
X2578573D01*
Y148518D01*
X2578439D01*
Y148384D01*
X2578037D01*
Y148250D01*
X2577635D01*
Y148116D01*
X2577367D01*
Y147982D01*
X2576965D01*
Y148116D01*
X2576831D01*
Y148250D01*
X2576697D01*
Y148384D01*
X2576563D01*
Y148652D01*
X2576429D01*
Y148786D01*
X2576295D01*
Y148920D01*
X2576161D01*
Y149054D01*
X2576027D01*
Y149188D01*
X2575893D01*
Y149322D01*
X2575759D01*
Y149456D01*
X2575625D01*
Y149590D01*
X2575491D01*
Y149724D01*
X2575357D01*
Y149858D01*
X2575223D01*
Y149993D01*
X2575089D01*
Y150126D01*
X2574955D01*
Y150261D01*
X2574821D01*
Y150394D01*
X2574687D01*
Y150529D01*
X2574553D01*
Y150797D01*
X2574419D01*
Y150930D01*
X2574285D01*
Y151065D01*
X2574151D01*
Y151198D01*
X2573883D01*
Y151466D01*
X2574151D01*
Y151601D01*
X2574553D01*
Y151734D01*
X2574821D01*
Y151869D01*
X2575223D01*
Y152002D01*
X2575759D01*
Y152137D01*
X2576027D01*
Y152270D01*
X2576429D01*
Y152405D01*
X2576697D01*
Y152538D01*
X2576965D01*
Y152673D01*
X2577501D01*
Y152806D01*
X2577769D01*
Y152940D01*
X2578037D01*
Y153075D01*
X2578439D01*
Y153208D01*
X2578707D01*
Y153343D01*
X2579109D01*
Y153476D01*
X2579377D01*
Y153611D01*
X2579645D01*
Y153745D01*
X2580047D01*
Y153879D01*
X2580315D01*
Y154013D01*
X2580583D01*
Y154147D01*
X2580985D01*
Y154281D01*
X2581253D01*
Y154415D01*
X2581521D01*
Y154549D01*
X2581789D01*
Y154683D01*
X2582057D01*
Y154817D01*
X2582459D01*
Y154951D01*
X2582593D01*
Y155085D01*
X2582995D01*
Y155219D01*
X2583263D01*
Y155353D01*
X2583531D01*
Y155487D01*
X2583799D01*
Y155621D01*
X2584067D01*
Y155755D01*
X2584335D01*
Y155889D01*
X2584603D01*
Y156023D01*
X2584871D01*
Y156157D01*
X2585139D01*
Y156291D01*
X2585407D01*
Y156425D01*
X2585541D01*
Y156559D01*
X2585809D01*
Y156693D01*
X2586077D01*
Y156827D01*
X2586345D01*
Y156961D01*
X2586613D01*
Y157095D01*
X2586747D01*
Y157229D01*
X2587015D01*
Y157363D01*
X2587417D01*
Y157497D01*
X2587551D01*
Y157631D01*
X2587819D01*
Y157765D01*
X2588087D01*
Y157899D01*
X2588221D01*
Y158033D01*
X2588489D01*
Y158167D01*
X2588623D01*
Y158301D01*
X2588891D01*
Y158435D01*
X2589159D01*
Y158569D01*
X2589427D01*
Y158703D01*
X2589561D01*
Y158837D01*
X2589829D01*
Y158971D01*
X2590097D01*
Y159105D01*
X2590365D01*
Y159239D01*
X2590499D01*
Y159373D01*
X2590633D01*
Y159507D01*
X2590901D01*
Y159641D01*
X2591169D01*
Y159775D01*
X2591303D01*
Y159909D01*
X2591571D01*
Y160043D01*
X2591705D01*
Y160177D01*
X2591973D01*
Y160311D01*
X2592107D01*
Y160445D01*
X2592375D01*
Y160579D01*
X2592643D01*
Y160847D01*
X2592911D01*
Y160981D01*
X2593179D01*
Y161115D01*
X2593313D01*
Y161249D01*
X2593581D01*
Y161383D01*
X2593715D01*
Y161517D01*
X2593983D01*
Y161651D01*
X2594117D01*
Y161785D01*
X2594251D01*
Y161919D01*
X2594519D01*
Y162053D01*
X2594653D01*
Y162187D01*
X2594921D01*
Y162321D01*
X2595055D01*
Y162455D01*
X2595189D01*
Y162589D01*
X2595457D01*
Y162723D01*
X2595591D01*
Y162857D01*
X2595725D01*
Y162991D01*
X2595993D01*
Y163125D01*
X2596127D01*
Y163259D01*
X2596261D01*
Y163393D01*
X2596529D01*
Y163527D01*
X2596663D01*
Y163661D01*
X2596797D01*
Y163795D01*
X2597065D01*
Y163929D01*
X2597199D01*
Y164063D01*
X2597333D01*
Y164197D01*
X2597467D01*
Y164331D01*
X2597735D01*
Y164465D01*
X2597869D01*
Y164599D01*
X2598003D01*
Y164733D01*
X2598271D01*
Y164867D01*
X2598405D01*
Y165001D01*
X2598539D01*
Y165135D01*
X2598673D01*
Y165269D01*
X2598807D01*
Y165403D01*
X2599075D01*
Y165537D01*
X2599209D01*
Y165671D01*
X2599343D01*
Y165805D01*
X2599477D01*
Y165939D01*
X2599611D01*
Y166073D01*
X2599745D01*
Y166207D01*
X2600013D01*
Y166341D01*
X2600147D01*
Y166475D01*
X2600281D01*
Y166609D01*
X2600415D01*
Y166743D01*
X2600549D01*
Y166877D01*
X2600683D01*
Y167011D01*
X2600951D01*
Y167145D01*
X2601085D01*
Y167279D01*
X2601219D01*
Y167413D01*
X2601353D01*
Y167547D01*
X2601487D01*
Y167681D01*
X2601621D01*
Y167815D01*
X2601755D01*
Y167949D01*
X2601889D01*
Y168083D01*
X2602023D01*
Y168217D01*
X2602157D01*
Y168351D01*
X2602291D01*
Y168485D01*
X2602559D01*
Y168619D01*
X2602693D01*
Y168753D01*
X2602827D01*
Y168887D01*
X2602961D01*
Y169021D01*
X2603095D01*
Y169155D01*
X2603229D01*
Y169289D01*
X2603363D01*
Y169423D01*
X2604168D01*
Y169557D01*
X2604704D01*
Y169691D01*
X2605374D01*
Y169825D01*
X2606044D01*
Y169959D01*
X2606445D01*
Y170093D01*
X2607115D01*
Y170227D01*
X2607652D01*
Y170361D01*
X2608054D01*
Y170495D01*
X2608590D01*
Y170629D01*
X2608992D01*
Y170763D01*
X2609260D01*
Y170897D01*
X2609796D01*
Y171031D01*
X2610198D01*
Y171165D01*
X2610600D01*
Y171299D01*
X2611002D01*
Y171433D01*
X2611136D01*
Y171567D01*
X2611404D01*
Y171299D01*
D02*
G37*
G36*
X2490264Y175319D02*
X2490398D01*
Y175185D01*
X2490532D01*
Y174917D01*
X2490666D01*
Y174783D01*
X2490800D01*
Y174649D01*
X2490934D01*
Y174515D01*
X2491068D01*
Y174381D01*
X2491202D01*
Y174113D01*
X2491336D01*
Y173979D01*
X2491470D01*
Y173845D01*
X2491604D01*
Y173711D01*
X2491738D01*
Y173577D01*
X2491872D01*
Y173443D01*
X2492006D01*
Y173175D01*
X2492140D01*
Y173041D01*
X2492274D01*
Y172907D01*
X2492408D01*
Y172773D01*
X2492542D01*
Y172639D01*
X2492676D01*
Y172505D01*
X2492810D01*
Y172371D01*
X2492944D01*
Y172237D01*
X2493078D01*
Y172103D01*
X2493212D01*
Y171969D01*
X2493346D01*
Y171835D01*
X2493480D01*
Y171701D01*
X2493614D01*
Y171567D01*
X2493748D01*
Y171299D01*
X2493882D01*
Y171165D01*
X2494016D01*
Y171031D01*
X2494150D01*
Y170897D01*
X2494284D01*
Y170763D01*
X2494418D01*
Y170629D01*
X2494552D01*
Y170495D01*
X2494686D01*
Y170361D01*
X2494820D01*
Y170227D01*
X2494954D01*
Y170093D01*
X2495088D01*
Y169959D01*
X2495222D01*
Y169825D01*
X2495356D01*
Y169691D01*
X2495490D01*
Y169557D01*
X2495624D01*
Y169423D01*
X2495758D01*
Y169289D01*
X2495892D01*
Y169155D01*
X2496026D01*
Y169021D01*
X2496160D01*
Y168887D01*
X2496294D01*
Y168753D01*
X2496428D01*
Y168619D01*
X2496562D01*
Y168485D01*
X2496696D01*
Y168351D01*
X2496964D01*
Y168083D01*
X2497232D01*
Y167949D01*
X2497366D01*
Y167815D01*
X2497500D01*
Y167681D01*
X2497634D01*
Y167547D01*
X2497768D01*
Y167413D01*
X2497902D01*
Y167279D01*
X2498036D01*
Y167145D01*
X2498170D01*
Y167011D01*
X2498304D01*
Y166877D01*
X2498438D01*
Y166743D01*
X2498572D01*
Y166609D01*
X2498840D01*
Y166475D01*
X2498974D01*
Y166341D01*
X2499108D01*
Y166207D01*
X2499242D01*
Y166073D01*
X2499376D01*
Y165939D01*
X2499510D01*
Y165805D01*
X2499778D01*
Y165671D01*
X2499912D01*
Y165537D01*
X2500046D01*
Y165403D01*
X2500180D01*
Y165269D01*
X2500314D01*
Y165135D01*
X2500582D01*
Y165001D01*
X2500716D01*
Y164867D01*
X2500851D01*
Y164733D01*
X2500985D01*
Y164599D01*
X2501119D01*
Y164465D01*
X2501387D01*
Y164331D01*
X2501521D01*
Y164197D01*
X2501655D01*
Y164063D01*
X2501789D01*
Y163929D01*
X2502057D01*
Y163795D01*
X2502191D01*
Y163661D01*
X2502325D01*
Y163527D01*
X2502593D01*
Y163393D01*
X2502727D01*
Y163259D01*
X2502861D01*
Y163125D01*
X2502994D01*
Y162991D01*
X2503262D01*
Y162857D01*
X2503397D01*
Y162723D01*
X2503530D01*
Y162589D01*
X2503799D01*
Y162455D01*
X2503933D01*
Y162321D01*
X2504201D01*
Y162187D01*
X2504335D01*
Y162053D01*
X2504468D01*
Y161919D01*
X2504737D01*
Y161785D01*
X2504871D01*
Y161651D01*
X2505005D01*
Y161517D01*
X2505273D01*
Y161383D01*
X2505407D01*
Y161249D01*
X2505675D01*
Y161115D01*
X2505809D01*
Y160981D01*
X2505943D01*
Y160847D01*
X2506211D01*
Y160713D01*
X2506345D01*
Y160579D01*
X2506613D01*
Y160445D01*
X2506881D01*
Y160311D01*
X2507015D01*
Y160177D01*
X2507283D01*
Y160043D01*
X2507417D01*
Y159909D01*
X2507551D01*
Y159775D01*
X2507819D01*
Y159641D01*
X2507953D01*
Y159507D01*
X2508221D01*
Y159373D01*
X2508489D01*
Y159239D01*
X2508623D01*
Y159105D01*
X2508891D01*
Y158971D01*
X2509159D01*
Y158837D01*
X2509293D01*
Y158703D01*
X2509561D01*
Y158569D01*
X2509695D01*
Y158435D01*
X2509963D01*
Y158301D01*
X2510231D01*
Y158167D01*
X2510365D01*
Y158033D01*
X2510633D01*
Y157899D01*
X2510901D01*
Y157765D01*
X2511035D01*
Y157631D01*
X2511303D01*
Y157497D01*
X2511571D01*
Y157363D01*
X2511839D01*
Y157229D01*
X2512107D01*
Y157095D01*
X2512241D01*
Y156961D01*
X2512509D01*
Y156827D01*
X2512777D01*
Y156693D01*
X2513045D01*
Y156559D01*
X2513313D01*
Y156425D01*
X2513447D01*
Y156291D01*
X2513715D01*
Y156157D01*
X2514117D01*
Y156023D01*
X2514251D01*
Y155889D01*
X2514519D01*
Y155755D01*
X2514787D01*
Y155621D01*
X2515055D01*
Y155487D01*
X2515457D01*
Y155353D01*
X2515591D01*
Y155219D01*
X2515859D01*
Y155085D01*
X2516261D01*
Y154951D01*
X2516395D01*
Y154817D01*
X2516797D01*
Y154683D01*
X2517065D01*
Y154549D01*
X2517333D01*
Y154415D01*
X2517601D01*
Y154281D01*
X2517869D01*
Y154147D01*
X2518137D01*
Y154013D01*
X2518539D01*
Y153879D01*
X2518807D01*
Y153745D01*
X2519075D01*
Y153611D01*
X2519343D01*
Y153476D01*
X2519745D01*
Y153343D01*
X2520013D01*
Y153208D01*
X2520281D01*
Y153075D01*
X2520683D01*
Y152940D01*
X2521085D01*
Y152806D01*
X2521353D01*
Y152673D01*
X2521755D01*
Y152538D01*
X2522023D01*
Y152405D01*
X2522425D01*
Y152270D01*
X2522827D01*
Y152137D01*
X2523095D01*
Y152002D01*
X2523497D01*
Y151869D01*
X2523899D01*
Y151734D01*
X2524167D01*
Y151601D01*
X2524703D01*
Y151466D01*
X2525105D01*
Y151333D01*
X2525373D01*
Y151198D01*
X2525909D01*
Y151065D01*
X2526177D01*
Y150930D01*
X2526713D01*
Y150797D01*
X2527249D01*
Y150662D01*
X2527517D01*
Y150529D01*
X2528053D01*
Y150394D01*
X2528455D01*
Y150261D01*
X2528991D01*
Y150126D01*
X2529527D01*
Y149993D01*
X2529929D01*
Y149858D01*
X2530465D01*
Y149724D01*
X2531135D01*
Y149590D01*
X2531537D01*
Y149456D01*
X2532207D01*
Y149322D01*
X2532743D01*
Y149188D01*
X2533279D01*
Y149054D01*
X2534083D01*
Y148920D01*
X2534619D01*
Y148786D01*
X2535289D01*
Y148652D01*
X2536227D01*
Y148518D01*
X2536764D01*
Y148384D01*
X2537836D01*
Y148250D01*
X2538640D01*
Y148116D01*
X2539444D01*
Y147982D01*
X2540784D01*
Y147848D01*
X2541722D01*
Y147714D01*
X2543598D01*
Y147580D01*
X2545876D01*
Y147446D01*
X2553380D01*
Y147580D01*
X2555524D01*
Y147714D01*
X2557266D01*
Y147848D01*
X2558204D01*
Y147982D01*
X2559544D01*
Y148116D01*
X2560348D01*
Y148250D01*
X2561152D01*
Y148384D01*
X2562224D01*
Y148518D01*
X2562760D01*
Y148652D01*
X2563564D01*
Y148786D01*
X2564502D01*
Y148652D01*
X2564636D01*
Y148518D01*
X2564770D01*
Y148250D01*
X2564904D01*
Y148116D01*
X2565038D01*
Y147982D01*
X2565172D01*
Y147848D01*
X2565306D01*
Y147714D01*
X2565440D01*
Y147580D01*
X2565574D01*
Y147446D01*
X2565708D01*
Y147312D01*
X2565842D01*
Y147178D01*
X2565976D01*
Y147044D01*
X2566110D01*
Y146910D01*
X2566244D01*
Y146776D01*
X2566378D01*
Y146642D01*
X2566512D01*
Y146508D01*
X2566646D01*
Y146240D01*
X2566914D01*
Y145972D01*
X2567048D01*
Y145838D01*
X2567182D01*
Y145704D01*
X2567316D01*
Y145570D01*
X2567450D01*
Y145436D01*
X2567584D01*
Y145302D01*
X2567718D01*
Y145168D01*
X2567584D01*
Y145034D01*
X2566914D01*
Y144900D01*
X2566378D01*
Y144766D01*
X2565708D01*
Y144632D01*
X2565038D01*
Y144498D01*
X2564368D01*
Y144364D01*
X2563564D01*
Y144230D01*
X2562894D01*
Y144096D01*
X2561956D01*
Y143962D01*
X2561018D01*
Y143828D01*
X2560348D01*
Y143694D01*
X2559142D01*
Y143560D01*
X2558204D01*
Y143426D01*
X2556730D01*
Y143292D01*
X2554854D01*
Y143158D01*
X2552978D01*
Y143024D01*
X2545742D01*
Y143158D01*
X2544000D01*
Y143292D01*
X2541856D01*
Y143426D01*
X2540784D01*
Y143560D01*
X2539712D01*
Y143694D01*
X2538506D01*
Y143828D01*
X2537702D01*
Y143962D01*
X2536764D01*
Y144096D01*
X2535959D01*
Y144230D01*
X2535289D01*
Y144364D01*
X2534351D01*
Y144498D01*
X2533815D01*
Y144632D01*
X2533145D01*
Y144766D01*
X2532475D01*
Y144900D01*
X2531939D01*
Y145034D01*
X2531269D01*
Y145168D01*
X2530599D01*
Y145302D01*
X2530331D01*
Y145436D01*
X2529661D01*
Y145570D01*
X2529125D01*
Y145704D01*
X2528723D01*
Y145838D01*
X2528053D01*
Y145972D01*
X2527785D01*
Y146106D01*
X2527249D01*
Y146240D01*
X2526713D01*
Y146374D01*
X2526311D01*
Y146508D01*
X2525775D01*
Y146642D01*
X2525373D01*
Y146776D01*
X2524971D01*
Y146910D01*
X2524569D01*
Y147044D01*
X2524167D01*
Y147178D01*
X2523765D01*
Y147312D01*
X2523363D01*
Y147446D01*
X2522961D01*
Y147580D01*
X2522559D01*
Y147714D01*
X2522291D01*
Y147848D01*
X2521889D01*
Y147982D01*
X2521487D01*
Y148116D01*
X2521219D01*
Y148250D01*
X2520817D01*
Y148384D01*
X2520415D01*
Y148518D01*
X2520147D01*
Y148652D01*
X2519745D01*
Y148786D01*
X2519477D01*
Y148920D01*
X2519075D01*
Y149054D01*
X2518673D01*
Y149188D01*
X2518539D01*
Y149322D01*
X2518137D01*
Y149456D01*
X2517735D01*
Y149590D01*
X2517601D01*
Y149724D01*
X2517199D01*
Y149858D01*
X2516931D01*
Y149993D01*
X2516663D01*
Y150126D01*
X2516261D01*
Y150261D01*
X2515993D01*
Y150394D01*
X2515725D01*
Y150529D01*
X2515323D01*
Y150662D01*
X2515189D01*
Y150797D01*
X2514787D01*
Y150930D01*
X2514519D01*
Y151065D01*
X2514385D01*
Y151198D01*
X2513983D01*
Y151333D01*
X2513849D01*
Y151466D01*
X2513447D01*
Y151601D01*
X2513179D01*
Y151734D01*
X2513045D01*
Y151869D01*
X2512643D01*
Y152002D01*
X2512375D01*
Y152137D01*
X2512241D01*
Y152270D01*
X2511839D01*
Y152405D01*
X2511705D01*
Y152538D01*
X2511437D01*
Y152673D01*
X2511169D01*
Y152806D01*
X2510901D01*
Y152940D01*
X2510633D01*
Y153075D01*
X2510499D01*
Y153208D01*
X2510231D01*
Y153343D01*
X2509963D01*
Y153476D01*
X2509695D01*
Y153611D01*
X2509427D01*
Y153745D01*
X2509159D01*
Y153879D01*
X2509025D01*
Y154013D01*
X2508757D01*
Y154147D01*
X2508489D01*
Y154281D01*
X2508355D01*
Y154415D01*
X2508087D01*
Y154549D01*
X2507953D01*
Y154683D01*
X2507685D01*
Y154817D01*
X2507417D01*
Y154951D01*
X2507283D01*
Y155085D01*
X2507015D01*
Y155219D01*
X2506747D01*
Y155353D01*
X2506613D01*
Y155487D01*
X2506345D01*
Y155621D01*
X2506211D01*
Y155755D01*
X2505943D01*
Y155889D01*
X2505675D01*
Y156023D01*
X2505541D01*
Y156157D01*
X2505273D01*
Y156291D01*
X2505139D01*
Y156425D01*
X2504871D01*
Y156559D01*
X2504737D01*
Y156693D01*
X2504468D01*
Y156827D01*
X2504335D01*
Y156961D01*
X2504067D01*
Y157095D01*
X2503933D01*
Y157229D01*
X2503665D01*
Y157363D01*
X2503530D01*
Y157497D01*
X2503262D01*
Y157631D01*
X2503129D01*
Y157765D01*
X2502994D01*
Y157899D01*
X2502727D01*
Y158033D01*
X2502593D01*
Y158167D01*
X2502325D01*
Y158301D01*
X2502191D01*
Y158435D01*
X2501923D01*
Y158569D01*
X2501789D01*
Y158703D01*
X2501521D01*
Y158837D01*
X2501387D01*
Y158971D01*
X2501253D01*
Y159105D01*
X2501119D01*
Y159239D01*
X2500985D01*
Y159373D01*
X2500716D01*
Y159507D01*
X2500582D01*
Y159641D01*
X2500314D01*
Y159775D01*
X2500180D01*
Y159909D01*
X2500046D01*
Y160043D01*
X2499778D01*
Y160177D01*
X2499644D01*
Y160311D01*
X2499510D01*
Y160445D01*
X2499376D01*
Y160579D01*
X2499108D01*
Y160713D01*
X2498974D01*
Y160847D01*
X2498840D01*
Y160981D01*
X2498706D01*
Y161115D01*
X2498438D01*
Y161249D01*
X2498304D01*
Y161383D01*
X2498170D01*
Y161517D01*
X2498036D01*
Y161651D01*
X2497768D01*
Y161785D01*
X2497634D01*
Y161919D01*
X2497500D01*
Y162053D01*
X2497366D01*
Y162187D01*
X2497232D01*
Y162321D01*
X2496964D01*
Y162455D01*
X2496830D01*
Y162589D01*
X2496696D01*
Y162723D01*
X2496562D01*
Y162857D01*
X2496428D01*
Y162991D01*
X2496160D01*
Y163259D01*
X2495892D01*
Y163393D01*
X2495758D01*
Y163527D01*
X2495624D01*
Y163661D01*
X2495490D01*
Y163795D01*
X2495356D01*
Y163929D01*
X2495222D01*
Y164063D01*
X2495088D01*
Y164197D01*
X2494954D01*
Y164331D01*
X2494686D01*
Y164465D01*
X2494552D01*
Y164599D01*
X2494418D01*
Y164733D01*
X2494284D01*
Y164867D01*
X2494150D01*
Y165001D01*
X2494016D01*
Y165135D01*
X2493882D01*
Y165269D01*
X2493748D01*
Y165403D01*
X2493614D01*
Y165537D01*
X2493480D01*
Y165671D01*
X2493346D01*
Y165805D01*
X2493212D01*
Y165939D01*
X2493078D01*
Y166073D01*
X2492944D01*
Y166207D01*
X2492810D01*
Y166341D01*
X2492676D01*
Y166475D01*
X2492542D01*
Y166609D01*
X2492408D01*
Y166743D01*
X2492274D01*
Y166877D01*
X2492140D01*
Y167011D01*
X2492006D01*
Y167145D01*
X2491872D01*
Y167279D01*
X2491738D01*
Y167413D01*
X2491604D01*
Y167547D01*
X2491470D01*
Y167681D01*
X2491336D01*
Y167815D01*
X2491202D01*
Y167949D01*
X2491068D01*
Y168083D01*
X2490934D01*
Y168217D01*
X2490800D01*
Y168351D01*
X2490666D01*
Y168485D01*
X2490532D01*
Y168619D01*
X2490398D01*
Y168753D01*
X2490264D01*
Y168887D01*
X2490130D01*
Y169021D01*
X2489996D01*
Y169155D01*
X2489862D01*
Y169289D01*
X2489728D01*
Y169557D01*
X2489594D01*
Y169691D01*
X2489460D01*
Y169825D01*
X2489326D01*
Y169959D01*
X2489192D01*
Y170093D01*
X2489058D01*
Y171031D01*
X2489192D01*
Y171567D01*
X2489326D01*
Y172237D01*
X2489460D01*
Y172907D01*
X2489594D01*
Y173309D01*
X2489728D01*
Y173979D01*
X2489862D01*
Y174649D01*
X2489996D01*
Y175185D01*
X2490130D01*
Y175453D01*
X2490264D01*
Y175319D01*
D02*
G37*
G36*
X2611637Y235943D02*
X2594067D01*
X2594217Y237399D01*
X2594067Y238855D01*
X2594393Y238804D01*
X2594694Y238754D01*
X2594995Y238704D01*
X2595246Y238679D01*
X2595472Y238629D01*
X2595673Y238603D01*
X2595999Y238553D01*
X2596250Y238528D01*
X2596426Y238503D01*
X2596526Y238478D01*
X2596552D01*
X2596828Y238453D01*
X2597455D01*
X2597782Y238428D01*
X2598961D01*
X2599212Y238403D01*
X2599815D01*
X2600467Y238378D01*
X2601145Y238352D01*
X2601722D01*
X2601948Y238327D01*
X2602274D01*
X2602902Y238302D01*
X2603504D01*
X2604057Y238277D01*
X2604559D01*
X2605010Y238252D01*
X2606115D01*
X2606416Y238227D01*
X2607345D01*
Y252484D01*
X2599639D01*
X2599363Y252459D01*
X2599062Y252434D01*
X2598735Y252409D01*
X2598409Y252383D01*
X2598158Y252358D01*
X2598058D01*
X2597982Y252333D01*
X2597907D01*
X2597355Y252283D01*
X2596878Y252258D01*
X2596451Y252233D01*
X2596100D01*
X2595824Y252208D01*
X2595472D01*
X2595623Y253563D01*
X2595472Y254843D01*
X2595648D01*
X2595924Y254818D01*
X2596225Y254793D01*
X2596552D01*
X2596853Y254768D01*
X2597104Y254743D01*
X2597204Y254718D01*
X2597355D01*
X2597907Y254693D01*
X2598384Y254667D01*
X2598811Y254642D01*
X2599162D01*
X2599438Y254617D01*
X2607345D01*
Y266841D01*
X2598359D01*
X2597982Y266816D01*
X2597656Y266791D01*
X2597355D01*
X2597104Y266766D01*
X2596903Y266741D01*
X2596803Y266716D01*
X2596752D01*
X2596376Y266665D01*
X2595999Y266590D01*
X2595598Y266515D01*
X2595221Y266464D01*
X2594870Y266389D01*
X2594619Y266339D01*
X2594519Y266314D01*
X2594443D01*
X2594393Y266289D01*
X2594368D01*
X2594519Y267719D01*
X2594368Y269125D01*
X2611637D01*
Y235943D01*
D02*
G37*
G36*
X2556994Y235792D02*
X2555639Y235943D01*
X2554258Y235817D01*
Y262047D01*
X2553781D01*
X2532747Y238754D01*
X2530212Y235817D01*
X2528731Y235792D01*
Y269125D01*
X2530112Y268974D01*
X2531467Y269100D01*
Y244025D01*
X2531994Y244000D01*
X2555111Y269100D01*
X2556994Y269125D01*
Y235792D01*
D02*
G37*
G36*
X2629709Y269803D02*
X2631114Y269652D01*
X2632419Y269451D01*
X2633649Y269150D01*
X2634804Y268824D01*
X2635883Y268422D01*
X2636887Y268021D01*
X2637766Y267619D01*
X2638569Y267192D01*
X2639272Y266791D01*
X2639598Y266590D01*
X2639874Y266414D01*
X2640150Y266239D01*
X2640376Y266063D01*
X2640602Y265912D01*
X2640778Y265787D01*
X2640954Y265661D01*
X2641079Y265561D01*
X2641179Y265461D01*
X2641255Y265410D01*
X2641280Y265385D01*
X2641305Y265360D01*
X2641782Y264908D01*
X2642234Y264431D01*
X2642660Y263954D01*
X2643062Y263452D01*
X2643413Y262950D01*
X2643765Y262423D01*
X2644066Y261921D01*
X2644367Y261394D01*
X2644869Y260315D01*
X2645296Y259261D01*
X2645647Y258232D01*
X2645948Y257228D01*
X2646149Y256299D01*
X2646325Y255421D01*
X2646375Y255019D01*
X2646450Y254642D01*
X2646476Y254291D01*
X2646526Y253965D01*
X2646551Y253663D01*
X2646576Y253412D01*
Y253187D01*
X2646601Y252986D01*
Y252835D01*
Y252735D01*
Y252660D01*
Y252634D01*
X2646576Y251906D01*
X2646551Y251179D01*
X2646400Y249798D01*
X2646174Y248493D01*
X2645898Y247288D01*
X2645547Y246159D01*
X2645145Y245104D01*
X2644744Y244151D01*
X2644317Y243297D01*
X2643890Y242519D01*
X2643489Y241841D01*
X2643087Y241264D01*
X2642911Y241013D01*
X2642736Y240787D01*
X2642585Y240586D01*
X2642459Y240411D01*
X2642334Y240285D01*
X2642234Y240160D01*
X2642133Y240059D01*
X2642083Y239984D01*
X2642033Y239959D01*
Y239934D01*
X2641606Y239507D01*
X2641129Y239106D01*
X2640677Y238729D01*
X2640175Y238378D01*
X2639171Y237750D01*
X2638142Y237198D01*
X2637088Y236746D01*
X2636034Y236370D01*
X2635030Y236043D01*
X2634026Y235817D01*
X2633097Y235617D01*
X2632219Y235466D01*
X2631842Y235416D01*
X2631466Y235366D01*
X2631114Y235315D01*
X2630788Y235290D01*
X2630487Y235265D01*
X2630236Y235240D01*
X2630010D01*
X2629809Y235215D01*
X2629458D01*
X2628353Y235240D01*
X2627299Y235315D01*
X2626797Y235366D01*
X2626320Y235416D01*
X2625868Y235491D01*
X2625467Y235541D01*
X2625065Y235591D01*
X2624739Y235667D01*
X2624438Y235717D01*
X2624162Y235767D01*
X2623961Y235817D01*
X2623810Y235843D01*
X2623710Y235868D01*
X2623685D01*
X2622656Y236144D01*
X2621702Y236470D01*
X2621275Y236646D01*
X2620874Y236821D01*
X2620497Y236997D01*
X2620146Y237173D01*
X2619819Y237323D01*
X2619543Y237474D01*
X2619292Y237625D01*
X2619091Y237750D01*
X2618941Y237851D01*
X2618815Y237901D01*
X2618740Y237951D01*
X2618715Y237976D01*
X2618464Y241063D01*
X2619292Y240411D01*
X2620120Y239833D01*
X2620949Y239331D01*
X2621727Y238905D01*
X2622078Y238729D01*
X2622380Y238578D01*
X2622681Y238453D01*
X2622907Y238352D01*
X2623107Y238252D01*
X2623258Y238202D01*
X2623358Y238177D01*
X2623383Y238152D01*
X2624413Y237800D01*
X2625392Y237549D01*
X2625868Y237449D01*
X2626320Y237374D01*
X2626747Y237298D01*
X2627123Y237248D01*
X2627475Y237198D01*
X2627801Y237173D01*
X2628077Y237148D01*
X2628328D01*
X2628529Y237123D01*
X2628780D01*
X2629859Y237173D01*
X2630863Y237298D01*
X2631817Y237499D01*
X2632721Y237775D01*
X2633574Y238101D01*
X2634352Y238453D01*
X2635055Y238829D01*
X2635708Y239206D01*
X2636285Y239607D01*
X2636787Y239984D01*
X2637214Y240335D01*
X2637590Y240637D01*
X2637866Y240913D01*
X2638067Y241113D01*
X2638193Y241239D01*
X2638243Y241289D01*
X2638870Y242118D01*
X2639422Y242971D01*
X2639899Y243875D01*
X2640326Y244803D01*
X2640677Y245732D01*
X2640954Y246661D01*
X2641204Y247564D01*
X2641380Y248443D01*
X2641531Y249271D01*
X2641631Y250024D01*
X2641732Y250702D01*
X2641757Y251028D01*
X2641782Y251304D01*
Y251555D01*
X2641807Y251781D01*
Y251982D01*
X2641832Y252157D01*
Y252283D01*
Y252383D01*
Y252434D01*
Y252459D01*
X2641782Y253663D01*
X2641681Y254818D01*
X2641531Y255923D01*
X2641305Y256952D01*
X2641054Y257905D01*
X2640778Y258809D01*
X2640477Y259637D01*
X2640150Y260390D01*
X2639849Y261043D01*
X2639548Y261645D01*
X2639272Y262147D01*
X2639021Y262574D01*
X2638795Y262925D01*
X2638644Y263151D01*
X2638519Y263302D01*
X2638494Y263352D01*
X2638142Y263779D01*
X2637791Y264180D01*
X2637414Y264532D01*
X2637013Y264883D01*
X2636235Y265511D01*
X2635406Y266038D01*
X2634553Y266490D01*
X2633725Y266866D01*
X2632896Y267167D01*
X2632118Y267418D01*
X2631365Y267619D01*
X2630688Y267745D01*
X2630060Y267845D01*
X2629508Y267920D01*
X2629282Y267945D01*
X2629081Y267971D01*
X2628880D01*
X2628730Y267996D01*
X2628454D01*
X2627726Y267971D01*
X2627023Y267895D01*
X2626345Y267770D01*
X2625668Y267594D01*
X2625015Y267418D01*
X2624413Y267192D01*
X2623835Y266966D01*
X2623308Y266741D01*
X2622806Y266490D01*
X2622380Y266264D01*
X2621978Y266038D01*
X2621652Y265862D01*
X2621401Y265686D01*
X2621200Y265561D01*
X2621099Y265486D01*
X2621049Y265461D01*
X2620572Y265109D01*
X2620171Y264783D01*
X2619844Y264507D01*
X2619568Y264256D01*
X2619393Y264080D01*
X2619242Y263929D01*
X2619167Y263829D01*
X2619142Y263804D01*
X2618790Y263854D01*
X2618665Y264507D01*
X2618589Y264833D01*
X2618539Y265109D01*
X2618464Y265385D01*
X2618414Y265586D01*
X2618363Y265712D01*
Y265762D01*
X2618263Y266163D01*
X2618138Y266515D01*
X2618037Y266816D01*
X2617962Y267092D01*
X2617887Y267318D01*
X2617836Y267469D01*
X2617786Y267569D01*
Y267594D01*
X2618715Y267971D01*
X2619644Y268297D01*
X2620522Y268598D01*
X2620924Y268724D01*
X2621325Y268824D01*
X2621677Y268924D01*
X2622003Y269000D01*
X2622279Y269075D01*
X2622530Y269150D01*
X2622706Y269200D01*
X2622856Y269226D01*
X2622957Y269251D01*
X2622982D01*
X2623986Y269451D01*
X2624940Y269602D01*
X2625818Y269702D01*
X2626245Y269753D01*
X2626621Y269778D01*
X2626973Y269803D01*
X2627299Y269828D01*
X2627575D01*
X2627801Y269853D01*
X2628981D01*
X2629709Y269803D01*
D02*
G37*
G36*
X2587265Y235792D02*
X2585131Y235943D01*
X2582972Y235817D01*
Y252057D01*
X2581140D01*
X2577225Y247489D01*
X2571502Y240009D01*
X2568440Y235792D01*
X2565653Y235943D01*
X2562817Y235817D01*
X2563746Y237022D01*
X2566105Y239758D01*
X2576120Y252459D01*
X2575342Y252609D01*
X2574589Y252810D01*
X2573886Y253011D01*
X2573234Y253237D01*
X2572631Y253463D01*
X2572054Y253689D01*
X2571552Y253915D01*
X2571075Y254166D01*
X2570673Y254366D01*
X2570297Y254592D01*
X2569996Y254768D01*
X2569745Y254944D01*
X2569544Y255069D01*
X2569393Y255169D01*
X2569293Y255245D01*
X2569268Y255270D01*
X2568716Y255747D01*
X2568239Y256249D01*
X2567812Y256776D01*
X2567461Y257328D01*
X2567160Y257855D01*
X2566883Y258407D01*
X2566683Y258909D01*
X2566532Y259411D01*
X2566381Y259888D01*
X2566306Y260315D01*
X2566231Y260717D01*
X2566181Y261043D01*
X2566155Y261319D01*
X2566130Y261520D01*
Y261645D01*
Y261695D01*
X2566155Y262373D01*
X2566231Y263026D01*
X2566381Y263603D01*
X2566532Y264155D01*
X2566733Y264657D01*
X2566959Y265134D01*
X2567210Y265536D01*
X2567436Y265912D01*
X2567687Y266239D01*
X2567938Y266515D01*
X2568164Y266766D01*
X2568364Y266941D01*
X2568515Y267092D01*
X2568640Y267217D01*
X2568741Y267268D01*
X2568766Y267293D01*
X2569293Y267619D01*
X2569870Y267895D01*
X2570498Y268146D01*
X2571150Y268347D01*
X2571828Y268523D01*
X2572506Y268673D01*
X2573184Y268799D01*
X2573836Y268899D01*
X2574464Y268974D01*
X2575066Y269025D01*
X2575593Y269075D01*
X2576045Y269100D01*
X2576421Y269125D01*
X2587265D01*
Y235792D01*
D02*
G37*
G36*
X3263740Y192548D02*
X3178039D01*
Y219202D01*
X3263740D01*
Y192548D01*
D02*
G37*
G36*
X3574708Y110919D02*
X3444768D01*
Y139239D01*
X3541390D01*
Y206431D01*
X3470497D01*
Y234936D01*
X3541390D01*
Y301017D01*
X3456799D01*
Y329522D01*
X3574708D01*
Y110919D01*
D02*
G37*
G36*
X3415522D02*
X3382574D01*
Y206801D01*
X3349626D01*
X3345184Y206986D01*
X3341112Y207356D01*
X3337039Y207911D01*
X3333523Y208652D01*
X3330561Y209392D01*
X3329450Y209577D01*
X3328340Y209947D01*
X3327414Y210133D01*
X3326859Y210318D01*
X3326489Y210503D01*
X3326304D01*
X3322046Y211984D01*
X3318159Y213835D01*
X3314457Y215686D01*
X3311311Y217537D01*
X3308719Y219202D01*
X3306868Y220498D01*
X3306128Y221054D01*
X3305573Y221424D01*
X3305387Y221794D01*
X3305202D01*
X3301870Y224756D01*
X3298724Y228087D01*
X3296132Y231234D01*
X3293911Y234196D01*
X3292245Y236972D01*
X3290950Y239193D01*
X3290394Y239934D01*
X3290024Y240489D01*
X3289839Y240859D01*
Y241044D01*
X3287803Y245487D01*
X3286322Y250299D01*
X3285211Y254742D01*
X3284471Y258999D01*
X3284286Y261035D01*
X3284101Y262701D01*
X3283916Y264367D01*
X3283731Y265663D01*
Y266773D01*
Y267514D01*
Y268069D01*
Y268254D01*
X3283916Y273807D01*
X3284656Y278990D01*
X3285582Y283617D01*
X3286692Y287504D01*
X3287433Y289170D01*
X3287988Y290836D01*
X3288358Y292132D01*
X3288914Y293243D01*
X3289284Y294168D01*
X3289654Y294723D01*
X3289839Y295094D01*
Y295279D01*
X3292245Y299536D01*
X3294652Y303238D01*
X3297243Y306570D01*
X3299649Y309346D01*
X3301870Y311567D01*
X3303536Y313233D01*
X3304832Y314159D01*
X3305017Y314529D01*
X3305202D01*
X3308904Y317120D01*
X3312421Y319527D01*
X3315938Y321378D01*
X3319270Y323044D01*
X3322046Y324339D01*
X3323342Y324709D01*
X3324268Y325080D01*
X3325193Y325450D01*
X3325748Y325635D01*
X3326119Y325820D01*
X3326304D01*
X3330561Y327116D01*
X3334818Y328041D01*
X3338890Y328782D01*
X3342407Y329152D01*
X3345369Y329522D01*
X3346480D01*
X3347590Y329707D01*
X3415522D01*
Y110919D01*
D02*
G37*
G36*
X3142129Y110919D02*
X3012189D01*
Y139239D01*
X3108811D01*
Y206430D01*
X3037918D01*
Y234936D01*
X3108811D01*
Y301017D01*
X3024220D01*
Y329522D01*
X3142129D01*
Y110919D01*
D02*
G37*
G36*
X2819315D02*
X2689375Y110919D01*
Y139239D01*
X2785997Y139239D01*
Y206430D01*
X2715104Y206430D01*
Y234936D01*
X2785997Y234936D01*
Y301017D01*
X2701406Y301017D01*
Y329522D01*
X2819315Y329522D01*
Y110919D01*
D02*
G37*
G36*
X2922971Y333964D02*
X2928709Y333409D01*
X2933892Y332484D01*
X2936298Y332113D01*
X2938519Y331743D01*
X2940370Y331188D01*
X2942221Y330818D01*
X2943702Y330262D01*
X2944813Y329892D01*
X2945923Y329707D01*
X2946664Y329337D01*
X2947034Y329152D01*
X2947219D01*
X2951846Y327116D01*
X2956104Y324894D01*
X2959621Y322673D01*
X2962767Y320452D01*
X2965359Y318601D01*
X2967210Y317120D01*
X2967765Y316380D01*
X2968320Y316010D01*
X2968505Y315825D01*
X2968691Y315639D01*
X2971652Y312493D01*
X2974244Y309161D01*
X2976465Y306014D01*
X2978316Y303053D01*
X2979611Y300461D01*
X2980722Y298425D01*
X2981092Y297685D01*
X2981277Y297130D01*
X2981462Y296759D01*
Y296574D01*
X2982943Y292502D01*
X2983869Y288615D01*
X2984609Y284913D01*
X2985164Y281396D01*
X2985535Y278620D01*
Y277324D01*
X2985720Y276398D01*
Y275473D01*
Y274918D01*
Y274547D01*
Y274362D01*
X2985535Y270290D01*
X2984979Y266218D01*
X2984239Y262331D01*
X2983313Y258814D01*
X2982203Y255297D01*
X2980907Y252150D01*
X2979611Y249189D01*
X2978131Y246412D01*
X2976835Y244006D01*
X2975539Y241785D01*
X2974244Y239934D01*
X2973133Y238453D01*
X2972022Y237157D01*
X2971282Y236232D01*
X2970912Y235676D01*
X2970727Y235491D01*
X2967765Y232530D01*
X2964433Y229753D01*
X2961101Y226977D01*
X2957399Y224570D01*
X2949995Y220128D01*
X2946479Y218277D01*
X2942962Y216426D01*
X2939445Y214945D01*
X2936483Y213464D01*
X2933521Y212354D01*
X2931115Y211428D01*
X2929079Y210503D01*
X2927598Y209947D01*
X2926673Y209762D01*
X2926303Y209577D01*
X2922601Y208281D01*
X2919269Y206986D01*
X2916122Y205690D01*
X2913346Y204394D01*
X2910754Y202914D01*
X2908348Y201618D01*
X2906127Y200322D01*
X2904276Y199026D01*
X2902610Y197916D01*
X2901129Y196805D01*
X2900018Y195880D01*
X2898908Y195139D01*
X2898167Y194399D01*
X2897612Y193844D01*
X2897427Y193659D01*
X2897242Y193474D01*
X2895576Y191623D01*
X2894280Y189772D01*
X2892985Y187735D01*
X2892059Y185699D01*
X2890393Y181627D01*
X2889283Y177925D01*
X2888727Y174593D01*
X2888357Y173113D01*
Y172002D01*
X2888172Y170891D01*
Y170151D01*
Y169781D01*
Y169596D01*
X2888357Y166819D01*
X2888727Y164043D01*
X2889283Y161451D01*
X2889838Y159230D01*
X2891689Y154973D01*
X2893725Y151456D01*
X2894836Y149790D01*
X2895761Y148494D01*
X2896687Y147384D01*
X2897612Y146458D01*
X2898167Y145718D01*
X2898723Y145162D01*
X2899093Y144977D01*
X2899278Y144792D01*
X2901314Y143126D01*
X2903720Y141831D01*
X2906127Y140535D01*
X2908533Y139424D01*
X2913346Y137758D01*
X2918158Y136648D01*
X2920194Y136278D01*
X2922230Y136093D01*
X2924081Y135907D01*
X2925562Y135722D01*
X2926858Y135537D01*
X2928709D01*
X2935187Y135722D01*
X2941481Y136463D01*
X2947219Y137388D01*
X2949810Y137758D01*
X2952217Y138314D01*
X2954623Y138869D01*
X2956474Y139424D01*
X2958325Y139794D01*
X2959806Y140165D01*
X2960916Y140535D01*
X2961842Y140905D01*
X2962397Y141090D01*
X2962582D01*
X2968505Y143496D01*
X2974429Y146088D01*
X2979796Y148864D01*
X2982203Y150345D01*
X2984609Y151641D01*
X2986645Y152937D01*
X2988496Y154047D01*
X2990347Y155158D01*
X2991643Y156083D01*
X2992939Y156824D01*
X2993679Y157379D01*
X2994234Y157749D01*
X2994419Y157934D01*
X2986830Y121470D01*
X2983313Y119433D01*
X2979611Y117397D01*
X2975724Y115731D01*
X2971837Y114251D01*
X2968505Y112955D01*
X2967025Y112585D01*
X2965729Y112029D01*
X2964803Y111659D01*
X2964063Y111474D01*
X2963508Y111289D01*
X2963323D01*
X2957584Y109808D01*
X2951846Y108883D01*
X2946293Y108142D01*
X2941111Y107587D01*
X2938889Y107402D01*
X2936853Y107217D01*
X2935002D01*
X2933336Y107032D01*
X2930375D01*
X2923711Y107217D01*
X2917418Y107772D01*
X2914641Y108142D01*
X2911865Y108513D01*
X2909459Y108883D01*
X2907052Y109438D01*
X2905016Y109808D01*
X2903165Y110178D01*
X2901684Y110549D01*
X2900204Y110919D01*
X2899278Y111289D01*
X2898352Y111474D01*
X2897982Y111659D01*
X2897797D01*
X2892800Y113695D01*
X2888172Y115731D01*
X2884100Y118138D01*
X2880583Y120174D01*
X2877806Y122210D01*
X2876696Y122950D01*
X2875770Y123691D01*
X2875030Y124431D01*
X2874475Y124801D01*
X2874289Y124987D01*
X2874104Y125172D01*
X2870773Y128503D01*
X2867811Y132020D01*
X2865220Y135537D01*
X2863184Y138869D01*
X2861703Y141645D01*
X2861147Y142941D01*
X2860592Y143867D01*
X2860222Y144792D01*
X2859852Y145347D01*
X2859667Y145718D01*
Y145903D01*
X2858001Y150530D01*
X2856890Y155158D01*
X2855965Y159600D01*
X2855409Y163672D01*
X2855224Y165523D01*
X2855039Y167374D01*
Y168855D01*
X2854854Y170151D01*
Y171076D01*
Y172002D01*
Y172372D01*
Y172557D01*
X2855039Y177740D01*
X2855594Y182368D01*
X2856335Y186625D01*
X2857075Y190327D01*
X2857631Y191808D01*
X2858001Y193288D01*
X2858371Y194399D01*
X2858741Y195510D01*
X2859111Y196250D01*
X2859296Y196805D01*
X2859481Y197175D01*
Y197361D01*
X2861332Y201248D01*
X2863554Y204950D01*
X2865590Y208281D01*
X2867811Y211243D01*
X2869662Y213464D01*
X2871143Y215315D01*
X2872253Y216426D01*
X2872439Y216796D01*
X2872624D01*
X2875955Y219943D01*
X2879287Y222904D01*
X2882619Y225311D01*
X2885766Y227532D01*
X2888542Y229383D01*
X2889653Y230123D01*
X2890578Y230679D01*
X2891504Y231234D01*
X2892059Y231419D01*
X2892429Y231789D01*
X2892614D01*
X2897057Y234010D01*
X2901684Y236232D01*
X2905942Y238083D01*
X2910014Y239749D01*
X2911865Y240489D01*
X2913531Y241044D01*
X2915012Y241600D01*
X2916307Y241970D01*
X2917233Y242340D01*
X2917973Y242710D01*
X2918528Y242895D01*
X2918713D01*
X2921860Y244006D01*
X2924822Y245302D01*
X2927783Y246597D01*
X2930375Y247893D01*
X2935002Y250484D01*
X2939075Y253261D01*
X2942406Y256037D01*
X2945368Y258814D01*
X2947589Y261590D01*
X2949440Y264367D01*
X2950921Y266958D01*
X2952032Y269179D01*
X2952772Y271401D01*
X2953327Y273252D01*
X2953697Y274732D01*
X2953883Y275843D01*
Y276583D01*
Y276769D01*
X2953697Y278990D01*
X2953512Y281211D01*
X2952402Y285098D01*
X2950921Y288615D01*
X2949070Y291762D01*
X2947404Y294168D01*
X2945923Y296204D01*
X2945368Y296759D01*
X2944813Y297315D01*
X2944628Y297500D01*
X2944442Y297685D01*
X2942591Y299351D01*
X2940555Y300646D01*
X2938334Y301942D01*
X2936298Y302868D01*
X2931856Y304534D01*
X2927598Y305644D01*
X2923896Y306199D01*
X2922230Y306570D01*
X2920750D01*
X2919639Y306755D01*
X2917973D01*
X2912975Y306570D01*
X2908348Y306014D01*
X2904276Y305274D01*
X2900389Y304534D01*
X2898908Y304163D01*
X2897427Y303793D01*
X2896131Y303423D01*
X2895021Y303053D01*
X2894095Y302683D01*
X2893540Y302497D01*
X2893170Y302312D01*
X2892985D01*
X2888912Y300646D01*
X2885396Y299166D01*
X2882434Y297870D01*
X2879843Y296574D01*
X2877992Y295464D01*
X2876696Y294723D01*
X2875770Y294168D01*
X2875585Y293983D01*
X2869107Y321378D01*
X2871513Y323043D01*
X2874475Y324524D01*
X2877436Y326005D01*
X2880583Y327301D01*
X2883359Y328411D01*
X2885581Y329152D01*
X2886321Y329522D01*
X2887061Y329707D01*
X2887432Y329892D01*
X2887617D01*
X2892429Y331373D01*
X2897427Y332298D01*
X2902425Y333039D01*
X2906867Y333594D01*
X2908903Y333779D01*
X2910754Y333964D01*
X2912420D01*
X2913901Y334149D01*
X2916677D01*
X2922971Y333964D01*
D02*
G37*
%LPC*%
G36*
X2582972Y267418D02*
X2577802D01*
X2577325Y267393D01*
X2576898Y267368D01*
X2576522Y267343D01*
X2576246Y267318D01*
X2576020Y267293D01*
X2575894Y267268D01*
X2575844D01*
X2575367Y267167D01*
X2574890Y267067D01*
X2574464Y266916D01*
X2574062Y266741D01*
X2573711Y266565D01*
X2573359Y266364D01*
X2573033Y266163D01*
X2572732Y265937D01*
X2572230Y265461D01*
X2571778Y264933D01*
X2571427Y264406D01*
X2571150Y263854D01*
X2570925Y263327D01*
X2570749Y262825D01*
X2570623Y262373D01*
X2570548Y261947D01*
X2570498Y261620D01*
X2570473Y261344D01*
Y261244D01*
Y261168D01*
Y261143D01*
Y261118D01*
X2570498Y260616D01*
X2570548Y260139D01*
X2570623Y259688D01*
X2570749Y259261D01*
X2570874Y258859D01*
X2571025Y258483D01*
X2571175Y258131D01*
X2571351Y257805D01*
X2571502Y257529D01*
X2571677Y257278D01*
X2571828Y257052D01*
X2571954Y256876D01*
X2572079Y256726D01*
X2572154Y256625D01*
X2572205Y256575D01*
X2572230Y256550D01*
X2572581Y256224D01*
X2572932Y255923D01*
X2573284Y255646D01*
X2573660Y255395D01*
X2574062Y255169D01*
X2574413Y254994D01*
X2575141Y254667D01*
X2575468Y254517D01*
X2575769Y254417D01*
X2576045Y254341D01*
X2576271Y254266D01*
X2576447Y254216D01*
X2576597Y254166D01*
X2576698Y254140D01*
X2576723D01*
X2577350Y254015D01*
X2577651Y253965D01*
X2577927Y253940D01*
X2578153Y253915D01*
X2578354Y253889D01*
X2578505D01*
X2579207Y253864D01*
X2582972D01*
Y267418D01*
D02*
G37*
G36*
X3382574Y301572D02*
X3352773D01*
X3350182Y301202D01*
X3347775Y300832D01*
X3345554Y300461D01*
X3343888Y300091D01*
X3342407Y299721D01*
X3341667Y299536D01*
X3341297Y299351D01*
X3338890Y298425D01*
X3336484Y297500D01*
X3334448Y296574D01*
X3332782Y295464D01*
X3331301Y294723D01*
X3330191Y293983D01*
X3329450Y293428D01*
X3329265Y293243D01*
X3327414Y291577D01*
X3325748Y289911D01*
X3324268Y288245D01*
X3322972Y286579D01*
X3322046Y285098D01*
X3321306Y283988D01*
X3320936Y283247D01*
X3320751Y282877D01*
X3319640Y280471D01*
X3318900Y278064D01*
X3318344Y275658D01*
X3317974Y273252D01*
X3317789Y271216D01*
X3317604Y269735D01*
Y268624D01*
Y268439D01*
Y268254D01*
X3317789Y265107D01*
X3318159Y262146D01*
X3318530Y259554D01*
X3319085Y257333D01*
X3319825Y255667D01*
X3320195Y254186D01*
X3320566Y253446D01*
X3320751Y253076D01*
X3322046Y250855D01*
X3323342Y248819D01*
X3324823Y246968D01*
X3326119Y245487D01*
X3327414Y244376D01*
X3328340Y243451D01*
X3329080Y242895D01*
X3329265Y242710D01*
X3331301Y241229D01*
X3333338Y240119D01*
X3335374Y239008D01*
X3337225Y238268D01*
X3338890Y237527D01*
X3340186Y237157D01*
X3340927Y236972D01*
X3341297Y236787D01*
X3346294Y235676D01*
X3348701Y235306D01*
X3350922Y235121D01*
X3352773D01*
X3354069Y234936D01*
X3382574D01*
Y301572D01*
D02*
G37*
%LPD*%
D31*
X1872331Y1924569D02*
D03*
Y1898585D02*
D03*
D32*
X2010365Y1772611D02*
D03*
Y1835603D02*
D03*
D49*
X197000Y3937008D02*
G03*
X0Y3740008I0J-197000D01*
G01*
Y197000D02*
G03*
X197000Y0I197000J0D01*
G01*
X3937008Y3740008D02*
G03*
X3740008Y3937008I-197000J0D01*
G01*
Y0D02*
G03*
X3937008Y197000I0J197000D01*
G01*
X197000Y3937008D02*
X3740008D01*
X3937008Y787402D02*
Y3740008D01*
Y197000D02*
Y787402D01*
X197000Y0D02*
X3740008D01*
X0Y197000D02*
Y3740008D01*
D51*
X3646850Y787402D02*
D03*
X1811024Y1811024D02*
D03*
D52*
X3580508Y1918150D02*
D03*
X3480508D02*
D03*
X3680508D02*
D03*
X3632326Y2391732D02*
D03*
X3532326D02*
D03*
X3531359Y3222874D02*
D03*
Y3322874D02*
D03*
X599087Y663623D02*
D03*
X599005Y867239D02*
D03*
X3211120Y517472D02*
D03*
X3311120D02*
D03*
X2722896Y856497D02*
D03*
D53*
X3380508Y1918150D02*
D03*
X3432326Y2391732D02*
D03*
X699087Y663623D02*
D03*
X699005Y867239D02*
D03*
X3111120Y517472D02*
D03*
X2822896Y856497D02*
D03*
D54*
X3531359Y3422874D02*
D03*
D55*
X3646851Y995500D02*
D03*
Y1395501D02*
D03*
D56*
X3446851Y1195501D02*
D03*
Y1295501D02*
D03*
D57*
X1052560Y3239410D02*
D03*
X1262403D02*
D03*
X1052560Y3449253D02*
D03*
X1262403D02*
D03*
X699007Y2885856D02*
D03*
X908850D02*
D03*
X699007Y3095699D02*
D03*
X908850D02*
D03*
X2327515Y301772D02*
D03*
X2179134Y450153D02*
D03*
Y153391D02*
D03*
X2030753Y301772D02*
D03*
X1679134Y153391D02*
D03*
X1827515Y301772D02*
D03*
X1530753D02*
D03*
X1679134Y450153D02*
D03*
X450153Y1718504D02*
D03*
X301772Y1866885D02*
D03*
Y1570123D02*
D03*
X153391Y1718504D02*
D03*
X301772Y2070123D02*
D03*
X450153Y2218504D02*
D03*
X153391D02*
D03*
X301772Y2366885D02*
D03*
X1629178Y3635236D02*
D03*
X1777559Y3486855D02*
D03*
Y3783617D02*
D03*
X1925940Y3635236D02*
D03*
X2277559Y3486855D02*
D03*
X2425940Y3635236D02*
D03*
X2129178D02*
D03*
X2277559Y3783617D02*
D03*
D58*
X196850Y3740157D02*
D03*
X3740157D02*
D03*
Y196850D02*
D03*
X196850D02*
D03*
D96*
X2052904Y1909486D02*
D03*
X2072589D02*
D03*
X1938976Y2065566D02*
D03*
X1919291D02*
D03*
X1978346Y1870004D02*
D03*
X1958661D02*
D03*
X2072589Y2027770D02*
D03*
X2052904D02*
D03*
M02*
