G04*
G04 #@! TF.GenerationSoftware,Altium Limited,Altium Designer,24.2.2 (26)*
G04*
G04 Layer_Physical_Order=3*
G04 Layer_Color=128*
%FSLAX26Y26*%
%MOIN*%
G70*
G04*
G04 #@! TF.SameCoordinates,46F5A5B2-6880-422F-88BA-D3FAC370E1DB*
G04*
G04*
G04 #@! TF.FilePolarity,Negative*
G04*
G01*
G75*
%ADD85C,0.040000*%
%ADD86C,0.051370*%
G04:AMPARAMS|DCode=88|XSize=93.37mil|YSize=93.37mil|CornerRadius=0mil|HoleSize=0mil|Usage=FLASHONLY|Rotation=0.000|XOffset=0mil|YOffset=0mil|HoleType=Round|Shape=Relief|Width=25mil|Gap=7mil|Entries=4|*
%AMTHD88*
7,0,0,0.093370,0.079370,0.025000,45*
%
%ADD88THD88*%
%ADD89C,0.094677*%
%ADD90C,0.047433*%
%ADD92C,0.021843*%
%ADD93C,0.071055*%
%ADD94C,0.137984*%
%ADD95C,0.023811*%
D85*
X3740008D02*
G03*
X3937008Y197000I0J197000D01*
G01*
X0D02*
G03*
X197000Y0I197000J0D01*
G01*
Y3937008D02*
G03*
X0Y3740008I0J-197000D01*
G01*
X3937008D02*
G03*
X3740008Y3937008I-197000J0D01*
G01*
X3937008Y787402D02*
Y3740008D01*
X197000Y0D02*
X3740008D01*
X0Y197000D02*
Y3740008D01*
X197000Y3937008D02*
X3740008D01*
X3937008Y197000D02*
Y787402D01*
D86*
X3580508Y1918150D02*
D03*
X3480508D02*
D03*
X3380508D02*
D03*
X3680508D02*
D03*
X3632326Y2391732D02*
D03*
X3532326D02*
D03*
X3432326D02*
D03*
X3531359Y3222874D02*
D03*
Y3322874D02*
D03*
Y3422874D02*
D03*
X599087Y663623D02*
D03*
X699087D02*
D03*
X599005Y867239D02*
D03*
X699005D02*
D03*
X3111120Y517472D02*
D03*
X3311120D02*
D03*
X2822896Y856497D02*
D03*
X2722896D02*
D03*
D88*
X3211120Y517472D02*
D03*
D89*
X3646851Y995500D02*
D03*
Y1395501D02*
D03*
D90*
X3446851Y1195501D02*
D03*
Y1295501D02*
D03*
D92*
X1922968Y2180892D02*
D03*
X1936502Y2145703D02*
D03*
X1510326Y2533504D02*
D03*
X1486069Y2557762D02*
D03*
X1544250Y2531319D02*
D03*
X1484561Y2591008D02*
D03*
X1505775Y2678476D02*
D03*
X1526765Y2657486D02*
D03*
X1547756Y2636495D02*
D03*
X1548693Y2595210D02*
D03*
X1490774Y2621494D02*
D03*
X1469783Y2642485D02*
D03*
X1421813Y2762438D02*
D03*
X1442804Y2741448D02*
D03*
X1463794Y2720457D02*
D03*
X1484784Y2699467D02*
D03*
X1448793Y2663475D02*
D03*
X1427802Y2684465D02*
D03*
X1406812Y2705456D02*
D03*
X1385821Y2726446D02*
D03*
X1337851Y2846400D02*
D03*
X1358842Y2825410D02*
D03*
X1379832Y2804419D02*
D03*
X1400823Y2783429D02*
D03*
X1364831Y2747437D02*
D03*
X1343840Y2768427D02*
D03*
X1322850Y2789418D02*
D03*
X1301860Y2810408D02*
D03*
X1876584Y1773389D02*
D03*
X1803245Y1755208D02*
D03*
X1899606Y1820485D02*
D03*
X2351168Y1969932D02*
D03*
X3130433Y1227855D02*
D03*
Y1256603D02*
D03*
X3101685Y1227855D02*
D03*
Y1256603D02*
D03*
X3072937Y1227855D02*
D03*
Y1256603D02*
D03*
X3130433Y1285351D02*
D03*
Y1314099D02*
D03*
X3101685Y1285351D02*
D03*
Y1314099D02*
D03*
X3072937Y1285351D02*
D03*
Y1314099D02*
D03*
Y1342847D02*
D03*
X3101685D02*
D03*
X3130433D02*
D03*
X2929197D02*
D03*
X2957945D02*
D03*
X3044189D02*
D03*
X3015441D02*
D03*
X2986693D02*
D03*
X2871701D02*
D03*
X2842953D02*
D03*
X2814205D02*
D03*
X2900449D02*
D03*
Y1227855D02*
D03*
Y1256603D02*
D03*
X2814205Y1227855D02*
D03*
Y1256603D02*
D03*
X2842953Y1227855D02*
D03*
Y1256603D02*
D03*
X2871701Y1227855D02*
D03*
Y1256603D02*
D03*
X2900449Y1285351D02*
D03*
Y1314099D02*
D03*
X2814205Y1285351D02*
D03*
Y1314099D02*
D03*
X2842953Y1285351D02*
D03*
Y1314099D02*
D03*
X2871701Y1285351D02*
D03*
Y1314099D02*
D03*
X2986693D02*
D03*
Y1285351D02*
D03*
X3015441Y1314099D02*
D03*
Y1285351D02*
D03*
X3044189Y1314099D02*
D03*
Y1285351D02*
D03*
X2957945Y1314099D02*
D03*
Y1285351D02*
D03*
X2929197Y1314099D02*
D03*
Y1285351D02*
D03*
X2986693Y1256603D02*
D03*
Y1227855D02*
D03*
X3015441Y1256603D02*
D03*
Y1227855D02*
D03*
X3044189Y1256603D02*
D03*
Y1227855D02*
D03*
X2957945Y1256603D02*
D03*
Y1227855D02*
D03*
X2929197Y1256603D02*
D03*
Y1227855D02*
D03*
X1504505Y1753948D02*
D03*
X1444505Y1873948D02*
D03*
X1564505D02*
D03*
X3018924Y2044999D02*
D03*
X2909162D02*
D03*
X2799400D02*
D03*
X2689637D02*
D03*
X2579875D02*
D03*
X2470112D02*
D03*
X2500799Y2310553D02*
D03*
X2419952Y2230887D02*
D03*
X2333795Y2144139D02*
D03*
X1902417Y2413480D02*
D03*
X2157349Y2393760D02*
D03*
X1803245Y1695838D02*
D03*
Y1636468D02*
D03*
X1743875D02*
D03*
Y1695838D02*
D03*
Y1814578D02*
D03*
Y1755208D02*
D03*
X1684505D02*
D03*
X1628071Y2158932D02*
D03*
X1742659Y2285647D02*
D03*
X1715178Y2238932D02*
D03*
X2154784Y2265055D02*
D03*
X2218420Y2163022D02*
D03*
X2275175Y1749383D02*
D03*
X2215805D02*
D03*
X2156435D02*
D03*
X2215805Y1808753D02*
D03*
X2275175D02*
D03*
X2156435D02*
D03*
X1684505Y1814578D02*
D03*
Y1873948D02*
D03*
X1803245D02*
D03*
X1743875D02*
D03*
X1803245Y1933318D02*
D03*
X1743875D02*
D03*
X2196764Y2227465D02*
D03*
X2112802Y2143503D02*
D03*
X2154784Y2185485D02*
D03*
X1825144Y2196951D02*
D03*
X1867125Y2154970D02*
D03*
X1783163Y2238932D02*
D03*
X1960638Y2225431D02*
D03*
X2056016Y2177506D02*
D03*
Y2147821D02*
D03*
Y2118136D02*
D03*
X1999102D02*
D03*
Y2147821D02*
D03*
Y2177506D02*
D03*
X2007840Y1718939D02*
D03*
X1597991Y2099578D02*
D03*
X1491480Y2377921D02*
D03*
X1559087Y2445527D02*
D03*
X1542186Y2428626D02*
D03*
X1525284Y2411724D02*
D03*
X1508382Y2394822D02*
D03*
X2377921Y2445527D02*
D03*
X2445527Y2377921D02*
D03*
X2428626Y2394822D02*
D03*
X2411724Y2411724D02*
D03*
X2394822Y2428626D02*
D03*
X2445527Y1559087D02*
D03*
X2377921Y1491480D02*
D03*
X2394822Y1508382D02*
D03*
X2411724Y1525284D02*
D03*
X2428626Y1542186D02*
D03*
X1559087Y1491480D02*
D03*
X1491480Y1559087D02*
D03*
X1508382Y1542186D02*
D03*
X1525284Y1525284D02*
D03*
X1542186Y1508382D02*
D03*
X2054108Y1862420D02*
D03*
X1070850Y2971345D02*
D03*
X1100535Y2971345D02*
D03*
X996637Y3019221D02*
D03*
X1176915Y3203089D02*
D03*
Y3255519D02*
D03*
Y3225834D02*
D03*
X1138049Y3270362D02*
D03*
Y3240677D02*
D03*
X1181420Y3129358D02*
D03*
X1129039Y3181307D02*
D03*
X1185925Y3181307D02*
D03*
Y3151622D02*
D03*
X1138049Y3210992D02*
D03*
X1129039Y3151622D02*
D03*
X1176915Y3107094D02*
D03*
X1137971Y3010288D02*
D03*
X1176915Y3077409D02*
D03*
X1138049Y3032882D02*
D03*
Y3062567D02*
D03*
Y3092252D02*
D03*
X1085693Y3010211D02*
D03*
X1115378D02*
D03*
X1138049Y3121937D02*
D03*
X966952Y2962335D02*
D03*
X937267Y3010211D02*
D03*
X1026322D02*
D03*
X1056007D02*
D03*
X1041165Y2971345D02*
D03*
X996637Y2962335D02*
D03*
X966952Y3019221D02*
D03*
X1018901Y2966840D02*
D03*
X907582Y3010211D02*
D03*
X877897D02*
D03*
X922425Y2971345D02*
D03*
X892740D02*
D03*
X945171D02*
D03*
X1154926Y2957341D02*
D03*
X1217898Y2894370D02*
D03*
X1196907Y2915360D02*
D03*
X1175917Y2936351D02*
D03*
X1238888Y2873380D02*
D03*
X1259879Y2852389D02*
D03*
X1280869Y2831399D02*
D03*
X1190918Y2993333D02*
D03*
X1316861Y2867390D02*
D03*
X1295870Y2888381D02*
D03*
X1274880Y2909371D02*
D03*
X1211908Y2972343D02*
D03*
X1232899Y2951352D02*
D03*
X1176915Y3018039D02*
D03*
Y3047724D02*
D03*
X1130220Y2971345D02*
D03*
X1574736Y2537532D02*
D03*
X1784640Y2327628D02*
D03*
X1595726Y2516542D02*
D03*
X1694689Y2489562D02*
D03*
X1673699Y2510552D02*
D03*
X1652708Y2531543D02*
D03*
X1610727Y2573524D02*
D03*
X1631718Y2552533D02*
D03*
X1820632Y2363619D02*
D03*
X1799641Y2384610D02*
D03*
X1778651Y2405600D02*
D03*
X1715679Y2468572D02*
D03*
X1736670Y2447581D02*
D03*
X1868602Y2243666D02*
D03*
X1805631Y2306637D02*
D03*
X1826621Y2285647D02*
D03*
X1847611Y2264656D02*
D03*
X1721669Y2390599D02*
D03*
X1700678Y2411589D02*
D03*
X1679688Y2432580D02*
D03*
X1742659Y2369608D02*
D03*
X1763650Y2348618D02*
D03*
X1658697Y2453570D02*
D03*
X1616716Y2495551D02*
D03*
X1637707Y2474561D02*
D03*
X1253889Y2930362D02*
D03*
X1589737Y2594514D02*
D03*
X1757660Y2426591D02*
D03*
X1883603Y2300648D02*
D03*
X1862613Y2321638D02*
D03*
X1841622Y2342629D02*
D03*
X1904594Y2279657D02*
D03*
X1929134Y524180D02*
D03*
X1903684Y1671953D02*
D03*
Y1642268D02*
D03*
Y1612583D02*
D03*
Y1582898D02*
D03*
Y1493843D02*
D03*
Y1523528D02*
D03*
Y1553213D02*
D03*
Y1375103D02*
D03*
Y1345418D02*
D03*
Y1315733D02*
D03*
Y1404788D02*
D03*
Y1434473D02*
D03*
Y1464158D02*
D03*
Y1196993D02*
D03*
Y1167308D02*
D03*
Y1137623D02*
D03*
Y1226678D02*
D03*
Y1256363D02*
D03*
Y1286048D02*
D03*
Y1018883D02*
D03*
Y989198D02*
D03*
Y959513D02*
D03*
Y1048568D02*
D03*
Y1078253D02*
D03*
Y1107938D02*
D03*
Y840773D02*
D03*
Y811088D02*
D03*
Y781403D02*
D03*
Y870458D02*
D03*
Y900143D02*
D03*
Y929828D02*
D03*
Y662663D02*
D03*
Y632978D02*
D03*
Y603293D02*
D03*
Y692348D02*
D03*
Y722033D02*
D03*
Y751718D02*
D03*
Y573608D02*
D03*
X1954584D02*
D03*
Y751718D02*
D03*
Y722033D02*
D03*
Y692348D02*
D03*
Y603293D02*
D03*
Y632978D02*
D03*
Y662663D02*
D03*
Y929828D02*
D03*
Y900143D02*
D03*
Y870458D02*
D03*
Y781403D02*
D03*
Y811088D02*
D03*
Y840773D02*
D03*
Y1107938D02*
D03*
Y1078253D02*
D03*
Y1048568D02*
D03*
Y959513D02*
D03*
Y989198D02*
D03*
Y1018883D02*
D03*
Y1286048D02*
D03*
Y1256363D02*
D03*
Y1226678D02*
D03*
Y1137623D02*
D03*
Y1167308D02*
D03*
Y1196993D02*
D03*
Y1464158D02*
D03*
Y1434473D02*
D03*
Y1404788D02*
D03*
Y1315733D02*
D03*
Y1345418D02*
D03*
Y1375103D02*
D03*
Y1553213D02*
D03*
Y1523528D02*
D03*
Y1493843D02*
D03*
Y1582898D02*
D03*
Y1612583D02*
D03*
Y1642268D02*
D03*
Y1671953D02*
D03*
X1962152Y546236D02*
D03*
X1983142Y525246D02*
D03*
X2004133Y504255D02*
D03*
X2025123Y483265D02*
D03*
X1945165Y508259D02*
D03*
X1966155Y487268D02*
D03*
X1987146Y466278D02*
D03*
X1850131Y445287D02*
D03*
X1871122Y466278D02*
D03*
X1892112Y487268D02*
D03*
X1913103Y508259D02*
D03*
X1833145Y483265D02*
D03*
X1854135Y504255D02*
D03*
X1875125Y525246D02*
D03*
X1896116Y546236D02*
D03*
X1835512Y417926D02*
D03*
X1787160Y382316D02*
D03*
X1795287Y458150D02*
D03*
X1774297Y437160D02*
D03*
X1814522Y396935D02*
D03*
X1814216Y470707D02*
D03*
X1766169Y361325D02*
D03*
X1745179Y340335D02*
D03*
X1749182Y399303D02*
D03*
X1728192Y378312D02*
D03*
X1765266Y415387D02*
D03*
X2093002Y415387D02*
D03*
X2130076Y378313D02*
D03*
X2109085Y399303D02*
D03*
X2113089Y340335D02*
D03*
X2092098Y361325D02*
D03*
X2044052Y470708D02*
D03*
X2043746Y396935D02*
D03*
X2083971Y437160D02*
D03*
X2062980Y458150D02*
D03*
X2071108Y382316D02*
D03*
X2022756Y417926D02*
D03*
X2008136Y445287D02*
D03*
X524180Y1968504D02*
D03*
X1671953Y1993954D02*
D03*
X1582898D02*
D03*
X1493843D02*
D03*
X1523528D02*
D03*
X1553213D02*
D03*
X1375103D02*
D03*
X1345418D02*
D03*
X1315733D02*
D03*
X1404788D02*
D03*
X1434473D02*
D03*
X1464158D02*
D03*
X1196993D02*
D03*
X1167308D02*
D03*
X1137623D02*
D03*
X1226678D02*
D03*
X1256363D02*
D03*
X1286048D02*
D03*
X1018883D02*
D03*
X989198D02*
D03*
X959513D02*
D03*
X1048568D02*
D03*
X1078253D02*
D03*
X1107938D02*
D03*
X840773D02*
D03*
X811088D02*
D03*
X781403D02*
D03*
X870458D02*
D03*
X900143D02*
D03*
X929828D02*
D03*
X662663D02*
D03*
X632978D02*
D03*
X603293D02*
D03*
X692348D02*
D03*
X722033D02*
D03*
X751718D02*
D03*
X573608D02*
D03*
Y1943054D02*
D03*
X751718D02*
D03*
X722033D02*
D03*
X692348D02*
D03*
X603293D02*
D03*
X632978D02*
D03*
X662663D02*
D03*
X929828D02*
D03*
X900143D02*
D03*
X870458D02*
D03*
X781403D02*
D03*
X811088D02*
D03*
X840773D02*
D03*
X1107938D02*
D03*
X1078253D02*
D03*
X1048568D02*
D03*
X959513D02*
D03*
X989198D02*
D03*
X1018883D02*
D03*
X1286048D02*
D03*
X1256363D02*
D03*
X1226678D02*
D03*
X1137623D02*
D03*
X1167308D02*
D03*
X1196993D02*
D03*
X1464158D02*
D03*
X1434473D02*
D03*
X1404788D02*
D03*
X1315733D02*
D03*
X1345418D02*
D03*
X1375103D02*
D03*
X1553213D02*
D03*
X1523528D02*
D03*
X1493843D02*
D03*
X1582898D02*
D03*
X1671953D02*
D03*
X546236Y1935486D02*
D03*
X525246Y1914495D02*
D03*
X504255Y1893505D02*
D03*
X483265Y1872515D02*
D03*
X508259Y1952473D02*
D03*
X487268Y1931483D02*
D03*
X466278Y1910492D02*
D03*
X445287Y1889502D02*
D03*
Y2047506D02*
D03*
X466278Y2026516D02*
D03*
X487268Y2005525D02*
D03*
X508259Y1984535D02*
D03*
X483265Y2064493D02*
D03*
X504255Y2043503D02*
D03*
X525246Y2022512D02*
D03*
X546236Y2001522D02*
D03*
X417926Y2062126D02*
D03*
X382316Y2110478D02*
D03*
X458150Y2102350D02*
D03*
X437160Y2123341D02*
D03*
X396935Y2083116D02*
D03*
X470707Y2083422D02*
D03*
X361325Y2131468D02*
D03*
X340335Y2152459D02*
D03*
X399303Y2148455D02*
D03*
X378312Y2169446D02*
D03*
X415387Y2132372D02*
D03*
X415387Y1804636D02*
D03*
X378313Y1767562D02*
D03*
X399303Y1788553D02*
D03*
X340335Y1784549D02*
D03*
X361325Y1805540D02*
D03*
X470708Y1853586D02*
D03*
X396935Y1853892D02*
D03*
X437160Y1813667D02*
D03*
X458150Y1834658D02*
D03*
X382316Y1826530D02*
D03*
X417926Y1874882D02*
D03*
X1933937Y3519082D02*
D03*
X1885585Y3554692D02*
D03*
X1893713Y3478858D02*
D03*
X1872722Y3499848D02*
D03*
X1912947Y3540073D02*
D03*
X1912641Y3466300D02*
D03*
X1864595Y3575682D02*
D03*
X1843604Y3596673D02*
D03*
X1847608Y3537705D02*
D03*
X1826617Y3558695D02*
D03*
X1863691Y3521621D02*
D03*
X2191427Y3521621D02*
D03*
X2228501Y3558695D02*
D03*
X2207510Y3537705D02*
D03*
X2211514Y3596673D02*
D03*
X2190523Y3575683D02*
D03*
X2142477Y3466300D02*
D03*
X2142171Y3540073D02*
D03*
X2182396Y3499848D02*
D03*
X2161405Y3478858D02*
D03*
X2169533Y3554692D02*
D03*
X2121181Y3519082D02*
D03*
X2060577Y3390771D02*
D03*
X2081567Y3411762D02*
D03*
X2102558Y3432752D02*
D03*
X2123548Y3453743D02*
D03*
X2043590Y3428749D02*
D03*
X2064580Y3449740D02*
D03*
X2085571Y3470730D02*
D03*
X2106561Y3491721D02*
D03*
X1948557D02*
D03*
X1969547Y3470730D02*
D03*
X1990538Y3449740D02*
D03*
X2011528Y3428749D02*
D03*
X1931570Y3453743D02*
D03*
X1952560Y3432752D02*
D03*
X1973551Y3411762D02*
D03*
X1994541Y3390771D02*
D03*
X2002109Y2265055D02*
D03*
Y2294740D02*
D03*
Y2324425D02*
D03*
Y2354110D02*
D03*
Y2443165D02*
D03*
Y2413480D02*
D03*
Y2383795D02*
D03*
Y2561905D02*
D03*
Y2591590D02*
D03*
Y2621275D02*
D03*
Y2532220D02*
D03*
Y2502535D02*
D03*
Y2472850D02*
D03*
Y2740015D02*
D03*
Y2769700D02*
D03*
Y2799385D02*
D03*
Y2710330D02*
D03*
Y2680645D02*
D03*
Y2650960D02*
D03*
Y2918125D02*
D03*
Y2947810D02*
D03*
Y2977495D02*
D03*
Y2888440D02*
D03*
Y2858755D02*
D03*
Y2829070D02*
D03*
Y3096235D02*
D03*
Y3125920D02*
D03*
Y3155605D02*
D03*
Y3066550D02*
D03*
Y3036865D02*
D03*
Y3007180D02*
D03*
Y3274345D02*
D03*
Y3304030D02*
D03*
Y3333715D02*
D03*
Y3244660D02*
D03*
Y3214975D02*
D03*
Y3185290D02*
D03*
Y3363400D02*
D03*
X2053009D02*
D03*
Y3185290D02*
D03*
Y3214975D02*
D03*
Y3244660D02*
D03*
Y3333715D02*
D03*
Y3304030D02*
D03*
Y3274345D02*
D03*
Y3007180D02*
D03*
Y3036865D02*
D03*
Y3066550D02*
D03*
Y3155605D02*
D03*
Y3125920D02*
D03*
Y3096235D02*
D03*
Y2829070D02*
D03*
Y2858755D02*
D03*
Y2888440D02*
D03*
Y2977495D02*
D03*
Y2947810D02*
D03*
Y2918125D02*
D03*
Y2650960D02*
D03*
Y2680645D02*
D03*
Y2710330D02*
D03*
Y2799385D02*
D03*
Y2769700D02*
D03*
Y2740015D02*
D03*
Y2472850D02*
D03*
Y2502535D02*
D03*
Y2532220D02*
D03*
Y2621275D02*
D03*
Y2591590D02*
D03*
Y2561905D02*
D03*
Y2383795D02*
D03*
Y2413480D02*
D03*
Y2443165D02*
D03*
Y2354110D02*
D03*
Y2324425D02*
D03*
Y2294740D02*
D03*
Y2265055D02*
D03*
X2027559Y3412828D02*
D03*
X1968504Y1911008D02*
D03*
Y1939756D02*
D03*
X1939756Y1911008D02*
D03*
Y1939756D02*
D03*
X1911008Y1911008D02*
D03*
Y1939756D02*
D03*
X1997252Y1911008D02*
D03*
Y1939756D02*
D03*
X2026000Y1911008D02*
D03*
Y1939756D02*
D03*
X1911008Y1997252D02*
D03*
Y2026000D02*
D03*
X1939756Y1997252D02*
D03*
Y2026000D02*
D03*
X2026000Y1997252D02*
D03*
Y2026000D02*
D03*
X1997252Y1997252D02*
D03*
Y2026000D02*
D03*
X1968504Y1997252D02*
D03*
Y2026000D02*
D03*
X1647818Y2051826D02*
D03*
X1771308Y2007157D02*
D03*
X1861004Y2054860D02*
D03*
X3281532Y370989D02*
D03*
X3180714D02*
D03*
X1884739Y1861898D02*
D03*
X2234779Y245576D02*
D03*
X2179134Y222586D02*
D03*
X2122386Y245576D02*
D03*
X2099109Y301772D02*
D03*
X2178582Y381245D02*
D03*
X2234779Y357968D02*
D03*
X2258056Y301772D02*
D03*
X1622938Y246127D02*
D03*
X1599948Y301772D02*
D03*
X1622938Y358520D02*
D03*
X1679134Y381797D02*
D03*
X1758607Y302323D02*
D03*
X1735330Y246127D02*
D03*
X1679134Y222850D02*
D03*
X245576Y1662859D02*
D03*
X222586Y1718504D02*
D03*
X245576Y1775252D02*
D03*
X301772Y1798529D02*
D03*
X381245Y1719055D02*
D03*
X357968Y1662859D02*
D03*
X301772Y1639582D02*
D03*
X246127Y2274700D02*
D03*
X301772Y2297690D02*
D03*
X358520Y2274700D02*
D03*
X381797Y2218504D02*
D03*
X302323Y2139030D02*
D03*
X246127Y2162308D02*
D03*
X222850Y2218504D02*
D03*
X2333755Y3690881D02*
D03*
X2356745Y3635236D02*
D03*
X2333755Y3578488D02*
D03*
X2277559Y3555211D02*
D03*
X2198086Y3634684D02*
D03*
X2221363Y3690881D02*
D03*
X2277559Y3714158D02*
D03*
X1721914Y3691432D02*
D03*
X1777559Y3714422D02*
D03*
X1834307Y3691432D02*
D03*
X1857584Y3635236D02*
D03*
X1778110Y3555762D02*
D03*
X1721914Y3579040D02*
D03*
X1698637Y3635236D02*
D03*
X1157482Y3423805D02*
D03*
X1213084Y3400714D02*
D03*
X1236955Y3344331D02*
D03*
X1213678Y3288135D02*
D03*
X1101285D02*
D03*
X1078008Y3344331D02*
D03*
X1101285Y3400528D02*
D03*
X747732Y2934581D02*
D03*
X803928Y2911304D02*
D03*
X860125Y2934581D02*
D03*
Y3046974D02*
D03*
X803928Y3070251D02*
D03*
X747545Y3046381D02*
D03*
X724455Y2990778D02*
D03*
X1984171Y1820485D02*
D03*
X1677345Y2158932D02*
D03*
X2218419Y2041393D02*
D03*
X2251846Y2074819D02*
D03*
X2218420Y2108246D02*
D03*
X2251846Y1881740D02*
D03*
X2218420Y1915167D02*
D03*
X1693553Y2018838D02*
D03*
X1723930Y2018838D02*
D03*
X1752186Y2173412D02*
D03*
X2153146Y1998032D02*
D03*
X2026000Y1968504D02*
D03*
X1997252D02*
D03*
X3095036Y405108D02*
D03*
X2994155Y717888D02*
D03*
X2994171Y694388D02*
D03*
X2994155Y670888D02*
D03*
X2897523Y620371D02*
D03*
X2887336Y789637D02*
D03*
X3001185Y406551D02*
D03*
X1968504Y1968504D02*
D03*
X1911008D02*
D03*
X1939756D02*
D03*
X2955785Y670888D02*
D03*
X2955801Y694388D02*
D03*
X2917415Y717888D02*
D03*
X2917431Y694388D02*
D03*
X2955785Y717888D02*
D03*
X2917415Y670888D02*
D03*
D93*
X1052560Y3239410D02*
D03*
X1262403D02*
D03*
X1052560Y3449253D02*
D03*
X1262403D02*
D03*
X699007Y2885856D02*
D03*
X908850D02*
D03*
X699007Y3095699D02*
D03*
X908850D02*
D03*
X2327515Y301772D02*
D03*
X2179134Y450153D02*
D03*
Y153391D02*
D03*
X2030753Y301772D02*
D03*
X1679134Y153391D02*
D03*
X1827515Y301772D02*
D03*
X1530753D02*
D03*
X1679134Y450153D02*
D03*
X450153Y1718504D02*
D03*
X301772Y1866885D02*
D03*
Y1570123D02*
D03*
X153391Y1718504D02*
D03*
X301772Y2070123D02*
D03*
X450153Y2218504D02*
D03*
X153391D02*
D03*
X301772Y2366885D02*
D03*
X1629178Y3635236D02*
D03*
X1777559Y3486855D02*
D03*
Y3783617D02*
D03*
X1925940Y3635236D02*
D03*
X2277559Y3486855D02*
D03*
X2425940Y3635236D02*
D03*
X2129178D02*
D03*
X2277559Y3783617D02*
D03*
D94*
X196850Y3740157D02*
D03*
X3740157D02*
D03*
Y196850D02*
D03*
X196850D02*
D03*
D95*
X3252305Y796926D02*
D03*
X376421Y1973488D02*
D03*
X2032543Y3560587D02*
D03*
X3840000Y3480000D02*
D03*
Y3240000D02*
D03*
Y3000000D02*
D03*
Y2760000D02*
D03*
Y2520000D02*
D03*
Y2280000D02*
D03*
Y2040000D02*
D03*
Y1800000D02*
D03*
Y1560000D02*
D03*
Y1320000D02*
D03*
Y1080000D02*
D03*
Y840000D02*
D03*
Y600000D02*
D03*
Y360000D02*
D03*
X3720000Y3480000D02*
D03*
X3780000Y3360000D02*
D03*
X3720000Y3240000D02*
D03*
X3780000Y3120000D02*
D03*
X3720000Y3000000D02*
D03*
X3780000Y2880000D02*
D03*
X3720000Y2760000D02*
D03*
X3780000Y2640000D02*
D03*
X3720000Y2520000D02*
D03*
X3780000Y2400000D02*
D03*
X3720000Y2280000D02*
D03*
X3780000Y2160000D02*
D03*
X3720000Y2040000D02*
D03*
X3780000Y1920000D02*
D03*
X3720000Y1800000D02*
D03*
X3780000Y1680000D02*
D03*
X3720000Y1560000D02*
D03*
X3780000Y1440000D02*
D03*
Y1200000D02*
D03*
Y960000D02*
D03*
Y720000D02*
D03*
X3720000Y600000D02*
D03*
X3780000Y480000D02*
D03*
X3720000Y360000D02*
D03*
X3660000Y3600000D02*
D03*
Y3360000D02*
D03*
Y3120000D02*
D03*
X3600000Y3000000D02*
D03*
Y2280000D02*
D03*
X3660000Y2160000D02*
D03*
X3600000Y2040000D02*
D03*
X3660000Y1680000D02*
D03*
X3600000Y1560000D02*
D03*
X3660000Y1200000D02*
D03*
X3600000Y600000D02*
D03*
X3660000Y480000D02*
D03*
X3600000Y360000D02*
D03*
X3540000Y3840000D02*
D03*
X3480000Y3720000D02*
D03*
X3540000Y3600000D02*
D03*
Y3120000D02*
D03*
X3480000Y3000000D02*
D03*
X3540000Y2160000D02*
D03*
X3480000Y2040000D02*
D03*
X3540000Y1680000D02*
D03*
X3480000Y1560000D02*
D03*
Y840000D02*
D03*
X3540000Y720000D02*
D03*
X3480000Y600000D02*
D03*
X3540000Y480000D02*
D03*
X3480000Y360000D02*
D03*
X3420000Y3840000D02*
D03*
X3360000Y3720000D02*
D03*
X3420000Y3600000D02*
D03*
X3360000Y3480000D02*
D03*
Y3240000D02*
D03*
X3420000Y3120000D02*
D03*
X3360000Y3000000D02*
D03*
Y2760000D02*
D03*
X3420000Y2160000D02*
D03*
X3360000Y2040000D02*
D03*
X3420000Y1680000D02*
D03*
X3360000Y1560000D02*
D03*
X3420000Y960000D02*
D03*
X3360000Y840000D02*
D03*
X3420000Y720000D02*
D03*
Y480000D02*
D03*
X3360000Y360000D02*
D03*
X3300000Y3840000D02*
D03*
X3240000Y3720000D02*
D03*
X3300000Y3600000D02*
D03*
Y3120000D02*
D03*
X3240000Y3000000D02*
D03*
X3300000Y2880000D02*
D03*
X3240000Y2760000D02*
D03*
X3300000Y2640000D02*
D03*
X3240000Y2520000D02*
D03*
X3300000Y2400000D02*
D03*
X3240000Y2040000D02*
D03*
Y1800000D02*
D03*
X3300000Y1680000D02*
D03*
X3240000Y1560000D02*
D03*
X3300000Y960000D02*
D03*
X3240000Y120000D02*
D03*
X3180000Y3840000D02*
D03*
X3120000Y3720000D02*
D03*
X3180000Y3600000D02*
D03*
X3120000Y3480000D02*
D03*
X3180000Y3120000D02*
D03*
Y2880000D02*
D03*
Y2640000D02*
D03*
X3120000Y2520000D02*
D03*
X3180000Y2400000D02*
D03*
X3120000Y2280000D02*
D03*
Y1800000D02*
D03*
X3180000Y1680000D02*
D03*
X3120000Y1560000D02*
D03*
X3060000Y3840000D02*
D03*
X3000000Y3720000D02*
D03*
X3060000Y3600000D02*
D03*
X3000000Y3480000D02*
D03*
Y3240000D02*
D03*
Y3000000D02*
D03*
X3060000Y2640000D02*
D03*
X3000000Y2520000D02*
D03*
X3060000Y2400000D02*
D03*
X3000000Y2280000D02*
D03*
X3060000Y2160000D02*
D03*
X3000000Y1800000D02*
D03*
X3060000Y1680000D02*
D03*
X3000000Y1560000D02*
D03*
X2940000Y3840000D02*
D03*
X2880000Y3720000D02*
D03*
X2940000Y3600000D02*
D03*
X2880000Y3480000D02*
D03*
X2940000Y3360000D02*
D03*
X2880000Y3240000D02*
D03*
X2940000Y3120000D02*
D03*
X2880000Y3000000D02*
D03*
X2940000Y2880000D02*
D03*
X2880000Y2760000D02*
D03*
X2940000Y2400000D02*
D03*
X2880000Y2280000D02*
D03*
X2940000Y2160000D02*
D03*
X2880000Y1800000D02*
D03*
X2940000Y1680000D02*
D03*
X2880000Y1560000D02*
D03*
X2820000Y3840000D02*
D03*
X2760000Y3720000D02*
D03*
X2820000Y3600000D02*
D03*
X2760000Y3480000D02*
D03*
X2820000Y3360000D02*
D03*
X2760000Y3240000D02*
D03*
X2820000Y3120000D02*
D03*
X2760000Y3000000D02*
D03*
X2820000Y2880000D02*
D03*
X2760000Y2760000D02*
D03*
X2820000Y2640000D02*
D03*
Y2400000D02*
D03*
X2760000Y2280000D02*
D03*
X2820000Y2160000D02*
D03*
X2760000Y1800000D02*
D03*
X2820000Y1680000D02*
D03*
X2760000Y1560000D02*
D03*
Y600000D02*
D03*
Y360000D02*
D03*
X2700000Y3840000D02*
D03*
X2640000Y3720000D02*
D03*
X2700000Y3600000D02*
D03*
X2640000Y3480000D02*
D03*
X2700000Y3360000D02*
D03*
X2640000Y3240000D02*
D03*
X2700000Y3120000D02*
D03*
X2640000Y3000000D02*
D03*
X2700000Y2880000D02*
D03*
X2640000Y2760000D02*
D03*
X2700000Y2640000D02*
D03*
X2640000Y2520000D02*
D03*
X2700000Y2160000D02*
D03*
X2640000Y1800000D02*
D03*
X2700000Y1680000D02*
D03*
X2640000Y1560000D02*
D03*
X2700000Y1440000D02*
D03*
Y960000D02*
D03*
Y720000D02*
D03*
X2640000Y600000D02*
D03*
X2700000Y480000D02*
D03*
X2640000Y360000D02*
D03*
X2580000Y3840000D02*
D03*
X2520000Y3720000D02*
D03*
X2580000Y3600000D02*
D03*
X2520000Y3480000D02*
D03*
X2580000Y3360000D02*
D03*
X2520000Y3240000D02*
D03*
X2580000Y3120000D02*
D03*
X2520000Y3000000D02*
D03*
X2580000Y2880000D02*
D03*
X2520000Y2760000D02*
D03*
X2580000Y2640000D02*
D03*
X2520000Y2520000D02*
D03*
X2580000Y2400000D02*
D03*
Y2160000D02*
D03*
Y1680000D02*
D03*
X2520000Y1560000D02*
D03*
X2580000Y1440000D02*
D03*
Y960000D02*
D03*
X2520000Y840000D02*
D03*
X2580000Y720000D02*
D03*
X2520000Y600000D02*
D03*
X2580000Y480000D02*
D03*
X2520000Y360000D02*
D03*
X2460000Y3840000D02*
D03*
X2400000Y3480000D02*
D03*
X2460000Y3360000D02*
D03*
X2400000Y3240000D02*
D03*
X2460000Y3120000D02*
D03*
X2400000Y3000000D02*
D03*
X2460000Y2880000D02*
D03*
X2400000Y2760000D02*
D03*
X2460000Y2640000D02*
D03*
X2400000Y2520000D02*
D03*
X2460000Y1680000D02*
D03*
Y1440000D02*
D03*
X2400000Y1320000D02*
D03*
Y1080000D02*
D03*
X2460000Y960000D02*
D03*
X2400000Y840000D02*
D03*
X2460000Y720000D02*
D03*
X2400000Y600000D02*
D03*
X2460000Y480000D02*
D03*
X2400000Y120000D02*
D03*
X2340000Y3360000D02*
D03*
X2280000Y3240000D02*
D03*
X2340000Y3120000D02*
D03*
X2280000Y3000000D02*
D03*
X2340000Y2880000D02*
D03*
X2280000Y2760000D02*
D03*
X2340000Y2640000D02*
D03*
X2280000Y2520000D02*
D03*
Y1320000D02*
D03*
X2340000Y1200000D02*
D03*
X2280000Y1080000D02*
D03*
X2340000Y960000D02*
D03*
X2280000Y840000D02*
D03*
X2340000Y720000D02*
D03*
X2280000Y600000D02*
D03*
X2340000Y480000D02*
D03*
X2220000Y3360000D02*
D03*
X2160000Y3240000D02*
D03*
X2220000Y3120000D02*
D03*
X2160000Y3000000D02*
D03*
X2220000Y2880000D02*
D03*
X2160000Y2760000D02*
D03*
X2220000Y2640000D02*
D03*
X2160000Y2520000D02*
D03*
Y1560000D02*
D03*
X2220000Y1440000D02*
D03*
X2160000Y1320000D02*
D03*
X2220000Y1200000D02*
D03*
X2160000Y1080000D02*
D03*
X2220000Y960000D02*
D03*
X2160000Y840000D02*
D03*
X2220000Y720000D02*
D03*
X2160000Y600000D02*
D03*
X2100000Y3840000D02*
D03*
X2040000Y3720000D02*
D03*
X2100000Y1680000D02*
D03*
X2040000Y1560000D02*
D03*
X2100000Y1440000D02*
D03*
X2040000Y1320000D02*
D03*
X2100000Y1200000D02*
D03*
X2040000Y1080000D02*
D03*
X2100000Y960000D02*
D03*
X2040000Y840000D02*
D03*
X2100000Y720000D02*
D03*
X2040000Y600000D02*
D03*
Y120000D02*
D03*
X1980000Y3840000D02*
D03*
X1920000Y3240000D02*
D03*
Y3000000D02*
D03*
Y2760000D02*
D03*
Y2520000D02*
D03*
Y360000D02*
D03*
Y120000D02*
D03*
X1860000Y3360000D02*
D03*
X1800000Y3240000D02*
D03*
X1860000Y3120000D02*
D03*
X1800000Y3000000D02*
D03*
X1860000Y2880000D02*
D03*
X1800000Y2760000D02*
D03*
X1860000Y2640000D02*
D03*
X1800000Y2520000D02*
D03*
Y1560000D02*
D03*
Y1320000D02*
D03*
Y1080000D02*
D03*
Y840000D02*
D03*
Y600000D02*
D03*
Y120000D02*
D03*
X1740000Y3360000D02*
D03*
X1680000Y3240000D02*
D03*
X1740000Y3120000D02*
D03*
X1680000Y3000000D02*
D03*
X1740000Y2880000D02*
D03*
X1680000Y2760000D02*
D03*
X1740000Y2640000D02*
D03*
Y1440000D02*
D03*
X1680000Y1320000D02*
D03*
X1740000Y1200000D02*
D03*
X1680000Y1080000D02*
D03*
X1740000Y960000D02*
D03*
X1680000Y840000D02*
D03*
X1740000Y720000D02*
D03*
X1680000Y600000D02*
D03*
X1620000Y3840000D02*
D03*
X1560000Y3720000D02*
D03*
Y3480000D02*
D03*
X1620000Y3360000D02*
D03*
X1560000Y3240000D02*
D03*
X1620000Y3120000D02*
D03*
X1560000Y3000000D02*
D03*
X1620000Y2880000D02*
D03*
X1560000Y2760000D02*
D03*
X1620000Y1440000D02*
D03*
X1560000Y1320000D02*
D03*
X1620000Y1200000D02*
D03*
X1560000Y1080000D02*
D03*
X1620000Y960000D02*
D03*
X1560000Y840000D02*
D03*
X1620000Y720000D02*
D03*
X1560000Y600000D02*
D03*
Y120000D02*
D03*
X1500000Y3840000D02*
D03*
X1440000Y3720000D02*
D03*
X1500000Y3600000D02*
D03*
X1440000Y3480000D02*
D03*
X1500000Y3360000D02*
D03*
X1440000Y3240000D02*
D03*
X1500000Y3120000D02*
D03*
X1440000Y3000000D02*
D03*
X1500000Y2880000D02*
D03*
X1440000Y2520000D02*
D03*
Y2280000D02*
D03*
X1500000Y2160000D02*
D03*
X1440000Y1800000D02*
D03*
X1500000Y1440000D02*
D03*
X1440000Y1320000D02*
D03*
X1500000Y1200000D02*
D03*
X1440000Y1080000D02*
D03*
X1500000Y960000D02*
D03*
X1440000Y840000D02*
D03*
X1500000Y720000D02*
D03*
X1440000Y600000D02*
D03*
X1500000Y480000D02*
D03*
X1440000Y120000D02*
D03*
X1380000Y3840000D02*
D03*
X1320000Y3720000D02*
D03*
X1380000Y3600000D02*
D03*
Y3360000D02*
D03*
Y3120000D02*
D03*
X1320000Y3000000D02*
D03*
Y2520000D02*
D03*
X1380000Y2400000D02*
D03*
X1320000Y2280000D02*
D03*
X1380000Y2160000D02*
D03*
X1320000Y1800000D02*
D03*
X1380000Y1680000D02*
D03*
X1320000Y1320000D02*
D03*
X1380000Y1200000D02*
D03*
X1320000Y1080000D02*
D03*
X1380000Y960000D02*
D03*
X1320000Y840000D02*
D03*
X1380000Y720000D02*
D03*
X1320000Y600000D02*
D03*
X1380000Y480000D02*
D03*
X1320000Y360000D02*
D03*
X1380000Y240000D02*
D03*
X1320000Y120000D02*
D03*
X1260000Y3840000D02*
D03*
X1200000Y3720000D02*
D03*
X1260000Y3600000D02*
D03*
Y3120000D02*
D03*
X1200000Y2760000D02*
D03*
X1260000Y2640000D02*
D03*
X1200000Y2520000D02*
D03*
X1260000Y2400000D02*
D03*
X1200000Y2280000D02*
D03*
X1260000Y2160000D02*
D03*
X1200000Y1800000D02*
D03*
X1260000Y1680000D02*
D03*
X1200000Y1560000D02*
D03*
X1260000Y1200000D02*
D03*
X1200000Y1080000D02*
D03*
X1260000Y960000D02*
D03*
X1200000Y840000D02*
D03*
X1260000Y720000D02*
D03*
X1200000Y600000D02*
D03*
X1260000Y480000D02*
D03*
X1200000Y360000D02*
D03*
X1260000Y240000D02*
D03*
X1200000Y120000D02*
D03*
X1140000Y3840000D02*
D03*
X1080000Y3720000D02*
D03*
X1140000Y3600000D02*
D03*
X1080000Y2760000D02*
D03*
X1140000Y2640000D02*
D03*
X1080000Y2520000D02*
D03*
X1140000Y2400000D02*
D03*
X1080000Y2280000D02*
D03*
X1140000Y2160000D02*
D03*
X1080000Y1800000D02*
D03*
X1140000Y1680000D02*
D03*
X1080000Y1560000D02*
D03*
X1140000Y1440000D02*
D03*
X1080000Y1080000D02*
D03*
X1140000Y960000D02*
D03*
X1080000Y840000D02*
D03*
X1140000Y720000D02*
D03*
X1080000Y600000D02*
D03*
X1140000Y480000D02*
D03*
X1080000Y360000D02*
D03*
X1140000Y240000D02*
D03*
X1020000Y3840000D02*
D03*
X960000Y3720000D02*
D03*
X1020000Y3600000D02*
D03*
Y3120000D02*
D03*
Y2880000D02*
D03*
X960000Y2760000D02*
D03*
X1020000Y2640000D02*
D03*
X960000Y2520000D02*
D03*
X1020000Y2400000D02*
D03*
X960000Y2280000D02*
D03*
X1020000Y2160000D02*
D03*
X960000Y1800000D02*
D03*
X1020000Y1680000D02*
D03*
X960000Y1560000D02*
D03*
X1020000Y1440000D02*
D03*
X960000Y1320000D02*
D03*
X1020000Y960000D02*
D03*
X960000Y840000D02*
D03*
X1020000Y720000D02*
D03*
X960000Y600000D02*
D03*
X1020000Y480000D02*
D03*
X960000Y360000D02*
D03*
X1020000Y240000D02*
D03*
X900000Y3840000D02*
D03*
X840000Y3720000D02*
D03*
X900000Y3600000D02*
D03*
X840000Y3480000D02*
D03*
X900000Y3360000D02*
D03*
X840000Y3240000D02*
D03*
Y2760000D02*
D03*
X900000Y2640000D02*
D03*
X840000Y2520000D02*
D03*
X900000Y2400000D02*
D03*
X840000Y2280000D02*
D03*
X900000Y2160000D02*
D03*
X840000Y1800000D02*
D03*
X900000Y1680000D02*
D03*
X840000Y1560000D02*
D03*
X900000Y1440000D02*
D03*
X840000Y1320000D02*
D03*
X900000Y1200000D02*
D03*
X840000Y840000D02*
D03*
X900000Y720000D02*
D03*
X840000Y600000D02*
D03*
X900000Y480000D02*
D03*
X840000Y360000D02*
D03*
X780000Y3840000D02*
D03*
X720000Y3720000D02*
D03*
X780000Y3600000D02*
D03*
X720000Y3480000D02*
D03*
X780000Y3360000D02*
D03*
X720000Y3240000D02*
D03*
Y2760000D02*
D03*
X780000Y2640000D02*
D03*
X720000Y2520000D02*
D03*
X780000Y2400000D02*
D03*
X720000Y2280000D02*
D03*
X780000Y2160000D02*
D03*
X720000Y1800000D02*
D03*
X780000Y1680000D02*
D03*
X720000Y1560000D02*
D03*
X780000Y1440000D02*
D03*
X720000Y1320000D02*
D03*
X780000Y1200000D02*
D03*
X720000Y1080000D02*
D03*
X780000Y480000D02*
D03*
X720000Y360000D02*
D03*
X660000Y3840000D02*
D03*
X600000Y3720000D02*
D03*
X660000Y3600000D02*
D03*
X600000Y3480000D02*
D03*
X660000Y3360000D02*
D03*
X600000Y3240000D02*
D03*
Y3000000D02*
D03*
Y2760000D02*
D03*
X660000Y2640000D02*
D03*
X600000Y2520000D02*
D03*
X660000Y2400000D02*
D03*
X600000Y2280000D02*
D03*
X660000Y2160000D02*
D03*
X600000Y1800000D02*
D03*
X660000Y1680000D02*
D03*
X600000Y1560000D02*
D03*
X660000Y1440000D02*
D03*
X600000Y1320000D02*
D03*
X660000Y1200000D02*
D03*
X600000Y1080000D02*
D03*
X660000Y480000D02*
D03*
X540000Y3840000D02*
D03*
X480000Y3720000D02*
D03*
X540000Y3600000D02*
D03*
X480000Y3480000D02*
D03*
X540000Y3360000D02*
D03*
X480000Y3240000D02*
D03*
X540000Y3120000D02*
D03*
X480000Y3000000D02*
D03*
X540000Y2880000D02*
D03*
X480000Y2760000D02*
D03*
X540000Y2640000D02*
D03*
X480000Y2520000D02*
D03*
X540000Y2400000D02*
D03*
X480000Y1560000D02*
D03*
X540000Y1440000D02*
D03*
X480000Y1320000D02*
D03*
X540000Y1200000D02*
D03*
X480000Y1080000D02*
D03*
X540000Y960000D02*
D03*
X480000Y840000D02*
D03*
Y600000D02*
D03*
X540000Y480000D02*
D03*
X480000Y360000D02*
D03*
X420000Y3840000D02*
D03*
X360000Y3720000D02*
D03*
X420000Y3600000D02*
D03*
X360000Y3480000D02*
D03*
X420000Y3360000D02*
D03*
X360000Y3240000D02*
D03*
X420000Y3120000D02*
D03*
X360000Y3000000D02*
D03*
X420000Y2880000D02*
D03*
X360000Y2760000D02*
D03*
X420000Y2640000D02*
D03*
X360000Y2520000D02*
D03*
X420000Y2400000D02*
D03*
Y1440000D02*
D03*
X360000Y1320000D02*
D03*
X420000Y1200000D02*
D03*
X360000Y1080000D02*
D03*
X420000Y960000D02*
D03*
X360000Y840000D02*
D03*
X420000Y720000D02*
D03*
X360000Y600000D02*
D03*
X420000Y480000D02*
D03*
X360000Y360000D02*
D03*
X420000Y240000D02*
D03*
X360000Y120000D02*
D03*
X300000Y3600000D02*
D03*
X240000Y3480000D02*
D03*
X300000Y3360000D02*
D03*
X240000Y3240000D02*
D03*
X300000Y3120000D02*
D03*
X240000Y3000000D02*
D03*
X300000Y2880000D02*
D03*
X240000Y2760000D02*
D03*
X300000Y2640000D02*
D03*
X240000Y2520000D02*
D03*
X300000Y1440000D02*
D03*
X240000Y1320000D02*
D03*
X300000Y1200000D02*
D03*
X240000Y1080000D02*
D03*
X300000Y960000D02*
D03*
X240000Y840000D02*
D03*
X300000Y720000D02*
D03*
X240000Y600000D02*
D03*
X300000Y480000D02*
D03*
X240000Y360000D02*
D03*
X120000Y3480000D02*
D03*
X180000Y3360000D02*
D03*
X120000Y3240000D02*
D03*
X180000Y3120000D02*
D03*
X120000Y3000000D02*
D03*
X180000Y2880000D02*
D03*
X120000Y2760000D02*
D03*
X180000Y2640000D02*
D03*
X120000Y2520000D02*
D03*
X180000Y2400000D02*
D03*
X120000Y2040000D02*
D03*
X180000Y1920000D02*
D03*
X120000Y1560000D02*
D03*
X180000Y1440000D02*
D03*
X120000Y1320000D02*
D03*
X180000Y1200000D02*
D03*
X120000Y1080000D02*
D03*
X180000Y960000D02*
D03*
X120000Y840000D02*
D03*
X180000Y720000D02*
D03*
X120000Y600000D02*
D03*
X180000Y480000D02*
D03*
X120000Y360000D02*
D03*
M02*
