M48
;Layer_Color=9474304
;FILE_FORMAT=2:5
INCH,TZ
;TYPE=PLATED
T01F00S00C0.00984
T02F00S00C0.01181
T03F00S00C0.03543
T04F00S00C0.03937
T05F00S00C0.05906
T06F00S00C0.08268
T07F00S00C0.12598
%
T01
X155909Y149148
X154219Y150838
X152528Y152528
X150838Y154219
X149148Y155909
X190368Y155321
Y152353
Y149384
Y146416
Y143447
Y140479
Y137510
Y134542
Y131573
Y128605
Y125636
Y122668
Y119699
Y116731
Y113762
Y110794
Y107825
Y104857
Y101888
Y98920
Y95951
Y92983
Y90014
Y87046
Y84077
Y81109
Y78140
Y75172
Y72203
Y69235
Y66266
Y63298
Y60329
Y57361
X189612Y54624
X187513Y52525
X185414Y50425
X183315Y48327
X181422Y47071
X179529Y45815
X177430Y43716
X176527Y41539
X174918Y39930
X172819Y37831
X167913Y38180
X162294Y35852
X159995Y30177
X162294Y24613
X167913Y22285
X173533Y24613
X175861Y30232
X174518Y34034
X176617Y36132
X178716Y38232
X181452Y39693
X183551Y41793
X185013Y44529
X187112Y46628
X189211Y48727
X191310Y50826
X192913Y52418
X194517Y50826
X196616Y48727
X198715Y46628
X200814Y44529
X202276Y41793
X204375Y39693
X207111Y38232
X209210Y36132
X211309Y34034
X209911Y30177
X212239Y24558
X217913Y22259
X223478Y24558
X225806Y30177
X223478Y35797
X217858Y38124
X213008Y37831
X210909Y39930
X209300Y41539
X208397Y43716
X206298Y45815
X204405Y47071
X202512Y48327
X200413Y50425
X198314Y52525
X196215Y54624
X195458Y57361
Y60329
Y63298
Y66266
Y69235
Y72203
Y75172
Y78140
Y81109
Y84077
Y87046
Y90014
Y92983
Y95951
Y98920
Y101888
Y104857
Y107825
Y110794
Y113762
Y116731
Y119699
Y122668
Y125636
Y128605
Y131573
Y134542
Y137510
Y140479
Y143447
Y146416
Y149384
Y152353
Y155321
X237792Y149148
X239482Y150838
X241172Y152528
X242863Y154219
X244553Y155909
X281420Y134285
X284295
X287170
X290045
X292920
X295795
X298669
X301544
X304419
X307294
Y131410
X310169
Y128535
Y125660
Y122785
X307294
Y125660
Y128535
X304419
X301544
X298669
Y131410
X301544
X304419
Y125660
X301544
X298669
Y122785
X301544
X304419
X295795
Y125660
Y128535
Y131410
X292920
X290045
Y128535
Y125660
Y122785
X287170
X284295
X281420
Y125660
X284295
X287170
Y128535
X284295
X281420
Y131410
X284295
X287170
X292920Y128535
Y125660
Y122785
X310169Y134285
X299415Y71789
X299417Y69439
X299415Y67089
X295579
X295580Y69439
X295579Y71789
X291741
X291743Y69439
X291741Y67089
X289752Y62037
X288734Y78964
X300118Y40655
X309504Y40511
X318071Y37099
X328153
X313043Y122785
Y125660
Y128535
Y131410
Y134285
X353839Y285094
X353807Y288359
X350641
X356972
X301892Y204500
X290916
X279940
X268964
X257987
X247011
X235117Y196993
X221842Y191517
X215543Y191550
X211391Y191648
X211353Y189534
Y187394
X205411Y186242
X202600Y191101
X199725
X196850
Y193976
X193976
Y191101
X191101
Y193976
Y196850
Y199725
Y202600
X193976
Y199725
X196850
X199725
X202600
Y202600
X199725
X196850
Y196850
X199725
Y193976
X202600
Y196850
X193976
X184241Y203209
X186100Y205486
X181837Y206257
X179957Y208323
X177775Y206294
X174738Y206277
X172393Y201884
X169355Y201884
X167195Y199395
Y194305
X168450Y187395
Y181458
X174388
Y175521
X180324
Y169584
Y163647
X174388
X169568Y162807
X167878Y164497
X166187Y166187
X164497Y167878
X162807Y169568
X174388Y169584
X168450Y175521
X174388Y187395
X180324
Y193332
X174388
X177131Y200716
X164782Y205183
X159799Y209958
X162807Y215893
X167735
X175219Y217341
X182514Y219695
X187891Y221284
X186860Y224367
X184761Y226466
X182662Y228565
X180563Y230664
X178464Y232763
X176365Y234862
X174266Y236961
X172167Y239060
X170068Y241159
X167969Y243258
X165870Y245357
X163771Y247456
X161672Y249555
X159573Y251654
X157474Y253753
X158974Y259451
X161073Y257352
X163172Y255253
X165271Y253154
X167370Y251055
X169469Y248956
X171568Y246857
X173667Y244758
X175766Y242659
X177865Y240560
X179964Y238461
X182063Y236362
X184162Y234263
X186261Y232164
X188360Y230065
X190459Y227966
X193547Y226940
X196064Y222543
X198734Y223840
X200211Y226505
Y229474
Y232442
Y235411
Y238380
Y241348
Y244317
Y247285
Y250254
Y253222
Y256190
Y259159
Y262127
Y265096
Y268064
Y271033
Y274002
Y276970
Y279939
Y282907
Y285876
Y288844
Y291812
Y294781
Y297749
Y300718
Y303686
Y306655
Y309624
X205301
Y306655
Y303686
Y300718
Y297749
Y294781
Y291812
Y288844
Y285876
Y282907
Y279939
Y276970
Y274002
Y271033
Y268064
Y265096
Y262127
Y259159
Y256190
Y253222
Y250254
Y247285
Y244317
Y241348
Y238380
Y235411
Y232442
Y229474
Y226505
X206750Y223840
X205602Y217751
Y214782
Y211814
X199910
Y214782
Y217751
X192297Y218089
X193650Y214570
X190681Y211079
X188445
X186713Y215497
X178316Y223893
X171518
X174266Y228565
X169568Y230894
X167878Y229204
X166187Y227513
X164497Y225823
X162807Y224133
X158290Y199395
Y194305
X156450Y187395
X188474Y186190
X189961Y182048
X187658Y177339
X185543Y172894
X190368Y167195
Y164227
Y161258
Y158290
X195458
Y161258
Y164227
Y167195
X200784Y171894
X198255Y176589
X197189Y178466
X196408Y180402
X198417Y182048
X215644Y180875
Y174938
X221581
X227518
Y180875
X221581
X225185Y188174
Y207482
X221842Y204139
X221842Y210825
Y216302
X219676Y222746
X215478Y226505
Y218548
X211280Y214350
X211378Y209323
X211340Y207208
Y205068
X208752Y206431
X215315Y199803
X233380Y214414
X230894Y224133
X229204Y225823
X227513Y227513
X225823Y229204
X224133Y230894
X215735Y239376
X237792Y244553
X239482Y242863
X241172Y241172
X242863Y239482
X244553Y237792
X250080Y231055
X241995Y223089
X230894Y169568
X229204Y167878
X227513Y166187
X225823Y164497
X224133Y162807
X190242Y241348
X155909Y244553
X154219Y242863
X152528Y241172
X150838Y239482
X149148Y237792
X151033Y253350
X154425Y253132
X154869Y259521
X154776Y263650
X152676Y265749
X150577Y267848
X148478Y269947
X146379Y272046
X144280Y274145
X142181Y276244
X140082Y278343
X137983Y280442
X135884Y282541
X133785Y284640
X131686Y286739
X129587Y288838
X127488Y290937
X125389Y293036
X123290Y295135
X121191Y297234
X119092Y299333
X117692Y301804
Y304772
Y307741
Y310709
X113805Y309225
Y306257
Y303288
X113797Y301029
X111538Y301021
X108569
X105601
X102632
X99664Y301922
X96695
X93727Y301021
X90758
X87790
X89274Y297134
X92242
X94517
X96695Y296234
X99664
X101890Y296684
X104116Y297134
X107085Y297134
X110054Y297134
X113022
X115493Y295734
X117592Y293635
X119691Y291536
X121790Y289437
X123889Y287338
X125988Y285239
X128087Y283140
X130186Y281041
X132285Y278942
X134384Y276843
X136483Y274744
X138582Y272645
X140681Y270546
X142780Y268446
X144879Y266348
X146978Y264248
X149077Y262149
X148456Y259101
X148607Y255776
X149384Y199395
X152353
X155321
Y194305
X152353
X149384
X146416
X143447
X140479
X137510
X134542
X131573
X128605
X125636
X122668
X119699
X116731
X113762
X110794
X107825
X104857
X101888
X98920
X95951
X92983
X90014
X87046
X84077
X81109
X78140
X75172
X72203
X69235
X66266
X63298
X60329
X57361
X54624Y193549
X52525Y191449
X50425Y189350
X48327Y187251
X47071Y185359
X45815Y183466
X43716Y181367
X41539Y180464
X39930Y178855
X37831Y176756
X38124Y171906
X35797Y166286
X30177Y163958
X24558Y166286
X22259Y171850
X24558Y177525
X30177Y179853
X34034Y178455
X36132Y180554
X38232Y182653
X39693Y185389
X41793Y187488
X44529Y188950
X46628Y191049
X48727Y193148
X50826Y195247
X52418Y196850
X50826Y198453
X48727Y200553
X46628Y202652
X44529Y204751
X41793Y206213
X39693Y208312
X38232Y211048
X36132Y213147
X34034Y215246
X30232Y213903
X24613Y216231
X22285Y221850
X24613Y227470
X30177Y229769
X35852Y227470
X38180Y221850
X37831Y216945
X39930Y214845
X41539Y213237
X43716Y212334
X45815Y210235
X47071Y208342
X48327Y206449
X50425Y204350
X52525Y202251
X54624Y200152
X57361Y199395
X60329
X63298
X66266
X69235
X72203
X75172
X78140
X81109
X84077
X87046
X90014
X92983
X95951
X98920
X101888
X104857
X107825
X110794
X113762
X116731
X119699
X122668
X125636
X128605
X131573
X134542
X137510
X140479
X143447
X146416
X144450Y187395
X150451Y175395
X113805Y312194
X86013Y304697
X80393Y307025
X74755Y304638
X72445Y299078
X74773Y293458
X80393Y291130
X86013Y293458
X112904Y315162
Y318131
X113805Y321099
Y324068
Y327036
X117692Y325552
Y322583
Y320309
X118593Y318131
Y315162
X118142Y312936
X121368Y328814
X123696Y334433
X121308Y340071
X115748Y342380
X110128Y340053
X107801Y334433
X110128Y328814
X172191Y357904
X177811Y355576
X182662Y355870
X184761Y353770
X186369Y352162
X187272Y349985
X189371Y347886
X191264Y346630
X193157Y345374
X195256Y343275
X197355Y341176
X199454Y339077
X200211Y336340
Y333371
Y330403
Y327434
Y324466
Y321498
Y318529
Y315561
Y312592
X205301
Y315561
Y318529
Y321498
Y324466
Y327434
Y330403
Y333371
Y336340
X206058Y339077
X208157Y341176
X210256Y343275
X212355Y345374
X214248Y346630
X216141Y347886
X218240Y349985
X219143Y352162
X220751Y353770
X222850Y355870
X227756Y355521
X233376Y357849
X235675Y363524
X233376Y369088
X227756Y371416
X222136Y369088
X219809Y363468
X221151Y359667
X219052Y357568
X216953Y355469
X214217Y354007
X212118Y351908
X210656Y349172
X208557Y347073
X206458Y344974
X204359Y342875
X202756Y341283
X201153Y342875
X199054Y344974
X196955Y347073
X194856Y349172
X193394Y351908
X191295Y354007
X188558Y355469
X186460Y357568
X184360Y359667
X185758Y363524
X183431Y369143
X177756Y371442
X172191Y369143
X169864Y363524
X320756Y345437
Y329024
T02
X36000Y12000
X42000Y24000
X48000Y36000
X36000
X24000
X12000
X18000Y48000
X30000
X42000
X54000
X66000
X78000
X90000
X102000
X114000
X126000
X138000
X150000
X156000Y60000
X144000
X132000
X120000
X108000
X96000
X84000
X90000Y72000
X102000
X114000
X126000
X138000
X150000
X156000Y84000
X144000
X132000
X120000
X108000
X96000
X84000
X102000Y96000
X114000
X126000
X138000
X150000
X156000Y108000
X144000
X132000
X120000
X108000
X126000Y120000
X138000
X150000
X156000Y132000
X144000
X132000
X150000Y144000
X114000
X102000
X90000
X78000
X66000
X54000
X42000
X30000
X18000
X24000Y132000
X36000
X48000
X60000
X72000
X84000
X96000
X90000Y120000
X78000
X66000
X54000
X42000
X30000
X18000
X24000Y108000
X36000
X48000
X60000
X72000
X54000Y96000
X42000
X30000
X18000
X24000Y84000
X36000
X48000
X42000Y72000
X30000
X18000
X24000Y60000
X36000
X48000
X12000
Y84000
Y108000
Y132000
Y156000
X48000
X60000
X72000
X84000
X96000
X108000
X120000
Y36000
X132000
X138000Y24000
X126000
X114000
X102000
X108000Y36000
X96000
X84000
X72000
X120000Y12000
X132000
X144000
X156000
X180000
X192000
X204000
X240000
X252000Y36000
X264000
X276000
X270000Y48000
X258000
X246000
X234000
X240000Y60000
X252000
X264000
X276000
X270000Y72000
X258000
X246000
X234000
X222000
X210000
X216000Y84000
X228000
X240000
X252000
X258000Y96000
X270000
X246000
X234000
X222000
X210000
X216000Y108000
X228000
X240000
X234000Y120000
X222000
X210000
X216000Y132000
X228000
X240000
X246000Y144000
X258000
X270000
X276000Y156000
X288000
X300000
X312000
X264000
X252000
X216000
X204000
X210000Y144000
X222000
X204000Y132000
Y108000
Y84000
Y60000
X216000
X228000
X180000
X168000
X174000Y72000
X162000
X168000Y84000
X180000
X174000Y96000
X162000
X168000Y108000
X180000
X174000Y120000
X162000
X168000Y132000
X180000
X174000Y144000
X162000
X180000Y156000
X192000Y36000
X336000
X348000
X360000
X372000
X384000
X378000Y48000
X366000
X354000
X342000
X348000Y60000
X360000
X372000
X384000
X378000Y72000
X384000Y84000
X378000Y96000
X384000Y108000
X378000Y120000
X366000
X384000Y132000
X378000Y144000
X384000Y156000
X372000
X360000
X348000
X336000
X324000
X330000Y96000
X342000
X348000Y84000
X336000
X325231Y79693
X342000Y72000
X354000
X324000Y12000
X330000Y168000
X342000
X354000
X366000
X378000
X384000Y180000
X372000
X378000Y192000
X384000Y204000
X372000
X360000
X348000
X336000
X324000
Y180000
X318000Y168000
X342000Y216000
X354000
X366000
X378000
X384000Y228000
X372000
X360000
X378000Y240000
X384000Y252000
X372000
X378000Y264000
X384000Y276000
X372000
X378000Y288000
X384000Y300000
X372000
X360000
X348000
X336000
X324000
X330000Y312000
X342000
X354000
X366000
X378000
X318000
Y288000
X330000
X336000Y276000
X324000
X330000Y264000
X318000
X324000Y252000
X330000Y240000
X318000
X306000
X294000
X282000
X288000Y228000
X300000
X312000
X306000Y216000
X294000
X282000
X270000
X258000
Y240000
X264000Y252000
X252000
X240000
X228000
X216000
X222000Y264000
X234000
X246000
X258000
X270000
X282000
X288000Y276000
X276000
X264000
X252000
X240000
X228000
X216000
X222000Y288000
X234000
X246000
X258000
X270000
X282000
X294000
X300000Y300000
X288000
X276000
X264000
X252000
X240000
X228000
X216000
X222000Y312000
X234000
X246000
X258000
X270000
X282000
X294000
X306000Y264000
X312000Y252000
X300000
X276000Y228000
Y180000
X288000
X300000
X312000
X306000Y168000
X294000
X282000
X270000
X258000
X246000
X264000Y180000
X210000Y168000
X192000Y252000
X180000
X186000Y264000
X174000
X180000Y276000
X192000
X186000Y288000
X174000
X162000
X168000Y300000
X180000
X192000
X186000Y312000
X174000
X162000
X168000Y276000
X156000
X150000Y288000
X156000Y300000
X144000
X132000
X138000Y312000
X150000
X126000
X102000
Y288000
X108000Y276000
X120000
X126000Y264000
X114000
X102000
X90000
X78000
X66000
X54000
X42000
X30000
X18000
X24000Y276000
X36000
X48000
X60000
X72000
X84000
X96000
Y252000
X108000
X120000
X132000
X144000
X138000Y240000
X126000
X114000
X102000
X90000
X78000
X66000
X54000
X42000
X48000Y252000
X60000
X72000
X84000
Y228000
X96000
X108000
X120000
X132000
X144000
X150000Y216000
X138000
X126000
X114000
X102000
X90000
X78000
X66000
X72000Y228000
X60000
Y180000
X72000
X84000
X96000
X108000
X120000
X132000
X144000
X138000Y168000
X126000
X114000
X102000
X90000
X78000
X66000
X37642Y197349
X18000Y192000
X12000Y204000
X18000Y240000
X24000Y252000
X36000
X12000
Y276000
X18000Y288000
X30000
X42000
X54000
X60000Y300000
X48000
X36000
X24000
X12000
X18000Y312000
X30000
X42000
X54000
X60000Y324000
X72000
X84000
X90000Y336000
X78000
X66000
X54000
X42000
X30000
X18000
X24000Y348000
X36000
X48000
X60000
X72000
X84000
X90000Y360000
X102000
X114000
X126000
X138000
X150000
X156000Y372000
X144000
X132000
X120000
X108000
X96000
X84000
X72000
X60000
X48000
X36000
X42000Y384000
X54000
X66000
X78000
X90000
X102000
X114000
X126000
X138000
X150000
X156000Y348000
X144000
X150000Y336000
X138000
X144000Y324000
X156000
X48000
X36000
X24000
X12000
Y348000
X30000Y360000
X42000
X54000
X66000
X78000
X162000Y384000
X198000
X210000
X204000Y372000
X203254Y356059
X186000Y336000
X174000
X162000
X168000Y324000
X180000
X192000
X216000
X228000
X240000
X252000
X264000
X276000
X288000
X300000
X294000Y336000
X282000
X270000
X258000
X246000
X234000
X222000
X240000Y348000
X252000
X264000
X276000
X288000
X300000
X312000
X306000Y360000
X294000
X282000
X270000
X258000
X264000Y372000
X276000
X288000
X300000
X312000
X306000Y384000
X294000
X282000
X270000
X258000
X246000
X252000Y372000
X324000
X336000
X348000
X354000Y384000
X342000
X330000
X318000
Y360000
X330000
X342000
X354000
X366000
X372000Y348000
X384000
X378000Y336000
X366000
X372000Y324000
X384000
X336000
Y348000
T03
X344685Y119550
Y129550
T04
X59909Y66362
X69909
X69901Y86724
X59900
X272290Y85650
X282290
X311112Y51747
X321112
X331112
X338051Y191815
X348051
X358051
X368051
X363233Y239173
X353233
X343233
X353136Y322287
Y332287
Y342287
T05
X153075Y30177
X167913Y15339
X182752Y30177
X203075
X232751
X217913Y45015
Y15339
X167913Y45015
X45015Y171850
X30177Y186688
Y207012
X45015Y221850
X15339
X30177Y236688
Y157012
X15339Y171850
X69901Y288586
X90885
Y309570
X69901
X105256Y323941
X126240
Y344925
X105256
X162918Y363524
X177756Y348686
Y378362
X192594Y363524
X212918
X227756Y348686
X242594Y363524
X227756Y378362
T06
X364685Y99550
Y139550
T07
X19685Y19685
X374016
X19685Y374016
X374016
M30
